M48
; DRILL file {KiCad 8.0.1-8.0.1-1~ubuntu22.04.1} date 2024-07-15T21:43:55-0400
; FORMAT={-:-/ absolute / metric / decimal}
; #@! TF.CreationDate,2024-07-15T21:43:55-04:00
; #@! TF.GenerationSoftware,Kicad,Pcbnew,8.0.1-8.0.1-1~ubuntu22.04.1
; #@! TF.FileFunction,Plated,1,6,PTH
FMAT,2
METRIC
; #@! TA.AperFunction,Plated,PTH,ComponentDrill
T1C0.700
; #@! TA.AperFunction,Plated,PTH,ComponentDrill
T2C0.800
; #@! TA.AperFunction,Plated,PTH,ComponentDrill
T3C0.900
; #@! TA.AperFunction,Plated,PTH,ComponentDrill
T4C1.000
%
G90
G05
T1
X140.335Y-42.545
X140.335Y-47.625
X140.335Y-50.165
X140.335Y-55.245
T2
X128.534Y-43.19
X128.534Y-45.73
X128.534Y-48.27
X128.534Y-50.81
X136.154Y-43.19
X136.154Y-45.73
X136.154Y-48.27
X136.154Y-50.81
X139.085Y-57.785
X139.085Y-60.96
X141.585Y-57.785
X141.585Y-60.96
T3
X128.524Y-54.61
X136.144Y-54.61
T4
X129.54Y-58.42
X129.54Y-60.96
X132.08Y-58.42
X132.08Y-60.96
X134.62Y-58.42
X134.62Y-60.96
M30
