G04 #@! TF.GenerationSoftware,KiCad,Pcbnew,8.0.1-8.0.1-1~ubuntu22.04.1*
G04 #@! TF.CreationDate,2024-07-15T21:43:52-04:00*
G04 #@! TF.ProjectId,Clock_Addon,436c6f63-6b5f-4416-9464-6f6e2e6b6963,rev?*
G04 #@! TF.SameCoordinates,Original*
G04 #@! TF.FileFunction,Legend,Top*
G04 #@! TF.FilePolarity,Positive*
%FSLAX46Y46*%
G04 Gerber Fmt 4.6, Leading zero omitted, Abs format (unit mm)*
G04 Created by KiCad (PCBNEW 8.0.1-8.0.1-1~ubuntu22.04.1) date 2024-07-15 21:43:52*
%MOMM*%
%LPD*%
G01*
G04 APERTURE LIST*
%ADD10C,0.150000*%
%ADD11C,0.120000*%
%ADD12C,1.400000*%
%ADD13O,1.400000X1.400000*%
%ADD14R,1.800000X1.800000*%
%ADD15O,1.800000X1.800000*%
%ADD16C,1.600000*%
%ADD17O,1.600000X1.600000*%
%ADD18R,1.600000X1.600000*%
%ADD19R,1.700000X1.700000*%
%ADD20O,1.700000X1.700000*%
G04 APERTURE END LIST*
D10*
X142073333Y-45539819D02*
X141740000Y-45063628D01*
X141501905Y-45539819D02*
X141501905Y-44539819D01*
X141501905Y-44539819D02*
X141882857Y-44539819D01*
X141882857Y-44539819D02*
X141978095Y-44587438D01*
X141978095Y-44587438D02*
X142025714Y-44635057D01*
X142025714Y-44635057D02*
X142073333Y-44730295D01*
X142073333Y-44730295D02*
X142073333Y-44873152D01*
X142073333Y-44873152D02*
X142025714Y-44968390D01*
X142025714Y-44968390D02*
X141978095Y-45016009D01*
X141978095Y-45016009D02*
X141882857Y-45063628D01*
X141882857Y-45063628D02*
X141501905Y-45063628D01*
X142454286Y-44635057D02*
X142501905Y-44587438D01*
X142501905Y-44587438D02*
X142597143Y-44539819D01*
X142597143Y-44539819D02*
X142835238Y-44539819D01*
X142835238Y-44539819D02*
X142930476Y-44587438D01*
X142930476Y-44587438D02*
X142978095Y-44635057D01*
X142978095Y-44635057D02*
X143025714Y-44730295D01*
X143025714Y-44730295D02*
X143025714Y-44825533D01*
X143025714Y-44825533D02*
X142978095Y-44968390D01*
X142978095Y-44968390D02*
X142406667Y-45539819D01*
X142406667Y-45539819D02*
X143025714Y-45539819D01*
X142073333Y-54334580D02*
X142025714Y-54382200D01*
X142025714Y-54382200D02*
X141882857Y-54429819D01*
X141882857Y-54429819D02*
X141787619Y-54429819D01*
X141787619Y-54429819D02*
X141644762Y-54382200D01*
X141644762Y-54382200D02*
X141549524Y-54286961D01*
X141549524Y-54286961D02*
X141501905Y-54191723D01*
X141501905Y-54191723D02*
X141454286Y-54001247D01*
X141454286Y-54001247D02*
X141454286Y-53858390D01*
X141454286Y-53858390D02*
X141501905Y-53667914D01*
X141501905Y-53667914D02*
X141549524Y-53572676D01*
X141549524Y-53572676D02*
X141644762Y-53477438D01*
X141644762Y-53477438D02*
X141787619Y-53429819D01*
X141787619Y-53429819D02*
X141882857Y-53429819D01*
X141882857Y-53429819D02*
X142025714Y-53477438D01*
X142025714Y-53477438D02*
X142073333Y-53525057D01*
X143025714Y-54429819D02*
X142454286Y-54429819D01*
X142740000Y-54429819D02*
X142740000Y-53429819D01*
X142740000Y-53429819D02*
X142644762Y-53572676D01*
X142644762Y-53572676D02*
X142549524Y-53667914D01*
X142549524Y-53667914D02*
X142454286Y-53715533D01*
X131572095Y-46444819D02*
X131572095Y-47254342D01*
X131572095Y-47254342D02*
X131619714Y-47349580D01*
X131619714Y-47349580D02*
X131667333Y-47397200D01*
X131667333Y-47397200D02*
X131762571Y-47444819D01*
X131762571Y-47444819D02*
X131953047Y-47444819D01*
X131953047Y-47444819D02*
X132048285Y-47397200D01*
X132048285Y-47397200D02*
X132095904Y-47349580D01*
X132095904Y-47349580D02*
X132143523Y-47254342D01*
X132143523Y-47254342D02*
X132143523Y-46444819D01*
X133143523Y-47444819D02*
X132572095Y-47444819D01*
X132857809Y-47444819D02*
X132857809Y-46444819D01*
X132857809Y-46444819D02*
X132762571Y-46587676D01*
X132762571Y-46587676D02*
X132667333Y-46682914D01*
X132667333Y-46682914D02*
X132572095Y-46730533D01*
X142073333Y-53159819D02*
X141740000Y-52683628D01*
X141501905Y-53159819D02*
X141501905Y-52159819D01*
X141501905Y-52159819D02*
X141882857Y-52159819D01*
X141882857Y-52159819D02*
X141978095Y-52207438D01*
X141978095Y-52207438D02*
X142025714Y-52255057D01*
X142025714Y-52255057D02*
X142073333Y-52350295D01*
X142073333Y-52350295D02*
X142073333Y-52493152D01*
X142073333Y-52493152D02*
X142025714Y-52588390D01*
X142025714Y-52588390D02*
X141978095Y-52636009D01*
X141978095Y-52636009D02*
X141882857Y-52683628D01*
X141882857Y-52683628D02*
X141501905Y-52683628D01*
X143025714Y-53159819D02*
X142454286Y-53159819D01*
X142740000Y-53159819D02*
X142740000Y-52159819D01*
X142740000Y-52159819D02*
X142644762Y-52302676D01*
X142644762Y-52302676D02*
X142549524Y-52397914D01*
X142549524Y-52397914D02*
X142454286Y-52445533D01*
X142073333Y-55604580D02*
X142025714Y-55652200D01*
X142025714Y-55652200D02*
X141882857Y-55699819D01*
X141882857Y-55699819D02*
X141787619Y-55699819D01*
X141787619Y-55699819D02*
X141644762Y-55652200D01*
X141644762Y-55652200D02*
X141549524Y-55556961D01*
X141549524Y-55556961D02*
X141501905Y-55461723D01*
X141501905Y-55461723D02*
X141454286Y-55271247D01*
X141454286Y-55271247D02*
X141454286Y-55128390D01*
X141454286Y-55128390D02*
X141501905Y-54937914D01*
X141501905Y-54937914D02*
X141549524Y-54842676D01*
X141549524Y-54842676D02*
X141644762Y-54747438D01*
X141644762Y-54747438D02*
X141787619Y-54699819D01*
X141787619Y-54699819D02*
X141882857Y-54699819D01*
X141882857Y-54699819D02*
X142025714Y-54747438D01*
X142025714Y-54747438D02*
X142073333Y-54795057D01*
X142454286Y-54795057D02*
X142501905Y-54747438D01*
X142501905Y-54747438D02*
X142597143Y-54699819D01*
X142597143Y-54699819D02*
X142835238Y-54699819D01*
X142835238Y-54699819D02*
X142930476Y-54747438D01*
X142930476Y-54747438D02*
X142978095Y-54795057D01*
X142978095Y-54795057D02*
X143025714Y-54890295D01*
X143025714Y-54890295D02*
X143025714Y-54985533D01*
X143025714Y-54985533D02*
X142978095Y-55128390D01*
X142978095Y-55128390D02*
X142406667Y-55699819D01*
X142406667Y-55699819D02*
X143025714Y-55699819D01*
D11*
X139415000Y-43165000D02*
X139415000Y-47005000D01*
X141255000Y-43165000D02*
X141255000Y-47005000D01*
X129614000Y-53140000D02*
X129614000Y-53470000D01*
X129614000Y-56080000D02*
X129614000Y-55750000D01*
X134034000Y-56080000D02*
X134034000Y-53140000D01*
X134154000Y-56080000D02*
X134154000Y-53140000D01*
X134274000Y-56080000D02*
X134274000Y-53140000D01*
X135054000Y-53140000D02*
X129614000Y-53140000D01*
X135054000Y-53470000D02*
X135054000Y-53140000D01*
X135054000Y-55750000D02*
X135054000Y-56080000D01*
X135054000Y-56080000D02*
X129614000Y-56080000D01*
X137715000Y-56415000D02*
X137715000Y-59155000D01*
X137715000Y-56415000D02*
X142955000Y-56415000D01*
X137715000Y-59155000D02*
X142955000Y-59155000D01*
X142955000Y-56415000D02*
X142955000Y-59155000D01*
X133344000Y-41860000D02*
G75*
G02*
X131344000Y-41860000I-1000000J0D01*
G01*
X134994000Y-52140000D02*
X134994000Y-41860000D01*
X134994000Y-41860000D02*
X133344000Y-41860000D01*
X131344000Y-41860000D02*
X129694000Y-41860000D01*
X129694000Y-52140000D02*
X134994000Y-52140000D01*
X129694000Y-41860000D02*
X129694000Y-52140000D01*
X128210000Y-57090000D02*
X135950000Y-57090000D01*
X128210000Y-59690000D02*
X128210000Y-57090000D01*
X128210000Y-62290000D02*
X128210000Y-60960000D01*
X129540000Y-62290000D02*
X128210000Y-62290000D01*
X130810000Y-59690000D02*
X128210000Y-59690000D01*
X130810000Y-62290000D02*
X130810000Y-59690000D01*
X130810000Y-62290000D02*
X135950000Y-62290000D01*
X135950000Y-62290000D02*
X135950000Y-57090000D01*
X139415000Y-50785000D02*
X139415000Y-54625000D01*
X141255000Y-50785000D02*
X141255000Y-54625000D01*
X137715000Y-62330000D02*
X137715000Y-59590000D01*
X142955000Y-59590000D02*
X137715000Y-59590000D01*
X142955000Y-62330000D02*
X137715000Y-62330000D01*
X142955000Y-62330000D02*
X142955000Y-59590000D01*
%LPC*%
D12*
X140335000Y-42545000D03*
D13*
X140335000Y-47625000D03*
D14*
X136144000Y-54610000D03*
D15*
X128524000Y-54610000D03*
D16*
X139085000Y-57785000D03*
X141585000Y-57785000D03*
D17*
X136154000Y-43190000D03*
X136154000Y-45730000D03*
X136154000Y-48270000D03*
X136154000Y-50810000D03*
X128534000Y-50810000D03*
X128534000Y-48270000D03*
X128534000Y-45730000D03*
D18*
X128534000Y-43190000D03*
D19*
X129540000Y-60960000D03*
D20*
X129540000Y-58420000D03*
X132080000Y-60960000D03*
X132080000Y-58420000D03*
X134620000Y-60960000D03*
X134620000Y-58420000D03*
D12*
X140335000Y-50165000D03*
D13*
X140335000Y-55245000D03*
D16*
X141585000Y-60960000D03*
X139085000Y-60960000D03*
%LPD*%
M02*
