G04 #@! TF.GenerationSoftware,KiCad,Pcbnew,8.0.1-8.0.1-1~ubuntu22.04.1*
G04 #@! TF.CreationDate,2024-07-15T21:43:51-04:00*
G04 #@! TF.ProjectId,Clock_Addon,436c6f63-6b5f-4416-9464-6f6e2e6b6963,rev?*
G04 #@! TF.SameCoordinates,Original*
G04 #@! TF.FileFunction,Copper,L1,Top*
G04 #@! TF.FilePolarity,Positive*
%FSLAX46Y46*%
G04 Gerber Fmt 4.6, Leading zero omitted, Abs format (unit mm)*
G04 Created by KiCad (PCBNEW 8.0.1-8.0.1-1~ubuntu22.04.1) date 2024-07-15 21:43:51*
%MOMM*%
%LPD*%
G01*
G04 APERTURE LIST*
G04 #@! TA.AperFunction,ComponentPad*
%ADD10C,1.400000*%
G04 #@! TD*
G04 #@! TA.AperFunction,ComponentPad*
%ADD11O,1.400000X1.400000*%
G04 #@! TD*
G04 #@! TA.AperFunction,ComponentPad*
%ADD12R,1.800000X1.800000*%
G04 #@! TD*
G04 #@! TA.AperFunction,ComponentPad*
%ADD13O,1.800000X1.800000*%
G04 #@! TD*
G04 #@! TA.AperFunction,ComponentPad*
%ADD14C,1.600000*%
G04 #@! TD*
G04 #@! TA.AperFunction,ComponentPad*
%ADD15O,1.600000X1.600000*%
G04 #@! TD*
G04 #@! TA.AperFunction,ComponentPad*
%ADD16R,1.600000X1.600000*%
G04 #@! TD*
G04 #@! TA.AperFunction,ComponentPad*
%ADD17R,1.700000X1.700000*%
G04 #@! TD*
G04 #@! TA.AperFunction,ComponentPad*
%ADD18O,1.700000X1.700000*%
G04 #@! TD*
G04 #@! TA.AperFunction,Conductor*
%ADD19C,0.200000*%
G04 #@! TD*
G04 APERTURE END LIST*
D10*
X140335000Y-42545000D03*
D11*
X140335000Y-47625000D03*
D12*
X136144000Y-54610000D03*
D13*
X128524000Y-54610000D03*
D14*
X139085000Y-57785000D03*
X141585000Y-57785000D03*
D15*
X136154000Y-43190000D03*
X136154000Y-45730000D03*
X136154000Y-48270000D03*
X136154000Y-50810000D03*
X128534000Y-50810000D03*
X128534000Y-48270000D03*
X128534000Y-45730000D03*
D16*
X128534000Y-43190000D03*
D17*
X129540000Y-60960000D03*
D18*
X129540000Y-58420000D03*
X132080000Y-60960000D03*
X132080000Y-58420000D03*
X134620000Y-60960000D03*
X134620000Y-58420000D03*
D10*
X140335000Y-50165000D03*
D11*
X140335000Y-55245000D03*
D14*
X141585000Y-60960000D03*
X139085000Y-60960000D03*
D19*
X128280000Y-48270000D02*
X128680000Y-48670000D01*
X128680000Y-48670000D02*
X133760000Y-48670000D01*
X134874000Y-51308000D02*
X136144000Y-52578000D01*
X136144000Y-52578000D02*
X136144000Y-58801000D01*
X133760000Y-48670000D02*
X134874000Y-49784000D01*
X134874000Y-49784000D02*
X134874000Y-51308000D01*
X136144000Y-58801000D02*
X135255000Y-59690000D01*
X135255000Y-59690000D02*
X133350000Y-59690000D01*
X133350000Y-59690000D02*
X132080000Y-60960000D01*
X139085000Y-60960000D02*
X137541000Y-59416000D01*
X137541000Y-59416000D02*
X137541000Y-52451000D01*
X137541000Y-52451000D02*
X135900000Y-50810000D01*
X128280000Y-45730000D02*
X128280000Y-46365000D01*
X128280000Y-46365000D02*
X130175000Y-48260000D01*
X130175000Y-48260000D02*
X133350000Y-48260000D01*
X133350000Y-48260000D02*
X133360000Y-48270000D01*
X133360000Y-48270000D02*
X135900000Y-48270000D01*
X138030000Y-54648685D02*
X139085000Y-55703686D01*
X135900000Y-48270000D02*
X138030000Y-50400000D01*
X138030000Y-50400000D02*
X138030000Y-54648685D01*
X139085000Y-55703686D02*
X139085000Y-57785000D01*
X140335000Y-55245000D02*
X139192000Y-55245000D01*
X134800000Y-42365000D02*
X135255000Y-41910000D01*
X135255000Y-41910000D02*
X139700000Y-41910000D01*
X139192000Y-55245000D02*
X138430000Y-54483000D01*
X138430000Y-48260000D02*
X134800000Y-44630000D01*
X138430000Y-54483000D02*
X138430000Y-48260000D01*
X134800000Y-44630000D02*
X134800000Y-42365000D01*
X139700000Y-41910000D02*
X140335000Y-42545000D01*
G04 #@! TA.AperFunction,Conductor*
G36*
X133526942Y-49290185D02*
G01*
X133547584Y-49306819D01*
X134237181Y-49996416D01*
X134270666Y-50057739D01*
X134273500Y-50084097D01*
X134273500Y-51221330D01*
X134273499Y-51221348D01*
X134273499Y-51387054D01*
X134273498Y-51387054D01*
X134314423Y-51539785D01*
X134343358Y-51589900D01*
X134343359Y-51589904D01*
X134343360Y-51589904D01*
X134393479Y-51676714D01*
X134393481Y-51676717D01*
X134512349Y-51795585D01*
X134512355Y-51795590D01*
X135507181Y-52790416D01*
X135540666Y-52851739D01*
X135543500Y-52878097D01*
X135543500Y-53085500D01*
X135523815Y-53152539D01*
X135471011Y-53198294D01*
X135419501Y-53209500D01*
X135196130Y-53209500D01*
X135196123Y-53209501D01*
X135136516Y-53215908D01*
X135001671Y-53266202D01*
X135001664Y-53266206D01*
X134886455Y-53352452D01*
X134886452Y-53352455D01*
X134800206Y-53467664D01*
X134800202Y-53467671D01*
X134749908Y-53602517D01*
X134743501Y-53662116D01*
X134743500Y-53662135D01*
X134743500Y-55557870D01*
X134743501Y-55557876D01*
X134749908Y-55617483D01*
X134800202Y-55752328D01*
X134800206Y-55752335D01*
X134886452Y-55867544D01*
X134886455Y-55867547D01*
X135001664Y-55953793D01*
X135001671Y-55953797D01*
X135046618Y-55970561D01*
X135136517Y-56004091D01*
X135196127Y-56010500D01*
X135419500Y-56010499D01*
X135486539Y-56030183D01*
X135532294Y-56082987D01*
X135543500Y-56134499D01*
X135543500Y-57179783D01*
X135523815Y-57246822D01*
X135471011Y-57292577D01*
X135401853Y-57302521D01*
X135348377Y-57281358D01*
X135297834Y-57245967D01*
X135297830Y-57245965D01*
X135197864Y-57199350D01*
X135083663Y-57146097D01*
X135083659Y-57146096D01*
X135083655Y-57146094D01*
X134855413Y-57084938D01*
X134855403Y-57084936D01*
X134620001Y-57064341D01*
X134619999Y-57064341D01*
X134384596Y-57084936D01*
X134384586Y-57084938D01*
X134156344Y-57146094D01*
X134156335Y-57146098D01*
X133942171Y-57245964D01*
X133942169Y-57245965D01*
X133748597Y-57381505D01*
X133581505Y-57548597D01*
X133451575Y-57734158D01*
X133396998Y-57777783D01*
X133327500Y-57784977D01*
X133265145Y-57753454D01*
X133248425Y-57734158D01*
X133118494Y-57548597D01*
X132951402Y-57381506D01*
X132951395Y-57381501D01*
X132757834Y-57245967D01*
X132757830Y-57245965D01*
X132657864Y-57199350D01*
X132543663Y-57146097D01*
X132543659Y-57146096D01*
X132543655Y-57146094D01*
X132315413Y-57084938D01*
X132315403Y-57084936D01*
X132080001Y-57064341D01*
X132079999Y-57064341D01*
X131844596Y-57084936D01*
X131844586Y-57084938D01*
X131616344Y-57146094D01*
X131616335Y-57146098D01*
X131402171Y-57245964D01*
X131402169Y-57245965D01*
X131208597Y-57381505D01*
X131041508Y-57548594D01*
X130911269Y-57734595D01*
X130856692Y-57778219D01*
X130787193Y-57785412D01*
X130724839Y-57753890D01*
X130708119Y-57734594D01*
X130578113Y-57548926D01*
X130578108Y-57548920D01*
X130411082Y-57381894D01*
X130217578Y-57246399D01*
X130003492Y-57146570D01*
X130003486Y-57146567D01*
X129790000Y-57089364D01*
X129790000Y-57986988D01*
X129732993Y-57954075D01*
X129605826Y-57920000D01*
X129474174Y-57920000D01*
X129347007Y-57954075D01*
X129290000Y-57986988D01*
X129290000Y-57089364D01*
X129289999Y-57089364D01*
X129076513Y-57146567D01*
X129076507Y-57146570D01*
X128862422Y-57246399D01*
X128862420Y-57246400D01*
X128668926Y-57381886D01*
X128668920Y-57381891D01*
X128501891Y-57548920D01*
X128501886Y-57548926D01*
X128366400Y-57742420D01*
X128366399Y-57742422D01*
X128266570Y-57956507D01*
X128266567Y-57956513D01*
X128209364Y-58169999D01*
X128209364Y-58170000D01*
X129106988Y-58170000D01*
X129074075Y-58227007D01*
X129040000Y-58354174D01*
X129040000Y-58485826D01*
X129074075Y-58612993D01*
X129106988Y-58670000D01*
X128209364Y-58670000D01*
X128266567Y-58883486D01*
X128266570Y-58883492D01*
X128366399Y-59097578D01*
X128501894Y-59291082D01*
X128623946Y-59413134D01*
X128657431Y-59474457D01*
X128652447Y-59544149D01*
X128610575Y-59600082D01*
X128579598Y-59616997D01*
X128447671Y-59666202D01*
X128447664Y-59666206D01*
X128332455Y-59752452D01*
X128332452Y-59752455D01*
X128246206Y-59867664D01*
X128246202Y-59867671D01*
X128195908Y-60002517D01*
X128189501Y-60062116D01*
X128189500Y-60062135D01*
X128189500Y-61857870D01*
X128189501Y-61857876D01*
X128195908Y-61917483D01*
X128246202Y-62052328D01*
X128246206Y-62052335D01*
X128331438Y-62166189D01*
X128355856Y-62231653D01*
X128341005Y-62299926D01*
X128291600Y-62349332D01*
X128232172Y-62364500D01*
X127624500Y-62364500D01*
X127557461Y-62344815D01*
X127511706Y-62292011D01*
X127500500Y-62240500D01*
X127500500Y-55841105D01*
X127520185Y-55774066D01*
X127572989Y-55728311D01*
X127642147Y-55718367D01*
X127700663Y-55743252D01*
X127755649Y-55786050D01*
X127959697Y-55896476D01*
X127959706Y-55896479D01*
X128179139Y-55971811D01*
X128273999Y-55987640D01*
X128274000Y-55987639D01*
X128274000Y-54985277D01*
X128350306Y-55029333D01*
X128464756Y-55060000D01*
X128583244Y-55060000D01*
X128697694Y-55029333D01*
X128774000Y-54985277D01*
X128774000Y-55987640D01*
X128868860Y-55971811D01*
X129088293Y-55896479D01*
X129088302Y-55896476D01*
X129292351Y-55786050D01*
X129292359Y-55786045D01*
X129475437Y-55643548D01*
X129475441Y-55643545D01*
X129632585Y-55472842D01*
X129759483Y-55278609D01*
X129852682Y-55066135D01*
X129904883Y-54860000D01*
X128899278Y-54860000D01*
X128943333Y-54783694D01*
X128974000Y-54669244D01*
X128974000Y-54550756D01*
X128943333Y-54436306D01*
X128899278Y-54360000D01*
X129904883Y-54360000D01*
X129852682Y-54153864D01*
X129759483Y-53941390D01*
X129632585Y-53747157D01*
X129475441Y-53576454D01*
X129475437Y-53576451D01*
X129292355Y-53433952D01*
X129292351Y-53433949D01*
X129088302Y-53323523D01*
X129088293Y-53323520D01*
X128868861Y-53248188D01*
X128774000Y-53232359D01*
X128774000Y-54234722D01*
X128697694Y-54190667D01*
X128583244Y-54160000D01*
X128464756Y-54160000D01*
X128350306Y-54190667D01*
X128274000Y-54234722D01*
X128274000Y-53232359D01*
X128273999Y-53232359D01*
X128179138Y-53248188D01*
X127959706Y-53323520D01*
X127959697Y-53323523D01*
X127755650Y-53433948D01*
X127700662Y-53476748D01*
X127635668Y-53502390D01*
X127567128Y-53488823D01*
X127516803Y-53440355D01*
X127500500Y-53378894D01*
X127500500Y-51912155D01*
X127520185Y-51845116D01*
X127572989Y-51799361D01*
X127642147Y-51789417D01*
X127695621Y-51810579D01*
X127881266Y-51940568D01*
X128087504Y-52036739D01*
X128307308Y-52095635D01*
X128469230Y-52109801D01*
X128533998Y-52115468D01*
X128534000Y-52115468D01*
X128534002Y-52115468D01*
X128590673Y-52110509D01*
X128760692Y-52095635D01*
X128980496Y-52036739D01*
X129186734Y-51940568D01*
X129373139Y-51810047D01*
X129534047Y-51649139D01*
X129664568Y-51462734D01*
X129760739Y-51256496D01*
X129819635Y-51036692D01*
X129839468Y-50810000D01*
X129838565Y-50799683D01*
X129833801Y-50745230D01*
X129819635Y-50583308D01*
X129760739Y-50363504D01*
X129664568Y-50157266D01*
X129534047Y-49970861D01*
X129534045Y-49970858D01*
X129373141Y-49809954D01*
X129186734Y-49679432D01*
X129186728Y-49679429D01*
X129128725Y-49652382D01*
X129076285Y-49606210D01*
X129057133Y-49539017D01*
X129077348Y-49472135D01*
X129128725Y-49427618D01*
X129186734Y-49400568D01*
X129340465Y-49292924D01*
X129406671Y-49270598D01*
X129411588Y-49270500D01*
X133459903Y-49270500D01*
X133526942Y-49290185D01*
G37*
G04 #@! TD.AperFunction*
G04 #@! TA.AperFunction,Conductor*
G36*
X141185000Y-61012661D02*
G01*
X141212259Y-61114394D01*
X141264920Y-61205606D01*
X141339394Y-61280080D01*
X141430606Y-61332741D01*
X141532339Y-61360000D01*
X141538553Y-61360000D01*
X140859526Y-62039025D01*
X140932513Y-62090132D01*
X140932521Y-62090136D01*
X141013973Y-62128118D01*
X141066413Y-62174290D01*
X141085565Y-62241483D01*
X141065349Y-62308365D01*
X141012184Y-62353699D01*
X140961569Y-62364500D01*
X139709613Y-62364500D01*
X139642574Y-62344815D01*
X139596819Y-62292011D01*
X139586875Y-62222853D01*
X139615900Y-62159297D01*
X139657208Y-62128118D01*
X139737734Y-62090568D01*
X139924139Y-61960047D01*
X140085047Y-61799139D01*
X140215568Y-61612734D01*
X140222893Y-61597024D01*
X140269064Y-61544586D01*
X140336257Y-61525433D01*
X140403138Y-61545648D01*
X140447657Y-61597024D01*
X140454864Y-61612480D01*
X140505974Y-61685472D01*
X141185000Y-61006446D01*
X141185000Y-61012661D01*
G37*
G04 #@! TD.AperFunction*
G04 #@! TA.AperFunction,Conductor*
G36*
X142664024Y-61685471D02*
G01*
X142715136Y-61612478D01*
X142773118Y-61488136D01*
X142819290Y-61435696D01*
X142886483Y-61416544D01*
X142953365Y-61436759D01*
X142998699Y-61489925D01*
X143009500Y-61540540D01*
X143009500Y-62240500D01*
X142989815Y-62307539D01*
X142937011Y-62353294D01*
X142885500Y-62364500D01*
X142208431Y-62364500D01*
X142141392Y-62344815D01*
X142095637Y-62292011D01*
X142085693Y-62222853D01*
X142114718Y-62159297D01*
X142156027Y-62128118D01*
X142237478Y-62090136D01*
X142310471Y-62039024D01*
X141631447Y-61360000D01*
X141637661Y-61360000D01*
X141739394Y-61332741D01*
X141830606Y-61280080D01*
X141905080Y-61205606D01*
X141957741Y-61114394D01*
X141985000Y-61012661D01*
X141985000Y-61006447D01*
X142664024Y-61685471D01*
G37*
G04 #@! TD.AperFunction*
G04 #@! TA.AperFunction,Conductor*
G36*
X141185000Y-57837661D02*
G01*
X141212259Y-57939394D01*
X141264920Y-58030606D01*
X141339394Y-58105080D01*
X141430606Y-58157741D01*
X141532339Y-58185000D01*
X141538553Y-58185000D01*
X140859526Y-58864025D01*
X140932513Y-58915132D01*
X140932521Y-58915136D01*
X141138668Y-59011264D01*
X141138682Y-59011269D01*
X141358389Y-59070139D01*
X141358400Y-59070141D01*
X141584998Y-59089966D01*
X141585002Y-59089966D01*
X141811599Y-59070141D01*
X141811610Y-59070139D01*
X142031317Y-59011269D01*
X142031331Y-59011264D01*
X142237478Y-58915136D01*
X142310471Y-58864024D01*
X141631447Y-58185000D01*
X141637661Y-58185000D01*
X141739394Y-58157741D01*
X141830606Y-58105080D01*
X141905080Y-58030606D01*
X141957741Y-57939394D01*
X141985000Y-57837661D01*
X141985000Y-57831447D01*
X142664024Y-58510471D01*
X142715136Y-58437478D01*
X142773118Y-58313136D01*
X142819290Y-58260696D01*
X142886483Y-58241544D01*
X142953365Y-58261759D01*
X142998699Y-58314925D01*
X143009500Y-58365540D01*
X143009500Y-60379459D01*
X142989815Y-60446498D01*
X142937011Y-60492253D01*
X142867853Y-60502197D01*
X142804297Y-60473172D01*
X142773118Y-60431864D01*
X142715134Y-60307517D01*
X142715132Y-60307513D01*
X142664025Y-60234526D01*
X141985000Y-60913551D01*
X141985000Y-60907339D01*
X141957741Y-60805606D01*
X141905080Y-60714394D01*
X141830606Y-60639920D01*
X141739394Y-60587259D01*
X141637661Y-60560000D01*
X141631448Y-60560000D01*
X142310472Y-59880974D01*
X142237478Y-59829863D01*
X142031331Y-59733735D01*
X142031317Y-59733730D01*
X141811610Y-59674860D01*
X141811599Y-59674858D01*
X141585002Y-59655034D01*
X141584998Y-59655034D01*
X141358400Y-59674858D01*
X141358389Y-59674860D01*
X141138682Y-59733730D01*
X141138673Y-59733734D01*
X140932516Y-59829866D01*
X140932512Y-59829868D01*
X140859526Y-59880973D01*
X140859526Y-59880974D01*
X141538553Y-60560000D01*
X141532339Y-60560000D01*
X141430606Y-60587259D01*
X141339394Y-60639920D01*
X141264920Y-60714394D01*
X141212259Y-60805606D01*
X141185000Y-60907339D01*
X141185000Y-60913552D01*
X140505974Y-60234526D01*
X140505973Y-60234526D01*
X140454868Y-60307512D01*
X140454867Y-60307514D01*
X140447656Y-60322979D01*
X140401482Y-60375417D01*
X140334288Y-60394567D01*
X140267407Y-60374350D01*
X140222893Y-60322976D01*
X140215568Y-60307266D01*
X140085047Y-60120861D01*
X140085045Y-60120858D01*
X139924141Y-59959954D01*
X139737734Y-59829432D01*
X139737732Y-59829431D01*
X139531497Y-59733261D01*
X139531488Y-59733258D01*
X139311697Y-59674366D01*
X139311693Y-59674365D01*
X139311692Y-59674365D01*
X139311691Y-59674364D01*
X139311686Y-59674364D01*
X139085002Y-59654532D01*
X139084998Y-59654532D01*
X138858313Y-59674364D01*
X138858302Y-59674366D01*
X138762067Y-59700152D01*
X138692217Y-59698489D01*
X138642293Y-59668058D01*
X138415624Y-59441389D01*
X138177819Y-59203583D01*
X138144334Y-59142260D01*
X138141500Y-59115902D01*
X138141500Y-58950173D01*
X138161185Y-58883134D01*
X138213989Y-58837379D01*
X138283147Y-58827435D01*
X138336620Y-58848597D01*
X138432266Y-58915568D01*
X138638504Y-59011739D01*
X138858308Y-59070635D01*
X139013265Y-59084192D01*
X139084998Y-59090468D01*
X139085000Y-59090468D01*
X139085002Y-59090468D01*
X139141673Y-59085509D01*
X139311692Y-59070635D01*
X139531496Y-59011739D01*
X139737734Y-58915568D01*
X139924139Y-58785047D01*
X140085047Y-58624139D01*
X140215568Y-58437734D01*
X140222893Y-58422024D01*
X140269064Y-58369586D01*
X140336257Y-58350433D01*
X140403138Y-58370648D01*
X140447657Y-58422024D01*
X140454864Y-58437480D01*
X140505974Y-58510472D01*
X141185000Y-57831446D01*
X141185000Y-57837661D01*
G37*
G04 #@! TD.AperFunction*
G04 #@! TA.AperFunction,Conductor*
G36*
X142952539Y-41795185D02*
G01*
X142998294Y-41847989D01*
X143009500Y-41899500D01*
X143009500Y-57204459D01*
X142989815Y-57271498D01*
X142937011Y-57317253D01*
X142867853Y-57327197D01*
X142804297Y-57298172D01*
X142773118Y-57256864D01*
X142715134Y-57132517D01*
X142715132Y-57132513D01*
X142664025Y-57059526D01*
X141985000Y-57738551D01*
X141985000Y-57732339D01*
X141957741Y-57630606D01*
X141905080Y-57539394D01*
X141830606Y-57464920D01*
X141739394Y-57412259D01*
X141637661Y-57385000D01*
X141631448Y-57385000D01*
X142310472Y-56705974D01*
X142237478Y-56654863D01*
X142031331Y-56558735D01*
X142031317Y-56558730D01*
X141811610Y-56499860D01*
X141811599Y-56499858D01*
X141585002Y-56480034D01*
X141584998Y-56480034D01*
X141358400Y-56499858D01*
X141358389Y-56499860D01*
X141138682Y-56558730D01*
X141138673Y-56558734D01*
X140932516Y-56654866D01*
X140932512Y-56654868D01*
X140859526Y-56705973D01*
X140859526Y-56705974D01*
X141538553Y-57385000D01*
X141532339Y-57385000D01*
X141430606Y-57412259D01*
X141339394Y-57464920D01*
X141264920Y-57539394D01*
X141212259Y-57630606D01*
X141185000Y-57732339D01*
X141185000Y-57738552D01*
X140505974Y-57059526D01*
X140505973Y-57059526D01*
X140454868Y-57132512D01*
X140454867Y-57132514D01*
X140447656Y-57147979D01*
X140401482Y-57200417D01*
X140334288Y-57219567D01*
X140267407Y-57199350D01*
X140222893Y-57147976D01*
X140215568Y-57132266D01*
X140085047Y-56945861D01*
X140085045Y-56945858D01*
X139924140Y-56784953D01*
X139738377Y-56654881D01*
X139694752Y-56600304D01*
X139685500Y-56553306D01*
X139685500Y-56461837D01*
X139705185Y-56394798D01*
X139757989Y-56349043D01*
X139827147Y-56339099D01*
X139854287Y-56346208D01*
X140005060Y-56404618D01*
X140223757Y-56445500D01*
X140223759Y-56445500D01*
X140446241Y-56445500D01*
X140446243Y-56445500D01*
X140664940Y-56404618D01*
X140872401Y-56324247D01*
X141061562Y-56207124D01*
X141225981Y-56057236D01*
X141360058Y-55879689D01*
X141459229Y-55680528D01*
X141520115Y-55466536D01*
X141540643Y-55245000D01*
X141520115Y-55023464D01*
X141459229Y-54809472D01*
X141446393Y-54783694D01*
X141360061Y-54610316D01*
X141360056Y-54610308D01*
X141225979Y-54432761D01*
X141061562Y-54282876D01*
X141061560Y-54282874D01*
X140872404Y-54165754D01*
X140872398Y-54165752D01*
X140664940Y-54085382D01*
X140446243Y-54044500D01*
X140223757Y-54044500D01*
X140005060Y-54085382D01*
X139873864Y-54136207D01*
X139797601Y-54165752D01*
X139797595Y-54165754D01*
X139608439Y-54282874D01*
X139608437Y-54282876D01*
X139444019Y-54432762D01*
X139444017Y-54432765D01*
X139437378Y-54441557D01*
X139381269Y-54483192D01*
X139311557Y-54487882D01*
X139250745Y-54454509D01*
X139066819Y-54270583D01*
X139033334Y-54209260D01*
X139030500Y-54182902D01*
X139030500Y-50765710D01*
X139050185Y-50698671D01*
X139102989Y-50652916D01*
X139172147Y-50642972D01*
X139235703Y-50671997D01*
X139265500Y-50710439D01*
X139309936Y-50799679D01*
X139309943Y-50799691D01*
X139444020Y-50977238D01*
X139608437Y-51127123D01*
X139608439Y-51127125D01*
X139797595Y-51244245D01*
X139797596Y-51244245D01*
X139797599Y-51244247D01*
X140005060Y-51324618D01*
X140223757Y-51365500D01*
X140223759Y-51365500D01*
X140446241Y-51365500D01*
X140446243Y-51365500D01*
X140664940Y-51324618D01*
X140872401Y-51244247D01*
X141061562Y-51127124D01*
X141225981Y-50977236D01*
X141360058Y-50799689D01*
X141459229Y-50600528D01*
X141520115Y-50386536D01*
X141540643Y-50165000D01*
X141539926Y-50157267D01*
X141520115Y-49943464D01*
X141520114Y-49943462D01*
X141459230Y-49729476D01*
X141459229Y-49729472D01*
X141459224Y-49729461D01*
X141360061Y-49530316D01*
X141360056Y-49530308D01*
X141225979Y-49352761D01*
X141061562Y-49202876D01*
X141061560Y-49202874D01*
X140872404Y-49085754D01*
X140872395Y-49085750D01*
X140778956Y-49049552D01*
X140678475Y-49010625D01*
X140623075Y-48968054D01*
X140599484Y-48902288D01*
X140615195Y-48834207D01*
X140665219Y-48785428D01*
X140678466Y-48779377D01*
X140872401Y-48704247D01*
X141061562Y-48587124D01*
X141225981Y-48437236D01*
X141360058Y-48259689D01*
X141459229Y-48060528D01*
X141520115Y-47846536D01*
X141540643Y-47625000D01*
X141540474Y-47623181D01*
X141520115Y-47403464D01*
X141520114Y-47403462D01*
X141459230Y-47189476D01*
X141459229Y-47189472D01*
X141459224Y-47189461D01*
X141360061Y-46990316D01*
X141360056Y-46990308D01*
X141225979Y-46812761D01*
X141061562Y-46662876D01*
X141061560Y-46662874D01*
X140872404Y-46545754D01*
X140872398Y-46545752D01*
X140664940Y-46465382D01*
X140446243Y-46424500D01*
X140223757Y-46424500D01*
X140005060Y-46465382D01*
X139873864Y-46516207D01*
X139797601Y-46545752D01*
X139797595Y-46545754D01*
X139608439Y-46662874D01*
X139608437Y-46662876D01*
X139444020Y-46812761D01*
X139309943Y-46990308D01*
X139309938Y-46990316D01*
X139210775Y-47189461D01*
X139210769Y-47189476D01*
X139149885Y-47403462D01*
X139149884Y-47403464D01*
X139129357Y-47624999D01*
X139129357Y-47625000D01*
X139148344Y-47829909D01*
X139134929Y-47898479D01*
X139086572Y-47948910D01*
X139018626Y-47965193D01*
X138952663Y-47942155D01*
X138917490Y-47903358D01*
X138916293Y-47901284D01*
X138910520Y-47891284D01*
X138798716Y-47779480D01*
X138798715Y-47779479D01*
X138794385Y-47775149D01*
X138794374Y-47775139D01*
X137383298Y-46364063D01*
X137349813Y-46302740D01*
X137354797Y-46233048D01*
X137358591Y-46223991D01*
X137380739Y-46176496D01*
X137439635Y-45956692D01*
X137459468Y-45730000D01*
X137439635Y-45503308D01*
X137380739Y-45283504D01*
X137284568Y-45077266D01*
X137154047Y-44890861D01*
X137154046Y-44890860D01*
X137154045Y-44890858D01*
X136993141Y-44729954D01*
X136806734Y-44599432D01*
X136806728Y-44599429D01*
X136748725Y-44572382D01*
X136696285Y-44526210D01*
X136677133Y-44459017D01*
X136697348Y-44392135D01*
X136748725Y-44347618D01*
X136749643Y-44347190D01*
X136806734Y-44320568D01*
X136993139Y-44190047D01*
X137154047Y-44029139D01*
X137284568Y-43842734D01*
X137380739Y-43636496D01*
X137439635Y-43416692D01*
X137459468Y-43190000D01*
X137458565Y-43179683D01*
X137441142Y-42980538D01*
X137439635Y-42963308D01*
X137380739Y-42743504D01*
X137354345Y-42686904D01*
X137343854Y-42617828D01*
X137372373Y-42554044D01*
X137430850Y-42515804D01*
X137466728Y-42510500D01*
X139013119Y-42510500D01*
X139080158Y-42530185D01*
X139125913Y-42582989D01*
X139136590Y-42623059D01*
X139149884Y-42766535D01*
X139149885Y-42766537D01*
X139210769Y-42980523D01*
X139210775Y-42980538D01*
X139309938Y-43179683D01*
X139309943Y-43179691D01*
X139444020Y-43357238D01*
X139608437Y-43507123D01*
X139608439Y-43507125D01*
X139797595Y-43624245D01*
X139797596Y-43624245D01*
X139797599Y-43624247D01*
X140005060Y-43704618D01*
X140223757Y-43745500D01*
X140223759Y-43745500D01*
X140446241Y-43745500D01*
X140446243Y-43745500D01*
X140664940Y-43704618D01*
X140872401Y-43624247D01*
X141061562Y-43507124D01*
X141225981Y-43357236D01*
X141360058Y-43179689D01*
X141459229Y-42980528D01*
X141520115Y-42766536D01*
X141540643Y-42545000D01*
X141520115Y-42323464D01*
X141459229Y-42109472D01*
X141459224Y-42109461D01*
X141382198Y-41954772D01*
X141369937Y-41885986D01*
X141396810Y-41821491D01*
X141454286Y-41781764D01*
X141493198Y-41775500D01*
X142885500Y-41775500D01*
X142952539Y-41795185D01*
G37*
G04 #@! TD.AperFunction*
G04 #@! TA.AperFunction,Conductor*
G36*
X134307941Y-41795185D02*
G01*
X134353696Y-41847989D01*
X134363640Y-41917147D01*
X134334615Y-41980703D01*
X134328583Y-41987181D01*
X134319481Y-41996282D01*
X134319479Y-41996284D01*
X134298391Y-42032812D01*
X134283022Y-42059432D01*
X134240423Y-42133215D01*
X134199499Y-42285943D01*
X134199499Y-42285945D01*
X134199499Y-42454046D01*
X134199500Y-42454059D01*
X134199500Y-44543330D01*
X134199499Y-44543348D01*
X134199499Y-44709054D01*
X134199498Y-44709054D01*
X134240424Y-44861789D01*
X134240425Y-44861790D01*
X134257208Y-44890858D01*
X134257210Y-44890861D01*
X134284793Y-44938637D01*
X134319481Y-44998717D01*
X134438349Y-45117585D01*
X134438355Y-45117590D01*
X134823914Y-45503149D01*
X134857399Y-45564472D01*
X134859761Y-45601636D01*
X134848532Y-45729996D01*
X134848532Y-45730001D01*
X134868364Y-45956686D01*
X134868366Y-45956697D01*
X134927258Y-46176488D01*
X134927261Y-46176497D01*
X135023431Y-46382732D01*
X135023432Y-46382734D01*
X135153954Y-46569141D01*
X135314858Y-46730045D01*
X135314861Y-46730047D01*
X135501266Y-46860568D01*
X135559275Y-46887618D01*
X135611714Y-46933791D01*
X135630866Y-47000984D01*
X135610650Y-47067865D01*
X135559275Y-47112382D01*
X135501267Y-47139431D01*
X135501265Y-47139432D01*
X135314858Y-47269954D01*
X135153954Y-47430858D01*
X135120500Y-47478637D01*
X135023881Y-47616624D01*
X134969307Y-47660248D01*
X134922308Y-47669500D01*
X133482706Y-47669500D01*
X133450614Y-47665275D01*
X133429058Y-47659499D01*
X133429057Y-47659499D01*
X133270943Y-47659499D01*
X133263347Y-47659499D01*
X133263331Y-47659500D01*
X130475098Y-47659500D01*
X130408059Y-47639815D01*
X130387417Y-47623181D01*
X129988023Y-47223787D01*
X129521390Y-46757155D01*
X129487906Y-46695833D01*
X129492890Y-46626142D01*
X129521389Y-46581796D01*
X129534047Y-46569139D01*
X129664568Y-46382734D01*
X129760739Y-46176496D01*
X129819635Y-45956692D01*
X129839468Y-45730000D01*
X129819635Y-45503308D01*
X129760739Y-45283504D01*
X129664568Y-45077266D01*
X129534047Y-44890861D01*
X129534046Y-44890860D01*
X129534045Y-44890858D01*
X129373143Y-44729956D01*
X129347912Y-44712289D01*
X129304287Y-44657712D01*
X129297095Y-44588213D01*
X129328617Y-44525859D01*
X129388847Y-44490445D01*
X129405781Y-44487424D01*
X129441380Y-44483596D01*
X129576086Y-44433354D01*
X129576093Y-44433350D01*
X129691187Y-44347190D01*
X129691190Y-44347187D01*
X129777350Y-44232093D01*
X129777354Y-44232086D01*
X129827596Y-44097379D01*
X129827598Y-44097372D01*
X129833999Y-44037844D01*
X129834000Y-44037827D01*
X129834000Y-43440000D01*
X128849686Y-43440000D01*
X128854080Y-43435606D01*
X128906741Y-43344394D01*
X128934000Y-43242661D01*
X128934000Y-43137339D01*
X128906741Y-43035606D01*
X128854080Y-42944394D01*
X128849686Y-42940000D01*
X129834000Y-42940000D01*
X129834000Y-42342172D01*
X129833999Y-42342155D01*
X129827598Y-42282627D01*
X129827596Y-42282620D01*
X129777354Y-42147913D01*
X129777350Y-42147906D01*
X129691190Y-42032812D01*
X129645711Y-41998766D01*
X129603841Y-41942832D01*
X129598857Y-41873140D01*
X129632343Y-41811818D01*
X129693667Y-41778333D01*
X129720023Y-41775500D01*
X134240902Y-41775500D01*
X134307941Y-41795185D01*
G37*
G04 #@! TD.AperFunction*
M02*
