G04 #@! TF.GenerationSoftware,KiCad,Pcbnew,8.0.1-8.0.1-1~ubuntu22.04.1*
G04 #@! TF.CreationDate,2024-07-15T21:43:51-04:00*
G04 #@! TF.ProjectId,Clock_Addon,436c6f63-6b5f-4416-9464-6f6e2e6b6963,rev?*
G04 #@! TF.SameCoordinates,Original*
G04 #@! TF.FileFunction,Copper,L3,Inr*
G04 #@! TF.FilePolarity,Positive*
%FSLAX46Y46*%
G04 Gerber Fmt 4.6, Leading zero omitted, Abs format (unit mm)*
G04 Created by KiCad (PCBNEW 8.0.1-8.0.1-1~ubuntu22.04.1) date 2024-07-15 21:43:51*
%MOMM*%
%LPD*%
G01*
G04 APERTURE LIST*
G04 #@! TA.AperFunction,ComponentPad*
%ADD10C,1.400000*%
G04 #@! TD*
G04 #@! TA.AperFunction,ComponentPad*
%ADD11O,1.400000X1.400000*%
G04 #@! TD*
G04 #@! TA.AperFunction,ComponentPad*
%ADD12R,1.800000X1.800000*%
G04 #@! TD*
G04 #@! TA.AperFunction,ComponentPad*
%ADD13O,1.800000X1.800000*%
G04 #@! TD*
G04 #@! TA.AperFunction,ComponentPad*
%ADD14C,1.600000*%
G04 #@! TD*
G04 #@! TA.AperFunction,ComponentPad*
%ADD15O,1.600000X1.600000*%
G04 #@! TD*
G04 #@! TA.AperFunction,ComponentPad*
%ADD16R,1.600000X1.600000*%
G04 #@! TD*
G04 #@! TA.AperFunction,ComponentPad*
%ADD17R,1.700000X1.700000*%
G04 #@! TD*
G04 #@! TA.AperFunction,ComponentPad*
%ADD18O,1.700000X1.700000*%
G04 #@! TD*
G04 APERTURE END LIST*
D10*
X140335000Y-42545000D03*
D11*
X140335000Y-47625000D03*
D12*
X136144000Y-54610000D03*
D13*
X128524000Y-54610000D03*
D14*
X139085000Y-57785000D03*
X141585000Y-57785000D03*
D15*
X136154000Y-43190000D03*
X136154000Y-45730000D03*
X136154000Y-48270000D03*
X136154000Y-50810000D03*
X128534000Y-50810000D03*
X128534000Y-48270000D03*
X128534000Y-45730000D03*
D16*
X128534000Y-43190000D03*
D17*
X129540000Y-60960000D03*
D18*
X129540000Y-58420000D03*
X132080000Y-60960000D03*
X132080000Y-58420000D03*
X134620000Y-60960000D03*
X134620000Y-58420000D03*
D10*
X140335000Y-50165000D03*
D11*
X140335000Y-55245000D03*
D14*
X141585000Y-60960000D03*
X139085000Y-60960000D03*
G04 #@! TA.AperFunction,Conductor*
G36*
X135619054Y-41795185D02*
G01*
X135664809Y-41847989D01*
X135674753Y-41917147D01*
X135645728Y-41980703D01*
X135604420Y-42011882D01*
X135501517Y-42059866D01*
X135315179Y-42190342D01*
X135154342Y-42351179D01*
X135023865Y-42537517D01*
X134927734Y-42743673D01*
X134927730Y-42743682D01*
X134875127Y-42939999D01*
X134875128Y-42940000D01*
X135838314Y-42940000D01*
X135833920Y-42944394D01*
X135781259Y-43035606D01*
X135754000Y-43137339D01*
X135754000Y-43242661D01*
X135781259Y-43344394D01*
X135833920Y-43435606D01*
X135838314Y-43440000D01*
X134875128Y-43440000D01*
X134927730Y-43636317D01*
X134927734Y-43636326D01*
X135023865Y-43842482D01*
X135154342Y-44028820D01*
X135315179Y-44189657D01*
X135501518Y-44320134D01*
X135501520Y-44320135D01*
X135559865Y-44347342D01*
X135612305Y-44393514D01*
X135631457Y-44460707D01*
X135611242Y-44527589D01*
X135559867Y-44572105D01*
X135524388Y-44588650D01*
X135501264Y-44599433D01*
X135314858Y-44729954D01*
X135153954Y-44890858D01*
X135023432Y-45077265D01*
X135023431Y-45077267D01*
X134927261Y-45283502D01*
X134927258Y-45283511D01*
X134868366Y-45503302D01*
X134868364Y-45503313D01*
X134848532Y-45729998D01*
X134848532Y-45730001D01*
X134868364Y-45956686D01*
X134868366Y-45956697D01*
X134927258Y-46176488D01*
X134927261Y-46176497D01*
X135023431Y-46382732D01*
X135023432Y-46382734D01*
X135153954Y-46569141D01*
X135314858Y-46730045D01*
X135314861Y-46730047D01*
X135501266Y-46860568D01*
X135559275Y-46887618D01*
X135611714Y-46933791D01*
X135630866Y-47000984D01*
X135610650Y-47067865D01*
X135559275Y-47112382D01*
X135501267Y-47139431D01*
X135501265Y-47139432D01*
X135314858Y-47269954D01*
X135153954Y-47430858D01*
X135023432Y-47617265D01*
X135023431Y-47617267D01*
X134927261Y-47823502D01*
X134927258Y-47823511D01*
X134868366Y-48043302D01*
X134868364Y-48043313D01*
X134848532Y-48269998D01*
X134848532Y-48270001D01*
X134868364Y-48496686D01*
X134868366Y-48496697D01*
X134927258Y-48716488D01*
X134927261Y-48716497D01*
X135023431Y-48922732D01*
X135023432Y-48922734D01*
X135153954Y-49109141D01*
X135314858Y-49270045D01*
X135314861Y-49270047D01*
X135501266Y-49400568D01*
X135559275Y-49427618D01*
X135611714Y-49473791D01*
X135630866Y-49540984D01*
X135610650Y-49607865D01*
X135559275Y-49652382D01*
X135501267Y-49679431D01*
X135501265Y-49679432D01*
X135314858Y-49809954D01*
X135153954Y-49970858D01*
X135023432Y-50157265D01*
X135023431Y-50157267D01*
X134927261Y-50363502D01*
X134927258Y-50363511D01*
X134868366Y-50583302D01*
X134868364Y-50583313D01*
X134848532Y-50809998D01*
X134848532Y-50810001D01*
X134868364Y-51036686D01*
X134868366Y-51036697D01*
X134927258Y-51256488D01*
X134927261Y-51256497D01*
X135023431Y-51462732D01*
X135023432Y-51462734D01*
X135153954Y-51649141D01*
X135314858Y-51810045D01*
X135314861Y-51810047D01*
X135501266Y-51940568D01*
X135707504Y-52036739D01*
X135927308Y-52095635D01*
X136089230Y-52109801D01*
X136153998Y-52115468D01*
X136154000Y-52115468D01*
X136154002Y-52115468D01*
X136210673Y-52110509D01*
X136380692Y-52095635D01*
X136600496Y-52036739D01*
X136806734Y-51940568D01*
X136993139Y-51810047D01*
X137154047Y-51649139D01*
X137284568Y-51462734D01*
X137380739Y-51256496D01*
X137403412Y-51171880D01*
X139681672Y-51171880D01*
X139797821Y-51243797D01*
X139797822Y-51243798D01*
X140005195Y-51324134D01*
X140223807Y-51365000D01*
X140446193Y-51365000D01*
X140664809Y-51324133D01*
X140872168Y-51243801D01*
X140872181Y-51243795D01*
X140988326Y-51171879D01*
X140335001Y-50518553D01*
X140335000Y-50518553D01*
X139681672Y-51171879D01*
X139681672Y-51171880D01*
X137403412Y-51171880D01*
X137439635Y-51036692D01*
X137459468Y-50810000D01*
X137439635Y-50583308D01*
X137380739Y-50363504D01*
X137288174Y-50165000D01*
X139129859Y-50165000D01*
X139150378Y-50386439D01*
X139211240Y-50600350D01*
X139310369Y-50799428D01*
X139326137Y-50820308D01*
X139326138Y-50820308D01*
X139935369Y-50211078D01*
X139985000Y-50211078D01*
X140008852Y-50300095D01*
X140054930Y-50379905D01*
X140120095Y-50445070D01*
X140199905Y-50491148D01*
X140288922Y-50515000D01*
X140381078Y-50515000D01*
X140470095Y-50491148D01*
X140549905Y-50445070D01*
X140615070Y-50379905D01*
X140661148Y-50300095D01*
X140685000Y-50211078D01*
X140685000Y-50165000D01*
X140688553Y-50165000D01*
X141343861Y-50820308D01*
X141359631Y-50799425D01*
X141359633Y-50799422D01*
X141458759Y-50600350D01*
X141519621Y-50386439D01*
X141540141Y-50165000D01*
X141540141Y-50164999D01*
X141519621Y-49943560D01*
X141458759Y-49729649D01*
X141359635Y-49530580D01*
X141359630Y-49530572D01*
X141343860Y-49509690D01*
X140688553Y-50164999D01*
X140688553Y-50165000D01*
X140685000Y-50165000D01*
X140685000Y-50118922D01*
X140661148Y-50029905D01*
X140615070Y-49950095D01*
X140549905Y-49884930D01*
X140470095Y-49838852D01*
X140381078Y-49815000D01*
X140288922Y-49815000D01*
X140199905Y-49838852D01*
X140120095Y-49884930D01*
X140054930Y-49950095D01*
X140008852Y-50029905D01*
X139985000Y-50118922D01*
X139985000Y-50211078D01*
X139935369Y-50211078D01*
X139981447Y-50165000D01*
X139326138Y-49509691D01*
X139326137Y-49509691D01*
X139310368Y-49530574D01*
X139211240Y-49729649D01*
X139150378Y-49943560D01*
X139129859Y-50164999D01*
X139129859Y-50165000D01*
X137288174Y-50165000D01*
X137284568Y-50157266D01*
X137154047Y-49970861D01*
X137154045Y-49970858D01*
X136993141Y-49809954D01*
X136806734Y-49679432D01*
X136806728Y-49679429D01*
X136748725Y-49652382D01*
X136696285Y-49606210D01*
X136677133Y-49539017D01*
X136697348Y-49472135D01*
X136748725Y-49427618D01*
X136806734Y-49400568D01*
X136993139Y-49270047D01*
X137154047Y-49109139D01*
X137284568Y-48922734D01*
X137380739Y-48716496D01*
X137439635Y-48496692D01*
X137459468Y-48270000D01*
X137458565Y-48259683D01*
X137441142Y-48060538D01*
X137439635Y-48043308D01*
X137380739Y-47823504D01*
X137288174Y-47625000D01*
X139129357Y-47625000D01*
X139149884Y-47846535D01*
X139149885Y-47846537D01*
X139210769Y-48060523D01*
X139210775Y-48060538D01*
X139309938Y-48259683D01*
X139309943Y-48259691D01*
X139444020Y-48437238D01*
X139608437Y-48587123D01*
X139608439Y-48587125D01*
X139797595Y-48704245D01*
X139797596Y-48704245D01*
X139797599Y-48704247D01*
X139992215Y-48779642D01*
X140047614Y-48822213D01*
X140071205Y-48887980D01*
X140055494Y-48956060D01*
X140005470Y-49004839D01*
X139992213Y-49010893D01*
X139797833Y-49086196D01*
X139797823Y-49086201D01*
X139681671Y-49158119D01*
X140335000Y-49811447D01*
X140335001Y-49811447D01*
X140988327Y-49158119D01*
X140872178Y-49086202D01*
X140872177Y-49086201D01*
X140677786Y-49010894D01*
X140622384Y-48968321D01*
X140598794Y-48902554D01*
X140614505Y-48834474D01*
X140664529Y-48785695D01*
X140677772Y-48779646D01*
X140872401Y-48704247D01*
X141061562Y-48587124D01*
X141225981Y-48437236D01*
X141360058Y-48259689D01*
X141459229Y-48060528D01*
X141520115Y-47846536D01*
X141540643Y-47625000D01*
X141539926Y-47617267D01*
X141520115Y-47403464D01*
X141520114Y-47403462D01*
X141459230Y-47189476D01*
X141459229Y-47189472D01*
X141459224Y-47189461D01*
X141360061Y-46990316D01*
X141360056Y-46990308D01*
X141225979Y-46812761D01*
X141061562Y-46662876D01*
X141061560Y-46662874D01*
X140872404Y-46545754D01*
X140872398Y-46545752D01*
X140664940Y-46465382D01*
X140446243Y-46424500D01*
X140223757Y-46424500D01*
X140005060Y-46465382D01*
X139873864Y-46516207D01*
X139797601Y-46545752D01*
X139797595Y-46545754D01*
X139608439Y-46662874D01*
X139608437Y-46662876D01*
X139444020Y-46812761D01*
X139309943Y-46990308D01*
X139309938Y-46990316D01*
X139210775Y-47189461D01*
X139210769Y-47189476D01*
X139149885Y-47403462D01*
X139149884Y-47403464D01*
X139129357Y-47624999D01*
X139129357Y-47625000D01*
X137288174Y-47625000D01*
X137284568Y-47617266D01*
X137154047Y-47430861D01*
X137154045Y-47430858D01*
X136993141Y-47269954D01*
X136806734Y-47139432D01*
X136806728Y-47139429D01*
X136748725Y-47112382D01*
X136696285Y-47066210D01*
X136677133Y-46999017D01*
X136697348Y-46932135D01*
X136748725Y-46887618D01*
X136806734Y-46860568D01*
X136993139Y-46730047D01*
X137154047Y-46569139D01*
X137284568Y-46382734D01*
X137380739Y-46176496D01*
X137439635Y-45956692D01*
X137459468Y-45730000D01*
X137439635Y-45503308D01*
X137380739Y-45283504D01*
X137284568Y-45077266D01*
X137154047Y-44890861D01*
X137154045Y-44890858D01*
X136993141Y-44729954D01*
X136806734Y-44599432D01*
X136806732Y-44599431D01*
X136783612Y-44588650D01*
X136748132Y-44572105D01*
X136695694Y-44525934D01*
X136676542Y-44458740D01*
X136696758Y-44391859D01*
X136748134Y-44347341D01*
X136806484Y-44320132D01*
X136992820Y-44189657D01*
X137153657Y-44028820D01*
X137284134Y-43842482D01*
X137380265Y-43636326D01*
X137380269Y-43636317D01*
X137432872Y-43440000D01*
X136469686Y-43440000D01*
X136474080Y-43435606D01*
X136526741Y-43344394D01*
X136554000Y-43242661D01*
X136554000Y-43137339D01*
X136526741Y-43035606D01*
X136474080Y-42944394D01*
X136469686Y-42940000D01*
X137432872Y-42940000D01*
X137432872Y-42939999D01*
X137380269Y-42743682D01*
X137380265Y-42743673D01*
X137284134Y-42537517D01*
X137153657Y-42351179D01*
X136992820Y-42190342D01*
X136806482Y-42059866D01*
X136703580Y-42011882D01*
X136651141Y-41965710D01*
X136631989Y-41898516D01*
X136652205Y-41831635D01*
X136705370Y-41786301D01*
X136755985Y-41775500D01*
X139176802Y-41775500D01*
X139243841Y-41795185D01*
X139289596Y-41847989D01*
X139299540Y-41917147D01*
X139287802Y-41954772D01*
X139210775Y-42109461D01*
X139210769Y-42109476D01*
X139149885Y-42323462D01*
X139149884Y-42323464D01*
X139129357Y-42544999D01*
X139129357Y-42545000D01*
X139149884Y-42766535D01*
X139149885Y-42766537D01*
X139210769Y-42980523D01*
X139210775Y-42980538D01*
X139309938Y-43179683D01*
X139309943Y-43179691D01*
X139444020Y-43357238D01*
X139608437Y-43507123D01*
X139608439Y-43507125D01*
X139797595Y-43624245D01*
X139797596Y-43624245D01*
X139797599Y-43624247D01*
X140005060Y-43704618D01*
X140223757Y-43745500D01*
X140223759Y-43745500D01*
X140446241Y-43745500D01*
X140446243Y-43745500D01*
X140664940Y-43704618D01*
X140872401Y-43624247D01*
X141061562Y-43507124D01*
X141225981Y-43357236D01*
X141360058Y-43179689D01*
X141459229Y-42980528D01*
X141520115Y-42766536D01*
X141540643Y-42545000D01*
X141520115Y-42323464D01*
X141459229Y-42109472D01*
X141459224Y-42109461D01*
X141382198Y-41954772D01*
X141369937Y-41885986D01*
X141396810Y-41821491D01*
X141454286Y-41781764D01*
X141493198Y-41775500D01*
X142885500Y-41775500D01*
X142952539Y-41795185D01*
X142998294Y-41847989D01*
X143009500Y-41899500D01*
X143009500Y-57203277D01*
X142989815Y-57270316D01*
X142937011Y-57316071D01*
X142867853Y-57326015D01*
X142804297Y-57296990D01*
X142773118Y-57255682D01*
X142768587Y-57245965D01*
X142715568Y-57132266D01*
X142585047Y-56945861D01*
X142585045Y-56945858D01*
X142424141Y-56784954D01*
X142237734Y-56654432D01*
X142237732Y-56654431D01*
X142031497Y-56558261D01*
X142031488Y-56558258D01*
X141811697Y-56499366D01*
X141811693Y-56499365D01*
X141811692Y-56499365D01*
X141811691Y-56499364D01*
X141811686Y-56499364D01*
X141585002Y-56479532D01*
X141584998Y-56479532D01*
X141358313Y-56499364D01*
X141358302Y-56499366D01*
X141138511Y-56558258D01*
X141138502Y-56558261D01*
X140932267Y-56654431D01*
X140932265Y-56654432D01*
X140745858Y-56784954D01*
X140584954Y-56945858D01*
X140487571Y-57084938D01*
X140454432Y-57132266D01*
X140447380Y-57147387D01*
X140401209Y-57199825D01*
X140334015Y-57218976D01*
X140267134Y-57198760D01*
X140222619Y-57147387D01*
X140215568Y-57132266D01*
X140085047Y-56945861D01*
X140085045Y-56945858D01*
X139924141Y-56784954D01*
X139737734Y-56654432D01*
X139737732Y-56654431D01*
X139531497Y-56558261D01*
X139531488Y-56558258D01*
X139311697Y-56499366D01*
X139311693Y-56499365D01*
X139311692Y-56499365D01*
X139311691Y-56499364D01*
X139311686Y-56499364D01*
X139085002Y-56479532D01*
X139084998Y-56479532D01*
X138858313Y-56499364D01*
X138858302Y-56499366D01*
X138638511Y-56558258D01*
X138638502Y-56558261D01*
X138432267Y-56654431D01*
X138432265Y-56654432D01*
X138245858Y-56784954D01*
X138084954Y-56945858D01*
X137954432Y-57132265D01*
X137954431Y-57132267D01*
X137858261Y-57338502D01*
X137858258Y-57338511D01*
X137799366Y-57558302D01*
X137799364Y-57558313D01*
X137779532Y-57784998D01*
X137779532Y-57785001D01*
X137799364Y-58011686D01*
X137799366Y-58011697D01*
X137858258Y-58231488D01*
X137858261Y-58231497D01*
X137954431Y-58437732D01*
X137954432Y-58437734D01*
X138084954Y-58624141D01*
X138245858Y-58785045D01*
X138245861Y-58785047D01*
X138432266Y-58915568D01*
X138638504Y-59011739D01*
X138858308Y-59070635D01*
X139020230Y-59084801D01*
X139084998Y-59090468D01*
X139085000Y-59090468D01*
X139085002Y-59090468D01*
X139141673Y-59085509D01*
X139311692Y-59070635D01*
X139531496Y-59011739D01*
X139737734Y-58915568D01*
X139924139Y-58785047D01*
X140085047Y-58624139D01*
X140215568Y-58437734D01*
X140222618Y-58422614D01*
X140268789Y-58370176D01*
X140335982Y-58351023D01*
X140402864Y-58371238D01*
X140447381Y-58422614D01*
X140454432Y-58437733D01*
X140454432Y-58437734D01*
X140584954Y-58624141D01*
X140745858Y-58785045D01*
X140745861Y-58785047D01*
X140932266Y-58915568D01*
X141138504Y-59011739D01*
X141358308Y-59070635D01*
X141520230Y-59084801D01*
X141584998Y-59090468D01*
X141585000Y-59090468D01*
X141585002Y-59090468D01*
X141641673Y-59085509D01*
X141811692Y-59070635D01*
X142031496Y-59011739D01*
X142237734Y-58915568D01*
X142424139Y-58785047D01*
X142585047Y-58624139D01*
X142715568Y-58437734D01*
X142773119Y-58314315D01*
X142819290Y-58261878D01*
X142886484Y-58242726D01*
X142953365Y-58262942D01*
X142998699Y-58316107D01*
X143009500Y-58366722D01*
X143009500Y-60378277D01*
X142989815Y-60445316D01*
X142937011Y-60491071D01*
X142867853Y-60501015D01*
X142804297Y-60471990D01*
X142773118Y-60430682D01*
X142746575Y-60373760D01*
X142715568Y-60307266D01*
X142585047Y-60120861D01*
X142585045Y-60120858D01*
X142424141Y-59959954D01*
X142237734Y-59829432D01*
X142237732Y-59829431D01*
X142031497Y-59733261D01*
X142031488Y-59733258D01*
X141811697Y-59674366D01*
X141811693Y-59674365D01*
X141811692Y-59674365D01*
X141811691Y-59674364D01*
X141811686Y-59674364D01*
X141585002Y-59654532D01*
X141584998Y-59654532D01*
X141358313Y-59674364D01*
X141358302Y-59674366D01*
X141138511Y-59733258D01*
X141138502Y-59733261D01*
X140932267Y-59829431D01*
X140932265Y-59829432D01*
X140745858Y-59959954D01*
X140584954Y-60120858D01*
X140464103Y-60293454D01*
X140454432Y-60307266D01*
X140447380Y-60322387D01*
X140401209Y-60374825D01*
X140334015Y-60393976D01*
X140267134Y-60373760D01*
X140222619Y-60322387D01*
X140215568Y-60307266D01*
X140085047Y-60120861D01*
X140085045Y-60120858D01*
X139924141Y-59959954D01*
X139737734Y-59829432D01*
X139737732Y-59829431D01*
X139531497Y-59733261D01*
X139531488Y-59733258D01*
X139311697Y-59674366D01*
X139311693Y-59674365D01*
X139311692Y-59674365D01*
X139311691Y-59674364D01*
X139311686Y-59674364D01*
X139085002Y-59654532D01*
X139084998Y-59654532D01*
X138858313Y-59674364D01*
X138858302Y-59674366D01*
X138638511Y-59733258D01*
X138638502Y-59733261D01*
X138432267Y-59829431D01*
X138432265Y-59829432D01*
X138245858Y-59959954D01*
X138084954Y-60120858D01*
X137954432Y-60307265D01*
X137954431Y-60307267D01*
X137858261Y-60513502D01*
X137858258Y-60513511D01*
X137799366Y-60733302D01*
X137799364Y-60733313D01*
X137779532Y-60959998D01*
X137779532Y-60960001D01*
X137799364Y-61186686D01*
X137799366Y-61186697D01*
X137858258Y-61406488D01*
X137858261Y-61406497D01*
X137954431Y-61612732D01*
X137954432Y-61612734D01*
X138084954Y-61799141D01*
X138245858Y-61960045D01*
X138245861Y-61960047D01*
X138432266Y-62090568D01*
X138512792Y-62128118D01*
X138565231Y-62174291D01*
X138584383Y-62241484D01*
X138564167Y-62308365D01*
X138511002Y-62353700D01*
X138460387Y-62364500D01*
X135361427Y-62364500D01*
X135294388Y-62344815D01*
X135248633Y-62292011D01*
X135238689Y-62222853D01*
X135267714Y-62159297D01*
X135293818Y-62137743D01*
X135293396Y-62137140D01*
X135359907Y-62090568D01*
X135491401Y-61998495D01*
X135658495Y-61831401D01*
X135794035Y-61637830D01*
X135893903Y-61423663D01*
X135955063Y-61195408D01*
X135975659Y-60960000D01*
X135955063Y-60724592D01*
X135898502Y-60513502D01*
X135893905Y-60496344D01*
X135893904Y-60496343D01*
X135893903Y-60496337D01*
X135794035Y-60282171D01*
X135788425Y-60274158D01*
X135658494Y-60088597D01*
X135491402Y-59921506D01*
X135491396Y-59921501D01*
X135305842Y-59791575D01*
X135262217Y-59736998D01*
X135255023Y-59667500D01*
X135286546Y-59605145D01*
X135305842Y-59588425D01*
X135417500Y-59510241D01*
X135491401Y-59458495D01*
X135658495Y-59291401D01*
X135794035Y-59097830D01*
X135893903Y-58883663D01*
X135955063Y-58655408D01*
X135975659Y-58420000D01*
X135955063Y-58184592D01*
X135893903Y-57956337D01*
X135794035Y-57742171D01*
X135788425Y-57734158D01*
X135658494Y-57548597D01*
X135491402Y-57381506D01*
X135491395Y-57381501D01*
X135297834Y-57245967D01*
X135297830Y-57245965D01*
X135239952Y-57218976D01*
X135083663Y-57146097D01*
X135083659Y-57146096D01*
X135083655Y-57146094D01*
X134855413Y-57084938D01*
X134855403Y-57084936D01*
X134620001Y-57064341D01*
X134619999Y-57064341D01*
X134384596Y-57084936D01*
X134384586Y-57084938D01*
X134156344Y-57146094D01*
X134156335Y-57146098D01*
X133942171Y-57245964D01*
X133942169Y-57245965D01*
X133748597Y-57381505D01*
X133581505Y-57548597D01*
X133451575Y-57734158D01*
X133396998Y-57777783D01*
X133327500Y-57784977D01*
X133265145Y-57753454D01*
X133248425Y-57734158D01*
X133118494Y-57548597D01*
X132951402Y-57381506D01*
X132951395Y-57381501D01*
X132757834Y-57245967D01*
X132757830Y-57245965D01*
X132699952Y-57218976D01*
X132543663Y-57146097D01*
X132543659Y-57146096D01*
X132543655Y-57146094D01*
X132315413Y-57084938D01*
X132315403Y-57084936D01*
X132080001Y-57064341D01*
X132079999Y-57064341D01*
X131844596Y-57084936D01*
X131844586Y-57084938D01*
X131616344Y-57146094D01*
X131616335Y-57146098D01*
X131402171Y-57245964D01*
X131402169Y-57245965D01*
X131208597Y-57381505D01*
X131041505Y-57548597D01*
X130911575Y-57734158D01*
X130856998Y-57777783D01*
X130787500Y-57784977D01*
X130725145Y-57753454D01*
X130708425Y-57734158D01*
X130578494Y-57548597D01*
X130411402Y-57381506D01*
X130411395Y-57381501D01*
X130217834Y-57245967D01*
X130217830Y-57245965D01*
X130159952Y-57218976D01*
X130003663Y-57146097D01*
X130003659Y-57146096D01*
X130003655Y-57146094D01*
X129775413Y-57084938D01*
X129775403Y-57084936D01*
X129540001Y-57064341D01*
X129539999Y-57064341D01*
X129304596Y-57084936D01*
X129304586Y-57084938D01*
X129076344Y-57146094D01*
X129076335Y-57146098D01*
X128862171Y-57245964D01*
X128862169Y-57245965D01*
X128668597Y-57381505D01*
X128501505Y-57548597D01*
X128365965Y-57742169D01*
X128365964Y-57742171D01*
X128266098Y-57956335D01*
X128266094Y-57956344D01*
X128204938Y-58184586D01*
X128204936Y-58184596D01*
X128184341Y-58419999D01*
X128184341Y-58420000D01*
X128204936Y-58655403D01*
X128204938Y-58655413D01*
X128266094Y-58883655D01*
X128266096Y-58883659D01*
X128266097Y-58883663D01*
X128280975Y-58915568D01*
X128365965Y-59097830D01*
X128365967Y-59097834D01*
X128474281Y-59252521D01*
X128501501Y-59291396D01*
X128501506Y-59291402D01*
X128623818Y-59413714D01*
X128657303Y-59475037D01*
X128652319Y-59544729D01*
X128610447Y-59600662D01*
X128579471Y-59617577D01*
X128447912Y-59666646D01*
X128447906Y-59666649D01*
X128332812Y-59752809D01*
X128332809Y-59752812D01*
X128246649Y-59867906D01*
X128246645Y-59867913D01*
X128196403Y-60002620D01*
X128196401Y-60002627D01*
X128190000Y-60062155D01*
X128190000Y-60710000D01*
X129106988Y-60710000D01*
X129074075Y-60767007D01*
X129040000Y-60894174D01*
X129040000Y-61025826D01*
X129074075Y-61152993D01*
X129106988Y-61210000D01*
X128190000Y-61210000D01*
X128190000Y-61857844D01*
X128196401Y-61917372D01*
X128196403Y-61917379D01*
X128246645Y-62052086D01*
X128246649Y-62052093D01*
X128332062Y-62166189D01*
X128356480Y-62231653D01*
X128341629Y-62299926D01*
X128292224Y-62349332D01*
X128232796Y-62364500D01*
X127624500Y-62364500D01*
X127557461Y-62344815D01*
X127511706Y-62292011D01*
X127500500Y-62240500D01*
X127500500Y-55841740D01*
X127520185Y-55774701D01*
X127572989Y-55728946D01*
X127642147Y-55719002D01*
X127700662Y-55743887D01*
X127755365Y-55786464D01*
X127755371Y-55786468D01*
X127755374Y-55786470D01*
X127959497Y-55896936D01*
X128073487Y-55936068D01*
X128179015Y-55972297D01*
X128179017Y-55972297D01*
X128179019Y-55972298D01*
X128407951Y-56010500D01*
X128407952Y-56010500D01*
X128640048Y-56010500D01*
X128640049Y-56010500D01*
X128868981Y-55972298D01*
X129088503Y-55896936D01*
X129292626Y-55786470D01*
X129475784Y-55643913D01*
X129554992Y-55557870D01*
X134743500Y-55557870D01*
X134743501Y-55557876D01*
X134749908Y-55617483D01*
X134800202Y-55752328D01*
X134800206Y-55752335D01*
X134886452Y-55867544D01*
X134886455Y-55867547D01*
X135001664Y-55953793D01*
X135001671Y-55953797D01*
X135136517Y-56004091D01*
X135136516Y-56004091D01*
X135143444Y-56004835D01*
X135196127Y-56010500D01*
X137091872Y-56010499D01*
X137151483Y-56004091D01*
X137286331Y-55953796D01*
X137401546Y-55867546D01*
X137487796Y-55752331D01*
X137538091Y-55617483D01*
X137544500Y-55557873D01*
X137544500Y-55245000D01*
X139129357Y-55245000D01*
X139149884Y-55466535D01*
X139149885Y-55466537D01*
X139210769Y-55680523D01*
X139210775Y-55680538D01*
X139309938Y-55879683D01*
X139309943Y-55879691D01*
X139444020Y-56057238D01*
X139608437Y-56207123D01*
X139608439Y-56207125D01*
X139797595Y-56324245D01*
X139797596Y-56324245D01*
X139797599Y-56324247D01*
X140005060Y-56404618D01*
X140223757Y-56445500D01*
X140223759Y-56445500D01*
X140446241Y-56445500D01*
X140446243Y-56445500D01*
X140664940Y-56404618D01*
X140872401Y-56324247D01*
X141061562Y-56207124D01*
X141225981Y-56057236D01*
X141360058Y-55879689D01*
X141459229Y-55680528D01*
X141520115Y-55466536D01*
X141540643Y-55245000D01*
X141520115Y-55023464D01*
X141459229Y-54809472D01*
X141459224Y-54809461D01*
X141360061Y-54610316D01*
X141360056Y-54610308D01*
X141225979Y-54432761D01*
X141061562Y-54282876D01*
X141061560Y-54282874D01*
X140872404Y-54165754D01*
X140872398Y-54165752D01*
X140664940Y-54085382D01*
X140446243Y-54044500D01*
X140223757Y-54044500D01*
X140005060Y-54085382D01*
X139873864Y-54136207D01*
X139797601Y-54165752D01*
X139797595Y-54165754D01*
X139608439Y-54282874D01*
X139608437Y-54282876D01*
X139444020Y-54432761D01*
X139309943Y-54610308D01*
X139309938Y-54610316D01*
X139210775Y-54809461D01*
X139210769Y-54809476D01*
X139149885Y-55023462D01*
X139149884Y-55023464D01*
X139129357Y-55244999D01*
X139129357Y-55245000D01*
X137544500Y-55245000D01*
X137544499Y-53662128D01*
X137538091Y-53602517D01*
X137528233Y-53576087D01*
X137487797Y-53467671D01*
X137487793Y-53467664D01*
X137401547Y-53352455D01*
X137401544Y-53352452D01*
X137286335Y-53266206D01*
X137286328Y-53266202D01*
X137151482Y-53215908D01*
X137151483Y-53215908D01*
X137091883Y-53209501D01*
X137091881Y-53209500D01*
X137091873Y-53209500D01*
X137091864Y-53209500D01*
X135196129Y-53209500D01*
X135196123Y-53209501D01*
X135136516Y-53215908D01*
X135001671Y-53266202D01*
X135001664Y-53266206D01*
X134886455Y-53352452D01*
X134886452Y-53352455D01*
X134800206Y-53467664D01*
X134800202Y-53467671D01*
X134749908Y-53602517D01*
X134743501Y-53662116D01*
X134743501Y-53662123D01*
X134743500Y-53662135D01*
X134743500Y-55557870D01*
X129554992Y-55557870D01*
X129632979Y-55473153D01*
X129759924Y-55278849D01*
X129853157Y-55066300D01*
X129910134Y-54841305D01*
X129910135Y-54841297D01*
X129929300Y-54610006D01*
X129929300Y-54609993D01*
X129910135Y-54378702D01*
X129910133Y-54378691D01*
X129853157Y-54153699D01*
X129759924Y-53941151D01*
X129632983Y-53746852D01*
X129632980Y-53746849D01*
X129632979Y-53746847D01*
X129475784Y-53576087D01*
X129475779Y-53576083D01*
X129475777Y-53576081D01*
X129292634Y-53433535D01*
X129292628Y-53433531D01*
X129088504Y-53323064D01*
X129088495Y-53323061D01*
X128868984Y-53247702D01*
X128678450Y-53215908D01*
X128640049Y-53209500D01*
X128407951Y-53209500D01*
X128369550Y-53215908D01*
X128179015Y-53247702D01*
X127959504Y-53323061D01*
X127959495Y-53323064D01*
X127755371Y-53433531D01*
X127755365Y-53433535D01*
X127700662Y-53476113D01*
X127635668Y-53501756D01*
X127567128Y-53488190D01*
X127516804Y-53439721D01*
X127500500Y-53378260D01*
X127500500Y-51911543D01*
X127520185Y-51844504D01*
X127572989Y-51798749D01*
X127642147Y-51788805D01*
X127695624Y-51809969D01*
X127881510Y-51940129D01*
X127881516Y-51940133D01*
X128087673Y-52036265D01*
X128087682Y-52036269D01*
X128283999Y-52088872D01*
X128284000Y-52088871D01*
X128284000Y-51125686D01*
X128288394Y-51130080D01*
X128379606Y-51182741D01*
X128481339Y-51210000D01*
X128586661Y-51210000D01*
X128688394Y-51182741D01*
X128779606Y-51130080D01*
X128784000Y-51125686D01*
X128784000Y-52088872D01*
X128980317Y-52036269D01*
X128980326Y-52036265D01*
X129186482Y-51940134D01*
X129372820Y-51809657D01*
X129533657Y-51648820D01*
X129664134Y-51462482D01*
X129760265Y-51256326D01*
X129760269Y-51256317D01*
X129812872Y-51060000D01*
X128849686Y-51060000D01*
X128854080Y-51055606D01*
X128906741Y-50964394D01*
X128934000Y-50862661D01*
X128934000Y-50757339D01*
X128906741Y-50655606D01*
X128854080Y-50564394D01*
X128849686Y-50560000D01*
X129812872Y-50560000D01*
X129812872Y-50559999D01*
X129760269Y-50363682D01*
X129760265Y-50363673D01*
X129664134Y-50157517D01*
X129533657Y-49971179D01*
X129372820Y-49810342D01*
X129186482Y-49679865D01*
X129128133Y-49652657D01*
X129075694Y-49606484D01*
X129056542Y-49539291D01*
X129076758Y-49472410D01*
X129128129Y-49427895D01*
X129186734Y-49400568D01*
X129373139Y-49270047D01*
X129534047Y-49109139D01*
X129664568Y-48922734D01*
X129760739Y-48716496D01*
X129819635Y-48496692D01*
X129839468Y-48270000D01*
X129838565Y-48259683D01*
X129821142Y-48060538D01*
X129819635Y-48043308D01*
X129760739Y-47823504D01*
X129664568Y-47617266D01*
X129534047Y-47430861D01*
X129534045Y-47430858D01*
X129373141Y-47269954D01*
X129186734Y-47139432D01*
X129186728Y-47139429D01*
X129128725Y-47112382D01*
X129076285Y-47066210D01*
X129057133Y-46999017D01*
X129077348Y-46932135D01*
X129128725Y-46887618D01*
X129186734Y-46860568D01*
X129373139Y-46730047D01*
X129534047Y-46569139D01*
X129664568Y-46382734D01*
X129760739Y-46176496D01*
X129819635Y-45956692D01*
X129839468Y-45730000D01*
X129819635Y-45503308D01*
X129760739Y-45283504D01*
X129664568Y-45077266D01*
X129534047Y-44890861D01*
X129534045Y-44890858D01*
X129373143Y-44729956D01*
X129348536Y-44712726D01*
X129304912Y-44658149D01*
X129297719Y-44588650D01*
X129329241Y-44526296D01*
X129389471Y-44490882D01*
X129406404Y-44487861D01*
X129441483Y-44484091D01*
X129576331Y-44433796D01*
X129691546Y-44347546D01*
X129777796Y-44232331D01*
X129828091Y-44097483D01*
X129834500Y-44037873D01*
X129834499Y-42342128D01*
X129828091Y-42282517D01*
X129777796Y-42147669D01*
X129777795Y-42147668D01*
X129777793Y-42147664D01*
X129726123Y-42078643D01*
X129691546Y-42032454D01*
X129646543Y-41998765D01*
X129604674Y-41942833D01*
X129599690Y-41873141D01*
X129633175Y-41811818D01*
X129694499Y-41778334D01*
X129720856Y-41775500D01*
X135552015Y-41775500D01*
X135619054Y-41795185D01*
G37*
G04 #@! TD.AperFunction*
M02*
