%TF.GenerationSoftware,KiCad,Pcbnew,8.0.1-8.0.1-1~ubuntu22.04.1*%
%TF.CreationDate,2024-07-15T21:43:55-04:00*%
%TF.ProjectId,Clock_Addon,436c6f63-6b5f-4416-9464-6f6e2e6b6963,rev?*%
%TF.SameCoordinates,Original*%
%TF.FileFunction,Drillmap*%
%TF.FilePolarity,Positive*%
%FSLAX45Y45*%
G04 Gerber Fmt 4.5, Leading zero omitted, Abs format (unit mm)*
G04 Created by KiCad (PCBNEW 8.0.1-8.0.1-1~ubuntu22.04.1) date 2024-07-15 21:43:55*
%MOMM*%
%LPD*%
G01*
G04 APERTURE LIST*
%ADD10C,0.050000*%
%ADD11C,0.200000*%
%ADD12C,0.100000*%
G04 APERTURE END LIST*
D10*
X12700000Y-4127500D02*
X14351000Y-4127500D01*
X14351000Y-6286500D01*
X12700000Y-6286500D01*
X12700000Y-4127500D01*
D11*
D12*
X13998500Y-4219500D02*
X14068500Y-4289500D01*
X14068500Y-4219500D02*
X13998500Y-4289500D01*
X13998500Y-4727500D02*
X14068500Y-4797500D01*
X14068500Y-4727500D02*
X13998500Y-4797500D01*
X13998500Y-4981500D02*
X14068500Y-5051500D01*
X14068500Y-4981500D02*
X13998500Y-5051500D01*
X13998500Y-5489500D02*
X14068500Y-5559500D01*
X14068500Y-5489500D02*
X13998500Y-5559500D01*
X12893400Y-4319000D02*
G75*
G02*
X12813400Y-4319000I-40000J0D01*
G01*
X12813400Y-4319000D02*
G75*
G02*
X12893400Y-4319000I40000J0D01*
G01*
X12893400Y-4573000D02*
G75*
G02*
X12813400Y-4573000I-40000J0D01*
G01*
X12813400Y-4573000D02*
G75*
G02*
X12893400Y-4573000I40000J0D01*
G01*
X12893400Y-4827000D02*
G75*
G02*
X12813400Y-4827000I-40000J0D01*
G01*
X12813400Y-4827000D02*
G75*
G02*
X12893400Y-4827000I40000J0D01*
G01*
X12893400Y-5081000D02*
G75*
G02*
X12813400Y-5081000I-40000J0D01*
G01*
X12813400Y-5081000D02*
G75*
G02*
X12893400Y-5081000I40000J0D01*
G01*
X13655400Y-4319000D02*
G75*
G02*
X13575400Y-4319000I-40000J0D01*
G01*
X13575400Y-4319000D02*
G75*
G02*
X13655400Y-4319000I40000J0D01*
G01*
X13655400Y-4573000D02*
G75*
G02*
X13575400Y-4573000I-40000J0D01*
G01*
X13575400Y-4573000D02*
G75*
G02*
X13655400Y-4573000I40000J0D01*
G01*
X13655400Y-4827000D02*
G75*
G02*
X13575400Y-4827000I-40000J0D01*
G01*
X13575400Y-4827000D02*
G75*
G02*
X13655400Y-4827000I40000J0D01*
G01*
X13655400Y-5081000D02*
G75*
G02*
X13575400Y-5081000I-40000J0D01*
G01*
X13575400Y-5081000D02*
G75*
G02*
X13655400Y-5081000I40000J0D01*
G01*
X13948500Y-5778500D02*
G75*
G02*
X13868500Y-5778500I-40000J0D01*
G01*
X13868500Y-5778500D02*
G75*
G02*
X13948500Y-5778500I40000J0D01*
G01*
X13948500Y-6096000D02*
G75*
G02*
X13868500Y-6096000I-40000J0D01*
G01*
X13868500Y-6096000D02*
G75*
G02*
X13948500Y-6096000I40000J0D01*
G01*
X14198500Y-5778500D02*
G75*
G02*
X14118500Y-5778500I-40000J0D01*
G01*
X14118500Y-5778500D02*
G75*
G02*
X14198500Y-5778500I40000J0D01*
G01*
X14198500Y-6096000D02*
G75*
G02*
X14118500Y-6096000I-40000J0D01*
G01*
X14118500Y-6096000D02*
G75*
G02*
X14198500Y-6096000I40000J0D01*
G01*
X12852400Y-5416000D02*
X12852400Y-5506000D01*
X12807400Y-5461000D02*
X12897400Y-5461000D01*
X13614400Y-5416000D02*
X13614400Y-5506000D01*
X13569400Y-5461000D02*
X13659400Y-5461000D01*
X12989356Y-5877356D02*
X12989356Y-5806644D01*
X12918644Y-5806644D01*
X12918644Y-5877356D01*
X12989356Y-5877356D01*
X12989356Y-6131356D02*
X12989356Y-6060644D01*
X12918644Y-6060644D01*
X12918644Y-6131356D01*
X12989356Y-6131356D01*
X13243356Y-5877356D02*
X13243356Y-5806644D01*
X13172644Y-5806644D01*
X13172644Y-5877356D01*
X13243356Y-5877356D01*
X13243356Y-6131356D02*
X13243356Y-6060644D01*
X13172644Y-6060644D01*
X13172644Y-6131356D01*
X13243356Y-6131356D01*
X13497356Y-5877356D02*
X13497356Y-5806644D01*
X13426644Y-5806644D01*
X13426644Y-5877356D01*
X13497356Y-5877356D01*
X13497356Y-6131356D02*
X13497356Y-6060644D01*
X13426644Y-6060644D01*
X13426644Y-6131356D01*
X13497356Y-6131356D01*
D11*
X12958277Y-6600484D02*
X12958277Y-6400484D01*
X12958277Y-6400484D02*
X13005896Y-6400484D01*
X13005896Y-6400484D02*
X13034467Y-6410008D01*
X13034467Y-6410008D02*
X13053515Y-6429055D01*
X13053515Y-6429055D02*
X13063039Y-6448103D01*
X13063039Y-6448103D02*
X13072562Y-6486198D01*
X13072562Y-6486198D02*
X13072562Y-6514769D01*
X13072562Y-6514769D02*
X13063039Y-6552865D01*
X13063039Y-6552865D02*
X13053515Y-6571912D01*
X13053515Y-6571912D02*
X13034467Y-6590960D01*
X13034467Y-6590960D02*
X13005896Y-6600484D01*
X13005896Y-6600484D02*
X12958277Y-6600484D01*
X13158277Y-6600484D02*
X13158277Y-6467150D01*
X13158277Y-6505246D02*
X13167801Y-6486198D01*
X13167801Y-6486198D02*
X13177324Y-6476674D01*
X13177324Y-6476674D02*
X13196372Y-6467150D01*
X13196372Y-6467150D02*
X13215420Y-6467150D01*
X13282086Y-6600484D02*
X13282086Y-6467150D01*
X13282086Y-6400484D02*
X13272562Y-6410008D01*
X13272562Y-6410008D02*
X13282086Y-6419531D01*
X13282086Y-6419531D02*
X13291610Y-6410008D01*
X13291610Y-6410008D02*
X13282086Y-6400484D01*
X13282086Y-6400484D02*
X13282086Y-6419531D01*
X13405896Y-6600484D02*
X13386848Y-6590960D01*
X13386848Y-6590960D02*
X13377324Y-6571912D01*
X13377324Y-6571912D02*
X13377324Y-6400484D01*
X13510658Y-6600484D02*
X13491610Y-6590960D01*
X13491610Y-6590960D02*
X13482086Y-6571912D01*
X13482086Y-6571912D02*
X13482086Y-6400484D01*
X13739229Y-6600484D02*
X13739229Y-6400484D01*
X13739229Y-6400484D02*
X13805896Y-6543341D01*
X13805896Y-6543341D02*
X13872562Y-6400484D01*
X13872562Y-6400484D02*
X13872562Y-6600484D01*
X14053515Y-6600484D02*
X14053515Y-6495722D01*
X14053515Y-6495722D02*
X14043991Y-6476674D01*
X14043991Y-6476674D02*
X14024943Y-6467150D01*
X14024943Y-6467150D02*
X13986848Y-6467150D01*
X13986848Y-6467150D02*
X13967801Y-6476674D01*
X14053515Y-6590960D02*
X14034467Y-6600484D01*
X14034467Y-6600484D02*
X13986848Y-6600484D01*
X13986848Y-6600484D02*
X13967801Y-6590960D01*
X13967801Y-6590960D02*
X13958277Y-6571912D01*
X13958277Y-6571912D02*
X13958277Y-6552865D01*
X13958277Y-6552865D02*
X13967801Y-6533817D01*
X13967801Y-6533817D02*
X13986848Y-6524293D01*
X13986848Y-6524293D02*
X14034467Y-6524293D01*
X14034467Y-6524293D02*
X14053515Y-6514769D01*
X14148753Y-6467150D02*
X14148753Y-6667150D01*
X14148753Y-6476674D02*
X14167801Y-6467150D01*
X14167801Y-6467150D02*
X14205896Y-6467150D01*
X14205896Y-6467150D02*
X14224943Y-6476674D01*
X14224943Y-6476674D02*
X14234467Y-6486198D01*
X14234467Y-6486198D02*
X14243991Y-6505246D01*
X14243991Y-6505246D02*
X14243991Y-6562388D01*
X14243991Y-6562388D02*
X14234467Y-6581436D01*
X14234467Y-6581436D02*
X14224943Y-6590960D01*
X14224943Y-6590960D02*
X14205896Y-6600484D01*
X14205896Y-6600484D02*
X14167801Y-6600484D01*
X14167801Y-6600484D02*
X14148753Y-6590960D01*
X14329705Y-6581436D02*
X14339229Y-6590960D01*
X14339229Y-6590960D02*
X14329705Y-6600484D01*
X14329705Y-6600484D02*
X14320182Y-6590960D01*
X14320182Y-6590960D02*
X14329705Y-6581436D01*
X14329705Y-6581436D02*
X14329705Y-6600484D01*
X14329705Y-6476674D02*
X14339229Y-6486198D01*
X14339229Y-6486198D02*
X14329705Y-6495722D01*
X14329705Y-6495722D02*
X14320182Y-6486198D01*
X14320182Y-6486198D02*
X14329705Y-6476674D01*
X14329705Y-6476674D02*
X14329705Y-6495722D01*
D12*
X12627500Y-6894000D02*
X12697500Y-6964000D01*
X12697500Y-6894000D02*
X12627500Y-6964000D01*
D11*
X12996372Y-6820484D02*
X13015420Y-6820484D01*
X13015420Y-6820484D02*
X13034467Y-6830008D01*
X13034467Y-6830008D02*
X13043991Y-6839531D01*
X13043991Y-6839531D02*
X13053515Y-6858579D01*
X13053515Y-6858579D02*
X13063039Y-6896674D01*
X13063039Y-6896674D02*
X13063039Y-6944293D01*
X13063039Y-6944293D02*
X13053515Y-6982388D01*
X13053515Y-6982388D02*
X13043991Y-7001436D01*
X13043991Y-7001436D02*
X13034467Y-7010960D01*
X13034467Y-7010960D02*
X13015420Y-7020484D01*
X13015420Y-7020484D02*
X12996372Y-7020484D01*
X12996372Y-7020484D02*
X12977324Y-7010960D01*
X12977324Y-7010960D02*
X12967801Y-7001436D01*
X12967801Y-7001436D02*
X12958277Y-6982388D01*
X12958277Y-6982388D02*
X12948753Y-6944293D01*
X12948753Y-6944293D02*
X12948753Y-6896674D01*
X12948753Y-6896674D02*
X12958277Y-6858579D01*
X12958277Y-6858579D02*
X12967801Y-6839531D01*
X12967801Y-6839531D02*
X12977324Y-6830008D01*
X12977324Y-6830008D02*
X12996372Y-6820484D01*
X13148753Y-7001436D02*
X13158277Y-7010960D01*
X13158277Y-7010960D02*
X13148753Y-7020484D01*
X13148753Y-7020484D02*
X13139229Y-7010960D01*
X13139229Y-7010960D02*
X13148753Y-7001436D01*
X13148753Y-7001436D02*
X13148753Y-7020484D01*
X13224943Y-6820484D02*
X13358277Y-6820484D01*
X13358277Y-6820484D02*
X13272562Y-7020484D01*
X13472562Y-6820484D02*
X13491610Y-6820484D01*
X13491610Y-6820484D02*
X13510658Y-6830008D01*
X13510658Y-6830008D02*
X13520182Y-6839531D01*
X13520182Y-6839531D02*
X13529705Y-6858579D01*
X13529705Y-6858579D02*
X13539229Y-6896674D01*
X13539229Y-6896674D02*
X13539229Y-6944293D01*
X13539229Y-6944293D02*
X13529705Y-6982388D01*
X13529705Y-6982388D02*
X13520182Y-7001436D01*
X13520182Y-7001436D02*
X13510658Y-7010960D01*
X13510658Y-7010960D02*
X13491610Y-7020484D01*
X13491610Y-7020484D02*
X13472562Y-7020484D01*
X13472562Y-7020484D02*
X13453515Y-7010960D01*
X13453515Y-7010960D02*
X13443991Y-7001436D01*
X13443991Y-7001436D02*
X13434467Y-6982388D01*
X13434467Y-6982388D02*
X13424943Y-6944293D01*
X13424943Y-6944293D02*
X13424943Y-6896674D01*
X13424943Y-6896674D02*
X13434467Y-6858579D01*
X13434467Y-6858579D02*
X13443991Y-6839531D01*
X13443991Y-6839531D02*
X13453515Y-6830008D01*
X13453515Y-6830008D02*
X13472562Y-6820484D01*
X13663039Y-6820484D02*
X13682086Y-6820484D01*
X13682086Y-6820484D02*
X13701134Y-6830008D01*
X13701134Y-6830008D02*
X13710658Y-6839531D01*
X13710658Y-6839531D02*
X13720182Y-6858579D01*
X13720182Y-6858579D02*
X13729705Y-6896674D01*
X13729705Y-6896674D02*
X13729705Y-6944293D01*
X13729705Y-6944293D02*
X13720182Y-6982388D01*
X13720182Y-6982388D02*
X13710658Y-7001436D01*
X13710658Y-7001436D02*
X13701134Y-7010960D01*
X13701134Y-7010960D02*
X13682086Y-7020484D01*
X13682086Y-7020484D02*
X13663039Y-7020484D01*
X13663039Y-7020484D02*
X13643991Y-7010960D01*
X13643991Y-7010960D02*
X13634467Y-7001436D01*
X13634467Y-7001436D02*
X13624943Y-6982388D01*
X13624943Y-6982388D02*
X13615420Y-6944293D01*
X13615420Y-6944293D02*
X13615420Y-6896674D01*
X13615420Y-6896674D02*
X13624943Y-6858579D01*
X13624943Y-6858579D02*
X13634467Y-6839531D01*
X13634467Y-6839531D02*
X13643991Y-6830008D01*
X13643991Y-6830008D02*
X13663039Y-6820484D01*
X13815420Y-7020484D02*
X13815420Y-6887150D01*
X13815420Y-6906198D02*
X13824943Y-6896674D01*
X13824943Y-6896674D02*
X13843991Y-6887150D01*
X13843991Y-6887150D02*
X13872563Y-6887150D01*
X13872563Y-6887150D02*
X13891610Y-6896674D01*
X13891610Y-6896674D02*
X13901134Y-6915722D01*
X13901134Y-6915722D02*
X13901134Y-7020484D01*
X13901134Y-6915722D02*
X13910658Y-6896674D01*
X13910658Y-6896674D02*
X13929705Y-6887150D01*
X13929705Y-6887150D02*
X13958277Y-6887150D01*
X13958277Y-6887150D02*
X13977324Y-6896674D01*
X13977324Y-6896674D02*
X13986848Y-6915722D01*
X13986848Y-6915722D02*
X13986848Y-7020484D01*
X14082086Y-7020484D02*
X14082086Y-6887150D01*
X14082086Y-6906198D02*
X14091610Y-6896674D01*
X14091610Y-6896674D02*
X14110658Y-6887150D01*
X14110658Y-6887150D02*
X14139229Y-6887150D01*
X14139229Y-6887150D02*
X14158277Y-6896674D01*
X14158277Y-6896674D02*
X14167801Y-6915722D01*
X14167801Y-6915722D02*
X14167801Y-7020484D01*
X14167801Y-6915722D02*
X14177324Y-6896674D01*
X14177324Y-6896674D02*
X14196372Y-6887150D01*
X14196372Y-6887150D02*
X14224943Y-6887150D01*
X14224943Y-6887150D02*
X14243991Y-6896674D01*
X14243991Y-6896674D02*
X14253515Y-6915722D01*
X14253515Y-6915722D02*
X14253515Y-7020484D01*
X14643991Y-6810960D02*
X14472563Y-7068103D01*
X14901134Y-6820484D02*
X14920182Y-6820484D01*
X14920182Y-6820484D02*
X14939229Y-6830008D01*
X14939229Y-6830008D02*
X14948753Y-6839531D01*
X14948753Y-6839531D02*
X14958277Y-6858579D01*
X14958277Y-6858579D02*
X14967801Y-6896674D01*
X14967801Y-6896674D02*
X14967801Y-6944293D01*
X14967801Y-6944293D02*
X14958277Y-6982388D01*
X14958277Y-6982388D02*
X14948753Y-7001436D01*
X14948753Y-7001436D02*
X14939229Y-7010960D01*
X14939229Y-7010960D02*
X14920182Y-7020484D01*
X14920182Y-7020484D02*
X14901134Y-7020484D01*
X14901134Y-7020484D02*
X14882086Y-7010960D01*
X14882086Y-7010960D02*
X14872563Y-7001436D01*
X14872563Y-7001436D02*
X14863039Y-6982388D01*
X14863039Y-6982388D02*
X14853515Y-6944293D01*
X14853515Y-6944293D02*
X14853515Y-6896674D01*
X14853515Y-6896674D02*
X14863039Y-6858579D01*
X14863039Y-6858579D02*
X14872563Y-6839531D01*
X14872563Y-6839531D02*
X14882086Y-6830008D01*
X14882086Y-6830008D02*
X14901134Y-6820484D01*
X15053515Y-7001436D02*
X15063039Y-7010960D01*
X15063039Y-7010960D02*
X15053515Y-7020484D01*
X15053515Y-7020484D02*
X15043991Y-7010960D01*
X15043991Y-7010960D02*
X15053515Y-7001436D01*
X15053515Y-7001436D02*
X15053515Y-7020484D01*
X15186848Y-6820484D02*
X15205896Y-6820484D01*
X15205896Y-6820484D02*
X15224944Y-6830008D01*
X15224944Y-6830008D02*
X15234467Y-6839531D01*
X15234467Y-6839531D02*
X15243991Y-6858579D01*
X15243991Y-6858579D02*
X15253515Y-6896674D01*
X15253515Y-6896674D02*
X15253515Y-6944293D01*
X15253515Y-6944293D02*
X15243991Y-6982388D01*
X15243991Y-6982388D02*
X15234467Y-7001436D01*
X15234467Y-7001436D02*
X15224944Y-7010960D01*
X15224944Y-7010960D02*
X15205896Y-7020484D01*
X15205896Y-7020484D02*
X15186848Y-7020484D01*
X15186848Y-7020484D02*
X15167801Y-7010960D01*
X15167801Y-7010960D02*
X15158277Y-7001436D01*
X15158277Y-7001436D02*
X15148753Y-6982388D01*
X15148753Y-6982388D02*
X15139229Y-6944293D01*
X15139229Y-6944293D02*
X15139229Y-6896674D01*
X15139229Y-6896674D02*
X15148753Y-6858579D01*
X15148753Y-6858579D02*
X15158277Y-6839531D01*
X15158277Y-6839531D02*
X15167801Y-6830008D01*
X15167801Y-6830008D02*
X15186848Y-6820484D01*
X15329706Y-6839531D02*
X15339229Y-6830008D01*
X15339229Y-6830008D02*
X15358277Y-6820484D01*
X15358277Y-6820484D02*
X15405896Y-6820484D01*
X15405896Y-6820484D02*
X15424944Y-6830008D01*
X15424944Y-6830008D02*
X15434467Y-6839531D01*
X15434467Y-6839531D02*
X15443991Y-6858579D01*
X15443991Y-6858579D02*
X15443991Y-6877627D01*
X15443991Y-6877627D02*
X15434467Y-6906198D01*
X15434467Y-6906198D02*
X15320182Y-7020484D01*
X15320182Y-7020484D02*
X15443991Y-7020484D01*
X15510658Y-6820484D02*
X15643991Y-6820484D01*
X15643991Y-6820484D02*
X15558277Y-7020484D01*
X15805896Y-6820484D02*
X15767801Y-6820484D01*
X15767801Y-6820484D02*
X15748753Y-6830008D01*
X15748753Y-6830008D02*
X15739229Y-6839531D01*
X15739229Y-6839531D02*
X15720182Y-6868103D01*
X15720182Y-6868103D02*
X15710658Y-6906198D01*
X15710658Y-6906198D02*
X15710658Y-6982388D01*
X15710658Y-6982388D02*
X15720182Y-7001436D01*
X15720182Y-7001436D02*
X15729706Y-7010960D01*
X15729706Y-7010960D02*
X15748753Y-7020484D01*
X15748753Y-7020484D02*
X15786848Y-7020484D01*
X15786848Y-7020484D02*
X15805896Y-7010960D01*
X15805896Y-7010960D02*
X15815420Y-7001436D01*
X15815420Y-7001436D02*
X15824944Y-6982388D01*
X15824944Y-6982388D02*
X15824944Y-6934769D01*
X15824944Y-6934769D02*
X15815420Y-6915722D01*
X15815420Y-6915722D02*
X15805896Y-6906198D01*
X15805896Y-6906198D02*
X15786848Y-6896674D01*
X15786848Y-6896674D02*
X15748753Y-6896674D01*
X15748753Y-6896674D02*
X15729706Y-6906198D01*
X15729706Y-6906198D02*
X15720182Y-6915722D01*
X15720182Y-6915722D02*
X15710658Y-6934769D01*
X15901134Y-6820484D02*
X15901134Y-6858579D01*
X15977325Y-6820484D02*
X15977325Y-6858579D01*
X16272563Y-7096674D02*
X16263039Y-7087150D01*
X16263039Y-7087150D02*
X16243991Y-7058579D01*
X16243991Y-7058579D02*
X16234468Y-7039531D01*
X16234468Y-7039531D02*
X16224944Y-7010960D01*
X16224944Y-7010960D02*
X16215420Y-6963341D01*
X16215420Y-6963341D02*
X16215420Y-6925246D01*
X16215420Y-6925246D02*
X16224944Y-6877627D01*
X16224944Y-6877627D02*
X16234468Y-6849055D01*
X16234468Y-6849055D02*
X16243991Y-6830008D01*
X16243991Y-6830008D02*
X16263039Y-6801436D01*
X16263039Y-6801436D02*
X16272563Y-6791912D01*
X16434468Y-6887150D02*
X16434468Y-7020484D01*
X16386848Y-6810960D02*
X16339229Y-6953817D01*
X16339229Y-6953817D02*
X16463039Y-6953817D01*
X16691610Y-7020484D02*
X16691610Y-6820484D01*
X16777325Y-7020484D02*
X16777325Y-6915722D01*
X16777325Y-6915722D02*
X16767801Y-6896674D01*
X16767801Y-6896674D02*
X16748753Y-6887150D01*
X16748753Y-6887150D02*
X16720182Y-6887150D01*
X16720182Y-6887150D02*
X16701134Y-6896674D01*
X16701134Y-6896674D02*
X16691610Y-6906198D01*
X16901134Y-7020484D02*
X16882087Y-7010960D01*
X16882087Y-7010960D02*
X16872563Y-7001436D01*
X16872563Y-7001436D02*
X16863039Y-6982388D01*
X16863039Y-6982388D02*
X16863039Y-6925246D01*
X16863039Y-6925246D02*
X16872563Y-6906198D01*
X16872563Y-6906198D02*
X16882087Y-6896674D01*
X16882087Y-6896674D02*
X16901134Y-6887150D01*
X16901134Y-6887150D02*
X16929706Y-6887150D01*
X16929706Y-6887150D02*
X16948753Y-6896674D01*
X16948753Y-6896674D02*
X16958277Y-6906198D01*
X16958277Y-6906198D02*
X16967801Y-6925246D01*
X16967801Y-6925246D02*
X16967801Y-6982388D01*
X16967801Y-6982388D02*
X16958277Y-7001436D01*
X16958277Y-7001436D02*
X16948753Y-7010960D01*
X16948753Y-7010960D02*
X16929706Y-7020484D01*
X16929706Y-7020484D02*
X16901134Y-7020484D01*
X17082087Y-7020484D02*
X17063039Y-7010960D01*
X17063039Y-7010960D02*
X17053515Y-6991912D01*
X17053515Y-6991912D02*
X17053515Y-6820484D01*
X17234468Y-7010960D02*
X17215420Y-7020484D01*
X17215420Y-7020484D02*
X17177325Y-7020484D01*
X17177325Y-7020484D02*
X17158277Y-7010960D01*
X17158277Y-7010960D02*
X17148753Y-6991912D01*
X17148753Y-6991912D02*
X17148753Y-6915722D01*
X17148753Y-6915722D02*
X17158277Y-6896674D01*
X17158277Y-6896674D02*
X17177325Y-6887150D01*
X17177325Y-6887150D02*
X17215420Y-6887150D01*
X17215420Y-6887150D02*
X17234468Y-6896674D01*
X17234468Y-6896674D02*
X17243992Y-6915722D01*
X17243992Y-6915722D02*
X17243992Y-6934769D01*
X17243992Y-6934769D02*
X17148753Y-6953817D01*
X17320182Y-7010960D02*
X17339230Y-7020484D01*
X17339230Y-7020484D02*
X17377325Y-7020484D01*
X17377325Y-7020484D02*
X17396373Y-7010960D01*
X17396373Y-7010960D02*
X17405896Y-6991912D01*
X17405896Y-6991912D02*
X17405896Y-6982388D01*
X17405896Y-6982388D02*
X17396373Y-6963341D01*
X17396373Y-6963341D02*
X17377325Y-6953817D01*
X17377325Y-6953817D02*
X17348753Y-6953817D01*
X17348753Y-6953817D02*
X17329706Y-6944293D01*
X17329706Y-6944293D02*
X17320182Y-6925246D01*
X17320182Y-6925246D02*
X17320182Y-6915722D01*
X17320182Y-6915722D02*
X17329706Y-6896674D01*
X17329706Y-6896674D02*
X17348753Y-6887150D01*
X17348753Y-6887150D02*
X17377325Y-6887150D01*
X17377325Y-6887150D02*
X17396373Y-6896674D01*
X17472563Y-7096674D02*
X17482087Y-7087150D01*
X17482087Y-7087150D02*
X17501134Y-7058579D01*
X17501134Y-7058579D02*
X17510658Y-7039531D01*
X17510658Y-7039531D02*
X17520182Y-7010960D01*
X17520182Y-7010960D02*
X17529706Y-6963341D01*
X17529706Y-6963341D02*
X17529706Y-6925246D01*
X17529706Y-6925246D02*
X17520182Y-6877627D01*
X17520182Y-6877627D02*
X17510658Y-6849055D01*
X17510658Y-6849055D02*
X17501134Y-6830008D01*
X17501134Y-6830008D02*
X17482087Y-6801436D01*
X17482087Y-6801436D02*
X17472563Y-6791912D01*
D12*
X12697500Y-7193000D02*
G75*
G02*
X12617500Y-7193000I-40000J0D01*
G01*
X12617500Y-7193000D02*
G75*
G02*
X12697500Y-7193000I40000J0D01*
G01*
D11*
X12996372Y-7084484D02*
X13015420Y-7084484D01*
X13015420Y-7084484D02*
X13034467Y-7094008D01*
X13034467Y-7094008D02*
X13043991Y-7103531D01*
X13043991Y-7103531D02*
X13053515Y-7122579D01*
X13053515Y-7122579D02*
X13063039Y-7160674D01*
X13063039Y-7160674D02*
X13063039Y-7208293D01*
X13063039Y-7208293D02*
X13053515Y-7246388D01*
X13053515Y-7246388D02*
X13043991Y-7265436D01*
X13043991Y-7265436D02*
X13034467Y-7274960D01*
X13034467Y-7274960D02*
X13015420Y-7284484D01*
X13015420Y-7284484D02*
X12996372Y-7284484D01*
X12996372Y-7284484D02*
X12977324Y-7274960D01*
X12977324Y-7274960D02*
X12967801Y-7265436D01*
X12967801Y-7265436D02*
X12958277Y-7246388D01*
X12958277Y-7246388D02*
X12948753Y-7208293D01*
X12948753Y-7208293D02*
X12948753Y-7160674D01*
X12948753Y-7160674D02*
X12958277Y-7122579D01*
X12958277Y-7122579D02*
X12967801Y-7103531D01*
X12967801Y-7103531D02*
X12977324Y-7094008D01*
X12977324Y-7094008D02*
X12996372Y-7084484D01*
X13148753Y-7265436D02*
X13158277Y-7274960D01*
X13158277Y-7274960D02*
X13148753Y-7284484D01*
X13148753Y-7284484D02*
X13139229Y-7274960D01*
X13139229Y-7274960D02*
X13148753Y-7265436D01*
X13148753Y-7265436D02*
X13148753Y-7284484D01*
X13272562Y-7170198D02*
X13253515Y-7160674D01*
X13253515Y-7160674D02*
X13243991Y-7151150D01*
X13243991Y-7151150D02*
X13234467Y-7132103D01*
X13234467Y-7132103D02*
X13234467Y-7122579D01*
X13234467Y-7122579D02*
X13243991Y-7103531D01*
X13243991Y-7103531D02*
X13253515Y-7094008D01*
X13253515Y-7094008D02*
X13272562Y-7084484D01*
X13272562Y-7084484D02*
X13310658Y-7084484D01*
X13310658Y-7084484D02*
X13329705Y-7094008D01*
X13329705Y-7094008D02*
X13339229Y-7103531D01*
X13339229Y-7103531D02*
X13348753Y-7122579D01*
X13348753Y-7122579D02*
X13348753Y-7132103D01*
X13348753Y-7132103D02*
X13339229Y-7151150D01*
X13339229Y-7151150D02*
X13329705Y-7160674D01*
X13329705Y-7160674D02*
X13310658Y-7170198D01*
X13310658Y-7170198D02*
X13272562Y-7170198D01*
X13272562Y-7170198D02*
X13253515Y-7179722D01*
X13253515Y-7179722D02*
X13243991Y-7189246D01*
X13243991Y-7189246D02*
X13234467Y-7208293D01*
X13234467Y-7208293D02*
X13234467Y-7246388D01*
X13234467Y-7246388D02*
X13243991Y-7265436D01*
X13243991Y-7265436D02*
X13253515Y-7274960D01*
X13253515Y-7274960D02*
X13272562Y-7284484D01*
X13272562Y-7284484D02*
X13310658Y-7284484D01*
X13310658Y-7284484D02*
X13329705Y-7274960D01*
X13329705Y-7274960D02*
X13339229Y-7265436D01*
X13339229Y-7265436D02*
X13348753Y-7246388D01*
X13348753Y-7246388D02*
X13348753Y-7208293D01*
X13348753Y-7208293D02*
X13339229Y-7189246D01*
X13339229Y-7189246D02*
X13329705Y-7179722D01*
X13329705Y-7179722D02*
X13310658Y-7170198D01*
X13472562Y-7084484D02*
X13491610Y-7084484D01*
X13491610Y-7084484D02*
X13510658Y-7094008D01*
X13510658Y-7094008D02*
X13520182Y-7103531D01*
X13520182Y-7103531D02*
X13529705Y-7122579D01*
X13529705Y-7122579D02*
X13539229Y-7160674D01*
X13539229Y-7160674D02*
X13539229Y-7208293D01*
X13539229Y-7208293D02*
X13529705Y-7246388D01*
X13529705Y-7246388D02*
X13520182Y-7265436D01*
X13520182Y-7265436D02*
X13510658Y-7274960D01*
X13510658Y-7274960D02*
X13491610Y-7284484D01*
X13491610Y-7284484D02*
X13472562Y-7284484D01*
X13472562Y-7284484D02*
X13453515Y-7274960D01*
X13453515Y-7274960D02*
X13443991Y-7265436D01*
X13443991Y-7265436D02*
X13434467Y-7246388D01*
X13434467Y-7246388D02*
X13424943Y-7208293D01*
X13424943Y-7208293D02*
X13424943Y-7160674D01*
X13424943Y-7160674D02*
X13434467Y-7122579D01*
X13434467Y-7122579D02*
X13443991Y-7103531D01*
X13443991Y-7103531D02*
X13453515Y-7094008D01*
X13453515Y-7094008D02*
X13472562Y-7084484D01*
X13663039Y-7084484D02*
X13682086Y-7084484D01*
X13682086Y-7084484D02*
X13701134Y-7094008D01*
X13701134Y-7094008D02*
X13710658Y-7103531D01*
X13710658Y-7103531D02*
X13720182Y-7122579D01*
X13720182Y-7122579D02*
X13729705Y-7160674D01*
X13729705Y-7160674D02*
X13729705Y-7208293D01*
X13729705Y-7208293D02*
X13720182Y-7246388D01*
X13720182Y-7246388D02*
X13710658Y-7265436D01*
X13710658Y-7265436D02*
X13701134Y-7274960D01*
X13701134Y-7274960D02*
X13682086Y-7284484D01*
X13682086Y-7284484D02*
X13663039Y-7284484D01*
X13663039Y-7284484D02*
X13643991Y-7274960D01*
X13643991Y-7274960D02*
X13634467Y-7265436D01*
X13634467Y-7265436D02*
X13624943Y-7246388D01*
X13624943Y-7246388D02*
X13615420Y-7208293D01*
X13615420Y-7208293D02*
X13615420Y-7160674D01*
X13615420Y-7160674D02*
X13624943Y-7122579D01*
X13624943Y-7122579D02*
X13634467Y-7103531D01*
X13634467Y-7103531D02*
X13643991Y-7094008D01*
X13643991Y-7094008D02*
X13663039Y-7084484D01*
X13815420Y-7284484D02*
X13815420Y-7151150D01*
X13815420Y-7170198D02*
X13824943Y-7160674D01*
X13824943Y-7160674D02*
X13843991Y-7151150D01*
X13843991Y-7151150D02*
X13872563Y-7151150D01*
X13872563Y-7151150D02*
X13891610Y-7160674D01*
X13891610Y-7160674D02*
X13901134Y-7179722D01*
X13901134Y-7179722D02*
X13901134Y-7284484D01*
X13901134Y-7179722D02*
X13910658Y-7160674D01*
X13910658Y-7160674D02*
X13929705Y-7151150D01*
X13929705Y-7151150D02*
X13958277Y-7151150D01*
X13958277Y-7151150D02*
X13977324Y-7160674D01*
X13977324Y-7160674D02*
X13986848Y-7179722D01*
X13986848Y-7179722D02*
X13986848Y-7284484D01*
X14082086Y-7284484D02*
X14082086Y-7151150D01*
X14082086Y-7170198D02*
X14091610Y-7160674D01*
X14091610Y-7160674D02*
X14110658Y-7151150D01*
X14110658Y-7151150D02*
X14139229Y-7151150D01*
X14139229Y-7151150D02*
X14158277Y-7160674D01*
X14158277Y-7160674D02*
X14167801Y-7179722D01*
X14167801Y-7179722D02*
X14167801Y-7284484D01*
X14167801Y-7179722D02*
X14177324Y-7160674D01*
X14177324Y-7160674D02*
X14196372Y-7151150D01*
X14196372Y-7151150D02*
X14224943Y-7151150D01*
X14224943Y-7151150D02*
X14243991Y-7160674D01*
X14243991Y-7160674D02*
X14253515Y-7179722D01*
X14253515Y-7179722D02*
X14253515Y-7284484D01*
X14643991Y-7074960D02*
X14472563Y-7332103D01*
X14901134Y-7084484D02*
X14920182Y-7084484D01*
X14920182Y-7084484D02*
X14939229Y-7094008D01*
X14939229Y-7094008D02*
X14948753Y-7103531D01*
X14948753Y-7103531D02*
X14958277Y-7122579D01*
X14958277Y-7122579D02*
X14967801Y-7160674D01*
X14967801Y-7160674D02*
X14967801Y-7208293D01*
X14967801Y-7208293D02*
X14958277Y-7246388D01*
X14958277Y-7246388D02*
X14948753Y-7265436D01*
X14948753Y-7265436D02*
X14939229Y-7274960D01*
X14939229Y-7274960D02*
X14920182Y-7284484D01*
X14920182Y-7284484D02*
X14901134Y-7284484D01*
X14901134Y-7284484D02*
X14882086Y-7274960D01*
X14882086Y-7274960D02*
X14872563Y-7265436D01*
X14872563Y-7265436D02*
X14863039Y-7246388D01*
X14863039Y-7246388D02*
X14853515Y-7208293D01*
X14853515Y-7208293D02*
X14853515Y-7160674D01*
X14853515Y-7160674D02*
X14863039Y-7122579D01*
X14863039Y-7122579D02*
X14872563Y-7103531D01*
X14872563Y-7103531D02*
X14882086Y-7094008D01*
X14882086Y-7094008D02*
X14901134Y-7084484D01*
X15053515Y-7265436D02*
X15063039Y-7274960D01*
X15063039Y-7274960D02*
X15053515Y-7284484D01*
X15053515Y-7284484D02*
X15043991Y-7274960D01*
X15043991Y-7274960D02*
X15053515Y-7265436D01*
X15053515Y-7265436D02*
X15053515Y-7284484D01*
X15186848Y-7084484D02*
X15205896Y-7084484D01*
X15205896Y-7084484D02*
X15224944Y-7094008D01*
X15224944Y-7094008D02*
X15234467Y-7103531D01*
X15234467Y-7103531D02*
X15243991Y-7122579D01*
X15243991Y-7122579D02*
X15253515Y-7160674D01*
X15253515Y-7160674D02*
X15253515Y-7208293D01*
X15253515Y-7208293D02*
X15243991Y-7246388D01*
X15243991Y-7246388D02*
X15234467Y-7265436D01*
X15234467Y-7265436D02*
X15224944Y-7274960D01*
X15224944Y-7274960D02*
X15205896Y-7284484D01*
X15205896Y-7284484D02*
X15186848Y-7284484D01*
X15186848Y-7284484D02*
X15167801Y-7274960D01*
X15167801Y-7274960D02*
X15158277Y-7265436D01*
X15158277Y-7265436D02*
X15148753Y-7246388D01*
X15148753Y-7246388D02*
X15139229Y-7208293D01*
X15139229Y-7208293D02*
X15139229Y-7160674D01*
X15139229Y-7160674D02*
X15148753Y-7122579D01*
X15148753Y-7122579D02*
X15158277Y-7103531D01*
X15158277Y-7103531D02*
X15167801Y-7094008D01*
X15167801Y-7094008D02*
X15186848Y-7084484D01*
X15320182Y-7084484D02*
X15443991Y-7084484D01*
X15443991Y-7084484D02*
X15377325Y-7160674D01*
X15377325Y-7160674D02*
X15405896Y-7160674D01*
X15405896Y-7160674D02*
X15424944Y-7170198D01*
X15424944Y-7170198D02*
X15434467Y-7179722D01*
X15434467Y-7179722D02*
X15443991Y-7198769D01*
X15443991Y-7198769D02*
X15443991Y-7246388D01*
X15443991Y-7246388D02*
X15434467Y-7265436D01*
X15434467Y-7265436D02*
X15424944Y-7274960D01*
X15424944Y-7274960D02*
X15405896Y-7284484D01*
X15405896Y-7284484D02*
X15348753Y-7284484D01*
X15348753Y-7284484D02*
X15329706Y-7274960D01*
X15329706Y-7274960D02*
X15320182Y-7265436D01*
X15634467Y-7284484D02*
X15520182Y-7284484D01*
X15577325Y-7284484D02*
X15577325Y-7084484D01*
X15577325Y-7084484D02*
X15558277Y-7113055D01*
X15558277Y-7113055D02*
X15539229Y-7132103D01*
X15539229Y-7132103D02*
X15520182Y-7141627D01*
X15815420Y-7084484D02*
X15720182Y-7084484D01*
X15720182Y-7084484D02*
X15710658Y-7179722D01*
X15710658Y-7179722D02*
X15720182Y-7170198D01*
X15720182Y-7170198D02*
X15739229Y-7160674D01*
X15739229Y-7160674D02*
X15786848Y-7160674D01*
X15786848Y-7160674D02*
X15805896Y-7170198D01*
X15805896Y-7170198D02*
X15815420Y-7179722D01*
X15815420Y-7179722D02*
X15824944Y-7198769D01*
X15824944Y-7198769D02*
X15824944Y-7246388D01*
X15824944Y-7246388D02*
X15815420Y-7265436D01*
X15815420Y-7265436D02*
X15805896Y-7274960D01*
X15805896Y-7274960D02*
X15786848Y-7284484D01*
X15786848Y-7284484D02*
X15739229Y-7284484D01*
X15739229Y-7284484D02*
X15720182Y-7274960D01*
X15720182Y-7274960D02*
X15710658Y-7265436D01*
X15901134Y-7084484D02*
X15901134Y-7122579D01*
X15977325Y-7084484D02*
X15977325Y-7122579D01*
X16272563Y-7360674D02*
X16263039Y-7351150D01*
X16263039Y-7351150D02*
X16243991Y-7322579D01*
X16243991Y-7322579D02*
X16234468Y-7303531D01*
X16234468Y-7303531D02*
X16224944Y-7274960D01*
X16224944Y-7274960D02*
X16215420Y-7227341D01*
X16215420Y-7227341D02*
X16215420Y-7189246D01*
X16215420Y-7189246D02*
X16224944Y-7141627D01*
X16224944Y-7141627D02*
X16234468Y-7113055D01*
X16234468Y-7113055D02*
X16243991Y-7094008D01*
X16243991Y-7094008D02*
X16263039Y-7065436D01*
X16263039Y-7065436D02*
X16272563Y-7055912D01*
X16453515Y-7284484D02*
X16339229Y-7284484D01*
X16396372Y-7284484D02*
X16396372Y-7084484D01*
X16396372Y-7084484D02*
X16377325Y-7113055D01*
X16377325Y-7113055D02*
X16358277Y-7132103D01*
X16358277Y-7132103D02*
X16339229Y-7141627D01*
X16529706Y-7103531D02*
X16539229Y-7094008D01*
X16539229Y-7094008D02*
X16558277Y-7084484D01*
X16558277Y-7084484D02*
X16605896Y-7084484D01*
X16605896Y-7084484D02*
X16624944Y-7094008D01*
X16624944Y-7094008D02*
X16634468Y-7103531D01*
X16634468Y-7103531D02*
X16643991Y-7122579D01*
X16643991Y-7122579D02*
X16643991Y-7141627D01*
X16643991Y-7141627D02*
X16634468Y-7170198D01*
X16634468Y-7170198D02*
X16520182Y-7284484D01*
X16520182Y-7284484D02*
X16643991Y-7284484D01*
X16882087Y-7284484D02*
X16882087Y-7084484D01*
X16967801Y-7284484D02*
X16967801Y-7179722D01*
X16967801Y-7179722D02*
X16958277Y-7160674D01*
X16958277Y-7160674D02*
X16939230Y-7151150D01*
X16939230Y-7151150D02*
X16910658Y-7151150D01*
X16910658Y-7151150D02*
X16891611Y-7160674D01*
X16891611Y-7160674D02*
X16882087Y-7170198D01*
X17091611Y-7284484D02*
X17072563Y-7274960D01*
X17072563Y-7274960D02*
X17063039Y-7265436D01*
X17063039Y-7265436D02*
X17053515Y-7246388D01*
X17053515Y-7246388D02*
X17053515Y-7189246D01*
X17053515Y-7189246D02*
X17063039Y-7170198D01*
X17063039Y-7170198D02*
X17072563Y-7160674D01*
X17072563Y-7160674D02*
X17091611Y-7151150D01*
X17091611Y-7151150D02*
X17120182Y-7151150D01*
X17120182Y-7151150D02*
X17139230Y-7160674D01*
X17139230Y-7160674D02*
X17148753Y-7170198D01*
X17148753Y-7170198D02*
X17158277Y-7189246D01*
X17158277Y-7189246D02*
X17158277Y-7246388D01*
X17158277Y-7246388D02*
X17148753Y-7265436D01*
X17148753Y-7265436D02*
X17139230Y-7274960D01*
X17139230Y-7274960D02*
X17120182Y-7284484D01*
X17120182Y-7284484D02*
X17091611Y-7284484D01*
X17272563Y-7284484D02*
X17253515Y-7274960D01*
X17253515Y-7274960D02*
X17243992Y-7255912D01*
X17243992Y-7255912D02*
X17243992Y-7084484D01*
X17424944Y-7274960D02*
X17405896Y-7284484D01*
X17405896Y-7284484D02*
X17367801Y-7284484D01*
X17367801Y-7284484D02*
X17348753Y-7274960D01*
X17348753Y-7274960D02*
X17339230Y-7255912D01*
X17339230Y-7255912D02*
X17339230Y-7179722D01*
X17339230Y-7179722D02*
X17348753Y-7160674D01*
X17348753Y-7160674D02*
X17367801Y-7151150D01*
X17367801Y-7151150D02*
X17405896Y-7151150D01*
X17405896Y-7151150D02*
X17424944Y-7160674D01*
X17424944Y-7160674D02*
X17434468Y-7179722D01*
X17434468Y-7179722D02*
X17434468Y-7198769D01*
X17434468Y-7198769D02*
X17339230Y-7217817D01*
X17510658Y-7274960D02*
X17529706Y-7284484D01*
X17529706Y-7284484D02*
X17567801Y-7284484D01*
X17567801Y-7284484D02*
X17586849Y-7274960D01*
X17586849Y-7274960D02*
X17596373Y-7255912D01*
X17596373Y-7255912D02*
X17596373Y-7246388D01*
X17596373Y-7246388D02*
X17586849Y-7227341D01*
X17586849Y-7227341D02*
X17567801Y-7217817D01*
X17567801Y-7217817D02*
X17539230Y-7217817D01*
X17539230Y-7217817D02*
X17520182Y-7208293D01*
X17520182Y-7208293D02*
X17510658Y-7189246D01*
X17510658Y-7189246D02*
X17510658Y-7179722D01*
X17510658Y-7179722D02*
X17520182Y-7160674D01*
X17520182Y-7160674D02*
X17539230Y-7151150D01*
X17539230Y-7151150D02*
X17567801Y-7151150D01*
X17567801Y-7151150D02*
X17586849Y-7160674D01*
X17663039Y-7360674D02*
X17672563Y-7351150D01*
X17672563Y-7351150D02*
X17691611Y-7322579D01*
X17691611Y-7322579D02*
X17701134Y-7303531D01*
X17701134Y-7303531D02*
X17710658Y-7274960D01*
X17710658Y-7274960D02*
X17720182Y-7227341D01*
X17720182Y-7227341D02*
X17720182Y-7189246D01*
X17720182Y-7189246D02*
X17710658Y-7141627D01*
X17710658Y-7141627D02*
X17701134Y-7113055D01*
X17701134Y-7113055D02*
X17691611Y-7094008D01*
X17691611Y-7094008D02*
X17672563Y-7065436D01*
X17672563Y-7065436D02*
X17663039Y-7055912D01*
D12*
X12652500Y-7412000D02*
X12652500Y-7502000D01*
X12607500Y-7457000D02*
X12697500Y-7457000D01*
D11*
X12996372Y-7348484D02*
X13015420Y-7348484D01*
X13015420Y-7348484D02*
X13034467Y-7358008D01*
X13034467Y-7358008D02*
X13043991Y-7367531D01*
X13043991Y-7367531D02*
X13053515Y-7386579D01*
X13053515Y-7386579D02*
X13063039Y-7424674D01*
X13063039Y-7424674D02*
X13063039Y-7472293D01*
X13063039Y-7472293D02*
X13053515Y-7510388D01*
X13053515Y-7510388D02*
X13043991Y-7529436D01*
X13043991Y-7529436D02*
X13034467Y-7538960D01*
X13034467Y-7538960D02*
X13015420Y-7548484D01*
X13015420Y-7548484D02*
X12996372Y-7548484D01*
X12996372Y-7548484D02*
X12977324Y-7538960D01*
X12977324Y-7538960D02*
X12967801Y-7529436D01*
X12967801Y-7529436D02*
X12958277Y-7510388D01*
X12958277Y-7510388D02*
X12948753Y-7472293D01*
X12948753Y-7472293D02*
X12948753Y-7424674D01*
X12948753Y-7424674D02*
X12958277Y-7386579D01*
X12958277Y-7386579D02*
X12967801Y-7367531D01*
X12967801Y-7367531D02*
X12977324Y-7358008D01*
X12977324Y-7358008D02*
X12996372Y-7348484D01*
X13148753Y-7529436D02*
X13158277Y-7538960D01*
X13158277Y-7538960D02*
X13148753Y-7548484D01*
X13148753Y-7548484D02*
X13139229Y-7538960D01*
X13139229Y-7538960D02*
X13148753Y-7529436D01*
X13148753Y-7529436D02*
X13148753Y-7548484D01*
X13253515Y-7548484D02*
X13291610Y-7548484D01*
X13291610Y-7548484D02*
X13310658Y-7538960D01*
X13310658Y-7538960D02*
X13320182Y-7529436D01*
X13320182Y-7529436D02*
X13339229Y-7500865D01*
X13339229Y-7500865D02*
X13348753Y-7462769D01*
X13348753Y-7462769D02*
X13348753Y-7386579D01*
X13348753Y-7386579D02*
X13339229Y-7367531D01*
X13339229Y-7367531D02*
X13329705Y-7358008D01*
X13329705Y-7358008D02*
X13310658Y-7348484D01*
X13310658Y-7348484D02*
X13272562Y-7348484D01*
X13272562Y-7348484D02*
X13253515Y-7358008D01*
X13253515Y-7358008D02*
X13243991Y-7367531D01*
X13243991Y-7367531D02*
X13234467Y-7386579D01*
X13234467Y-7386579D02*
X13234467Y-7434198D01*
X13234467Y-7434198D02*
X13243991Y-7453246D01*
X13243991Y-7453246D02*
X13253515Y-7462769D01*
X13253515Y-7462769D02*
X13272562Y-7472293D01*
X13272562Y-7472293D02*
X13310658Y-7472293D01*
X13310658Y-7472293D02*
X13329705Y-7462769D01*
X13329705Y-7462769D02*
X13339229Y-7453246D01*
X13339229Y-7453246D02*
X13348753Y-7434198D01*
X13472562Y-7348484D02*
X13491610Y-7348484D01*
X13491610Y-7348484D02*
X13510658Y-7358008D01*
X13510658Y-7358008D02*
X13520182Y-7367531D01*
X13520182Y-7367531D02*
X13529705Y-7386579D01*
X13529705Y-7386579D02*
X13539229Y-7424674D01*
X13539229Y-7424674D02*
X13539229Y-7472293D01*
X13539229Y-7472293D02*
X13529705Y-7510388D01*
X13529705Y-7510388D02*
X13520182Y-7529436D01*
X13520182Y-7529436D02*
X13510658Y-7538960D01*
X13510658Y-7538960D02*
X13491610Y-7548484D01*
X13491610Y-7548484D02*
X13472562Y-7548484D01*
X13472562Y-7548484D02*
X13453515Y-7538960D01*
X13453515Y-7538960D02*
X13443991Y-7529436D01*
X13443991Y-7529436D02*
X13434467Y-7510388D01*
X13434467Y-7510388D02*
X13424943Y-7472293D01*
X13424943Y-7472293D02*
X13424943Y-7424674D01*
X13424943Y-7424674D02*
X13434467Y-7386579D01*
X13434467Y-7386579D02*
X13443991Y-7367531D01*
X13443991Y-7367531D02*
X13453515Y-7358008D01*
X13453515Y-7358008D02*
X13472562Y-7348484D01*
X13663039Y-7348484D02*
X13682086Y-7348484D01*
X13682086Y-7348484D02*
X13701134Y-7358008D01*
X13701134Y-7358008D02*
X13710658Y-7367531D01*
X13710658Y-7367531D02*
X13720182Y-7386579D01*
X13720182Y-7386579D02*
X13729705Y-7424674D01*
X13729705Y-7424674D02*
X13729705Y-7472293D01*
X13729705Y-7472293D02*
X13720182Y-7510388D01*
X13720182Y-7510388D02*
X13710658Y-7529436D01*
X13710658Y-7529436D02*
X13701134Y-7538960D01*
X13701134Y-7538960D02*
X13682086Y-7548484D01*
X13682086Y-7548484D02*
X13663039Y-7548484D01*
X13663039Y-7548484D02*
X13643991Y-7538960D01*
X13643991Y-7538960D02*
X13634467Y-7529436D01*
X13634467Y-7529436D02*
X13624943Y-7510388D01*
X13624943Y-7510388D02*
X13615420Y-7472293D01*
X13615420Y-7472293D02*
X13615420Y-7424674D01*
X13615420Y-7424674D02*
X13624943Y-7386579D01*
X13624943Y-7386579D02*
X13634467Y-7367531D01*
X13634467Y-7367531D02*
X13643991Y-7358008D01*
X13643991Y-7358008D02*
X13663039Y-7348484D01*
X13815420Y-7548484D02*
X13815420Y-7415150D01*
X13815420Y-7434198D02*
X13824943Y-7424674D01*
X13824943Y-7424674D02*
X13843991Y-7415150D01*
X13843991Y-7415150D02*
X13872563Y-7415150D01*
X13872563Y-7415150D02*
X13891610Y-7424674D01*
X13891610Y-7424674D02*
X13901134Y-7443722D01*
X13901134Y-7443722D02*
X13901134Y-7548484D01*
X13901134Y-7443722D02*
X13910658Y-7424674D01*
X13910658Y-7424674D02*
X13929705Y-7415150D01*
X13929705Y-7415150D02*
X13958277Y-7415150D01*
X13958277Y-7415150D02*
X13977324Y-7424674D01*
X13977324Y-7424674D02*
X13986848Y-7443722D01*
X13986848Y-7443722D02*
X13986848Y-7548484D01*
X14082086Y-7548484D02*
X14082086Y-7415150D01*
X14082086Y-7434198D02*
X14091610Y-7424674D01*
X14091610Y-7424674D02*
X14110658Y-7415150D01*
X14110658Y-7415150D02*
X14139229Y-7415150D01*
X14139229Y-7415150D02*
X14158277Y-7424674D01*
X14158277Y-7424674D02*
X14167801Y-7443722D01*
X14167801Y-7443722D02*
X14167801Y-7548484D01*
X14167801Y-7443722D02*
X14177324Y-7424674D01*
X14177324Y-7424674D02*
X14196372Y-7415150D01*
X14196372Y-7415150D02*
X14224943Y-7415150D01*
X14224943Y-7415150D02*
X14243991Y-7424674D01*
X14243991Y-7424674D02*
X14253515Y-7443722D01*
X14253515Y-7443722D02*
X14253515Y-7548484D01*
X14643991Y-7338960D02*
X14472563Y-7596103D01*
X14901134Y-7348484D02*
X14920182Y-7348484D01*
X14920182Y-7348484D02*
X14939229Y-7358008D01*
X14939229Y-7358008D02*
X14948753Y-7367531D01*
X14948753Y-7367531D02*
X14958277Y-7386579D01*
X14958277Y-7386579D02*
X14967801Y-7424674D01*
X14967801Y-7424674D02*
X14967801Y-7472293D01*
X14967801Y-7472293D02*
X14958277Y-7510388D01*
X14958277Y-7510388D02*
X14948753Y-7529436D01*
X14948753Y-7529436D02*
X14939229Y-7538960D01*
X14939229Y-7538960D02*
X14920182Y-7548484D01*
X14920182Y-7548484D02*
X14901134Y-7548484D01*
X14901134Y-7548484D02*
X14882086Y-7538960D01*
X14882086Y-7538960D02*
X14872563Y-7529436D01*
X14872563Y-7529436D02*
X14863039Y-7510388D01*
X14863039Y-7510388D02*
X14853515Y-7472293D01*
X14853515Y-7472293D02*
X14853515Y-7424674D01*
X14853515Y-7424674D02*
X14863039Y-7386579D01*
X14863039Y-7386579D02*
X14872563Y-7367531D01*
X14872563Y-7367531D02*
X14882086Y-7358008D01*
X14882086Y-7358008D02*
X14901134Y-7348484D01*
X15053515Y-7529436D02*
X15063039Y-7538960D01*
X15063039Y-7538960D02*
X15053515Y-7548484D01*
X15053515Y-7548484D02*
X15043991Y-7538960D01*
X15043991Y-7538960D02*
X15053515Y-7529436D01*
X15053515Y-7529436D02*
X15053515Y-7548484D01*
X15186848Y-7348484D02*
X15205896Y-7348484D01*
X15205896Y-7348484D02*
X15224944Y-7358008D01*
X15224944Y-7358008D02*
X15234467Y-7367531D01*
X15234467Y-7367531D02*
X15243991Y-7386579D01*
X15243991Y-7386579D02*
X15253515Y-7424674D01*
X15253515Y-7424674D02*
X15253515Y-7472293D01*
X15253515Y-7472293D02*
X15243991Y-7510388D01*
X15243991Y-7510388D02*
X15234467Y-7529436D01*
X15234467Y-7529436D02*
X15224944Y-7538960D01*
X15224944Y-7538960D02*
X15205896Y-7548484D01*
X15205896Y-7548484D02*
X15186848Y-7548484D01*
X15186848Y-7548484D02*
X15167801Y-7538960D01*
X15167801Y-7538960D02*
X15158277Y-7529436D01*
X15158277Y-7529436D02*
X15148753Y-7510388D01*
X15148753Y-7510388D02*
X15139229Y-7472293D01*
X15139229Y-7472293D02*
X15139229Y-7424674D01*
X15139229Y-7424674D02*
X15148753Y-7386579D01*
X15148753Y-7386579D02*
X15158277Y-7367531D01*
X15158277Y-7367531D02*
X15167801Y-7358008D01*
X15167801Y-7358008D02*
X15186848Y-7348484D01*
X15320182Y-7348484D02*
X15443991Y-7348484D01*
X15443991Y-7348484D02*
X15377325Y-7424674D01*
X15377325Y-7424674D02*
X15405896Y-7424674D01*
X15405896Y-7424674D02*
X15424944Y-7434198D01*
X15424944Y-7434198D02*
X15434467Y-7443722D01*
X15434467Y-7443722D02*
X15443991Y-7462769D01*
X15443991Y-7462769D02*
X15443991Y-7510388D01*
X15443991Y-7510388D02*
X15434467Y-7529436D01*
X15434467Y-7529436D02*
X15424944Y-7538960D01*
X15424944Y-7538960D02*
X15405896Y-7548484D01*
X15405896Y-7548484D02*
X15348753Y-7548484D01*
X15348753Y-7548484D02*
X15329706Y-7538960D01*
X15329706Y-7538960D02*
X15320182Y-7529436D01*
X15624944Y-7348484D02*
X15529706Y-7348484D01*
X15529706Y-7348484D02*
X15520182Y-7443722D01*
X15520182Y-7443722D02*
X15529706Y-7434198D01*
X15529706Y-7434198D02*
X15548753Y-7424674D01*
X15548753Y-7424674D02*
X15596372Y-7424674D01*
X15596372Y-7424674D02*
X15615420Y-7434198D01*
X15615420Y-7434198D02*
X15624944Y-7443722D01*
X15624944Y-7443722D02*
X15634467Y-7462769D01*
X15634467Y-7462769D02*
X15634467Y-7510388D01*
X15634467Y-7510388D02*
X15624944Y-7529436D01*
X15624944Y-7529436D02*
X15615420Y-7538960D01*
X15615420Y-7538960D02*
X15596372Y-7548484D01*
X15596372Y-7548484D02*
X15548753Y-7548484D01*
X15548753Y-7548484D02*
X15529706Y-7538960D01*
X15529706Y-7538960D02*
X15520182Y-7529436D01*
X15805896Y-7415150D02*
X15805896Y-7548484D01*
X15758277Y-7338960D02*
X15710658Y-7481817D01*
X15710658Y-7481817D02*
X15834467Y-7481817D01*
X15901134Y-7348484D02*
X15901134Y-7386579D01*
X15977325Y-7348484D02*
X15977325Y-7386579D01*
X16272563Y-7624674D02*
X16263039Y-7615150D01*
X16263039Y-7615150D02*
X16243991Y-7586579D01*
X16243991Y-7586579D02*
X16234468Y-7567531D01*
X16234468Y-7567531D02*
X16224944Y-7538960D01*
X16224944Y-7538960D02*
X16215420Y-7491341D01*
X16215420Y-7491341D02*
X16215420Y-7453246D01*
X16215420Y-7453246D02*
X16224944Y-7405627D01*
X16224944Y-7405627D02*
X16234468Y-7377055D01*
X16234468Y-7377055D02*
X16243991Y-7358008D01*
X16243991Y-7358008D02*
X16263039Y-7329436D01*
X16263039Y-7329436D02*
X16272563Y-7319912D01*
X16339229Y-7367531D02*
X16348753Y-7358008D01*
X16348753Y-7358008D02*
X16367801Y-7348484D01*
X16367801Y-7348484D02*
X16415420Y-7348484D01*
X16415420Y-7348484D02*
X16434468Y-7358008D01*
X16434468Y-7358008D02*
X16443991Y-7367531D01*
X16443991Y-7367531D02*
X16453515Y-7386579D01*
X16453515Y-7386579D02*
X16453515Y-7405627D01*
X16453515Y-7405627D02*
X16443991Y-7434198D01*
X16443991Y-7434198D02*
X16329706Y-7548484D01*
X16329706Y-7548484D02*
X16453515Y-7548484D01*
X16691610Y-7548484D02*
X16691610Y-7348484D01*
X16777325Y-7548484D02*
X16777325Y-7443722D01*
X16777325Y-7443722D02*
X16767801Y-7424674D01*
X16767801Y-7424674D02*
X16748753Y-7415150D01*
X16748753Y-7415150D02*
X16720182Y-7415150D01*
X16720182Y-7415150D02*
X16701134Y-7424674D01*
X16701134Y-7424674D02*
X16691610Y-7434198D01*
X16901134Y-7548484D02*
X16882087Y-7538960D01*
X16882087Y-7538960D02*
X16872563Y-7529436D01*
X16872563Y-7529436D02*
X16863039Y-7510388D01*
X16863039Y-7510388D02*
X16863039Y-7453246D01*
X16863039Y-7453246D02*
X16872563Y-7434198D01*
X16872563Y-7434198D02*
X16882087Y-7424674D01*
X16882087Y-7424674D02*
X16901134Y-7415150D01*
X16901134Y-7415150D02*
X16929706Y-7415150D01*
X16929706Y-7415150D02*
X16948753Y-7424674D01*
X16948753Y-7424674D02*
X16958277Y-7434198D01*
X16958277Y-7434198D02*
X16967801Y-7453246D01*
X16967801Y-7453246D02*
X16967801Y-7510388D01*
X16967801Y-7510388D02*
X16958277Y-7529436D01*
X16958277Y-7529436D02*
X16948753Y-7538960D01*
X16948753Y-7538960D02*
X16929706Y-7548484D01*
X16929706Y-7548484D02*
X16901134Y-7548484D01*
X17082087Y-7548484D02*
X17063039Y-7538960D01*
X17063039Y-7538960D02*
X17053515Y-7519912D01*
X17053515Y-7519912D02*
X17053515Y-7348484D01*
X17234468Y-7538960D02*
X17215420Y-7548484D01*
X17215420Y-7548484D02*
X17177325Y-7548484D01*
X17177325Y-7548484D02*
X17158277Y-7538960D01*
X17158277Y-7538960D02*
X17148753Y-7519912D01*
X17148753Y-7519912D02*
X17148753Y-7443722D01*
X17148753Y-7443722D02*
X17158277Y-7424674D01*
X17158277Y-7424674D02*
X17177325Y-7415150D01*
X17177325Y-7415150D02*
X17215420Y-7415150D01*
X17215420Y-7415150D02*
X17234468Y-7424674D01*
X17234468Y-7424674D02*
X17243992Y-7443722D01*
X17243992Y-7443722D02*
X17243992Y-7462769D01*
X17243992Y-7462769D02*
X17148753Y-7481817D01*
X17320182Y-7538960D02*
X17339230Y-7548484D01*
X17339230Y-7548484D02*
X17377325Y-7548484D01*
X17377325Y-7548484D02*
X17396373Y-7538960D01*
X17396373Y-7538960D02*
X17405896Y-7519912D01*
X17405896Y-7519912D02*
X17405896Y-7510388D01*
X17405896Y-7510388D02*
X17396373Y-7491341D01*
X17396373Y-7491341D02*
X17377325Y-7481817D01*
X17377325Y-7481817D02*
X17348753Y-7481817D01*
X17348753Y-7481817D02*
X17329706Y-7472293D01*
X17329706Y-7472293D02*
X17320182Y-7453246D01*
X17320182Y-7453246D02*
X17320182Y-7443722D01*
X17320182Y-7443722D02*
X17329706Y-7424674D01*
X17329706Y-7424674D02*
X17348753Y-7415150D01*
X17348753Y-7415150D02*
X17377325Y-7415150D01*
X17377325Y-7415150D02*
X17396373Y-7424674D01*
X17472563Y-7624674D02*
X17482087Y-7615150D01*
X17482087Y-7615150D02*
X17501134Y-7586579D01*
X17501134Y-7586579D02*
X17510658Y-7567531D01*
X17510658Y-7567531D02*
X17520182Y-7538960D01*
X17520182Y-7538960D02*
X17529706Y-7491341D01*
X17529706Y-7491341D02*
X17529706Y-7453246D01*
X17529706Y-7453246D02*
X17520182Y-7405627D01*
X17520182Y-7405627D02*
X17510658Y-7377055D01*
X17510658Y-7377055D02*
X17501134Y-7358008D01*
X17501134Y-7358008D02*
X17482087Y-7329436D01*
X17482087Y-7329436D02*
X17472563Y-7319912D01*
D12*
X12682856Y-7756356D02*
X12682856Y-7685644D01*
X12612144Y-7685644D01*
X12612144Y-7756356D01*
X12682856Y-7756356D01*
D11*
X13063039Y-7812484D02*
X12948753Y-7812484D01*
X13005896Y-7812484D02*
X13005896Y-7612484D01*
X13005896Y-7612484D02*
X12986848Y-7641055D01*
X12986848Y-7641055D02*
X12967801Y-7660103D01*
X12967801Y-7660103D02*
X12948753Y-7669627D01*
X13148753Y-7793436D02*
X13158277Y-7802960D01*
X13158277Y-7802960D02*
X13148753Y-7812484D01*
X13148753Y-7812484D02*
X13139229Y-7802960D01*
X13139229Y-7802960D02*
X13148753Y-7793436D01*
X13148753Y-7793436D02*
X13148753Y-7812484D01*
X13282086Y-7612484D02*
X13301134Y-7612484D01*
X13301134Y-7612484D02*
X13320182Y-7622008D01*
X13320182Y-7622008D02*
X13329705Y-7631531D01*
X13329705Y-7631531D02*
X13339229Y-7650579D01*
X13339229Y-7650579D02*
X13348753Y-7688674D01*
X13348753Y-7688674D02*
X13348753Y-7736293D01*
X13348753Y-7736293D02*
X13339229Y-7774388D01*
X13339229Y-7774388D02*
X13329705Y-7793436D01*
X13329705Y-7793436D02*
X13320182Y-7802960D01*
X13320182Y-7802960D02*
X13301134Y-7812484D01*
X13301134Y-7812484D02*
X13282086Y-7812484D01*
X13282086Y-7812484D02*
X13263039Y-7802960D01*
X13263039Y-7802960D02*
X13253515Y-7793436D01*
X13253515Y-7793436D02*
X13243991Y-7774388D01*
X13243991Y-7774388D02*
X13234467Y-7736293D01*
X13234467Y-7736293D02*
X13234467Y-7688674D01*
X13234467Y-7688674D02*
X13243991Y-7650579D01*
X13243991Y-7650579D02*
X13253515Y-7631531D01*
X13253515Y-7631531D02*
X13263039Y-7622008D01*
X13263039Y-7622008D02*
X13282086Y-7612484D01*
X13472562Y-7612484D02*
X13491610Y-7612484D01*
X13491610Y-7612484D02*
X13510658Y-7622008D01*
X13510658Y-7622008D02*
X13520182Y-7631531D01*
X13520182Y-7631531D02*
X13529705Y-7650579D01*
X13529705Y-7650579D02*
X13539229Y-7688674D01*
X13539229Y-7688674D02*
X13539229Y-7736293D01*
X13539229Y-7736293D02*
X13529705Y-7774388D01*
X13529705Y-7774388D02*
X13520182Y-7793436D01*
X13520182Y-7793436D02*
X13510658Y-7802960D01*
X13510658Y-7802960D02*
X13491610Y-7812484D01*
X13491610Y-7812484D02*
X13472562Y-7812484D01*
X13472562Y-7812484D02*
X13453515Y-7802960D01*
X13453515Y-7802960D02*
X13443991Y-7793436D01*
X13443991Y-7793436D02*
X13434467Y-7774388D01*
X13434467Y-7774388D02*
X13424943Y-7736293D01*
X13424943Y-7736293D02*
X13424943Y-7688674D01*
X13424943Y-7688674D02*
X13434467Y-7650579D01*
X13434467Y-7650579D02*
X13443991Y-7631531D01*
X13443991Y-7631531D02*
X13453515Y-7622008D01*
X13453515Y-7622008D02*
X13472562Y-7612484D01*
X13663039Y-7612484D02*
X13682086Y-7612484D01*
X13682086Y-7612484D02*
X13701134Y-7622008D01*
X13701134Y-7622008D02*
X13710658Y-7631531D01*
X13710658Y-7631531D02*
X13720182Y-7650579D01*
X13720182Y-7650579D02*
X13729705Y-7688674D01*
X13729705Y-7688674D02*
X13729705Y-7736293D01*
X13729705Y-7736293D02*
X13720182Y-7774388D01*
X13720182Y-7774388D02*
X13710658Y-7793436D01*
X13710658Y-7793436D02*
X13701134Y-7802960D01*
X13701134Y-7802960D02*
X13682086Y-7812484D01*
X13682086Y-7812484D02*
X13663039Y-7812484D01*
X13663039Y-7812484D02*
X13643991Y-7802960D01*
X13643991Y-7802960D02*
X13634467Y-7793436D01*
X13634467Y-7793436D02*
X13624943Y-7774388D01*
X13624943Y-7774388D02*
X13615420Y-7736293D01*
X13615420Y-7736293D02*
X13615420Y-7688674D01*
X13615420Y-7688674D02*
X13624943Y-7650579D01*
X13624943Y-7650579D02*
X13634467Y-7631531D01*
X13634467Y-7631531D02*
X13643991Y-7622008D01*
X13643991Y-7622008D02*
X13663039Y-7612484D01*
X13815420Y-7812484D02*
X13815420Y-7679150D01*
X13815420Y-7698198D02*
X13824943Y-7688674D01*
X13824943Y-7688674D02*
X13843991Y-7679150D01*
X13843991Y-7679150D02*
X13872563Y-7679150D01*
X13872563Y-7679150D02*
X13891610Y-7688674D01*
X13891610Y-7688674D02*
X13901134Y-7707722D01*
X13901134Y-7707722D02*
X13901134Y-7812484D01*
X13901134Y-7707722D02*
X13910658Y-7688674D01*
X13910658Y-7688674D02*
X13929705Y-7679150D01*
X13929705Y-7679150D02*
X13958277Y-7679150D01*
X13958277Y-7679150D02*
X13977324Y-7688674D01*
X13977324Y-7688674D02*
X13986848Y-7707722D01*
X13986848Y-7707722D02*
X13986848Y-7812484D01*
X14082086Y-7812484D02*
X14082086Y-7679150D01*
X14082086Y-7698198D02*
X14091610Y-7688674D01*
X14091610Y-7688674D02*
X14110658Y-7679150D01*
X14110658Y-7679150D02*
X14139229Y-7679150D01*
X14139229Y-7679150D02*
X14158277Y-7688674D01*
X14158277Y-7688674D02*
X14167801Y-7707722D01*
X14167801Y-7707722D02*
X14167801Y-7812484D01*
X14167801Y-7707722D02*
X14177324Y-7688674D01*
X14177324Y-7688674D02*
X14196372Y-7679150D01*
X14196372Y-7679150D02*
X14224943Y-7679150D01*
X14224943Y-7679150D02*
X14243991Y-7688674D01*
X14243991Y-7688674D02*
X14253515Y-7707722D01*
X14253515Y-7707722D02*
X14253515Y-7812484D01*
X14643991Y-7602960D02*
X14472563Y-7860103D01*
X14901134Y-7612484D02*
X14920182Y-7612484D01*
X14920182Y-7612484D02*
X14939229Y-7622008D01*
X14939229Y-7622008D02*
X14948753Y-7631531D01*
X14948753Y-7631531D02*
X14958277Y-7650579D01*
X14958277Y-7650579D02*
X14967801Y-7688674D01*
X14967801Y-7688674D02*
X14967801Y-7736293D01*
X14967801Y-7736293D02*
X14958277Y-7774388D01*
X14958277Y-7774388D02*
X14948753Y-7793436D01*
X14948753Y-7793436D02*
X14939229Y-7802960D01*
X14939229Y-7802960D02*
X14920182Y-7812484D01*
X14920182Y-7812484D02*
X14901134Y-7812484D01*
X14901134Y-7812484D02*
X14882086Y-7802960D01*
X14882086Y-7802960D02*
X14872563Y-7793436D01*
X14872563Y-7793436D02*
X14863039Y-7774388D01*
X14863039Y-7774388D02*
X14853515Y-7736293D01*
X14853515Y-7736293D02*
X14853515Y-7688674D01*
X14853515Y-7688674D02*
X14863039Y-7650579D01*
X14863039Y-7650579D02*
X14872563Y-7631531D01*
X14872563Y-7631531D02*
X14882086Y-7622008D01*
X14882086Y-7622008D02*
X14901134Y-7612484D01*
X15053515Y-7793436D02*
X15063039Y-7802960D01*
X15063039Y-7802960D02*
X15053515Y-7812484D01*
X15053515Y-7812484D02*
X15043991Y-7802960D01*
X15043991Y-7802960D02*
X15053515Y-7793436D01*
X15053515Y-7793436D02*
X15053515Y-7812484D01*
X15186848Y-7612484D02*
X15205896Y-7612484D01*
X15205896Y-7612484D02*
X15224944Y-7622008D01*
X15224944Y-7622008D02*
X15234467Y-7631531D01*
X15234467Y-7631531D02*
X15243991Y-7650579D01*
X15243991Y-7650579D02*
X15253515Y-7688674D01*
X15253515Y-7688674D02*
X15253515Y-7736293D01*
X15253515Y-7736293D02*
X15243991Y-7774388D01*
X15243991Y-7774388D02*
X15234467Y-7793436D01*
X15234467Y-7793436D02*
X15224944Y-7802960D01*
X15224944Y-7802960D02*
X15205896Y-7812484D01*
X15205896Y-7812484D02*
X15186848Y-7812484D01*
X15186848Y-7812484D02*
X15167801Y-7802960D01*
X15167801Y-7802960D02*
X15158277Y-7793436D01*
X15158277Y-7793436D02*
X15148753Y-7774388D01*
X15148753Y-7774388D02*
X15139229Y-7736293D01*
X15139229Y-7736293D02*
X15139229Y-7688674D01*
X15139229Y-7688674D02*
X15148753Y-7650579D01*
X15148753Y-7650579D02*
X15158277Y-7631531D01*
X15158277Y-7631531D02*
X15167801Y-7622008D01*
X15167801Y-7622008D02*
X15186848Y-7612484D01*
X15320182Y-7612484D02*
X15443991Y-7612484D01*
X15443991Y-7612484D02*
X15377325Y-7688674D01*
X15377325Y-7688674D02*
X15405896Y-7688674D01*
X15405896Y-7688674D02*
X15424944Y-7698198D01*
X15424944Y-7698198D02*
X15434467Y-7707722D01*
X15434467Y-7707722D02*
X15443991Y-7726769D01*
X15443991Y-7726769D02*
X15443991Y-7774388D01*
X15443991Y-7774388D02*
X15434467Y-7793436D01*
X15434467Y-7793436D02*
X15424944Y-7802960D01*
X15424944Y-7802960D02*
X15405896Y-7812484D01*
X15405896Y-7812484D02*
X15348753Y-7812484D01*
X15348753Y-7812484D02*
X15329706Y-7802960D01*
X15329706Y-7802960D02*
X15320182Y-7793436D01*
X15539229Y-7812484D02*
X15577325Y-7812484D01*
X15577325Y-7812484D02*
X15596372Y-7802960D01*
X15596372Y-7802960D02*
X15605896Y-7793436D01*
X15605896Y-7793436D02*
X15624944Y-7764865D01*
X15624944Y-7764865D02*
X15634467Y-7726769D01*
X15634467Y-7726769D02*
X15634467Y-7650579D01*
X15634467Y-7650579D02*
X15624944Y-7631531D01*
X15624944Y-7631531D02*
X15615420Y-7622008D01*
X15615420Y-7622008D02*
X15596372Y-7612484D01*
X15596372Y-7612484D02*
X15558277Y-7612484D01*
X15558277Y-7612484D02*
X15539229Y-7622008D01*
X15539229Y-7622008D02*
X15529706Y-7631531D01*
X15529706Y-7631531D02*
X15520182Y-7650579D01*
X15520182Y-7650579D02*
X15520182Y-7698198D01*
X15520182Y-7698198D02*
X15529706Y-7717246D01*
X15529706Y-7717246D02*
X15539229Y-7726769D01*
X15539229Y-7726769D02*
X15558277Y-7736293D01*
X15558277Y-7736293D02*
X15596372Y-7736293D01*
X15596372Y-7736293D02*
X15615420Y-7726769D01*
X15615420Y-7726769D02*
X15624944Y-7717246D01*
X15624944Y-7717246D02*
X15634467Y-7698198D01*
X15805896Y-7679150D02*
X15805896Y-7812484D01*
X15758277Y-7602960D02*
X15710658Y-7745817D01*
X15710658Y-7745817D02*
X15834467Y-7745817D01*
X15901134Y-7612484D02*
X15901134Y-7650579D01*
X15977325Y-7612484D02*
X15977325Y-7650579D01*
X16272563Y-7888674D02*
X16263039Y-7879150D01*
X16263039Y-7879150D02*
X16243991Y-7850579D01*
X16243991Y-7850579D02*
X16234468Y-7831531D01*
X16234468Y-7831531D02*
X16224944Y-7802960D01*
X16224944Y-7802960D02*
X16215420Y-7755341D01*
X16215420Y-7755341D02*
X16215420Y-7717246D01*
X16215420Y-7717246D02*
X16224944Y-7669627D01*
X16224944Y-7669627D02*
X16234468Y-7641055D01*
X16234468Y-7641055D02*
X16243991Y-7622008D01*
X16243991Y-7622008D02*
X16263039Y-7593436D01*
X16263039Y-7593436D02*
X16272563Y-7583912D01*
X16434468Y-7612484D02*
X16396372Y-7612484D01*
X16396372Y-7612484D02*
X16377325Y-7622008D01*
X16377325Y-7622008D02*
X16367801Y-7631531D01*
X16367801Y-7631531D02*
X16348753Y-7660103D01*
X16348753Y-7660103D02*
X16339229Y-7698198D01*
X16339229Y-7698198D02*
X16339229Y-7774388D01*
X16339229Y-7774388D02*
X16348753Y-7793436D01*
X16348753Y-7793436D02*
X16358277Y-7802960D01*
X16358277Y-7802960D02*
X16377325Y-7812484D01*
X16377325Y-7812484D02*
X16415420Y-7812484D01*
X16415420Y-7812484D02*
X16434468Y-7802960D01*
X16434468Y-7802960D02*
X16443991Y-7793436D01*
X16443991Y-7793436D02*
X16453515Y-7774388D01*
X16453515Y-7774388D02*
X16453515Y-7726769D01*
X16453515Y-7726769D02*
X16443991Y-7707722D01*
X16443991Y-7707722D02*
X16434468Y-7698198D01*
X16434468Y-7698198D02*
X16415420Y-7688674D01*
X16415420Y-7688674D02*
X16377325Y-7688674D01*
X16377325Y-7688674D02*
X16358277Y-7698198D01*
X16358277Y-7698198D02*
X16348753Y-7707722D01*
X16348753Y-7707722D02*
X16339229Y-7726769D01*
X16691610Y-7812484D02*
X16691610Y-7612484D01*
X16777325Y-7812484D02*
X16777325Y-7707722D01*
X16777325Y-7707722D02*
X16767801Y-7688674D01*
X16767801Y-7688674D02*
X16748753Y-7679150D01*
X16748753Y-7679150D02*
X16720182Y-7679150D01*
X16720182Y-7679150D02*
X16701134Y-7688674D01*
X16701134Y-7688674D02*
X16691610Y-7698198D01*
X16901134Y-7812484D02*
X16882087Y-7802960D01*
X16882087Y-7802960D02*
X16872563Y-7793436D01*
X16872563Y-7793436D02*
X16863039Y-7774388D01*
X16863039Y-7774388D02*
X16863039Y-7717246D01*
X16863039Y-7717246D02*
X16872563Y-7698198D01*
X16872563Y-7698198D02*
X16882087Y-7688674D01*
X16882087Y-7688674D02*
X16901134Y-7679150D01*
X16901134Y-7679150D02*
X16929706Y-7679150D01*
X16929706Y-7679150D02*
X16948753Y-7688674D01*
X16948753Y-7688674D02*
X16958277Y-7698198D01*
X16958277Y-7698198D02*
X16967801Y-7717246D01*
X16967801Y-7717246D02*
X16967801Y-7774388D01*
X16967801Y-7774388D02*
X16958277Y-7793436D01*
X16958277Y-7793436D02*
X16948753Y-7802960D01*
X16948753Y-7802960D02*
X16929706Y-7812484D01*
X16929706Y-7812484D02*
X16901134Y-7812484D01*
X17082087Y-7812484D02*
X17063039Y-7802960D01*
X17063039Y-7802960D02*
X17053515Y-7783912D01*
X17053515Y-7783912D02*
X17053515Y-7612484D01*
X17234468Y-7802960D02*
X17215420Y-7812484D01*
X17215420Y-7812484D02*
X17177325Y-7812484D01*
X17177325Y-7812484D02*
X17158277Y-7802960D01*
X17158277Y-7802960D02*
X17148753Y-7783912D01*
X17148753Y-7783912D02*
X17148753Y-7707722D01*
X17148753Y-7707722D02*
X17158277Y-7688674D01*
X17158277Y-7688674D02*
X17177325Y-7679150D01*
X17177325Y-7679150D02*
X17215420Y-7679150D01*
X17215420Y-7679150D02*
X17234468Y-7688674D01*
X17234468Y-7688674D02*
X17243992Y-7707722D01*
X17243992Y-7707722D02*
X17243992Y-7726769D01*
X17243992Y-7726769D02*
X17148753Y-7745817D01*
X17320182Y-7802960D02*
X17339230Y-7812484D01*
X17339230Y-7812484D02*
X17377325Y-7812484D01*
X17377325Y-7812484D02*
X17396373Y-7802960D01*
X17396373Y-7802960D02*
X17405896Y-7783912D01*
X17405896Y-7783912D02*
X17405896Y-7774388D01*
X17405896Y-7774388D02*
X17396373Y-7755341D01*
X17396373Y-7755341D02*
X17377325Y-7745817D01*
X17377325Y-7745817D02*
X17348753Y-7745817D01*
X17348753Y-7745817D02*
X17329706Y-7736293D01*
X17329706Y-7736293D02*
X17320182Y-7717246D01*
X17320182Y-7717246D02*
X17320182Y-7707722D01*
X17320182Y-7707722D02*
X17329706Y-7688674D01*
X17329706Y-7688674D02*
X17348753Y-7679150D01*
X17348753Y-7679150D02*
X17377325Y-7679150D01*
X17377325Y-7679150D02*
X17396373Y-7688674D01*
X17472563Y-7888674D02*
X17482087Y-7879150D01*
X17482087Y-7879150D02*
X17501134Y-7850579D01*
X17501134Y-7850579D02*
X17510658Y-7831531D01*
X17510658Y-7831531D02*
X17520182Y-7802960D01*
X17520182Y-7802960D02*
X17529706Y-7755341D01*
X17529706Y-7755341D02*
X17529706Y-7717246D01*
X17529706Y-7717246D02*
X17520182Y-7669627D01*
X17520182Y-7669627D02*
X17510658Y-7641055D01*
X17510658Y-7641055D02*
X17501134Y-7622008D01*
X17501134Y-7622008D02*
X17482087Y-7593436D01*
X17482087Y-7593436D02*
X17472563Y-7583912D01*
M02*
