%TF.GenerationSoftware,KiCad,Pcbnew,8.0.1-8.0.1-1~ubuntu22.04.1*%
%TF.CreationDate,2024-07-15T21:43:56-04:00*%
%TF.ProjectId,Clock_Addon,436c6f63-6b5f-4416-9464-6f6e2e6b6963,rev?*%
%TF.SameCoordinates,Original*%
%TF.FileFunction,Drillmap*%
%TF.FilePolarity,Positive*%
%FSLAX45Y45*%
G04 Gerber Fmt 4.5, Leading zero omitted, Abs format (unit mm)*
G04 Created by KiCad (PCBNEW 8.0.1-8.0.1-1~ubuntu22.04.1) date 2024-07-15 21:43:56*
%MOMM*%
%LPD*%
G01*
G04 APERTURE LIST*
%ADD10C,0.050000*%
%ADD11C,0.200000*%
G04 APERTURE END LIST*
D10*
X12700000Y-4127500D02*
X14351000Y-4127500D01*
X14351000Y-6286500D01*
X12700000Y-6286500D01*
X12700000Y-4127500D01*
D11*
X12958277Y-6600484D02*
X12958277Y-6400484D01*
X12958277Y-6400484D02*
X13005896Y-6400484D01*
X13005896Y-6400484D02*
X13034467Y-6410008D01*
X13034467Y-6410008D02*
X13053515Y-6429055D01*
X13053515Y-6429055D02*
X13063039Y-6448103D01*
X13063039Y-6448103D02*
X13072562Y-6486198D01*
X13072562Y-6486198D02*
X13072562Y-6514769D01*
X13072562Y-6514769D02*
X13063039Y-6552865D01*
X13063039Y-6552865D02*
X13053515Y-6571912D01*
X13053515Y-6571912D02*
X13034467Y-6590960D01*
X13034467Y-6590960D02*
X13005896Y-6600484D01*
X13005896Y-6600484D02*
X12958277Y-6600484D01*
X13158277Y-6600484D02*
X13158277Y-6467150D01*
X13158277Y-6505246D02*
X13167801Y-6486198D01*
X13167801Y-6486198D02*
X13177324Y-6476674D01*
X13177324Y-6476674D02*
X13196372Y-6467150D01*
X13196372Y-6467150D02*
X13215420Y-6467150D01*
X13282086Y-6600484D02*
X13282086Y-6467150D01*
X13282086Y-6400484D02*
X13272562Y-6410008D01*
X13272562Y-6410008D02*
X13282086Y-6419531D01*
X13282086Y-6419531D02*
X13291610Y-6410008D01*
X13291610Y-6410008D02*
X13282086Y-6400484D01*
X13282086Y-6400484D02*
X13282086Y-6419531D01*
X13405896Y-6600484D02*
X13386848Y-6590960D01*
X13386848Y-6590960D02*
X13377324Y-6571912D01*
X13377324Y-6571912D02*
X13377324Y-6400484D01*
X13510658Y-6600484D02*
X13491610Y-6590960D01*
X13491610Y-6590960D02*
X13482086Y-6571912D01*
X13482086Y-6571912D02*
X13482086Y-6400484D01*
X13739229Y-6600484D02*
X13739229Y-6400484D01*
X13739229Y-6400484D02*
X13805896Y-6543341D01*
X13805896Y-6543341D02*
X13872562Y-6400484D01*
X13872562Y-6400484D02*
X13872562Y-6600484D01*
X14053515Y-6600484D02*
X14053515Y-6495722D01*
X14053515Y-6495722D02*
X14043991Y-6476674D01*
X14043991Y-6476674D02*
X14024943Y-6467150D01*
X14024943Y-6467150D02*
X13986848Y-6467150D01*
X13986848Y-6467150D02*
X13967801Y-6476674D01*
X14053515Y-6590960D02*
X14034467Y-6600484D01*
X14034467Y-6600484D02*
X13986848Y-6600484D01*
X13986848Y-6600484D02*
X13967801Y-6590960D01*
X13967801Y-6590960D02*
X13958277Y-6571912D01*
X13958277Y-6571912D02*
X13958277Y-6552865D01*
X13958277Y-6552865D02*
X13967801Y-6533817D01*
X13967801Y-6533817D02*
X13986848Y-6524293D01*
X13986848Y-6524293D02*
X14034467Y-6524293D01*
X14034467Y-6524293D02*
X14053515Y-6514769D01*
X14148753Y-6467150D02*
X14148753Y-6667150D01*
X14148753Y-6476674D02*
X14167801Y-6467150D01*
X14167801Y-6467150D02*
X14205896Y-6467150D01*
X14205896Y-6467150D02*
X14224943Y-6476674D01*
X14224943Y-6476674D02*
X14234467Y-6486198D01*
X14234467Y-6486198D02*
X14243991Y-6505246D01*
X14243991Y-6505246D02*
X14243991Y-6562388D01*
X14243991Y-6562388D02*
X14234467Y-6581436D01*
X14234467Y-6581436D02*
X14224943Y-6590960D01*
X14224943Y-6590960D02*
X14205896Y-6600484D01*
X14205896Y-6600484D02*
X14167801Y-6600484D01*
X14167801Y-6600484D02*
X14148753Y-6590960D01*
X14329705Y-6581436D02*
X14339229Y-6590960D01*
X14339229Y-6590960D02*
X14329705Y-6600484D01*
X14329705Y-6600484D02*
X14320182Y-6590960D01*
X14320182Y-6590960D02*
X14329705Y-6581436D01*
X14329705Y-6581436D02*
X14329705Y-6600484D01*
X14329705Y-6476674D02*
X14339229Y-6486198D01*
X14339229Y-6486198D02*
X14329705Y-6495722D01*
X14329705Y-6495722D02*
X14320182Y-6486198D01*
X14320182Y-6486198D02*
X14329705Y-6476674D01*
X14329705Y-6476674D02*
X14329705Y-6495722D01*
M02*
