%TF.GenerationSoftware,KiCad,Pcbnew,8.0.1-8.0.1-1~ubuntu22.04.1*%
%TF.CreationDate,2025-04-18T23:57:40-04:00*%
%TF.ProjectId,Claculator_Keypad,436c6163-756c-4617-946f-725f4b657970,rev?*%
%TF.SameCoordinates,Original*%
%TF.FileFunction,Paste,Bot*%
%TF.FilePolarity,Positive*%
%FSLAX46Y46*%
G04 Gerber Fmt 4.6, Leading zero omitted, Abs format (unit mm)*
G04 Created by KiCad (PCBNEW 8.0.1-8.0.1-1~ubuntu22.04.1) date 2025-04-18 23:57:40*
%MOMM*%
%LPD*%
G01*
G04 APERTURE LIST*
G04 Aperture macros list*
%AMRoundRect*
0 Rectangle with rounded corners*
0 $1 Rounding radius*
0 $2 $3 $4 $5 $6 $7 $8 $9 X,Y pos of 4 corners*
0 Add a 4 corners polygon primitive as box body*
4,1,4,$2,$3,$4,$5,$6,$7,$8,$9,$2,$3,0*
0 Add four circle primitives for the rounded corners*
1,1,$1+$1,$2,$3*
1,1,$1+$1,$4,$5*
1,1,$1+$1,$6,$7*
1,1,$1+$1,$8,$9*
0 Add four rect primitives between the rounded corners*
20,1,$1+$1,$2,$3,$4,$5,0*
20,1,$1+$1,$4,$5,$6,$7,0*
20,1,$1+$1,$6,$7,$8,$9,0*
20,1,$1+$1,$8,$9,$2,$3,0*%
G04 Aperture macros list end*
%ADD10R,2.550000X2.500000*%
%ADD11RoundRect,0.250000X0.337500X0.475000X-0.337500X0.475000X-0.337500X-0.475000X0.337500X-0.475000X0*%
%ADD12RoundRect,0.250000X0.350000X0.450000X-0.350000X0.450000X-0.350000X-0.450000X0.350000X-0.450000X0*%
%ADD13RoundRect,0.150000X0.825000X0.150000X-0.825000X0.150000X-0.825000X-0.150000X0.825000X-0.150000X0*%
%ADD14RoundRect,0.250000X-0.337500X-0.475000X0.337500X-0.475000X0.337500X0.475000X-0.337500X0.475000X0*%
%ADD15RoundRect,0.112500X0.112500X0.237500X-0.112500X0.237500X-0.112500X-0.237500X0.112500X-0.237500X0*%
%ADD16RoundRect,0.150000X0.875000X0.150000X-0.875000X0.150000X-0.875000X-0.150000X0.875000X-0.150000X0*%
%ADD17RoundRect,0.250000X0.450000X-0.350000X0.450000X0.350000X-0.450000X0.350000X-0.450000X-0.350000X0*%
%ADD18RoundRect,0.250000X0.475000X-0.337500X0.475000X0.337500X-0.475000X0.337500X-0.475000X-0.337500X0*%
%ADD19RoundRect,0.150000X-0.750000X-0.150000X0.750000X-0.150000X0.750000X0.150000X-0.750000X0.150000X0*%
%ADD20RoundRect,0.150000X-0.825000X-0.150000X0.825000X-0.150000X0.825000X0.150000X-0.825000X0.150000X0*%
%ADD21RoundRect,0.250000X-0.350000X-0.450000X0.350000X-0.450000X0.350000X0.450000X-0.350000X0.450000X0*%
%ADD22RoundRect,0.150000X-0.150000X0.875000X-0.150000X-0.875000X0.150000X-0.875000X0.150000X0.875000X0*%
%ADD23RoundRect,0.150000X0.150000X-0.875000X0.150000X0.875000X-0.150000X0.875000X-0.150000X-0.875000X0*%
%ADD24RoundRect,0.112500X-0.237500X0.112500X-0.237500X-0.112500X0.237500X-0.112500X0.237500X0.112500X0*%
%ADD25RoundRect,0.250000X-0.475000X0.337500X-0.475000X-0.337500X0.475000X-0.337500X0.475000X0.337500X0*%
%ADD26RoundRect,0.250000X-0.450000X0.350000X-0.450000X-0.350000X0.450000X-0.350000X0.450000X0.350000X0*%
%ADD27RoundRect,0.150000X-0.150000X0.825000X-0.150000X-0.825000X0.150000X-0.825000X0.150000X0.825000X0*%
G04 APERTURE END LIST*
D10*
%TO.C,SW39*%
X151710000Y-122463000D03*
X165560000Y-119923000D03*
%TD*%
%TO.C,SW34*%
X171510000Y-62463000D03*
X185360000Y-59923000D03*
%TD*%
%TO.C,SW9*%
X108376000Y-62463000D03*
X122226000Y-59923000D03*
%TD*%
%TO.C,SW38*%
X171710000Y-102463000D03*
X185560000Y-99923000D03*
%TD*%
%TO.C,SW33*%
X151710000Y-62463000D03*
X165560000Y-59923000D03*
%TD*%
%TO.C,SW11*%
X108376000Y-82463000D03*
X122226000Y-79923000D03*
%TD*%
%TO.C,SW30*%
X41710000Y-102463000D03*
X55560000Y-99923000D03*
%TD*%
%TO.C,SW13*%
X108376000Y-102463000D03*
X122226000Y-99923000D03*
%TD*%
%TO.C,SW18*%
X85043000Y-62463000D03*
X98893000Y-59923000D03*
%TD*%
%TO.C,SW12*%
X128376000Y-82463000D03*
X142226000Y-79923000D03*
%TD*%
%TO.C,SW23*%
X65043000Y-122463000D03*
X78893000Y-119923000D03*
%TD*%
%TO.C,SW7*%
X191710000Y-122463000D03*
X205560000Y-119923000D03*
%TD*%
%TO.C,SW3*%
X191710000Y-82463000D03*
X205560000Y-79923000D03*
%TD*%
%TO.C,SW36*%
X171710000Y-82463000D03*
X185560000Y-79923000D03*
%TD*%
%TO.C,SW8*%
X211710000Y-122463000D03*
X225560000Y-119923000D03*
%TD*%
%TO.C,SW27*%
X21710000Y-82463000D03*
X35560000Y-79923000D03*
%TD*%
%TO.C,SW1*%
X191710000Y-62463000D03*
X205560000Y-59923000D03*
%TD*%
%TO.C,SW28*%
X41710000Y-82463000D03*
X55560000Y-79923000D03*
%TD*%
%TO.C,SW29*%
X21710000Y-102463000D03*
X35560000Y-99923000D03*
%TD*%
%TO.C,SW19*%
X65043000Y-82463000D03*
X78893000Y-79923000D03*
%TD*%
%TO.C,SW10*%
X128376000Y-62463000D03*
X142226000Y-59923000D03*
%TD*%
%TO.C,SW2*%
X211710000Y-62463000D03*
X225560000Y-59923000D03*
%TD*%
%TO.C,SW15*%
X108376000Y-122463000D03*
X122226000Y-119923000D03*
%TD*%
%TO.C,SW22*%
X85043000Y-102463000D03*
X98893000Y-99923000D03*
%TD*%
%TO.C,SW16*%
X128376000Y-122463000D03*
X142226000Y-119923000D03*
%TD*%
%TO.C,SW14*%
X128376000Y-102463000D03*
X142226000Y-99923000D03*
%TD*%
%TO.C,SW24*%
X85043000Y-122463000D03*
X98893000Y-119923000D03*
%TD*%
%TO.C,SW32*%
X41710000Y-122463000D03*
X55560000Y-119923000D03*
%TD*%
%TO.C,SW31*%
X21710000Y-122463000D03*
X35560000Y-119923000D03*
%TD*%
%TO.C,SW26*%
X41710000Y-62463000D03*
X55560000Y-59923000D03*
%TD*%
%TO.C,SW25*%
X21710000Y-62463000D03*
X35560000Y-59923000D03*
%TD*%
%TO.C,SW17*%
X65043000Y-62463000D03*
X78893000Y-59923000D03*
%TD*%
%TO.C,SW21*%
X65043000Y-102463000D03*
X78893000Y-99923000D03*
%TD*%
%TO.C,SW20*%
X85043000Y-82463000D03*
X98893000Y-79923000D03*
%TD*%
%TO.C,SW37*%
X151710000Y-102463000D03*
X165560000Y-99923000D03*
%TD*%
%TO.C,SW5*%
X191710000Y-102463000D03*
X205560000Y-99923000D03*
%TD*%
%TO.C,SW_Rst1*%
X21710000Y-40271000D03*
X35560000Y-37731000D03*
%TD*%
%TO.C,SW6*%
X211710000Y-102463000D03*
X225560000Y-99923000D03*
%TD*%
%TO.C,SW40*%
X171710000Y-122463000D03*
X185560000Y-119923000D03*
%TD*%
%TO.C,SW4*%
X211710000Y-82463000D03*
X225560000Y-79923000D03*
%TD*%
%TO.C,SW35*%
X151710000Y-82463000D03*
X165560000Y-79923000D03*
%TD*%
D11*
%TO.C,C44*%
X78507500Y-128905000D03*
X76432500Y-128905000D03*
%TD*%
D12*
%TO.C,R42*%
X184785000Y-126365000D03*
X182785000Y-126365000D03*
%TD*%
D13*
%TO.C,U36*%
X215900000Y-42545000D03*
X215900000Y-43815000D03*
X215900000Y-45085000D03*
X215900000Y-46355000D03*
X215900000Y-47625000D03*
X215900000Y-48895000D03*
X215900000Y-50165000D03*
X215900000Y-51435000D03*
X210950000Y-51435000D03*
X210950000Y-50165000D03*
X210950000Y-48895000D03*
X210950000Y-47625000D03*
X210950000Y-46355000D03*
X210950000Y-45085000D03*
X210950000Y-43815000D03*
X210950000Y-42545000D03*
%TD*%
%TO.C,U28*%
X175765000Y-31750000D03*
X175765000Y-33020000D03*
X175765000Y-34290000D03*
X175765000Y-35560000D03*
X175765000Y-36830000D03*
X175765000Y-38100000D03*
X175765000Y-39370000D03*
X175765000Y-40640000D03*
X170815000Y-40640000D03*
X170815000Y-39370000D03*
X170815000Y-38100000D03*
X170815000Y-36830000D03*
X170815000Y-35560000D03*
X170815000Y-34290000D03*
X170815000Y-33020000D03*
X170815000Y-31750000D03*
%TD*%
D11*
%TO.C,C39*%
X98827500Y-68550000D03*
X96752500Y-68550000D03*
%TD*%
D14*
%TO.C,C4*%
X220345000Y-29210000D03*
X222420000Y-29210000D03*
%TD*%
D15*
%TO.C,D2*%
X158157000Y-50165000D03*
X156857000Y-50165000D03*
X157507000Y-48165000D03*
%TD*%
D11*
%TO.C,C33*%
X142007500Y-108585000D03*
X139932500Y-108585000D03*
%TD*%
D16*
%TO.C,U22*%
X31525000Y-125730000D03*
X31525000Y-127000000D03*
X31525000Y-128270000D03*
X31525000Y-129540000D03*
X31525000Y-130810000D03*
X31525000Y-132080000D03*
X31525000Y-133350000D03*
X31525000Y-134620000D03*
X31525000Y-135890000D03*
X31525000Y-137160000D03*
X22225000Y-137160000D03*
X22225000Y-135890000D03*
X22225000Y-134620000D03*
X22225000Y-133350000D03*
X22225000Y-132080000D03*
X22225000Y-130810000D03*
X22225000Y-129540000D03*
X22225000Y-128270000D03*
X22225000Y-127000000D03*
X22225000Y-125730000D03*
%TD*%
%TO.C,U24*%
X45925000Y-41275000D03*
X45925000Y-42545000D03*
X45925000Y-43815000D03*
X45925000Y-45085000D03*
X45925000Y-46355000D03*
X45925000Y-47625000D03*
X45925000Y-48895000D03*
X45925000Y-50165000D03*
X45925000Y-51435000D03*
X45925000Y-52705000D03*
X36625000Y-52705000D03*
X36625000Y-51435000D03*
X36625000Y-50165000D03*
X36625000Y-48895000D03*
X36625000Y-47625000D03*
X36625000Y-46355000D03*
X36625000Y-45085000D03*
X36625000Y-43815000D03*
X36625000Y-42545000D03*
X36625000Y-41275000D03*
%TD*%
D12*
%TO.C,R11*%
X121920000Y-66040000D03*
X119920000Y-66040000D03*
%TD*%
%TO.C,R9*%
X206105000Y-125730000D03*
X204105000Y-125730000D03*
%TD*%
D17*
%TO.C,R2*%
X134050000Y-24495000D03*
X134050000Y-22495000D03*
%TD*%
D11*
%TO.C,C34*%
X121687500Y-128905000D03*
X119612500Y-128905000D03*
%TD*%
D12*
%TO.C,R36*%
X184785000Y-66040000D03*
X182785000Y-66040000D03*
%TD*%
D18*
%TO.C,C9*%
X92175000Y-25167500D03*
X92175000Y-23092500D03*
%TD*%
D13*
%TO.C,U10*%
X98295000Y-40005000D03*
X98295000Y-41275000D03*
X98295000Y-42545000D03*
X98295000Y-43815000D03*
X98295000Y-45085000D03*
X98295000Y-46355000D03*
X98295000Y-47625000D03*
X93345000Y-47625000D03*
X93345000Y-46355000D03*
X93345000Y-45085000D03*
X93345000Y-43815000D03*
X93345000Y-42545000D03*
X93345000Y-41275000D03*
X93345000Y-40005000D03*
%TD*%
%TO.C,U38*%
X184020000Y-42545000D03*
X184020000Y-43815000D03*
X184020000Y-45085000D03*
X184020000Y-46355000D03*
X184020000Y-47625000D03*
X184020000Y-48895000D03*
X184020000Y-50165000D03*
X184020000Y-51435000D03*
X179070000Y-51435000D03*
X179070000Y-50165000D03*
X179070000Y-48895000D03*
X179070000Y-47625000D03*
X179070000Y-46355000D03*
X179070000Y-45085000D03*
X179070000Y-43815000D03*
X179070000Y-42545000D03*
%TD*%
D11*
%TO.C,C32*%
X121957500Y-108585000D03*
X119882500Y-108585000D03*
%TD*%
D12*
%TO.C,R38*%
X185150000Y-86360000D03*
X183150000Y-86360000D03*
%TD*%
D11*
%TO.C,C62*%
X165502500Y-108695000D03*
X163427500Y-108695000D03*
%TD*%
D14*
%TO.C,C12*%
X212322500Y-29210000D03*
X214397500Y-29210000D03*
%TD*%
D13*
%TO.C,U14*%
X90040000Y-40005000D03*
X90040000Y-41275000D03*
X90040000Y-42545000D03*
X90040000Y-43815000D03*
X90040000Y-45085000D03*
X90040000Y-46355000D03*
X90040000Y-47625000D03*
X85090000Y-47625000D03*
X85090000Y-46355000D03*
X85090000Y-45085000D03*
X85090000Y-43815000D03*
X85090000Y-42545000D03*
X85090000Y-41275000D03*
X85090000Y-40005000D03*
%TD*%
D11*
%TO.C,C43*%
X98827500Y-108585000D03*
X96752500Y-108585000D03*
%TD*%
D14*
%TO.C,C83*%
X115167500Y-26670000D03*
X117242500Y-26670000D03*
%TD*%
D13*
%TO.C,U21*%
X215900000Y-31750000D03*
X215900000Y-33020000D03*
X215900000Y-34290000D03*
X215900000Y-35560000D03*
X215900000Y-36830000D03*
X215900000Y-38100000D03*
X215900000Y-39370000D03*
X215900000Y-40640000D03*
X210950000Y-40640000D03*
X210950000Y-39370000D03*
X210950000Y-38100000D03*
X210950000Y-36830000D03*
X210950000Y-35560000D03*
X210950000Y-34290000D03*
X210950000Y-33020000D03*
X210950000Y-31750000D03*
%TD*%
D12*
%TO.C,R8*%
X225155000Y-106045000D03*
X223155000Y-106045000D03*
%TD*%
D11*
%TO.C,C61*%
X185187500Y-88835000D03*
X183112500Y-88835000D03*
%TD*%
%TO.C,C55*%
X55282500Y-128905000D03*
X53207500Y-128905000D03*
%TD*%
D12*
%TO.C,R31*%
X35290000Y-106045000D03*
X33290000Y-106045000D03*
%TD*%
D11*
%TO.C,C59*%
X184822500Y-68800000D03*
X182747500Y-68800000D03*
%TD*%
D14*
%TO.C,C78*%
X172317500Y-29210000D03*
X174392500Y-29210000D03*
%TD*%
D11*
%TO.C,C22*%
X225462500Y-128270000D03*
X223387500Y-128270000D03*
%TD*%
D12*
%TO.C,R37*%
X165465000Y-86360000D03*
X163465000Y-86360000D03*
%TD*%
%TO.C,R10*%
X225425000Y-125730000D03*
X223425000Y-125730000D03*
%TD*%
%TO.C,R7*%
X205470000Y-106045000D03*
X203470000Y-106045000D03*
%TD*%
%TO.C,R33*%
X36560000Y-126365000D03*
X34560000Y-126365000D03*
%TD*%
D19*
%TO.C,U15*%
X49810000Y-52070000D03*
X49810000Y-50800000D03*
X49810000Y-49530000D03*
X49810000Y-48260000D03*
X49810000Y-46990000D03*
X49810000Y-45720000D03*
X49810000Y-44450000D03*
X49810000Y-43180000D03*
X49810000Y-41910000D03*
X49810000Y-40640000D03*
X49810000Y-39370000D03*
X49810000Y-38100000D03*
X49810000Y-36830000D03*
X49810000Y-35560000D03*
X59410000Y-35560000D03*
X59410000Y-36830000D03*
X59410000Y-38100000D03*
X59410000Y-39370000D03*
X59410000Y-40640000D03*
X59410000Y-41910000D03*
X59410000Y-43180000D03*
X59410000Y-44450000D03*
X59410000Y-45720000D03*
X59410000Y-46990000D03*
X59410000Y-48260000D03*
X59410000Y-49530000D03*
X59410000Y-50800000D03*
X59410000Y-52070000D03*
%TD*%
D14*
%TO.C,C27*%
X59922500Y-55880000D03*
X61997500Y-55880000D03*
%TD*%
D20*
%TO.C,U3*%
X137290000Y-26035000D03*
X137290000Y-24765000D03*
X137290000Y-23495000D03*
X137290000Y-22225000D03*
X142240000Y-22225000D03*
X142240000Y-23495000D03*
X142240000Y-24765000D03*
X142240000Y-26035000D03*
%TD*%
D11*
%TO.C,C42*%
X78872500Y-108585000D03*
X76797500Y-108585000D03*
%TD*%
D21*
%TO.C,R43*%
X128270000Y-41910000D03*
X130270000Y-41910000D03*
%TD*%
D13*
%TO.C,U39*%
X175765000Y-42545000D03*
X175765000Y-43815000D03*
X175765000Y-45085000D03*
X175765000Y-46355000D03*
X175765000Y-47625000D03*
X175765000Y-48895000D03*
X175765000Y-50165000D03*
X175765000Y-51435000D03*
X170815000Y-51435000D03*
X170815000Y-50165000D03*
X170815000Y-48895000D03*
X170815000Y-47625000D03*
X170815000Y-46355000D03*
X170815000Y-45085000D03*
X170815000Y-43815000D03*
X170815000Y-42545000D03*
%TD*%
D17*
%TO.C,R1*%
X131510000Y-24495000D03*
X131510000Y-22495000D03*
%TD*%
D14*
%TO.C,C24*%
X92710000Y-27940000D03*
X94785000Y-27940000D03*
%TD*%
D12*
%TO.C,R29*%
X35290000Y-86360000D03*
X33290000Y-86360000D03*
%TD*%
%TO.C,R17*%
X121650000Y-126365000D03*
X119650000Y-126365000D03*
%TD*%
%TO.C,R35*%
X165465000Y-66040000D03*
X163465000Y-66040000D03*
%TD*%
D11*
%TO.C,C60*%
X165502500Y-88900000D03*
X163427500Y-88900000D03*
%TD*%
%TO.C,C31*%
X142007500Y-88265000D03*
X139932500Y-88265000D03*
%TD*%
D12*
%TO.C,R4*%
X225155000Y-66675000D03*
X223155000Y-66675000D03*
%TD*%
D11*
%TO.C,C35*%
X142007500Y-128905000D03*
X139932500Y-128905000D03*
%TD*%
%TO.C,C41*%
X98827500Y-88900000D03*
X96752500Y-88900000D03*
%TD*%
D18*
%TO.C,C10*%
X147320000Y-126767500D03*
X147320000Y-124692500D03*
%TD*%
D22*
%TO.C,U17*%
X62865000Y-43615000D03*
X64135000Y-43615000D03*
X65405000Y-43615000D03*
X66675000Y-43615000D03*
X67945000Y-43615000D03*
X69215000Y-43615000D03*
X70485000Y-43615000D03*
X71755000Y-43615000D03*
X73025000Y-43615000D03*
X74295000Y-43615000D03*
X74295000Y-52915000D03*
X73025000Y-52915000D03*
X71755000Y-52915000D03*
X70485000Y-52915000D03*
X69215000Y-52915000D03*
X67945000Y-52915000D03*
X66675000Y-52915000D03*
X65405000Y-52915000D03*
X64135000Y-52915000D03*
X62865000Y-52915000D03*
%TD*%
D11*
%TO.C,C54*%
X36597500Y-128905000D03*
X34522500Y-128905000D03*
%TD*%
D12*
%TO.C,R18*%
X141970000Y-126365000D03*
X139970000Y-126365000D03*
%TD*%
D11*
%TO.C,C40*%
X78507500Y-88900000D03*
X76432500Y-88900000D03*
%TD*%
%TO.C,C2*%
X129942500Y-54610000D03*
X127867500Y-54610000D03*
%TD*%
D12*
%TO.C,R26*%
X98790000Y-125730000D03*
X96790000Y-125730000D03*
%TD*%
D18*
%TO.C,C6*%
X97255000Y-25167500D03*
X97255000Y-23092500D03*
%TD*%
D12*
%TO.C,R32*%
X54975000Y-106045000D03*
X52975000Y-106045000D03*
%TD*%
%TO.C,R28*%
X54975000Y-66040000D03*
X52975000Y-66040000D03*
%TD*%
D11*
%TO.C,C19*%
X205491063Y-108585000D03*
X203416063Y-108585000D03*
%TD*%
%TO.C,C63*%
X185187500Y-108585000D03*
X183112500Y-108585000D03*
%TD*%
%TO.C,C45*%
X98827500Y-128270000D03*
X96752500Y-128270000D03*
%TD*%
%TO.C,C50*%
X35327500Y-88900000D03*
X33252500Y-88900000D03*
%TD*%
D12*
%TO.C,R25*%
X78470000Y-126365000D03*
X76470000Y-126365000D03*
%TD*%
%TO.C,R24*%
X98790000Y-106045000D03*
X96790000Y-106045000D03*
%TD*%
D13*
%TO.C,U13*%
X90040000Y-30480000D03*
X90040000Y-31750000D03*
X90040000Y-33020000D03*
X90040000Y-34290000D03*
X90040000Y-35560000D03*
X90040000Y-36830000D03*
X90040000Y-38100000D03*
X85090000Y-38100000D03*
X85090000Y-36830000D03*
X85090000Y-35560000D03*
X85090000Y-34290000D03*
X85090000Y-33020000D03*
X85090000Y-31750000D03*
X85090000Y-30480000D03*
%TD*%
%TO.C,U6*%
X132080000Y-44450000D03*
X132080000Y-45720000D03*
X132080000Y-46990000D03*
X132080000Y-48260000D03*
X132080000Y-49530000D03*
X132080000Y-50800000D03*
X132080000Y-52070000D03*
X127130000Y-52070000D03*
X127130000Y-50800000D03*
X127130000Y-49530000D03*
X127130000Y-48260000D03*
X127130000Y-46990000D03*
X127130000Y-45720000D03*
X127130000Y-44450000D03*
%TD*%
D11*
%TO.C,C16*%
X225192500Y-69215000D03*
X223117500Y-69215000D03*
%TD*%
D16*
%TO.C,U12*%
X200660000Y-125730000D03*
X200660000Y-127000000D03*
X200660000Y-128270000D03*
X200660000Y-129540000D03*
X200660000Y-130810000D03*
X200660000Y-132080000D03*
X200660000Y-133350000D03*
X200660000Y-134620000D03*
X200660000Y-135890000D03*
X200660000Y-137160000D03*
X191360000Y-137160000D03*
X191360000Y-135890000D03*
X191360000Y-134620000D03*
X191360000Y-133350000D03*
X191360000Y-132080000D03*
X191360000Y-130810000D03*
X191360000Y-129540000D03*
X191360000Y-128270000D03*
X191360000Y-127000000D03*
X191360000Y-125730000D03*
%TD*%
D13*
%TO.C,U23*%
X192275000Y-31750000D03*
X192275000Y-33020000D03*
X192275000Y-34290000D03*
X192275000Y-35560000D03*
X192275000Y-36830000D03*
X192275000Y-38100000D03*
X192275000Y-39370000D03*
X192275000Y-40640000D03*
X187325000Y-40640000D03*
X187325000Y-39370000D03*
X187325000Y-38100000D03*
X187325000Y-36830000D03*
X187325000Y-35560000D03*
X187325000Y-34290000D03*
X187325000Y-33020000D03*
X187325000Y-31750000D03*
%TD*%
D23*
%TO.C,U1*%
X152400000Y-41050000D03*
X151130000Y-41050000D03*
X149860000Y-41050000D03*
X148590000Y-41050000D03*
X147320000Y-41050000D03*
X146050000Y-41050000D03*
X144780000Y-41050000D03*
X143510000Y-41050000D03*
X142240000Y-41050000D03*
X140970000Y-41050000D03*
X139700000Y-41050000D03*
X138430000Y-41050000D03*
X138430000Y-31750000D03*
X139700000Y-31750000D03*
X140970000Y-31750000D03*
X142240000Y-31750000D03*
X143510000Y-31750000D03*
X144780000Y-31750000D03*
X146050000Y-31750000D03*
X147320000Y-31750000D03*
X148590000Y-31750000D03*
X149860000Y-31750000D03*
X151130000Y-31750000D03*
X152400000Y-31750000D03*
%TD*%
D11*
%TO.C,C48*%
X35327500Y-68580000D03*
X33252500Y-68580000D03*
%TD*%
D12*
%TO.C,R34*%
X55245000Y-126365000D03*
X53245000Y-126365000D03*
%TD*%
D11*
%TO.C,C20*%
X225192500Y-108585000D03*
X223117500Y-108585000D03*
%TD*%
D16*
%TO.C,U20*%
X73230000Y-125730000D03*
X73230000Y-127000000D03*
X73230000Y-128270000D03*
X73230000Y-129540000D03*
X73230000Y-130810000D03*
X73230000Y-132080000D03*
X73230000Y-133350000D03*
X73230000Y-134620000D03*
X73230000Y-135890000D03*
X73230000Y-137160000D03*
X63930000Y-137160000D03*
X63930000Y-135890000D03*
X63930000Y-134620000D03*
X63930000Y-133350000D03*
X63930000Y-132080000D03*
X63930000Y-130810000D03*
X63930000Y-129540000D03*
X63930000Y-128270000D03*
X63930000Y-127000000D03*
X63930000Y-125730000D03*
%TD*%
D18*
%TO.C,C11*%
X106045000Y-121687500D03*
X106045000Y-119612500D03*
%TD*%
D16*
%TO.C,U18*%
X117045000Y-125730000D03*
X117045000Y-127000000D03*
X117045000Y-128270000D03*
X117045000Y-129540000D03*
X117045000Y-130810000D03*
X117045000Y-132080000D03*
X117045000Y-133350000D03*
X117045000Y-134620000D03*
X117045000Y-135890000D03*
X117045000Y-137160000D03*
X107745000Y-137160000D03*
X107745000Y-135890000D03*
X107745000Y-134620000D03*
X107745000Y-133350000D03*
X107745000Y-132080000D03*
X107745000Y-130810000D03*
X107745000Y-129540000D03*
X107745000Y-128270000D03*
X107745000Y-127000000D03*
X107745000Y-125730000D03*
%TD*%
D13*
%TO.C,U7*%
X224155000Y-31750000D03*
X224155000Y-33020000D03*
X224155000Y-34290000D03*
X224155000Y-35560000D03*
X224155000Y-36830000D03*
X224155000Y-38100000D03*
X224155000Y-39370000D03*
X224155000Y-40640000D03*
X219205000Y-40640000D03*
X219205000Y-39370000D03*
X219205000Y-38100000D03*
X219205000Y-36830000D03*
X219205000Y-35560000D03*
X219205000Y-34290000D03*
X219205000Y-33020000D03*
X219205000Y-31750000D03*
%TD*%
%TO.C,U31*%
X107250000Y-44450000D03*
X107250000Y-45720000D03*
X107250000Y-46990000D03*
X107250000Y-48260000D03*
X107250000Y-49530000D03*
X107250000Y-50800000D03*
X107250000Y-52070000D03*
X102300000Y-52070000D03*
X102300000Y-50800000D03*
X102300000Y-49530000D03*
X102300000Y-48260000D03*
X102300000Y-46990000D03*
X102300000Y-45720000D03*
X102300000Y-44450000D03*
%TD*%
%TO.C,U5*%
X115440000Y-44450000D03*
X115440000Y-45720000D03*
X115440000Y-46990000D03*
X115440000Y-48260000D03*
X115440000Y-49530000D03*
X115440000Y-50800000D03*
X115440000Y-52070000D03*
X110490000Y-52070000D03*
X110490000Y-50800000D03*
X110490000Y-49530000D03*
X110490000Y-48260000D03*
X110490000Y-46990000D03*
X110490000Y-45720000D03*
X110490000Y-44450000D03*
%TD*%
D14*
%TO.C,C77*%
X180572500Y-29210000D03*
X182647500Y-29210000D03*
%TD*%
D13*
%TO.C,U8*%
X123695000Y-44450000D03*
X123695000Y-45720000D03*
X123695000Y-46990000D03*
X123695000Y-48260000D03*
X123695000Y-49530000D03*
X123695000Y-50800000D03*
X123695000Y-52070000D03*
X118745000Y-52070000D03*
X118745000Y-50800000D03*
X118745000Y-49530000D03*
X118745000Y-48260000D03*
X118745000Y-46990000D03*
X118745000Y-45720000D03*
X118745000Y-44450000D03*
%TD*%
D11*
%TO.C,C18*%
X225192500Y-88900000D03*
X223117500Y-88900000D03*
%TD*%
%TO.C,C29*%
X142007500Y-68580000D03*
X139932500Y-68580000D03*
%TD*%
D24*
%TO.C,D6*%
X98155000Y-51420000D03*
X98155000Y-52720000D03*
X96155000Y-52070000D03*
%TD*%
D11*
%TO.C,C51*%
X55012500Y-88900000D03*
X52937500Y-88900000D03*
%TD*%
D14*
%TO.C,C13*%
X103102500Y-26670000D03*
X105177500Y-26670000D03*
%TD*%
D13*
%TO.C,U26*%
X184020000Y-31750000D03*
X184020000Y-33020000D03*
X184020000Y-34290000D03*
X184020000Y-35560000D03*
X184020000Y-36830000D03*
X184020000Y-38100000D03*
X184020000Y-39370000D03*
X184020000Y-40640000D03*
X179070000Y-40640000D03*
X179070000Y-39370000D03*
X179070000Y-38100000D03*
X179070000Y-36830000D03*
X179070000Y-35560000D03*
X179070000Y-34290000D03*
X179070000Y-33020000D03*
X179070000Y-31750000D03*
%TD*%
%TO.C,U4*%
X134490000Y-31750000D03*
X134490000Y-33020000D03*
X134490000Y-34290000D03*
X134490000Y-35560000D03*
X134490000Y-36830000D03*
X134490000Y-38100000D03*
X134490000Y-39370000D03*
X129540000Y-39370000D03*
X129540000Y-38100000D03*
X129540000Y-36830000D03*
X129540000Y-35560000D03*
X129540000Y-34290000D03*
X129540000Y-33020000D03*
X129540000Y-31750000D03*
%TD*%
D14*
%TO.C,C76*%
X188595000Y-29210000D03*
X190670000Y-29210000D03*
%TD*%
D15*
%TO.C,D1*%
X161335000Y-50165000D03*
X160035000Y-50165000D03*
X160685000Y-48165000D03*
%TD*%
D12*
%TO.C,R6*%
X225155000Y-86360000D03*
X223155000Y-86360000D03*
%TD*%
D18*
%TO.C,C8*%
X94715000Y-25167500D03*
X94715000Y-23092500D03*
%TD*%
D25*
%TO.C,C1*%
X155575000Y-31347500D03*
X155575000Y-33422500D03*
%TD*%
D12*
%TO.C,R40*%
X185150000Y-106045000D03*
X183150000Y-106045000D03*
%TD*%
%TO.C,R13*%
X121920000Y-86360000D03*
X119920000Y-86360000D03*
%TD*%
D11*
%TO.C,C30*%
X121957500Y-88900000D03*
X119882500Y-88900000D03*
%TD*%
%TO.C,C17*%
X205507500Y-88900000D03*
X203432500Y-88900000D03*
%TD*%
D14*
%TO.C,C75*%
X132715000Y-41910000D03*
X134790000Y-41910000D03*
%TD*%
D12*
%TO.C,R5*%
X205470000Y-86360000D03*
X203470000Y-86360000D03*
%TD*%
%TO.C,R15*%
X121920000Y-106045000D03*
X119920000Y-106045000D03*
%TD*%
D11*
%TO.C,C5*%
X139467500Y-28575000D03*
X137392500Y-28575000D03*
%TD*%
D18*
%TO.C,C14*%
X60325000Y-126535000D03*
X60325000Y-124460000D03*
%TD*%
D11*
%TO.C,C65*%
X184822500Y-128905000D03*
X182747500Y-128905000D03*
%TD*%
D12*
%TO.C,R12*%
X141970000Y-66040000D03*
X139970000Y-66040000D03*
%TD*%
D16*
%TO.C,U11*%
X111965000Y-29210000D03*
X111965000Y-30480000D03*
X111965000Y-31750000D03*
X111965000Y-33020000D03*
X111965000Y-34290000D03*
X111965000Y-35560000D03*
X111965000Y-36830000D03*
X111965000Y-38100000D03*
X111965000Y-39370000D03*
X111965000Y-40640000D03*
X102665000Y-40640000D03*
X102665000Y-39370000D03*
X102665000Y-38100000D03*
X102665000Y-36830000D03*
X102665000Y-35560000D03*
X102665000Y-34290000D03*
X102665000Y-33020000D03*
X102665000Y-31750000D03*
X102665000Y-30480000D03*
X102665000Y-29210000D03*
%TD*%
D11*
%TO.C,C58*%
X165502500Y-68625000D03*
X163427500Y-68625000D03*
%TD*%
D12*
%TO.C,R14*%
X141970000Y-85725000D03*
X139970000Y-85725000D03*
%TD*%
%TO.C,R27*%
X35290000Y-66040000D03*
X33290000Y-66040000D03*
%TD*%
D14*
%TO.C,C71*%
X133180000Y-28575000D03*
X135255000Y-28575000D03*
%TD*%
%TO.C,C3*%
X40237500Y-37465000D03*
X42312500Y-37465000D03*
%TD*%
D12*
%TO.C,R19*%
X78740000Y-66040000D03*
X76740000Y-66040000D03*
%TD*%
D11*
%TO.C,C21*%
X206180000Y-128270000D03*
X204105000Y-128270000D03*
%TD*%
D12*
%TO.C,R16*%
X141970000Y-106045000D03*
X139970000Y-106045000D03*
%TD*%
%TO.C,R30*%
X54975000Y-86360000D03*
X52975000Y-86360000D03*
%TD*%
D25*
%TO.C,C72*%
X144845000Y-22457500D03*
X144845000Y-24532500D03*
%TD*%
D12*
%TO.C,R21*%
X78470000Y-86360000D03*
X76470000Y-86360000D03*
%TD*%
D13*
%TO.C,U37*%
X192275000Y-42545000D03*
X192275000Y-43815000D03*
X192275000Y-45085000D03*
X192275000Y-46355000D03*
X192275000Y-47625000D03*
X192275000Y-48895000D03*
X192275000Y-50165000D03*
X192275000Y-51435000D03*
X187325000Y-51435000D03*
X187325000Y-50165000D03*
X187325000Y-48895000D03*
X187325000Y-47625000D03*
X187325000Y-46355000D03*
X187325000Y-45085000D03*
X187325000Y-43815000D03*
X187325000Y-42545000D03*
%TD*%
D11*
%TO.C,C15*%
X205507500Y-69215000D03*
X203432500Y-69215000D03*
%TD*%
D15*
%TO.C,D4*%
X151810000Y-50165000D03*
X150510000Y-50165000D03*
X151160000Y-48165000D03*
%TD*%
D16*
%TO.C,U27*%
X160225000Y-125730000D03*
X160225000Y-127000000D03*
X160225000Y-128270000D03*
X160225000Y-129540000D03*
X160225000Y-130810000D03*
X160225000Y-132080000D03*
X160225000Y-133350000D03*
X160225000Y-134620000D03*
X160225000Y-135890000D03*
X160225000Y-137160000D03*
X150925000Y-137160000D03*
X150925000Y-135890000D03*
X150925000Y-134620000D03*
X150925000Y-133350000D03*
X150925000Y-132080000D03*
X150925000Y-130810000D03*
X150925000Y-129540000D03*
X150925000Y-128270000D03*
X150925000Y-127000000D03*
X150925000Y-125730000D03*
%TD*%
D11*
%TO.C,C53*%
X55012500Y-108585000D03*
X52937500Y-108585000D03*
%TD*%
D12*
%TO.C,R41*%
X165735000Y-125730000D03*
X163735000Y-125730000D03*
%TD*%
D11*
%TO.C,C64*%
X165772500Y-128270000D03*
X163697500Y-128270000D03*
%TD*%
D16*
%TO.C,U25*%
X125300000Y-29210000D03*
X125300000Y-30480000D03*
X125300000Y-31750000D03*
X125300000Y-33020000D03*
X125300000Y-34290000D03*
X125300000Y-35560000D03*
X125300000Y-36830000D03*
X125300000Y-38100000D03*
X125300000Y-39370000D03*
X125300000Y-40640000D03*
X116000000Y-40640000D03*
X116000000Y-39370000D03*
X116000000Y-38100000D03*
X116000000Y-36830000D03*
X116000000Y-35560000D03*
X116000000Y-34290000D03*
X116000000Y-33020000D03*
X116000000Y-31750000D03*
X116000000Y-30480000D03*
X116000000Y-29210000D03*
%TD*%
D13*
%TO.C,U29*%
X224155000Y-42545000D03*
X224155000Y-43815000D03*
X224155000Y-45085000D03*
X224155000Y-46355000D03*
X224155000Y-47625000D03*
X224155000Y-48895000D03*
X224155000Y-50165000D03*
X224155000Y-51435000D03*
X219205000Y-51435000D03*
X219205000Y-50165000D03*
X219205000Y-48895000D03*
X219205000Y-47625000D03*
X219205000Y-46355000D03*
X219205000Y-45085000D03*
X219205000Y-43815000D03*
X219205000Y-42545000D03*
%TD*%
D12*
%TO.C,R39*%
X165465000Y-106045000D03*
X163465000Y-106045000D03*
%TD*%
%TO.C,R22*%
X98790000Y-86360000D03*
X96790000Y-86360000D03*
%TD*%
D26*
%TO.C,R44*%
X163860000Y-48032000D03*
X163860000Y-50032000D03*
%TD*%
D12*
%TO.C,R20*%
X98790000Y-66040000D03*
X96790000Y-66040000D03*
%TD*%
%TO.C,R23*%
X78835000Y-106045000D03*
X76835000Y-106045000D03*
%TD*%
D18*
%TO.C,C7*%
X187960000Y-126365000D03*
X187960000Y-124290000D03*
%TD*%
D12*
%TO.C,R3*%
X205470000Y-66675000D03*
X203470000Y-66675000D03*
%TD*%
D11*
%TO.C,C28*%
X121957500Y-68580000D03*
X119882500Y-68580000D03*
%TD*%
D18*
%TO.C,C23*%
X20955000Y-115337500D03*
X20955000Y-113262500D03*
%TD*%
D11*
%TO.C,C52*%
X35327500Y-108585000D03*
X33252500Y-108585000D03*
%TD*%
%TO.C,C38*%
X78777500Y-68580000D03*
X76702500Y-68580000D03*
%TD*%
%TO.C,C49*%
X55012500Y-68580000D03*
X52937500Y-68580000D03*
%TD*%
D27*
%TO.C,U2*%
X135890000Y-47625000D03*
X137160000Y-47625000D03*
X138430000Y-47625000D03*
X139700000Y-47625000D03*
X140970000Y-47625000D03*
X142240000Y-47625000D03*
X143510000Y-47625000D03*
X143510000Y-52575000D03*
X142240000Y-52575000D03*
X140970000Y-52575000D03*
X139700000Y-52575000D03*
X138430000Y-52575000D03*
X137160000Y-52575000D03*
X135890000Y-52575000D03*
%TD*%
D15*
%TO.C,D3*%
X154970000Y-50165000D03*
X153670000Y-50165000D03*
X154320000Y-48165000D03*
%TD*%
D22*
%TO.C,U16*%
X62865000Y-30705000D03*
X64135000Y-30705000D03*
X65405000Y-30705000D03*
X66675000Y-30705000D03*
X67945000Y-30705000D03*
X69215000Y-30705000D03*
X70485000Y-30705000D03*
X71755000Y-30705000D03*
X73025000Y-30705000D03*
X74295000Y-30705000D03*
X74295000Y-40005000D03*
X73025000Y-40005000D03*
X71755000Y-40005000D03*
X70485000Y-40005000D03*
X69215000Y-40005000D03*
X67945000Y-40005000D03*
X66675000Y-40005000D03*
X65405000Y-40005000D03*
X64135000Y-40005000D03*
X62865000Y-40005000D03*
%TD*%
D15*
%TO.C,D5*%
X148620000Y-50165000D03*
X147320000Y-50165000D03*
X147970000Y-48165000D03*
%TD*%
D13*
%TO.C,U9*%
X98295000Y-30480000D03*
X98295000Y-31750000D03*
X98295000Y-33020000D03*
X98295000Y-34290000D03*
X98295000Y-35560000D03*
X98295000Y-36830000D03*
X98295000Y-38100000D03*
X93345000Y-38100000D03*
X93345000Y-36830000D03*
X93345000Y-35560000D03*
X93345000Y-34290000D03*
X93345000Y-33020000D03*
X93345000Y-31750000D03*
X93345000Y-30480000D03*
%TD*%
M02*
