%TF.GenerationSoftware,KiCad,Pcbnew,8.0.1-8.0.1-1~ubuntu22.04.1*%
%TF.CreationDate,2025-04-18T23:57:41-04:00*%
%TF.ProjectId,Claculator_Keypad,436c6163-756c-4617-946f-725f4b657970,rev?*%
%TF.SameCoordinates,Original*%
%TF.FileFunction,Soldermask,Top*%
%TF.FilePolarity,Negative*%
%FSLAX46Y46*%
G04 Gerber Fmt 4.6, Leading zero omitted, Abs format (unit mm)*
G04 Created by KiCad (PCBNEW 8.0.1-8.0.1-1~ubuntu22.04.1) date 2025-04-18 23:57:41*
%MOMM*%
%LPD*%
G01*
G04 APERTURE LIST*
%ADD10O,1.700000X1.700000*%
%ADD11R,1.700000X1.700000*%
%ADD12C,1.701800*%
%ADD13C,3.000000*%
%ADD14C,3.987800*%
%ADD15R,1.500000X1.500000*%
%ADD16C,1.500000*%
G04 APERTURE END LIST*
D10*
%TO.C,J5*%
X31130982Y-44314966D03*
X28590982Y-44314966D03*
X26050982Y-44314966D03*
D11*
X23510982Y-44314966D03*
%TD*%
D10*
%TO.C,J4*%
X31130982Y-48124966D03*
X28590982Y-48124966D03*
X26050982Y-48124966D03*
D11*
X23510982Y-48124966D03*
%TD*%
D12*
%TO.C,SW39*%
X163080000Y-117383000D03*
D13*
X161810000Y-119923000D03*
D14*
X158000000Y-117383000D03*
D13*
X155460000Y-122463000D03*
D12*
X152920000Y-117383000D03*
%TD*%
%TO.C,SW34*%
X182880000Y-57383000D03*
D13*
X181610000Y-59923000D03*
D14*
X177800000Y-57383000D03*
D13*
X175260000Y-62463000D03*
D12*
X172720000Y-57383000D03*
%TD*%
D15*
%TO.C,U19*%
X144420000Y-44240000D03*
D16*
X146960000Y-44240000D03*
X149500000Y-44240000D03*
X152040000Y-44240000D03*
X154580000Y-44240000D03*
X157120000Y-44240000D03*
X157120000Y-29000000D03*
X154580000Y-29000000D03*
X152040000Y-29000000D03*
X149500000Y-29000000D03*
X146960000Y-29000000D03*
X144420000Y-29000000D03*
%TD*%
D12*
%TO.C,SW9*%
X119746000Y-57383000D03*
D13*
X118476000Y-59923000D03*
D14*
X114666000Y-57383000D03*
D13*
X112126000Y-62463000D03*
D12*
X109586000Y-57383000D03*
%TD*%
%TO.C,SW38*%
X183080000Y-97383000D03*
D13*
X181810000Y-99923000D03*
D14*
X178000000Y-97383000D03*
D13*
X175460000Y-102463000D03*
D12*
X172920000Y-97383000D03*
%TD*%
%TO.C,SW33*%
X163080000Y-57383000D03*
D13*
X161810000Y-59923000D03*
D14*
X158000000Y-57383000D03*
D13*
X155460000Y-62463000D03*
D12*
X152920000Y-57383000D03*
%TD*%
%TO.C,SW11*%
X119746000Y-77383000D03*
D13*
X118476000Y-79923000D03*
D14*
X114666000Y-77383000D03*
D13*
X112126000Y-82463000D03*
D12*
X109586000Y-77383000D03*
%TD*%
%TO.C,SW30*%
X53080000Y-97383000D03*
D13*
X51810000Y-99923000D03*
D14*
X48000000Y-97383000D03*
D13*
X45460000Y-102463000D03*
D12*
X42920000Y-97383000D03*
%TD*%
%TO.C,SW13*%
X119746000Y-97383000D03*
D13*
X118476000Y-99923000D03*
D14*
X114666000Y-97383000D03*
D13*
X112126000Y-102463000D03*
D12*
X109586000Y-97383000D03*
%TD*%
%TO.C,SW18*%
X96413000Y-57383000D03*
D13*
X95143000Y-59923000D03*
D14*
X91333000Y-57383000D03*
D13*
X88793000Y-62463000D03*
D12*
X86253000Y-57383000D03*
%TD*%
%TO.C,SW12*%
X139746000Y-77383000D03*
D13*
X138476000Y-79923000D03*
D14*
X134666000Y-77383000D03*
D13*
X132126000Y-82463000D03*
D12*
X129586000Y-77383000D03*
%TD*%
%TO.C,SW23*%
X76413000Y-117383000D03*
D13*
X75143000Y-119923000D03*
D14*
X71333000Y-117383000D03*
D13*
X68793000Y-122463000D03*
D12*
X66253000Y-117383000D03*
%TD*%
%TO.C,SW7*%
X203080000Y-117383000D03*
D13*
X201810000Y-119923000D03*
D14*
X198000000Y-117383000D03*
D13*
X195460000Y-122463000D03*
D12*
X192920000Y-117383000D03*
%TD*%
%TO.C,SW3*%
X203080000Y-77383000D03*
D13*
X201810000Y-79923000D03*
D14*
X198000000Y-77383000D03*
D13*
X195460000Y-82463000D03*
D12*
X192920000Y-77383000D03*
%TD*%
%TO.C,SW36*%
X183080000Y-77383000D03*
D13*
X181810000Y-79923000D03*
D14*
X178000000Y-77383000D03*
D13*
X175460000Y-82463000D03*
D12*
X172920000Y-77383000D03*
%TD*%
%TO.C,SW8*%
X223080000Y-117383000D03*
D13*
X221810000Y-119923000D03*
D14*
X218000000Y-117383000D03*
D13*
X215460000Y-122463000D03*
D12*
X212920000Y-117383000D03*
%TD*%
%TO.C,SW27*%
X33080000Y-77383000D03*
D13*
X31810000Y-79923000D03*
D14*
X28000000Y-77383000D03*
D13*
X25460000Y-82463000D03*
D12*
X22920000Y-77383000D03*
%TD*%
%TO.C,SW1*%
X203080000Y-57383000D03*
D13*
X201810000Y-59923000D03*
D14*
X198000000Y-57383000D03*
D13*
X195460000Y-62463000D03*
D12*
X192920000Y-57383000D03*
%TD*%
%TO.C,SW28*%
X53080000Y-77383000D03*
D13*
X51810000Y-79923000D03*
D14*
X48000000Y-77383000D03*
D13*
X45460000Y-82463000D03*
D12*
X42920000Y-77383000D03*
%TD*%
D15*
%TO.C,U30*%
X195220000Y-44240000D03*
D16*
X197760000Y-44240000D03*
X200300000Y-44240000D03*
X202840000Y-44240000D03*
X205380000Y-44240000D03*
X207920000Y-44240000D03*
X207920000Y-29000000D03*
X205380000Y-29000000D03*
X202840000Y-29000000D03*
X200300000Y-29000000D03*
X197760000Y-29000000D03*
X195220000Y-29000000D03*
%TD*%
D12*
%TO.C,SW29*%
X33080000Y-97383000D03*
D13*
X31810000Y-99923000D03*
D14*
X28000000Y-97383000D03*
D13*
X25460000Y-102463000D03*
D12*
X22920000Y-97383000D03*
%TD*%
%TO.C,SW19*%
X76413000Y-77383000D03*
D13*
X75143000Y-79923000D03*
D14*
X71333000Y-77383000D03*
D13*
X68793000Y-82463000D03*
D12*
X66253000Y-77383000D03*
%TD*%
%TO.C,SW10*%
X139746000Y-57383000D03*
D13*
X138476000Y-59923000D03*
D14*
X134666000Y-57383000D03*
D13*
X132126000Y-62463000D03*
D12*
X129586000Y-57383000D03*
%TD*%
%TO.C,SW2*%
X223080000Y-57383000D03*
D13*
X221810000Y-59923000D03*
D14*
X218000000Y-57383000D03*
D13*
X215460000Y-62463000D03*
D12*
X212920000Y-57383000D03*
%TD*%
%TO.C,SW15*%
X119746000Y-117383000D03*
D13*
X118476000Y-119923000D03*
D14*
X114666000Y-117383000D03*
D13*
X112126000Y-122463000D03*
D12*
X109586000Y-117383000D03*
%TD*%
%TO.C,SW22*%
X96413000Y-97383000D03*
D13*
X95143000Y-99923000D03*
D14*
X91333000Y-97383000D03*
D13*
X88793000Y-102463000D03*
D12*
X86253000Y-97383000D03*
%TD*%
%TO.C,SW16*%
X139746000Y-117383000D03*
D13*
X138476000Y-119923000D03*
D14*
X134666000Y-117383000D03*
D13*
X132126000Y-122463000D03*
D12*
X129586000Y-117383000D03*
%TD*%
%TO.C,SW14*%
X139746000Y-97383000D03*
D13*
X138476000Y-99923000D03*
D14*
X134666000Y-97383000D03*
D13*
X132126000Y-102463000D03*
D12*
X129586000Y-97383000D03*
%TD*%
%TO.C,SW24*%
X96413000Y-117383000D03*
D13*
X95143000Y-119923000D03*
D14*
X91333000Y-117383000D03*
D13*
X88793000Y-122463000D03*
D12*
X86253000Y-117383000D03*
%TD*%
%TO.C,SW32*%
X53080000Y-117383000D03*
D13*
X51810000Y-119923000D03*
D14*
X48000000Y-117383000D03*
D13*
X45460000Y-122463000D03*
D12*
X42920000Y-117383000D03*
%TD*%
%TO.C,SW31*%
X33080000Y-117383000D03*
D13*
X31810000Y-119923000D03*
D14*
X28000000Y-117383000D03*
D13*
X25460000Y-122463000D03*
D12*
X22920000Y-117383000D03*
%TD*%
%TO.C,SW26*%
X53080000Y-57383000D03*
D13*
X51810000Y-59923000D03*
D14*
X48000000Y-57383000D03*
D13*
X45460000Y-62463000D03*
D12*
X42920000Y-57383000D03*
%TD*%
%TO.C,SW25*%
X33080000Y-57383000D03*
D13*
X31810000Y-59923000D03*
D14*
X28000000Y-57383000D03*
D13*
X25460000Y-62463000D03*
D12*
X22920000Y-57383000D03*
%TD*%
%TO.C,SW17*%
X76413000Y-57383000D03*
D13*
X75143000Y-59923000D03*
D14*
X71333000Y-57383000D03*
D13*
X68793000Y-62463000D03*
D12*
X66253000Y-57383000D03*
%TD*%
%TO.C,SW21*%
X76413000Y-97383000D03*
D13*
X75143000Y-99923000D03*
D14*
X71333000Y-97383000D03*
D13*
X68793000Y-102463000D03*
D12*
X66253000Y-97383000D03*
%TD*%
%TO.C,SW20*%
X96413000Y-77383000D03*
D13*
X95143000Y-79923000D03*
D14*
X91333000Y-77383000D03*
D13*
X88793000Y-82463000D03*
D12*
X86253000Y-77383000D03*
%TD*%
%TO.C,SW37*%
X163080000Y-97383000D03*
D13*
X161810000Y-99923000D03*
D14*
X158000000Y-97383000D03*
D13*
X155460000Y-102463000D03*
D12*
X152920000Y-97383000D03*
%TD*%
%TO.C,SW5*%
X203080000Y-97383000D03*
D13*
X201810000Y-99923000D03*
D14*
X198000000Y-97383000D03*
D13*
X195460000Y-102463000D03*
D12*
X192920000Y-97383000D03*
%TD*%
%TO.C,SW_Rst1*%
X33080000Y-35191000D03*
D13*
X31810000Y-37731000D03*
D14*
X28000000Y-35191000D03*
D13*
X25460000Y-40271000D03*
D12*
X22920000Y-35191000D03*
%TD*%
%TO.C,SW6*%
X223080000Y-97383000D03*
D13*
X221810000Y-99923000D03*
D14*
X218000000Y-97383000D03*
D13*
X215460000Y-102463000D03*
D12*
X212920000Y-97383000D03*
%TD*%
%TO.C,SW40*%
X183080000Y-117383000D03*
D13*
X181810000Y-119923000D03*
D14*
X178000000Y-117383000D03*
D13*
X175460000Y-122463000D03*
D12*
X172920000Y-117383000D03*
%TD*%
%TO.C,SW4*%
X223080000Y-77383000D03*
D13*
X221810000Y-79923000D03*
D14*
X218000000Y-77383000D03*
D13*
X215460000Y-82463000D03*
D12*
X212920000Y-77383000D03*
%TD*%
%TO.C,SW35*%
X163080000Y-77383000D03*
D13*
X161810000Y-79923000D03*
D14*
X158000000Y-77383000D03*
D13*
X155460000Y-82463000D03*
D12*
X152920000Y-77383000D03*
%TD*%
D11*
%TO.C,J3*%
X151130000Y-22860000D03*
D10*
X153670000Y-22860000D03*
X156210000Y-22860000D03*
X158750000Y-22860000D03*
X161290000Y-22860000D03*
X163830000Y-22860000D03*
X166370000Y-22860000D03*
X168910000Y-22860000D03*
X171450000Y-22860000D03*
X173990000Y-22860000D03*
X176530000Y-22860000D03*
X179070000Y-22860000D03*
X181610000Y-22860000D03*
X184150000Y-22860000D03*
X186690000Y-22860000D03*
X189230000Y-22860000D03*
%TD*%
D11*
%TO.C,J1*%
X87630000Y-22860000D03*
D10*
X85090000Y-22860000D03*
X82550000Y-22860000D03*
X80010000Y-22860000D03*
X77470000Y-22860000D03*
X74930000Y-22860000D03*
X72390000Y-22860000D03*
X69850000Y-22860000D03*
X67310000Y-22860000D03*
X64770000Y-22860000D03*
X62230000Y-22860000D03*
X59690000Y-22860000D03*
X57150000Y-22860000D03*
X54610000Y-22860000D03*
X52070000Y-22860000D03*
%TD*%
D11*
%TO.C,J2*%
X87630000Y-26670000D03*
D10*
X85090000Y-26670000D03*
X82550000Y-26670000D03*
X80010000Y-26670000D03*
X77470000Y-26670000D03*
X74930000Y-26670000D03*
X72390000Y-26670000D03*
X69850000Y-26670000D03*
X67310000Y-26670000D03*
X64770000Y-26670000D03*
X62230000Y-26670000D03*
X59690000Y-26670000D03*
X57150000Y-26670000D03*
X54610000Y-26670000D03*
X52070000Y-26670000D03*
%TD*%
M02*
