%TF.GenerationSoftware,KiCad,Pcbnew,8.0.1-8.0.1-1~ubuntu22.04.1*%
%TF.CreationDate,2025-04-18T23:57:40-04:00*%
%TF.ProjectId,Claculator_Keypad,436c6163-756c-4617-946f-725f4b657970,rev?*%
%TF.SameCoordinates,Original*%
%TF.FileFunction,Legend,Top*%
%TF.FilePolarity,Positive*%
%FSLAX46Y46*%
G04 Gerber Fmt 4.6, Leading zero omitted, Abs format (unit mm)*
G04 Created by KiCad (PCBNEW 8.0.1-8.0.1-1~ubuntu22.04.1) date 2025-04-18 23:57:40*
%MOMM*%
%LPD*%
G01*
G04 APERTURE LIST*
%ADD10C,0.100000*%
%ADD11C,0.200000*%
%ADD12C,1.000000*%
%ADD13C,0.150000*%
%ADD14C,0.120000*%
%ADD15O,1.700000X1.700000*%
%ADD16R,1.700000X1.700000*%
%ADD17C,1.701800*%
%ADD18C,3.000000*%
%ADD19C,3.987800*%
%ADD20R,1.500000X1.500000*%
%ADD21C,1.500000*%
G04 APERTURE END LIST*
D10*
X188491905Y-25857419D02*
X188491905Y-24857419D01*
X188491905Y-24857419D02*
X188730000Y-24857419D01*
X188730000Y-24857419D02*
X188872857Y-24905038D01*
X188872857Y-24905038D02*
X188968095Y-25000276D01*
X188968095Y-25000276D02*
X189015714Y-25095514D01*
X189015714Y-25095514D02*
X189063333Y-25285990D01*
X189063333Y-25285990D02*
X189063333Y-25428847D01*
X189063333Y-25428847D02*
X189015714Y-25619323D01*
X189015714Y-25619323D02*
X188968095Y-25714561D01*
X188968095Y-25714561D02*
X188872857Y-25809800D01*
X188872857Y-25809800D02*
X188730000Y-25857419D01*
X188730000Y-25857419D02*
X188491905Y-25857419D01*
X189396667Y-24857419D02*
X190063333Y-24857419D01*
X190063333Y-24857419D02*
X189634762Y-25857419D01*
X185951905Y-25857419D02*
X185951905Y-24857419D01*
X185951905Y-24857419D02*
X186190000Y-24857419D01*
X186190000Y-24857419D02*
X186332857Y-24905038D01*
X186332857Y-24905038D02*
X186428095Y-25000276D01*
X186428095Y-25000276D02*
X186475714Y-25095514D01*
X186475714Y-25095514D02*
X186523333Y-25285990D01*
X186523333Y-25285990D02*
X186523333Y-25428847D01*
X186523333Y-25428847D02*
X186475714Y-25619323D01*
X186475714Y-25619323D02*
X186428095Y-25714561D01*
X186428095Y-25714561D02*
X186332857Y-25809800D01*
X186332857Y-25809800D02*
X186190000Y-25857419D01*
X186190000Y-25857419D02*
X185951905Y-25857419D01*
X187380476Y-24857419D02*
X187190000Y-24857419D01*
X187190000Y-24857419D02*
X187094762Y-24905038D01*
X187094762Y-24905038D02*
X187047143Y-24952657D01*
X187047143Y-24952657D02*
X186951905Y-25095514D01*
X186951905Y-25095514D02*
X186904286Y-25285990D01*
X186904286Y-25285990D02*
X186904286Y-25666942D01*
X186904286Y-25666942D02*
X186951905Y-25762180D01*
X186951905Y-25762180D02*
X186999524Y-25809800D01*
X186999524Y-25809800D02*
X187094762Y-25857419D01*
X187094762Y-25857419D02*
X187285238Y-25857419D01*
X187285238Y-25857419D02*
X187380476Y-25809800D01*
X187380476Y-25809800D02*
X187428095Y-25762180D01*
X187428095Y-25762180D02*
X187475714Y-25666942D01*
X187475714Y-25666942D02*
X187475714Y-25428847D01*
X187475714Y-25428847D02*
X187428095Y-25333609D01*
X187428095Y-25333609D02*
X187380476Y-25285990D01*
X187380476Y-25285990D02*
X187285238Y-25238371D01*
X187285238Y-25238371D02*
X187094762Y-25238371D01*
X187094762Y-25238371D02*
X186999524Y-25285990D01*
X186999524Y-25285990D02*
X186951905Y-25333609D01*
X186951905Y-25333609D02*
X186904286Y-25428847D01*
X183411905Y-25857419D02*
X183411905Y-24857419D01*
X183411905Y-24857419D02*
X183650000Y-24857419D01*
X183650000Y-24857419D02*
X183792857Y-24905038D01*
X183792857Y-24905038D02*
X183888095Y-25000276D01*
X183888095Y-25000276D02*
X183935714Y-25095514D01*
X183935714Y-25095514D02*
X183983333Y-25285990D01*
X183983333Y-25285990D02*
X183983333Y-25428847D01*
X183983333Y-25428847D02*
X183935714Y-25619323D01*
X183935714Y-25619323D02*
X183888095Y-25714561D01*
X183888095Y-25714561D02*
X183792857Y-25809800D01*
X183792857Y-25809800D02*
X183650000Y-25857419D01*
X183650000Y-25857419D02*
X183411905Y-25857419D01*
X184888095Y-24857419D02*
X184411905Y-24857419D01*
X184411905Y-24857419D02*
X184364286Y-25333609D01*
X184364286Y-25333609D02*
X184411905Y-25285990D01*
X184411905Y-25285990D02*
X184507143Y-25238371D01*
X184507143Y-25238371D02*
X184745238Y-25238371D01*
X184745238Y-25238371D02*
X184840476Y-25285990D01*
X184840476Y-25285990D02*
X184888095Y-25333609D01*
X184888095Y-25333609D02*
X184935714Y-25428847D01*
X184935714Y-25428847D02*
X184935714Y-25666942D01*
X184935714Y-25666942D02*
X184888095Y-25762180D01*
X184888095Y-25762180D02*
X184840476Y-25809800D01*
X184840476Y-25809800D02*
X184745238Y-25857419D01*
X184745238Y-25857419D02*
X184507143Y-25857419D01*
X184507143Y-25857419D02*
X184411905Y-25809800D01*
X184411905Y-25809800D02*
X184364286Y-25762180D01*
X180871905Y-25857419D02*
X180871905Y-24857419D01*
X180871905Y-24857419D02*
X181110000Y-24857419D01*
X181110000Y-24857419D02*
X181252857Y-24905038D01*
X181252857Y-24905038D02*
X181348095Y-25000276D01*
X181348095Y-25000276D02*
X181395714Y-25095514D01*
X181395714Y-25095514D02*
X181443333Y-25285990D01*
X181443333Y-25285990D02*
X181443333Y-25428847D01*
X181443333Y-25428847D02*
X181395714Y-25619323D01*
X181395714Y-25619323D02*
X181348095Y-25714561D01*
X181348095Y-25714561D02*
X181252857Y-25809800D01*
X181252857Y-25809800D02*
X181110000Y-25857419D01*
X181110000Y-25857419D02*
X180871905Y-25857419D01*
X182300476Y-25190752D02*
X182300476Y-25857419D01*
X182062381Y-24809800D02*
X181824286Y-25524085D01*
X181824286Y-25524085D02*
X182443333Y-25524085D01*
X178331905Y-25857419D02*
X178331905Y-24857419D01*
X178331905Y-24857419D02*
X178570000Y-24857419D01*
X178570000Y-24857419D02*
X178712857Y-24905038D01*
X178712857Y-24905038D02*
X178808095Y-25000276D01*
X178808095Y-25000276D02*
X178855714Y-25095514D01*
X178855714Y-25095514D02*
X178903333Y-25285990D01*
X178903333Y-25285990D02*
X178903333Y-25428847D01*
X178903333Y-25428847D02*
X178855714Y-25619323D01*
X178855714Y-25619323D02*
X178808095Y-25714561D01*
X178808095Y-25714561D02*
X178712857Y-25809800D01*
X178712857Y-25809800D02*
X178570000Y-25857419D01*
X178570000Y-25857419D02*
X178331905Y-25857419D01*
X179236667Y-24857419D02*
X179855714Y-24857419D01*
X179855714Y-24857419D02*
X179522381Y-25238371D01*
X179522381Y-25238371D02*
X179665238Y-25238371D01*
X179665238Y-25238371D02*
X179760476Y-25285990D01*
X179760476Y-25285990D02*
X179808095Y-25333609D01*
X179808095Y-25333609D02*
X179855714Y-25428847D01*
X179855714Y-25428847D02*
X179855714Y-25666942D01*
X179855714Y-25666942D02*
X179808095Y-25762180D01*
X179808095Y-25762180D02*
X179760476Y-25809800D01*
X179760476Y-25809800D02*
X179665238Y-25857419D01*
X179665238Y-25857419D02*
X179379524Y-25857419D01*
X179379524Y-25857419D02*
X179284286Y-25809800D01*
X179284286Y-25809800D02*
X179236667Y-25762180D01*
X175791905Y-25857419D02*
X175791905Y-24857419D01*
X175791905Y-24857419D02*
X176030000Y-24857419D01*
X176030000Y-24857419D02*
X176172857Y-24905038D01*
X176172857Y-24905038D02*
X176268095Y-25000276D01*
X176268095Y-25000276D02*
X176315714Y-25095514D01*
X176315714Y-25095514D02*
X176363333Y-25285990D01*
X176363333Y-25285990D02*
X176363333Y-25428847D01*
X176363333Y-25428847D02*
X176315714Y-25619323D01*
X176315714Y-25619323D02*
X176268095Y-25714561D01*
X176268095Y-25714561D02*
X176172857Y-25809800D01*
X176172857Y-25809800D02*
X176030000Y-25857419D01*
X176030000Y-25857419D02*
X175791905Y-25857419D01*
X176744286Y-24952657D02*
X176791905Y-24905038D01*
X176791905Y-24905038D02*
X176887143Y-24857419D01*
X176887143Y-24857419D02*
X177125238Y-24857419D01*
X177125238Y-24857419D02*
X177220476Y-24905038D01*
X177220476Y-24905038D02*
X177268095Y-24952657D01*
X177268095Y-24952657D02*
X177315714Y-25047895D01*
X177315714Y-25047895D02*
X177315714Y-25143133D01*
X177315714Y-25143133D02*
X177268095Y-25285990D01*
X177268095Y-25285990D02*
X176696667Y-25857419D01*
X176696667Y-25857419D02*
X177315714Y-25857419D01*
X173251905Y-25857419D02*
X173251905Y-24857419D01*
X173251905Y-24857419D02*
X173490000Y-24857419D01*
X173490000Y-24857419D02*
X173632857Y-24905038D01*
X173632857Y-24905038D02*
X173728095Y-25000276D01*
X173728095Y-25000276D02*
X173775714Y-25095514D01*
X173775714Y-25095514D02*
X173823333Y-25285990D01*
X173823333Y-25285990D02*
X173823333Y-25428847D01*
X173823333Y-25428847D02*
X173775714Y-25619323D01*
X173775714Y-25619323D02*
X173728095Y-25714561D01*
X173728095Y-25714561D02*
X173632857Y-25809800D01*
X173632857Y-25809800D02*
X173490000Y-25857419D01*
X173490000Y-25857419D02*
X173251905Y-25857419D01*
X174775714Y-25857419D02*
X174204286Y-25857419D01*
X174490000Y-25857419D02*
X174490000Y-24857419D01*
X174490000Y-24857419D02*
X174394762Y-25000276D01*
X174394762Y-25000276D02*
X174299524Y-25095514D01*
X174299524Y-25095514D02*
X174204286Y-25143133D01*
X170711905Y-25857419D02*
X170711905Y-24857419D01*
X170711905Y-24857419D02*
X170950000Y-24857419D01*
X170950000Y-24857419D02*
X171092857Y-24905038D01*
X171092857Y-24905038D02*
X171188095Y-25000276D01*
X171188095Y-25000276D02*
X171235714Y-25095514D01*
X171235714Y-25095514D02*
X171283333Y-25285990D01*
X171283333Y-25285990D02*
X171283333Y-25428847D01*
X171283333Y-25428847D02*
X171235714Y-25619323D01*
X171235714Y-25619323D02*
X171188095Y-25714561D01*
X171188095Y-25714561D02*
X171092857Y-25809800D01*
X171092857Y-25809800D02*
X170950000Y-25857419D01*
X170950000Y-25857419D02*
X170711905Y-25857419D01*
X171902381Y-24857419D02*
X171997619Y-24857419D01*
X171997619Y-24857419D02*
X172092857Y-24905038D01*
X172092857Y-24905038D02*
X172140476Y-24952657D01*
X172140476Y-24952657D02*
X172188095Y-25047895D01*
X172188095Y-25047895D02*
X172235714Y-25238371D01*
X172235714Y-25238371D02*
X172235714Y-25476466D01*
X172235714Y-25476466D02*
X172188095Y-25666942D01*
X172188095Y-25666942D02*
X172140476Y-25762180D01*
X172140476Y-25762180D02*
X172092857Y-25809800D01*
X172092857Y-25809800D02*
X171997619Y-25857419D01*
X171997619Y-25857419D02*
X171902381Y-25857419D01*
X171902381Y-25857419D02*
X171807143Y-25809800D01*
X171807143Y-25809800D02*
X171759524Y-25762180D01*
X171759524Y-25762180D02*
X171711905Y-25666942D01*
X171711905Y-25666942D02*
X171664286Y-25476466D01*
X171664286Y-25476466D02*
X171664286Y-25238371D01*
X171664286Y-25238371D02*
X171711905Y-25047895D01*
X171711905Y-25047895D02*
X171759524Y-24952657D01*
X171759524Y-24952657D02*
X171807143Y-24905038D01*
X171807143Y-24905038D02*
X171902381Y-24857419D01*
X168624286Y-25857419D02*
X168624286Y-24857419D01*
X168624286Y-25333609D02*
X169195714Y-25333609D01*
X169195714Y-25857419D02*
X169195714Y-24857419D01*
X166631904Y-24905038D02*
X166536666Y-24857419D01*
X166536666Y-24857419D02*
X166393809Y-24857419D01*
X166393809Y-24857419D02*
X166250952Y-24905038D01*
X166250952Y-24905038D02*
X166155714Y-25000276D01*
X166155714Y-25000276D02*
X166108095Y-25095514D01*
X166108095Y-25095514D02*
X166060476Y-25285990D01*
X166060476Y-25285990D02*
X166060476Y-25428847D01*
X166060476Y-25428847D02*
X166108095Y-25619323D01*
X166108095Y-25619323D02*
X166155714Y-25714561D01*
X166155714Y-25714561D02*
X166250952Y-25809800D01*
X166250952Y-25809800D02*
X166393809Y-25857419D01*
X166393809Y-25857419D02*
X166489047Y-25857419D01*
X166489047Y-25857419D02*
X166631904Y-25809800D01*
X166631904Y-25809800D02*
X166679523Y-25762180D01*
X166679523Y-25762180D02*
X166679523Y-25428847D01*
X166679523Y-25428847D02*
X166489047Y-25428847D01*
X163972857Y-25333609D02*
X163639524Y-25333609D01*
X163639524Y-25857419D02*
X163639524Y-24857419D01*
X163639524Y-24857419D02*
X164115714Y-24857419D01*
X161075714Y-25333609D02*
X161409047Y-25333609D01*
X161551904Y-25857419D02*
X161075714Y-25857419D01*
X161075714Y-25857419D02*
X161075714Y-24857419D01*
X161075714Y-24857419D02*
X161551904Y-24857419D01*
X158488095Y-25857419D02*
X158488095Y-24857419D01*
X158488095Y-24857419D02*
X158726190Y-24857419D01*
X158726190Y-24857419D02*
X158869047Y-24905038D01*
X158869047Y-24905038D02*
X158964285Y-25000276D01*
X158964285Y-25000276D02*
X159011904Y-25095514D01*
X159011904Y-25095514D02*
X159059523Y-25285990D01*
X159059523Y-25285990D02*
X159059523Y-25428847D01*
X159059523Y-25428847D02*
X159011904Y-25619323D01*
X159011904Y-25619323D02*
X158964285Y-25714561D01*
X158964285Y-25714561D02*
X158869047Y-25809800D01*
X158869047Y-25809800D02*
X158726190Y-25857419D01*
X158726190Y-25857419D02*
X158488095Y-25857419D01*
X156519523Y-25762180D02*
X156471904Y-25809800D01*
X156471904Y-25809800D02*
X156329047Y-25857419D01*
X156329047Y-25857419D02*
X156233809Y-25857419D01*
X156233809Y-25857419D02*
X156090952Y-25809800D01*
X156090952Y-25809800D02*
X155995714Y-25714561D01*
X155995714Y-25714561D02*
X155948095Y-25619323D01*
X155948095Y-25619323D02*
X155900476Y-25428847D01*
X155900476Y-25428847D02*
X155900476Y-25285990D01*
X155900476Y-25285990D02*
X155948095Y-25095514D01*
X155948095Y-25095514D02*
X155995714Y-25000276D01*
X155995714Y-25000276D02*
X156090952Y-24905038D01*
X156090952Y-24905038D02*
X156233809Y-24857419D01*
X156233809Y-24857419D02*
X156329047Y-24857419D01*
X156329047Y-24857419D02*
X156471904Y-24905038D01*
X156471904Y-24905038D02*
X156519523Y-24952657D01*
X153741428Y-25333609D02*
X153884285Y-25381228D01*
X153884285Y-25381228D02*
X153931904Y-25428847D01*
X153931904Y-25428847D02*
X153979523Y-25524085D01*
X153979523Y-25524085D02*
X153979523Y-25666942D01*
X153979523Y-25666942D02*
X153931904Y-25762180D01*
X153931904Y-25762180D02*
X153884285Y-25809800D01*
X153884285Y-25809800D02*
X153789047Y-25857419D01*
X153789047Y-25857419D02*
X153408095Y-25857419D01*
X153408095Y-25857419D02*
X153408095Y-24857419D01*
X153408095Y-24857419D02*
X153741428Y-24857419D01*
X153741428Y-24857419D02*
X153836666Y-24905038D01*
X153836666Y-24905038D02*
X153884285Y-24952657D01*
X153884285Y-24952657D02*
X153931904Y-25047895D01*
X153931904Y-25047895D02*
X153931904Y-25143133D01*
X153931904Y-25143133D02*
X153884285Y-25238371D01*
X153884285Y-25238371D02*
X153836666Y-25285990D01*
X153836666Y-25285990D02*
X153741428Y-25333609D01*
X153741428Y-25333609D02*
X153408095Y-25333609D01*
X150891905Y-25571704D02*
X151368095Y-25571704D01*
X150796667Y-25857419D02*
X151130000Y-24857419D01*
X151130000Y-24857419D02*
X151463333Y-25857419D01*
X51355714Y-29381704D02*
X51831904Y-29381704D01*
X51260476Y-29667419D02*
X51593809Y-28667419D01*
X51593809Y-28667419D02*
X51927142Y-29667419D01*
X52450952Y-28667419D02*
X52546190Y-28667419D01*
X52546190Y-28667419D02*
X52641428Y-28715038D01*
X52641428Y-28715038D02*
X52689047Y-28762657D01*
X52689047Y-28762657D02*
X52736666Y-28857895D01*
X52736666Y-28857895D02*
X52784285Y-29048371D01*
X52784285Y-29048371D02*
X52784285Y-29286466D01*
X52784285Y-29286466D02*
X52736666Y-29476942D01*
X52736666Y-29476942D02*
X52689047Y-29572180D01*
X52689047Y-29572180D02*
X52641428Y-29619800D01*
X52641428Y-29619800D02*
X52546190Y-29667419D01*
X52546190Y-29667419D02*
X52450952Y-29667419D01*
X52450952Y-29667419D02*
X52355714Y-29619800D01*
X52355714Y-29619800D02*
X52308095Y-29572180D01*
X52308095Y-29572180D02*
X52260476Y-29476942D01*
X52260476Y-29476942D02*
X52212857Y-29286466D01*
X52212857Y-29286466D02*
X52212857Y-29048371D01*
X52212857Y-29048371D02*
X52260476Y-28857895D01*
X52260476Y-28857895D02*
X52308095Y-28762657D01*
X52308095Y-28762657D02*
X52355714Y-28715038D01*
X52355714Y-28715038D02*
X52450952Y-28667419D01*
X53871905Y-29667419D02*
X53871905Y-28667419D01*
X53871905Y-28667419D02*
X54110000Y-28667419D01*
X54110000Y-28667419D02*
X54252857Y-28715038D01*
X54252857Y-28715038D02*
X54348095Y-28810276D01*
X54348095Y-28810276D02*
X54395714Y-28905514D01*
X54395714Y-28905514D02*
X54443333Y-29095990D01*
X54443333Y-29095990D02*
X54443333Y-29238847D01*
X54443333Y-29238847D02*
X54395714Y-29429323D01*
X54395714Y-29429323D02*
X54348095Y-29524561D01*
X54348095Y-29524561D02*
X54252857Y-29619800D01*
X54252857Y-29619800D02*
X54110000Y-29667419D01*
X54110000Y-29667419D02*
X53871905Y-29667419D01*
X55062381Y-28667419D02*
X55157619Y-28667419D01*
X55157619Y-28667419D02*
X55252857Y-28715038D01*
X55252857Y-28715038D02*
X55300476Y-28762657D01*
X55300476Y-28762657D02*
X55348095Y-28857895D01*
X55348095Y-28857895D02*
X55395714Y-29048371D01*
X55395714Y-29048371D02*
X55395714Y-29286466D01*
X55395714Y-29286466D02*
X55348095Y-29476942D01*
X55348095Y-29476942D02*
X55300476Y-29572180D01*
X55300476Y-29572180D02*
X55252857Y-29619800D01*
X55252857Y-29619800D02*
X55157619Y-29667419D01*
X55157619Y-29667419D02*
X55062381Y-29667419D01*
X55062381Y-29667419D02*
X54967143Y-29619800D01*
X54967143Y-29619800D02*
X54919524Y-29572180D01*
X54919524Y-29572180D02*
X54871905Y-29476942D01*
X54871905Y-29476942D02*
X54824286Y-29286466D01*
X54824286Y-29286466D02*
X54824286Y-29048371D01*
X54824286Y-29048371D02*
X54871905Y-28857895D01*
X54871905Y-28857895D02*
X54919524Y-28762657D01*
X54919524Y-28762657D02*
X54967143Y-28715038D01*
X54967143Y-28715038D02*
X55062381Y-28667419D01*
X56411905Y-29667419D02*
X56411905Y-28667419D01*
X56411905Y-28667419D02*
X56650000Y-28667419D01*
X56650000Y-28667419D02*
X56792857Y-28715038D01*
X56792857Y-28715038D02*
X56888095Y-28810276D01*
X56888095Y-28810276D02*
X56935714Y-28905514D01*
X56935714Y-28905514D02*
X56983333Y-29095990D01*
X56983333Y-29095990D02*
X56983333Y-29238847D01*
X56983333Y-29238847D02*
X56935714Y-29429323D01*
X56935714Y-29429323D02*
X56888095Y-29524561D01*
X56888095Y-29524561D02*
X56792857Y-29619800D01*
X56792857Y-29619800D02*
X56650000Y-29667419D01*
X56650000Y-29667419D02*
X56411905Y-29667419D01*
X57935714Y-29667419D02*
X57364286Y-29667419D01*
X57650000Y-29667419D02*
X57650000Y-28667419D01*
X57650000Y-28667419D02*
X57554762Y-28810276D01*
X57554762Y-28810276D02*
X57459524Y-28905514D01*
X57459524Y-28905514D02*
X57364286Y-28953133D01*
X58951905Y-29667419D02*
X58951905Y-28667419D01*
X58951905Y-28667419D02*
X59190000Y-28667419D01*
X59190000Y-28667419D02*
X59332857Y-28715038D01*
X59332857Y-28715038D02*
X59428095Y-28810276D01*
X59428095Y-28810276D02*
X59475714Y-28905514D01*
X59475714Y-28905514D02*
X59523333Y-29095990D01*
X59523333Y-29095990D02*
X59523333Y-29238847D01*
X59523333Y-29238847D02*
X59475714Y-29429323D01*
X59475714Y-29429323D02*
X59428095Y-29524561D01*
X59428095Y-29524561D02*
X59332857Y-29619800D01*
X59332857Y-29619800D02*
X59190000Y-29667419D01*
X59190000Y-29667419D02*
X58951905Y-29667419D01*
X59904286Y-28762657D02*
X59951905Y-28715038D01*
X59951905Y-28715038D02*
X60047143Y-28667419D01*
X60047143Y-28667419D02*
X60285238Y-28667419D01*
X60285238Y-28667419D02*
X60380476Y-28715038D01*
X60380476Y-28715038D02*
X60428095Y-28762657D01*
X60428095Y-28762657D02*
X60475714Y-28857895D01*
X60475714Y-28857895D02*
X60475714Y-28953133D01*
X60475714Y-28953133D02*
X60428095Y-29095990D01*
X60428095Y-29095990D02*
X59856667Y-29667419D01*
X59856667Y-29667419D02*
X60475714Y-29667419D01*
X61491905Y-29667419D02*
X61491905Y-28667419D01*
X61491905Y-28667419D02*
X61730000Y-28667419D01*
X61730000Y-28667419D02*
X61872857Y-28715038D01*
X61872857Y-28715038D02*
X61968095Y-28810276D01*
X61968095Y-28810276D02*
X62015714Y-28905514D01*
X62015714Y-28905514D02*
X62063333Y-29095990D01*
X62063333Y-29095990D02*
X62063333Y-29238847D01*
X62063333Y-29238847D02*
X62015714Y-29429323D01*
X62015714Y-29429323D02*
X61968095Y-29524561D01*
X61968095Y-29524561D02*
X61872857Y-29619800D01*
X61872857Y-29619800D02*
X61730000Y-29667419D01*
X61730000Y-29667419D02*
X61491905Y-29667419D01*
X62396667Y-28667419D02*
X63015714Y-28667419D01*
X63015714Y-28667419D02*
X62682381Y-29048371D01*
X62682381Y-29048371D02*
X62825238Y-29048371D01*
X62825238Y-29048371D02*
X62920476Y-29095990D01*
X62920476Y-29095990D02*
X62968095Y-29143609D01*
X62968095Y-29143609D02*
X63015714Y-29238847D01*
X63015714Y-29238847D02*
X63015714Y-29476942D01*
X63015714Y-29476942D02*
X62968095Y-29572180D01*
X62968095Y-29572180D02*
X62920476Y-29619800D01*
X62920476Y-29619800D02*
X62825238Y-29667419D01*
X62825238Y-29667419D02*
X62539524Y-29667419D01*
X62539524Y-29667419D02*
X62444286Y-29619800D01*
X62444286Y-29619800D02*
X62396667Y-29572180D01*
X64031905Y-29667419D02*
X64031905Y-28667419D01*
X64031905Y-28667419D02*
X64270000Y-28667419D01*
X64270000Y-28667419D02*
X64412857Y-28715038D01*
X64412857Y-28715038D02*
X64508095Y-28810276D01*
X64508095Y-28810276D02*
X64555714Y-28905514D01*
X64555714Y-28905514D02*
X64603333Y-29095990D01*
X64603333Y-29095990D02*
X64603333Y-29238847D01*
X64603333Y-29238847D02*
X64555714Y-29429323D01*
X64555714Y-29429323D02*
X64508095Y-29524561D01*
X64508095Y-29524561D02*
X64412857Y-29619800D01*
X64412857Y-29619800D02*
X64270000Y-29667419D01*
X64270000Y-29667419D02*
X64031905Y-29667419D01*
X65460476Y-29000752D02*
X65460476Y-29667419D01*
X65222381Y-28619800D02*
X64984286Y-29334085D01*
X64984286Y-29334085D02*
X65603333Y-29334085D01*
X66571905Y-29667419D02*
X66571905Y-28667419D01*
X66571905Y-28667419D02*
X66810000Y-28667419D01*
X66810000Y-28667419D02*
X66952857Y-28715038D01*
X66952857Y-28715038D02*
X67048095Y-28810276D01*
X67048095Y-28810276D02*
X67095714Y-28905514D01*
X67095714Y-28905514D02*
X67143333Y-29095990D01*
X67143333Y-29095990D02*
X67143333Y-29238847D01*
X67143333Y-29238847D02*
X67095714Y-29429323D01*
X67095714Y-29429323D02*
X67048095Y-29524561D01*
X67048095Y-29524561D02*
X66952857Y-29619800D01*
X66952857Y-29619800D02*
X66810000Y-29667419D01*
X66810000Y-29667419D02*
X66571905Y-29667419D01*
X68048095Y-28667419D02*
X67571905Y-28667419D01*
X67571905Y-28667419D02*
X67524286Y-29143609D01*
X67524286Y-29143609D02*
X67571905Y-29095990D01*
X67571905Y-29095990D02*
X67667143Y-29048371D01*
X67667143Y-29048371D02*
X67905238Y-29048371D01*
X67905238Y-29048371D02*
X68000476Y-29095990D01*
X68000476Y-29095990D02*
X68048095Y-29143609D01*
X68048095Y-29143609D02*
X68095714Y-29238847D01*
X68095714Y-29238847D02*
X68095714Y-29476942D01*
X68095714Y-29476942D02*
X68048095Y-29572180D01*
X68048095Y-29572180D02*
X68000476Y-29619800D01*
X68000476Y-29619800D02*
X67905238Y-29667419D01*
X67905238Y-29667419D02*
X67667143Y-29667419D01*
X67667143Y-29667419D02*
X67571905Y-29619800D01*
X67571905Y-29619800D02*
X67524286Y-29572180D01*
X69111905Y-29667419D02*
X69111905Y-28667419D01*
X69111905Y-28667419D02*
X69350000Y-28667419D01*
X69350000Y-28667419D02*
X69492857Y-28715038D01*
X69492857Y-28715038D02*
X69588095Y-28810276D01*
X69588095Y-28810276D02*
X69635714Y-28905514D01*
X69635714Y-28905514D02*
X69683333Y-29095990D01*
X69683333Y-29095990D02*
X69683333Y-29238847D01*
X69683333Y-29238847D02*
X69635714Y-29429323D01*
X69635714Y-29429323D02*
X69588095Y-29524561D01*
X69588095Y-29524561D02*
X69492857Y-29619800D01*
X69492857Y-29619800D02*
X69350000Y-29667419D01*
X69350000Y-29667419D02*
X69111905Y-29667419D01*
X70540476Y-28667419D02*
X70350000Y-28667419D01*
X70350000Y-28667419D02*
X70254762Y-28715038D01*
X70254762Y-28715038D02*
X70207143Y-28762657D01*
X70207143Y-28762657D02*
X70111905Y-28905514D01*
X70111905Y-28905514D02*
X70064286Y-29095990D01*
X70064286Y-29095990D02*
X70064286Y-29476942D01*
X70064286Y-29476942D02*
X70111905Y-29572180D01*
X70111905Y-29572180D02*
X70159524Y-29619800D01*
X70159524Y-29619800D02*
X70254762Y-29667419D01*
X70254762Y-29667419D02*
X70445238Y-29667419D01*
X70445238Y-29667419D02*
X70540476Y-29619800D01*
X70540476Y-29619800D02*
X70588095Y-29572180D01*
X70588095Y-29572180D02*
X70635714Y-29476942D01*
X70635714Y-29476942D02*
X70635714Y-29238847D01*
X70635714Y-29238847D02*
X70588095Y-29143609D01*
X70588095Y-29143609D02*
X70540476Y-29095990D01*
X70540476Y-29095990D02*
X70445238Y-29048371D01*
X70445238Y-29048371D02*
X70254762Y-29048371D01*
X70254762Y-29048371D02*
X70159524Y-29095990D01*
X70159524Y-29095990D02*
X70111905Y-29143609D01*
X70111905Y-29143609D02*
X70064286Y-29238847D01*
X71651905Y-29667419D02*
X71651905Y-28667419D01*
X71651905Y-28667419D02*
X71890000Y-28667419D01*
X71890000Y-28667419D02*
X72032857Y-28715038D01*
X72032857Y-28715038D02*
X72128095Y-28810276D01*
X72128095Y-28810276D02*
X72175714Y-28905514D01*
X72175714Y-28905514D02*
X72223333Y-29095990D01*
X72223333Y-29095990D02*
X72223333Y-29238847D01*
X72223333Y-29238847D02*
X72175714Y-29429323D01*
X72175714Y-29429323D02*
X72128095Y-29524561D01*
X72128095Y-29524561D02*
X72032857Y-29619800D01*
X72032857Y-29619800D02*
X71890000Y-29667419D01*
X71890000Y-29667419D02*
X71651905Y-29667419D01*
X72556667Y-28667419D02*
X73223333Y-28667419D01*
X73223333Y-28667419D02*
X72794762Y-29667419D01*
X74472580Y-28741857D02*
X75472580Y-28741857D01*
X74472580Y-29218047D02*
X75472580Y-29218047D01*
X75472580Y-29218047D02*
X74472580Y-29789475D01*
X74472580Y-29789475D02*
X75472580Y-29789475D01*
X75472580Y-30122809D02*
X75472580Y-30694237D01*
X74472580Y-30408523D02*
X75472580Y-30408523D01*
X74472580Y-31027571D02*
X75472580Y-31027571D01*
X75091628Y-31027571D02*
X75139247Y-31122809D01*
X75139247Y-31122809D02*
X75139247Y-31313285D01*
X75139247Y-31313285D02*
X75091628Y-31408523D01*
X75091628Y-31408523D02*
X75044009Y-31456142D01*
X75044009Y-31456142D02*
X74948771Y-31503761D01*
X74948771Y-31503761D02*
X74663057Y-31503761D01*
X74663057Y-31503761D02*
X74567819Y-31456142D01*
X74567819Y-31456142D02*
X74520200Y-31408523D01*
X74520200Y-31408523D02*
X74472580Y-31313285D01*
X74472580Y-31313285D02*
X74472580Y-31122809D01*
X74472580Y-31122809D02*
X74520200Y-31027571D01*
X77012580Y-29098999D02*
X77488771Y-28765666D01*
X77012580Y-28527571D02*
X78012580Y-28527571D01*
X78012580Y-28527571D02*
X78012580Y-28908523D01*
X78012580Y-28908523D02*
X77964961Y-29003761D01*
X77964961Y-29003761D02*
X77917342Y-29051380D01*
X77917342Y-29051380D02*
X77822104Y-29098999D01*
X77822104Y-29098999D02*
X77679247Y-29098999D01*
X77679247Y-29098999D02*
X77584009Y-29051380D01*
X77584009Y-29051380D02*
X77536390Y-29003761D01*
X77536390Y-29003761D02*
X77488771Y-28908523D01*
X77488771Y-28908523D02*
X77488771Y-28527571D01*
X77060200Y-29479952D02*
X77012580Y-29622809D01*
X77012580Y-29622809D02*
X77012580Y-29860904D01*
X77012580Y-29860904D02*
X77060200Y-29956142D01*
X77060200Y-29956142D02*
X77107819Y-30003761D01*
X77107819Y-30003761D02*
X77203057Y-30051380D01*
X77203057Y-30051380D02*
X77298295Y-30051380D01*
X77298295Y-30051380D02*
X77393533Y-30003761D01*
X77393533Y-30003761D02*
X77441152Y-29956142D01*
X77441152Y-29956142D02*
X77488771Y-29860904D01*
X77488771Y-29860904D02*
X77536390Y-29670428D01*
X77536390Y-29670428D02*
X77584009Y-29575190D01*
X77584009Y-29575190D02*
X77631628Y-29527571D01*
X77631628Y-29527571D02*
X77726866Y-29479952D01*
X77726866Y-29479952D02*
X77822104Y-29479952D01*
X77822104Y-29479952D02*
X77917342Y-29527571D01*
X77917342Y-29527571D02*
X77964961Y-29575190D01*
X77964961Y-29575190D02*
X78012580Y-29670428D01*
X78012580Y-29670428D02*
X78012580Y-29908523D01*
X78012580Y-29908523D02*
X77964961Y-30051380D01*
X78012580Y-30337095D02*
X78012580Y-30908523D01*
X77012580Y-30622809D02*
X78012580Y-30622809D01*
X77012580Y-31241857D02*
X78012580Y-31241857D01*
X77631628Y-31241857D02*
X77679247Y-31337095D01*
X77679247Y-31337095D02*
X77679247Y-31527571D01*
X77679247Y-31527571D02*
X77631628Y-31622809D01*
X77631628Y-31622809D02*
X77584009Y-31670428D01*
X77584009Y-31670428D02*
X77488771Y-31718047D01*
X77488771Y-31718047D02*
X77203057Y-31718047D01*
X77203057Y-31718047D02*
X77107819Y-31670428D01*
X77107819Y-31670428D02*
X77060200Y-31622809D01*
X77060200Y-31622809D02*
X77012580Y-31527571D01*
X77012580Y-31527571D02*
X77012580Y-31337095D01*
X77012580Y-31337095D02*
X77060200Y-31241857D01*
X79271905Y-29667419D02*
X79271905Y-28667419D01*
X79271905Y-28667419D02*
X79652857Y-28667419D01*
X79652857Y-28667419D02*
X79748095Y-28715038D01*
X79748095Y-28715038D02*
X79795714Y-28762657D01*
X79795714Y-28762657D02*
X79843333Y-28857895D01*
X79843333Y-28857895D02*
X79843333Y-29000752D01*
X79843333Y-29000752D02*
X79795714Y-29095990D01*
X79795714Y-29095990D02*
X79748095Y-29143609D01*
X79748095Y-29143609D02*
X79652857Y-29191228D01*
X79652857Y-29191228D02*
X79271905Y-29191228D01*
X80224286Y-28762657D02*
X80271905Y-28715038D01*
X80271905Y-28715038D02*
X80367143Y-28667419D01*
X80367143Y-28667419D02*
X80605238Y-28667419D01*
X80605238Y-28667419D02*
X80700476Y-28715038D01*
X80700476Y-28715038D02*
X80748095Y-28762657D01*
X80748095Y-28762657D02*
X80795714Y-28857895D01*
X80795714Y-28857895D02*
X80795714Y-28953133D01*
X80795714Y-28953133D02*
X80748095Y-29095990D01*
X80748095Y-29095990D02*
X80176667Y-29667419D01*
X80176667Y-29667419D02*
X80795714Y-29667419D01*
X81811905Y-29619800D02*
X81954762Y-29667419D01*
X81954762Y-29667419D02*
X82192857Y-29667419D01*
X82192857Y-29667419D02*
X82288095Y-29619800D01*
X82288095Y-29619800D02*
X82335714Y-29572180D01*
X82335714Y-29572180D02*
X82383333Y-29476942D01*
X82383333Y-29476942D02*
X82383333Y-29381704D01*
X82383333Y-29381704D02*
X82335714Y-29286466D01*
X82335714Y-29286466D02*
X82288095Y-29238847D01*
X82288095Y-29238847D02*
X82192857Y-29191228D01*
X82192857Y-29191228D02*
X82002381Y-29143609D01*
X82002381Y-29143609D02*
X81907143Y-29095990D01*
X81907143Y-29095990D02*
X81859524Y-29048371D01*
X81859524Y-29048371D02*
X81811905Y-28953133D01*
X81811905Y-28953133D02*
X81811905Y-28857895D01*
X81811905Y-28857895D02*
X81859524Y-28762657D01*
X81859524Y-28762657D02*
X81907143Y-28715038D01*
X81907143Y-28715038D02*
X82002381Y-28667419D01*
X82002381Y-28667419D02*
X82240476Y-28667419D01*
X82240476Y-28667419D02*
X82383333Y-28715038D01*
X82811905Y-29667419D02*
X82811905Y-28667419D01*
X82811905Y-29048371D02*
X82907143Y-29000752D01*
X82907143Y-29000752D02*
X83097619Y-29000752D01*
X83097619Y-29000752D02*
X83192857Y-29048371D01*
X83192857Y-29048371D02*
X83240476Y-29095990D01*
X83240476Y-29095990D02*
X83288095Y-29191228D01*
X83288095Y-29191228D02*
X83288095Y-29476942D01*
X83288095Y-29476942D02*
X83240476Y-29572180D01*
X83240476Y-29572180D02*
X83192857Y-29619800D01*
X83192857Y-29619800D02*
X83097619Y-29667419D01*
X83097619Y-29667419D02*
X82907143Y-29667419D01*
X82907143Y-29667419D02*
X82811905Y-29619800D01*
X84899523Y-28667419D02*
X84423333Y-28667419D01*
X84423333Y-28667419D02*
X84375714Y-29143609D01*
X84375714Y-29143609D02*
X84423333Y-29095990D01*
X84423333Y-29095990D02*
X84518571Y-29048371D01*
X84518571Y-29048371D02*
X84756666Y-29048371D01*
X84756666Y-29048371D02*
X84851904Y-29095990D01*
X84851904Y-29095990D02*
X84899523Y-29143609D01*
X84899523Y-29143609D02*
X84947142Y-29238847D01*
X84947142Y-29238847D02*
X84947142Y-29476942D01*
X84947142Y-29476942D02*
X84899523Y-29572180D01*
X84899523Y-29572180D02*
X84851904Y-29619800D01*
X84851904Y-29619800D02*
X84756666Y-29667419D01*
X84756666Y-29667419D02*
X84518571Y-29667419D01*
X84518571Y-29667419D02*
X84423333Y-29619800D01*
X84423333Y-29619800D02*
X84375714Y-29572180D01*
X85232857Y-28667419D02*
X85566190Y-29667419D01*
X85566190Y-29667419D02*
X85899523Y-28667419D01*
X86868095Y-28715038D02*
X86772857Y-28667419D01*
X86772857Y-28667419D02*
X86630000Y-28667419D01*
X86630000Y-28667419D02*
X86487143Y-28715038D01*
X86487143Y-28715038D02*
X86391905Y-28810276D01*
X86391905Y-28810276D02*
X86344286Y-28905514D01*
X86344286Y-28905514D02*
X86296667Y-29095990D01*
X86296667Y-29095990D02*
X86296667Y-29238847D01*
X86296667Y-29238847D02*
X86344286Y-29429323D01*
X86344286Y-29429323D02*
X86391905Y-29524561D01*
X86391905Y-29524561D02*
X86487143Y-29619800D01*
X86487143Y-29619800D02*
X86630000Y-29667419D01*
X86630000Y-29667419D02*
X86725238Y-29667419D01*
X86725238Y-29667419D02*
X86868095Y-29619800D01*
X86868095Y-29619800D02*
X86915714Y-29572180D01*
X86915714Y-29572180D02*
X86915714Y-29238847D01*
X86915714Y-29238847D02*
X86725238Y-29238847D01*
X87344286Y-29667419D02*
X87344286Y-28667419D01*
X87344286Y-28667419D02*
X87915714Y-29667419D01*
X87915714Y-29667419D02*
X87915714Y-28667419D01*
X88391905Y-29667419D02*
X88391905Y-28667419D01*
X88391905Y-28667419D02*
X88630000Y-28667419D01*
X88630000Y-28667419D02*
X88772857Y-28715038D01*
X88772857Y-28715038D02*
X88868095Y-28810276D01*
X88868095Y-28810276D02*
X88915714Y-28905514D01*
X88915714Y-28905514D02*
X88963333Y-29095990D01*
X88963333Y-29095990D02*
X88963333Y-29238847D01*
X88963333Y-29238847D02*
X88915714Y-29429323D01*
X88915714Y-29429323D02*
X88868095Y-29524561D01*
X88868095Y-29524561D02*
X88772857Y-29619800D01*
X88772857Y-29619800D02*
X88630000Y-29667419D01*
X88630000Y-29667419D02*
X88391905Y-29667419D01*
D11*
X49420149Y-45816457D02*
X49677292Y-45902171D01*
X49677292Y-45902171D02*
X49763006Y-45987885D01*
X49763006Y-45987885D02*
X49848720Y-46159314D01*
X49848720Y-46159314D02*
X49848720Y-46416457D01*
X49848720Y-46416457D02*
X49763006Y-46587885D01*
X49763006Y-46587885D02*
X49677292Y-46673600D01*
X49677292Y-46673600D02*
X49505863Y-46759314D01*
X49505863Y-46759314D02*
X48820149Y-46759314D01*
X48820149Y-46759314D02*
X48820149Y-44959314D01*
X48820149Y-44959314D02*
X49420149Y-44959314D01*
X49420149Y-44959314D02*
X49591578Y-45045028D01*
X49591578Y-45045028D02*
X49677292Y-45130742D01*
X49677292Y-45130742D02*
X49763006Y-45302171D01*
X49763006Y-45302171D02*
X49763006Y-45473600D01*
X49763006Y-45473600D02*
X49677292Y-45645028D01*
X49677292Y-45645028D02*
X49591578Y-45730742D01*
X49591578Y-45730742D02*
X49420149Y-45816457D01*
X49420149Y-45816457D02*
X48820149Y-45816457D01*
X50448720Y-45559314D02*
X50877292Y-46759314D01*
X51305863Y-45559314D02*
X50877292Y-46759314D01*
X50877292Y-46759314D02*
X50705863Y-47187885D01*
X50705863Y-47187885D02*
X50620149Y-47273600D01*
X50620149Y-47273600D02*
X50448720Y-47359314D01*
X54391578Y-46759314D02*
X53791578Y-45902171D01*
X53363007Y-46759314D02*
X53363007Y-44959314D01*
X53363007Y-44959314D02*
X54048721Y-44959314D01*
X54048721Y-44959314D02*
X54220150Y-45045028D01*
X54220150Y-45045028D02*
X54305864Y-45130742D01*
X54305864Y-45130742D02*
X54391578Y-45302171D01*
X54391578Y-45302171D02*
X54391578Y-45559314D01*
X54391578Y-45559314D02*
X54305864Y-45730742D01*
X54305864Y-45730742D02*
X54220150Y-45816457D01*
X54220150Y-45816457D02*
X54048721Y-45902171D01*
X54048721Y-45902171D02*
X53363007Y-45902171D01*
X55420150Y-46759314D02*
X55248721Y-46673600D01*
X55248721Y-46673600D02*
X55163007Y-46587885D01*
X55163007Y-46587885D02*
X55077293Y-46416457D01*
X55077293Y-46416457D02*
X55077293Y-45902171D01*
X55077293Y-45902171D02*
X55163007Y-45730742D01*
X55163007Y-45730742D02*
X55248721Y-45645028D01*
X55248721Y-45645028D02*
X55420150Y-45559314D01*
X55420150Y-45559314D02*
X55677293Y-45559314D01*
X55677293Y-45559314D02*
X55848721Y-45645028D01*
X55848721Y-45645028D02*
X55934436Y-45730742D01*
X55934436Y-45730742D02*
X56020150Y-45902171D01*
X56020150Y-45902171D02*
X56020150Y-46416457D01*
X56020150Y-46416457D02*
X55934436Y-46587885D01*
X55934436Y-46587885D02*
X55848721Y-46673600D01*
X55848721Y-46673600D02*
X55677293Y-46759314D01*
X55677293Y-46759314D02*
X55420150Y-46759314D01*
X56791578Y-46759314D02*
X56791578Y-44959314D01*
X56791578Y-45645028D02*
X56963007Y-45559314D01*
X56963007Y-45559314D02*
X57305864Y-45559314D01*
X57305864Y-45559314D02*
X57477292Y-45645028D01*
X57477292Y-45645028D02*
X57563007Y-45730742D01*
X57563007Y-45730742D02*
X57648721Y-45902171D01*
X57648721Y-45902171D02*
X57648721Y-46416457D01*
X57648721Y-46416457D02*
X57563007Y-46587885D01*
X57563007Y-46587885D02*
X57477292Y-46673600D01*
X57477292Y-46673600D02*
X57305864Y-46759314D01*
X57305864Y-46759314D02*
X56963007Y-46759314D01*
X56963007Y-46759314D02*
X56791578Y-46673600D01*
X58420149Y-46759314D02*
X58420149Y-44959314D01*
X58420149Y-45645028D02*
X58591578Y-45559314D01*
X58591578Y-45559314D02*
X58934435Y-45559314D01*
X58934435Y-45559314D02*
X59105863Y-45645028D01*
X59105863Y-45645028D02*
X59191578Y-45730742D01*
X59191578Y-45730742D02*
X59277292Y-45902171D01*
X59277292Y-45902171D02*
X59277292Y-46416457D01*
X59277292Y-46416457D02*
X59191578Y-46587885D01*
X59191578Y-46587885D02*
X59105863Y-46673600D01*
X59105863Y-46673600D02*
X58934435Y-46759314D01*
X58934435Y-46759314D02*
X58591578Y-46759314D01*
X58591578Y-46759314D02*
X58420149Y-46673600D01*
X60048720Y-46759314D02*
X60048720Y-45559314D01*
X60048720Y-44959314D02*
X59963006Y-45045028D01*
X59963006Y-45045028D02*
X60048720Y-45130742D01*
X60048720Y-45130742D02*
X60134434Y-45045028D01*
X60134434Y-45045028D02*
X60048720Y-44959314D01*
X60048720Y-44959314D02*
X60048720Y-45130742D01*
X61591577Y-46673600D02*
X61420149Y-46759314D01*
X61420149Y-46759314D02*
X61077292Y-46759314D01*
X61077292Y-46759314D02*
X60905863Y-46673600D01*
X60905863Y-46673600D02*
X60820149Y-46502171D01*
X60820149Y-46502171D02*
X60820149Y-45816457D01*
X60820149Y-45816457D02*
X60905863Y-45645028D01*
X60905863Y-45645028D02*
X61077292Y-45559314D01*
X61077292Y-45559314D02*
X61420149Y-45559314D01*
X61420149Y-45559314D02*
X61591577Y-45645028D01*
X61591577Y-45645028D02*
X61677292Y-45816457D01*
X61677292Y-45816457D02*
X61677292Y-45987885D01*
X61677292Y-45987885D02*
X60820149Y-46159314D01*
X63820149Y-46759314D02*
X63820149Y-44959314D01*
X63820149Y-44959314D02*
X64420149Y-46245028D01*
X64420149Y-46245028D02*
X65020149Y-44959314D01*
X65020149Y-44959314D02*
X65020149Y-46759314D01*
X66134435Y-46759314D02*
X65963006Y-46673600D01*
X65963006Y-46673600D02*
X65877292Y-46587885D01*
X65877292Y-46587885D02*
X65791578Y-46416457D01*
X65791578Y-46416457D02*
X65791578Y-45902171D01*
X65791578Y-45902171D02*
X65877292Y-45730742D01*
X65877292Y-45730742D02*
X65963006Y-45645028D01*
X65963006Y-45645028D02*
X66134435Y-45559314D01*
X66134435Y-45559314D02*
X66391578Y-45559314D01*
X66391578Y-45559314D02*
X66563006Y-45645028D01*
X66563006Y-45645028D02*
X66648721Y-45730742D01*
X66648721Y-45730742D02*
X66734435Y-45902171D01*
X66734435Y-45902171D02*
X66734435Y-46416457D01*
X66734435Y-46416457D02*
X66648721Y-46587885D01*
X66648721Y-46587885D02*
X66563006Y-46673600D01*
X66563006Y-46673600D02*
X66391578Y-46759314D01*
X66391578Y-46759314D02*
X66134435Y-46759314D01*
X67505863Y-45559314D02*
X67505863Y-46759314D01*
X67505863Y-45730742D02*
X67591577Y-45645028D01*
X67591577Y-45645028D02*
X67763006Y-45559314D01*
X67763006Y-45559314D02*
X68020149Y-45559314D01*
X68020149Y-45559314D02*
X68191577Y-45645028D01*
X68191577Y-45645028D02*
X68277292Y-45816457D01*
X68277292Y-45816457D02*
X68277292Y-46759314D01*
X69820148Y-46673600D02*
X69648720Y-46759314D01*
X69648720Y-46759314D02*
X69305863Y-46759314D01*
X69305863Y-46759314D02*
X69134434Y-46673600D01*
X69134434Y-46673600D02*
X69048720Y-46502171D01*
X69048720Y-46502171D02*
X69048720Y-45816457D01*
X69048720Y-45816457D02*
X69134434Y-45645028D01*
X69134434Y-45645028D02*
X69305863Y-45559314D01*
X69305863Y-45559314D02*
X69648720Y-45559314D01*
X69648720Y-45559314D02*
X69820148Y-45645028D01*
X69820148Y-45645028D02*
X69905863Y-45816457D01*
X69905863Y-45816457D02*
X69905863Y-45987885D01*
X69905863Y-45987885D02*
X69048720Y-46159314D01*
X70591577Y-46673600D02*
X70763005Y-46759314D01*
X70763005Y-46759314D02*
X71105862Y-46759314D01*
X71105862Y-46759314D02*
X71277291Y-46673600D01*
X71277291Y-46673600D02*
X71363005Y-46502171D01*
X71363005Y-46502171D02*
X71363005Y-46416457D01*
X71363005Y-46416457D02*
X71277291Y-46245028D01*
X71277291Y-46245028D02*
X71105862Y-46159314D01*
X71105862Y-46159314D02*
X70848720Y-46159314D01*
X70848720Y-46159314D02*
X70677291Y-46073600D01*
X70677291Y-46073600D02*
X70591577Y-45902171D01*
X70591577Y-45902171D02*
X70591577Y-45816457D01*
X70591577Y-45816457D02*
X70677291Y-45645028D01*
X70677291Y-45645028D02*
X70848720Y-45559314D01*
X70848720Y-45559314D02*
X71105862Y-45559314D01*
X71105862Y-45559314D02*
X71277291Y-45645028D01*
D12*
X50949084Y-41387047D02*
X50568132Y-41768000D01*
X50568132Y-41768000D02*
X49425274Y-42148952D01*
X49425274Y-42148952D02*
X48663370Y-42148952D01*
X48663370Y-42148952D02*
X47520513Y-41768000D01*
X47520513Y-41768000D02*
X46758608Y-41006095D01*
X46758608Y-41006095D02*
X46377655Y-40244190D01*
X46377655Y-40244190D02*
X45996703Y-38720380D01*
X45996703Y-38720380D02*
X45996703Y-37577523D01*
X45996703Y-37577523D02*
X46377655Y-36053714D01*
X46377655Y-36053714D02*
X46758608Y-35291809D01*
X46758608Y-35291809D02*
X47520513Y-34529904D01*
X47520513Y-34529904D02*
X48663370Y-34148952D01*
X48663370Y-34148952D02*
X49425274Y-34148952D01*
X49425274Y-34148952D02*
X50568132Y-34529904D01*
X50568132Y-34529904D02*
X50949084Y-34910857D01*
X55520513Y-42148952D02*
X54758608Y-41768000D01*
X54758608Y-41768000D02*
X54377655Y-41006095D01*
X54377655Y-41006095D02*
X54377655Y-34148952D01*
X61996703Y-42148952D02*
X61996703Y-37958476D01*
X61996703Y-37958476D02*
X61615750Y-37196571D01*
X61615750Y-37196571D02*
X60853846Y-36815619D01*
X60853846Y-36815619D02*
X59330036Y-36815619D01*
X59330036Y-36815619D02*
X58568131Y-37196571D01*
X61996703Y-41768000D02*
X61234798Y-42148952D01*
X61234798Y-42148952D02*
X59330036Y-42148952D01*
X59330036Y-42148952D02*
X58568131Y-41768000D01*
X58568131Y-41768000D02*
X58187179Y-41006095D01*
X58187179Y-41006095D02*
X58187179Y-40244190D01*
X58187179Y-40244190D02*
X58568131Y-39482285D01*
X58568131Y-39482285D02*
X59330036Y-39101333D01*
X59330036Y-39101333D02*
X61234798Y-39101333D01*
X61234798Y-39101333D02*
X61996703Y-38720380D01*
X69234798Y-41768000D02*
X68472893Y-42148952D01*
X68472893Y-42148952D02*
X66949084Y-42148952D01*
X66949084Y-42148952D02*
X66187179Y-41768000D01*
X66187179Y-41768000D02*
X65806226Y-41387047D01*
X65806226Y-41387047D02*
X65425274Y-40625142D01*
X65425274Y-40625142D02*
X65425274Y-38339428D01*
X65425274Y-38339428D02*
X65806226Y-37577523D01*
X65806226Y-37577523D02*
X66187179Y-37196571D01*
X66187179Y-37196571D02*
X66949084Y-36815619D01*
X66949084Y-36815619D02*
X68472893Y-36815619D01*
X68472893Y-36815619D02*
X69234798Y-37196571D01*
X76091941Y-36815619D02*
X76091941Y-42148952D01*
X72663369Y-36815619D02*
X72663369Y-41006095D01*
X72663369Y-41006095D02*
X73044322Y-41768000D01*
X73044322Y-41768000D02*
X73806227Y-42148952D01*
X73806227Y-42148952D02*
X74949084Y-42148952D01*
X74949084Y-42148952D02*
X75710988Y-41768000D01*
X75710988Y-41768000D02*
X76091941Y-41387047D01*
X81044322Y-42148952D02*
X80282417Y-41768000D01*
X80282417Y-41768000D02*
X79901464Y-41006095D01*
X79901464Y-41006095D02*
X79901464Y-34148952D01*
X87520512Y-42148952D02*
X87520512Y-37958476D01*
X87520512Y-37958476D02*
X87139559Y-37196571D01*
X87139559Y-37196571D02*
X86377655Y-36815619D01*
X86377655Y-36815619D02*
X84853845Y-36815619D01*
X84853845Y-36815619D02*
X84091940Y-37196571D01*
X87520512Y-41768000D02*
X86758607Y-42148952D01*
X86758607Y-42148952D02*
X84853845Y-42148952D01*
X84853845Y-42148952D02*
X84091940Y-41768000D01*
X84091940Y-41768000D02*
X83710988Y-41006095D01*
X83710988Y-41006095D02*
X83710988Y-40244190D01*
X83710988Y-40244190D02*
X84091940Y-39482285D01*
X84091940Y-39482285D02*
X84853845Y-39101333D01*
X84853845Y-39101333D02*
X86758607Y-39101333D01*
X86758607Y-39101333D02*
X87520512Y-38720380D01*
X90187178Y-36815619D02*
X93234797Y-36815619D01*
X91330035Y-34148952D02*
X91330035Y-41006095D01*
X91330035Y-41006095D02*
X91710988Y-41768000D01*
X91710988Y-41768000D02*
X92472893Y-42148952D01*
X92472893Y-42148952D02*
X93234797Y-42148952D01*
X97044322Y-42148952D02*
X96282417Y-41768000D01*
X96282417Y-41768000D02*
X95901464Y-41387047D01*
X95901464Y-41387047D02*
X95520512Y-40625142D01*
X95520512Y-40625142D02*
X95520512Y-38339428D01*
X95520512Y-38339428D02*
X95901464Y-37577523D01*
X95901464Y-37577523D02*
X96282417Y-37196571D01*
X96282417Y-37196571D02*
X97044322Y-36815619D01*
X97044322Y-36815619D02*
X98187179Y-36815619D01*
X98187179Y-36815619D02*
X98949083Y-37196571D01*
X98949083Y-37196571D02*
X99330036Y-37577523D01*
X99330036Y-37577523D02*
X99710988Y-38339428D01*
X99710988Y-38339428D02*
X99710988Y-40625142D01*
X99710988Y-40625142D02*
X99330036Y-41387047D01*
X99330036Y-41387047D02*
X98949083Y-41768000D01*
X98949083Y-41768000D02*
X98187179Y-42148952D01*
X98187179Y-42148952D02*
X97044322Y-42148952D01*
X103139559Y-42148952D02*
X103139559Y-36815619D01*
X103139559Y-38339428D02*
X103520512Y-37577523D01*
X103520512Y-37577523D02*
X103901464Y-37196571D01*
X103901464Y-37196571D02*
X104663369Y-36815619D01*
X104663369Y-36815619D02*
X105425274Y-36815619D01*
D13*
X149806905Y-35014819D02*
X149806905Y-35824342D01*
X149806905Y-35824342D02*
X149854524Y-35919580D01*
X149854524Y-35919580D02*
X149902143Y-35967200D01*
X149902143Y-35967200D02*
X149997381Y-36014819D01*
X149997381Y-36014819D02*
X150187857Y-36014819D01*
X150187857Y-36014819D02*
X150283095Y-35967200D01*
X150283095Y-35967200D02*
X150330714Y-35919580D01*
X150330714Y-35919580D02*
X150378333Y-35824342D01*
X150378333Y-35824342D02*
X150378333Y-35014819D01*
X151378333Y-36014819D02*
X150806905Y-36014819D01*
X151092619Y-36014819D02*
X151092619Y-35014819D01*
X151092619Y-35014819D02*
X150997381Y-35157676D01*
X150997381Y-35157676D02*
X150902143Y-35252914D01*
X150902143Y-35252914D02*
X150806905Y-35300533D01*
X151854524Y-36014819D02*
X152045000Y-36014819D01*
X152045000Y-36014819D02*
X152140238Y-35967200D01*
X152140238Y-35967200D02*
X152187857Y-35919580D01*
X152187857Y-35919580D02*
X152283095Y-35776723D01*
X152283095Y-35776723D02*
X152330714Y-35586247D01*
X152330714Y-35586247D02*
X152330714Y-35205295D01*
X152330714Y-35205295D02*
X152283095Y-35110057D01*
X152283095Y-35110057D02*
X152235476Y-35062438D01*
X152235476Y-35062438D02*
X152140238Y-35014819D01*
X152140238Y-35014819D02*
X151949762Y-35014819D01*
X151949762Y-35014819D02*
X151854524Y-35062438D01*
X151854524Y-35062438D02*
X151806905Y-35110057D01*
X151806905Y-35110057D02*
X151759286Y-35205295D01*
X151759286Y-35205295D02*
X151759286Y-35443390D01*
X151759286Y-35443390D02*
X151806905Y-35538628D01*
X151806905Y-35538628D02*
X151854524Y-35586247D01*
X151854524Y-35586247D02*
X151949762Y-35633866D01*
X151949762Y-35633866D02*
X152140238Y-35633866D01*
X152140238Y-35633866D02*
X152235476Y-35586247D01*
X152235476Y-35586247D02*
X152283095Y-35538628D01*
X152283095Y-35538628D02*
X152330714Y-35443390D01*
X200056905Y-35014819D02*
X200056905Y-35824342D01*
X200056905Y-35824342D02*
X200104524Y-35919580D01*
X200104524Y-35919580D02*
X200152143Y-35967200D01*
X200152143Y-35967200D02*
X200247381Y-36014819D01*
X200247381Y-36014819D02*
X200437857Y-36014819D01*
X200437857Y-36014819D02*
X200533095Y-35967200D01*
X200533095Y-35967200D02*
X200580714Y-35919580D01*
X200580714Y-35919580D02*
X200628333Y-35824342D01*
X200628333Y-35824342D02*
X200628333Y-35014819D01*
X201009286Y-35014819D02*
X201628333Y-35014819D01*
X201628333Y-35014819D02*
X201295000Y-35395771D01*
X201295000Y-35395771D02*
X201437857Y-35395771D01*
X201437857Y-35395771D02*
X201533095Y-35443390D01*
X201533095Y-35443390D02*
X201580714Y-35491009D01*
X201580714Y-35491009D02*
X201628333Y-35586247D01*
X201628333Y-35586247D02*
X201628333Y-35824342D01*
X201628333Y-35824342D02*
X201580714Y-35919580D01*
X201580714Y-35919580D02*
X201533095Y-35967200D01*
X201533095Y-35967200D02*
X201437857Y-36014819D01*
X201437857Y-36014819D02*
X201152143Y-36014819D01*
X201152143Y-36014819D02*
X201056905Y-35967200D01*
X201056905Y-35967200D02*
X201009286Y-35919580D01*
X202247381Y-35014819D02*
X202342619Y-35014819D01*
X202342619Y-35014819D02*
X202437857Y-35062438D01*
X202437857Y-35062438D02*
X202485476Y-35110057D01*
X202485476Y-35110057D02*
X202533095Y-35205295D01*
X202533095Y-35205295D02*
X202580714Y-35395771D01*
X202580714Y-35395771D02*
X202580714Y-35633866D01*
X202580714Y-35633866D02*
X202533095Y-35824342D01*
X202533095Y-35824342D02*
X202485476Y-35919580D01*
X202485476Y-35919580D02*
X202437857Y-35967200D01*
X202437857Y-35967200D02*
X202342619Y-36014819D01*
X202342619Y-36014819D02*
X202247381Y-36014819D01*
X202247381Y-36014819D02*
X202152143Y-35967200D01*
X202152143Y-35967200D02*
X202104524Y-35919580D01*
X202104524Y-35919580D02*
X202056905Y-35824342D01*
X202056905Y-35824342D02*
X202009286Y-35633866D01*
X202009286Y-35633866D02*
X202009286Y-35395771D01*
X202009286Y-35395771D02*
X202056905Y-35205295D01*
X202056905Y-35205295D02*
X202104524Y-35110057D01*
X202104524Y-35110057D02*
X202152143Y-35062438D01*
X202152143Y-35062438D02*
X202247381Y-35014819D01*
%TO.C,SW39*%
X151000000Y-111383000D02*
X151000000Y-110383000D01*
X151000000Y-124383000D02*
X151000000Y-123383000D01*
X151000000Y-124383000D02*
X152000000Y-124383000D01*
X152000000Y-110383000D02*
X151000000Y-110383000D01*
X164000000Y-124383000D02*
X165000000Y-124383000D01*
X165000000Y-110383000D02*
X164000000Y-110383000D01*
X165000000Y-110383000D02*
X165000000Y-111383000D01*
X165000000Y-123383000D02*
X165000000Y-124383000D01*
%TO.C,SW34*%
X170800000Y-51383000D02*
X170800000Y-50383000D01*
X170800000Y-64383000D02*
X170800000Y-63383000D01*
X170800000Y-64383000D02*
X171800000Y-64383000D01*
X171800000Y-50383000D02*
X170800000Y-50383000D01*
X183800000Y-64383000D02*
X184800000Y-64383000D01*
X184800000Y-50383000D02*
X183800000Y-50383000D01*
X184800000Y-50383000D02*
X184800000Y-51383000D01*
X184800000Y-63383000D02*
X184800000Y-64383000D01*
D14*
%TO.C,U19*%
X176040000Y-46240000D02*
X176040000Y-27000000D01*
X176040000Y-27000000D02*
X125500000Y-27000000D01*
X143420000Y-46620000D02*
X145420000Y-46620000D01*
X125500000Y-46240000D02*
X176040000Y-46240000D01*
X125500000Y-46240000D02*
X125500000Y-27000000D01*
D13*
%TO.C,SW9*%
X107666000Y-51383000D02*
X107666000Y-50383000D01*
X107666000Y-64383000D02*
X107666000Y-63383000D01*
X107666000Y-64383000D02*
X108666000Y-64383000D01*
X108666000Y-50383000D02*
X107666000Y-50383000D01*
X120666000Y-64383000D02*
X121666000Y-64383000D01*
X121666000Y-50383000D02*
X120666000Y-50383000D01*
X121666000Y-50383000D02*
X121666000Y-51383000D01*
X121666000Y-63383000D02*
X121666000Y-64383000D01*
%TO.C,SW38*%
X171000000Y-91383000D02*
X171000000Y-90383000D01*
X171000000Y-104383000D02*
X171000000Y-103383000D01*
X171000000Y-104383000D02*
X172000000Y-104383000D01*
X172000000Y-90383000D02*
X171000000Y-90383000D01*
X184000000Y-104383000D02*
X185000000Y-104383000D01*
X185000000Y-90383000D02*
X184000000Y-90383000D01*
X185000000Y-90383000D02*
X185000000Y-91383000D01*
X185000000Y-103383000D02*
X185000000Y-104383000D01*
%TO.C,SW33*%
X151000000Y-51383000D02*
X151000000Y-50383000D01*
X151000000Y-64383000D02*
X151000000Y-63383000D01*
X151000000Y-64383000D02*
X152000000Y-64383000D01*
X152000000Y-50383000D02*
X151000000Y-50383000D01*
X164000000Y-64383000D02*
X165000000Y-64383000D01*
X165000000Y-50383000D02*
X164000000Y-50383000D01*
X165000000Y-50383000D02*
X165000000Y-51383000D01*
X165000000Y-63383000D02*
X165000000Y-64383000D01*
%TO.C,SW11*%
X107666000Y-71383000D02*
X107666000Y-70383000D01*
X107666000Y-84383000D02*
X107666000Y-83383000D01*
X107666000Y-84383000D02*
X108666000Y-84383000D01*
X108666000Y-70383000D02*
X107666000Y-70383000D01*
X120666000Y-84383000D02*
X121666000Y-84383000D01*
X121666000Y-70383000D02*
X120666000Y-70383000D01*
X121666000Y-70383000D02*
X121666000Y-71383000D01*
X121666000Y-83383000D02*
X121666000Y-84383000D01*
%TO.C,SW30*%
X41000000Y-91383000D02*
X41000000Y-90383000D01*
X41000000Y-104383000D02*
X41000000Y-103383000D01*
X41000000Y-104383000D02*
X42000000Y-104383000D01*
X42000000Y-90383000D02*
X41000000Y-90383000D01*
X54000000Y-104383000D02*
X55000000Y-104383000D01*
X55000000Y-90383000D02*
X54000000Y-90383000D01*
X55000000Y-90383000D02*
X55000000Y-91383000D01*
X55000000Y-103383000D02*
X55000000Y-104383000D01*
%TO.C,SW13*%
X107666000Y-91383000D02*
X107666000Y-90383000D01*
X107666000Y-104383000D02*
X107666000Y-103383000D01*
X107666000Y-104383000D02*
X108666000Y-104383000D01*
X108666000Y-90383000D02*
X107666000Y-90383000D01*
X120666000Y-104383000D02*
X121666000Y-104383000D01*
X121666000Y-90383000D02*
X120666000Y-90383000D01*
X121666000Y-90383000D02*
X121666000Y-91383000D01*
X121666000Y-103383000D02*
X121666000Y-104383000D01*
%TO.C,SW18*%
X84333000Y-51383000D02*
X84333000Y-50383000D01*
X84333000Y-64383000D02*
X84333000Y-63383000D01*
X84333000Y-64383000D02*
X85333000Y-64383000D01*
X85333000Y-50383000D02*
X84333000Y-50383000D01*
X97333000Y-64383000D02*
X98333000Y-64383000D01*
X98333000Y-50383000D02*
X97333000Y-50383000D01*
X98333000Y-50383000D02*
X98333000Y-51383000D01*
X98333000Y-63383000D02*
X98333000Y-64383000D01*
%TO.C,SW12*%
X127666000Y-71383000D02*
X127666000Y-70383000D01*
X127666000Y-84383000D02*
X127666000Y-83383000D01*
X127666000Y-84383000D02*
X128666000Y-84383000D01*
X128666000Y-70383000D02*
X127666000Y-70383000D01*
X140666000Y-84383000D02*
X141666000Y-84383000D01*
X141666000Y-70383000D02*
X140666000Y-70383000D01*
X141666000Y-70383000D02*
X141666000Y-71383000D01*
X141666000Y-83383000D02*
X141666000Y-84383000D01*
%TO.C,SW23*%
X64333000Y-111383000D02*
X64333000Y-110383000D01*
X64333000Y-124383000D02*
X64333000Y-123383000D01*
X64333000Y-124383000D02*
X65333000Y-124383000D01*
X65333000Y-110383000D02*
X64333000Y-110383000D01*
X77333000Y-124383000D02*
X78333000Y-124383000D01*
X78333000Y-110383000D02*
X77333000Y-110383000D01*
X78333000Y-110383000D02*
X78333000Y-111383000D01*
X78333000Y-123383000D02*
X78333000Y-124383000D01*
%TO.C,SW7*%
X191000000Y-111383000D02*
X191000000Y-110383000D01*
X191000000Y-124383000D02*
X191000000Y-123383000D01*
X191000000Y-124383000D02*
X192000000Y-124383000D01*
X192000000Y-110383000D02*
X191000000Y-110383000D01*
X204000000Y-124383000D02*
X205000000Y-124383000D01*
X205000000Y-110383000D02*
X204000000Y-110383000D01*
X205000000Y-110383000D02*
X205000000Y-111383000D01*
X205000000Y-123383000D02*
X205000000Y-124383000D01*
%TO.C,SW3*%
X191000000Y-71383000D02*
X191000000Y-70383000D01*
X191000000Y-84383000D02*
X191000000Y-83383000D01*
X191000000Y-84383000D02*
X192000000Y-84383000D01*
X192000000Y-70383000D02*
X191000000Y-70383000D01*
X204000000Y-84383000D02*
X205000000Y-84383000D01*
X205000000Y-70383000D02*
X204000000Y-70383000D01*
X205000000Y-70383000D02*
X205000000Y-71383000D01*
X205000000Y-83383000D02*
X205000000Y-84383000D01*
%TO.C,SW36*%
X171000000Y-71383000D02*
X171000000Y-70383000D01*
X171000000Y-84383000D02*
X171000000Y-83383000D01*
X171000000Y-84383000D02*
X172000000Y-84383000D01*
X172000000Y-70383000D02*
X171000000Y-70383000D01*
X184000000Y-84383000D02*
X185000000Y-84383000D01*
X185000000Y-70383000D02*
X184000000Y-70383000D01*
X185000000Y-70383000D02*
X185000000Y-71383000D01*
X185000000Y-83383000D02*
X185000000Y-84383000D01*
%TO.C,SW8*%
X211000000Y-111383000D02*
X211000000Y-110383000D01*
X211000000Y-124383000D02*
X211000000Y-123383000D01*
X211000000Y-124383000D02*
X212000000Y-124383000D01*
X212000000Y-110383000D02*
X211000000Y-110383000D01*
X224000000Y-124383000D02*
X225000000Y-124383000D01*
X225000000Y-110383000D02*
X224000000Y-110383000D01*
X225000000Y-110383000D02*
X225000000Y-111383000D01*
X225000000Y-123383000D02*
X225000000Y-124383000D01*
%TO.C,SW27*%
X21000000Y-71383000D02*
X21000000Y-70383000D01*
X21000000Y-84383000D02*
X21000000Y-83383000D01*
X21000000Y-84383000D02*
X22000000Y-84383000D01*
X22000000Y-70383000D02*
X21000000Y-70383000D01*
X34000000Y-84383000D02*
X35000000Y-84383000D01*
X35000000Y-70383000D02*
X34000000Y-70383000D01*
X35000000Y-70383000D02*
X35000000Y-71383000D01*
X35000000Y-83383000D02*
X35000000Y-84383000D01*
%TO.C,SW1*%
X191000000Y-51383000D02*
X191000000Y-50383000D01*
X191000000Y-64383000D02*
X191000000Y-63383000D01*
X191000000Y-64383000D02*
X192000000Y-64383000D01*
X192000000Y-50383000D02*
X191000000Y-50383000D01*
X204000000Y-64383000D02*
X205000000Y-64383000D01*
X205000000Y-50383000D02*
X204000000Y-50383000D01*
X205000000Y-50383000D02*
X205000000Y-51383000D01*
X205000000Y-63383000D02*
X205000000Y-64383000D01*
%TO.C,SW28*%
X41000000Y-71383000D02*
X41000000Y-70383000D01*
X41000000Y-84383000D02*
X41000000Y-83383000D01*
X41000000Y-84383000D02*
X42000000Y-84383000D01*
X42000000Y-70383000D02*
X41000000Y-70383000D01*
X54000000Y-84383000D02*
X55000000Y-84383000D01*
X55000000Y-70383000D02*
X54000000Y-70383000D01*
X55000000Y-70383000D02*
X55000000Y-71383000D01*
X55000000Y-83383000D02*
X55000000Y-84383000D01*
D14*
%TO.C,U30*%
X226840000Y-46240000D02*
X226840000Y-27000000D01*
X226840000Y-27000000D02*
X176300000Y-27000000D01*
X194220000Y-46620000D02*
X196220000Y-46620000D01*
X176300000Y-46240000D02*
X226840000Y-46240000D01*
X176300000Y-46240000D02*
X176300000Y-27000000D01*
D13*
%TO.C,SW29*%
X21000000Y-91383000D02*
X21000000Y-90383000D01*
X21000000Y-104383000D02*
X21000000Y-103383000D01*
X21000000Y-104383000D02*
X22000000Y-104383000D01*
X22000000Y-90383000D02*
X21000000Y-90383000D01*
X34000000Y-104383000D02*
X35000000Y-104383000D01*
X35000000Y-90383000D02*
X34000000Y-90383000D01*
X35000000Y-90383000D02*
X35000000Y-91383000D01*
X35000000Y-103383000D02*
X35000000Y-104383000D01*
%TO.C,SW19*%
X64333000Y-71383000D02*
X64333000Y-70383000D01*
X64333000Y-84383000D02*
X64333000Y-83383000D01*
X64333000Y-84383000D02*
X65333000Y-84383000D01*
X65333000Y-70383000D02*
X64333000Y-70383000D01*
X77333000Y-84383000D02*
X78333000Y-84383000D01*
X78333000Y-70383000D02*
X77333000Y-70383000D01*
X78333000Y-70383000D02*
X78333000Y-71383000D01*
X78333000Y-83383000D02*
X78333000Y-84383000D01*
%TO.C,SW10*%
X127666000Y-51383000D02*
X127666000Y-50383000D01*
X127666000Y-64383000D02*
X127666000Y-63383000D01*
X127666000Y-64383000D02*
X128666000Y-64383000D01*
X128666000Y-50383000D02*
X127666000Y-50383000D01*
X140666000Y-64383000D02*
X141666000Y-64383000D01*
X141666000Y-50383000D02*
X140666000Y-50383000D01*
X141666000Y-50383000D02*
X141666000Y-51383000D01*
X141666000Y-63383000D02*
X141666000Y-64383000D01*
%TO.C,SW2*%
X211000000Y-51383000D02*
X211000000Y-50383000D01*
X211000000Y-64383000D02*
X211000000Y-63383000D01*
X211000000Y-64383000D02*
X212000000Y-64383000D01*
X212000000Y-50383000D02*
X211000000Y-50383000D01*
X224000000Y-64383000D02*
X225000000Y-64383000D01*
X225000000Y-50383000D02*
X224000000Y-50383000D01*
X225000000Y-50383000D02*
X225000000Y-51383000D01*
X225000000Y-63383000D02*
X225000000Y-64383000D01*
%TO.C,SW15*%
X107666000Y-111383000D02*
X107666000Y-110383000D01*
X107666000Y-124383000D02*
X107666000Y-123383000D01*
X107666000Y-124383000D02*
X108666000Y-124383000D01*
X108666000Y-110383000D02*
X107666000Y-110383000D01*
X120666000Y-124383000D02*
X121666000Y-124383000D01*
X121666000Y-110383000D02*
X120666000Y-110383000D01*
X121666000Y-110383000D02*
X121666000Y-111383000D01*
X121666000Y-123383000D02*
X121666000Y-124383000D01*
%TO.C,SW22*%
X84333000Y-91383000D02*
X84333000Y-90383000D01*
X84333000Y-104383000D02*
X84333000Y-103383000D01*
X84333000Y-104383000D02*
X85333000Y-104383000D01*
X85333000Y-90383000D02*
X84333000Y-90383000D01*
X97333000Y-104383000D02*
X98333000Y-104383000D01*
X98333000Y-90383000D02*
X97333000Y-90383000D01*
X98333000Y-90383000D02*
X98333000Y-91383000D01*
X98333000Y-103383000D02*
X98333000Y-104383000D01*
%TO.C,SW16*%
X127666000Y-111383000D02*
X127666000Y-110383000D01*
X127666000Y-124383000D02*
X127666000Y-123383000D01*
X127666000Y-124383000D02*
X128666000Y-124383000D01*
X128666000Y-110383000D02*
X127666000Y-110383000D01*
X140666000Y-124383000D02*
X141666000Y-124383000D01*
X141666000Y-110383000D02*
X140666000Y-110383000D01*
X141666000Y-110383000D02*
X141666000Y-111383000D01*
X141666000Y-123383000D02*
X141666000Y-124383000D01*
%TO.C,SW14*%
X127666000Y-91383000D02*
X127666000Y-90383000D01*
X127666000Y-104383000D02*
X127666000Y-103383000D01*
X127666000Y-104383000D02*
X128666000Y-104383000D01*
X128666000Y-90383000D02*
X127666000Y-90383000D01*
X140666000Y-104383000D02*
X141666000Y-104383000D01*
X141666000Y-90383000D02*
X140666000Y-90383000D01*
X141666000Y-90383000D02*
X141666000Y-91383000D01*
X141666000Y-103383000D02*
X141666000Y-104383000D01*
%TO.C,SW24*%
X84333000Y-111383000D02*
X84333000Y-110383000D01*
X84333000Y-124383000D02*
X84333000Y-123383000D01*
X84333000Y-124383000D02*
X85333000Y-124383000D01*
X85333000Y-110383000D02*
X84333000Y-110383000D01*
X97333000Y-124383000D02*
X98333000Y-124383000D01*
X98333000Y-110383000D02*
X97333000Y-110383000D01*
X98333000Y-110383000D02*
X98333000Y-111383000D01*
X98333000Y-123383000D02*
X98333000Y-124383000D01*
%TO.C,SW32*%
X41000000Y-111383000D02*
X41000000Y-110383000D01*
X41000000Y-124383000D02*
X41000000Y-123383000D01*
X41000000Y-124383000D02*
X42000000Y-124383000D01*
X42000000Y-110383000D02*
X41000000Y-110383000D01*
X54000000Y-124383000D02*
X55000000Y-124383000D01*
X55000000Y-110383000D02*
X54000000Y-110383000D01*
X55000000Y-110383000D02*
X55000000Y-111383000D01*
X55000000Y-123383000D02*
X55000000Y-124383000D01*
%TO.C,SW31*%
X21000000Y-111383000D02*
X21000000Y-110383000D01*
X21000000Y-124383000D02*
X21000000Y-123383000D01*
X21000000Y-124383000D02*
X22000000Y-124383000D01*
X22000000Y-110383000D02*
X21000000Y-110383000D01*
X34000000Y-124383000D02*
X35000000Y-124383000D01*
X35000000Y-110383000D02*
X34000000Y-110383000D01*
X35000000Y-110383000D02*
X35000000Y-111383000D01*
X35000000Y-123383000D02*
X35000000Y-124383000D01*
%TO.C,SW26*%
X41000000Y-51383000D02*
X41000000Y-50383000D01*
X41000000Y-64383000D02*
X41000000Y-63383000D01*
X41000000Y-64383000D02*
X42000000Y-64383000D01*
X42000000Y-50383000D02*
X41000000Y-50383000D01*
X54000000Y-64383000D02*
X55000000Y-64383000D01*
X55000000Y-50383000D02*
X54000000Y-50383000D01*
X55000000Y-50383000D02*
X55000000Y-51383000D01*
X55000000Y-63383000D02*
X55000000Y-64383000D01*
%TO.C,SW25*%
X21000000Y-51383000D02*
X21000000Y-50383000D01*
X21000000Y-64383000D02*
X21000000Y-63383000D01*
X21000000Y-64383000D02*
X22000000Y-64383000D01*
X22000000Y-50383000D02*
X21000000Y-50383000D01*
X34000000Y-64383000D02*
X35000000Y-64383000D01*
X35000000Y-50383000D02*
X34000000Y-50383000D01*
X35000000Y-50383000D02*
X35000000Y-51383000D01*
X35000000Y-63383000D02*
X35000000Y-64383000D01*
%TO.C,SW17*%
X64333000Y-51383000D02*
X64333000Y-50383000D01*
X64333000Y-64383000D02*
X64333000Y-63383000D01*
X64333000Y-64383000D02*
X65333000Y-64383000D01*
X65333000Y-50383000D02*
X64333000Y-50383000D01*
X77333000Y-64383000D02*
X78333000Y-64383000D01*
X78333000Y-50383000D02*
X77333000Y-50383000D01*
X78333000Y-50383000D02*
X78333000Y-51383000D01*
X78333000Y-63383000D02*
X78333000Y-64383000D01*
%TO.C,SW21*%
X64333000Y-91383000D02*
X64333000Y-90383000D01*
X64333000Y-104383000D02*
X64333000Y-103383000D01*
X64333000Y-104383000D02*
X65333000Y-104383000D01*
X65333000Y-90383000D02*
X64333000Y-90383000D01*
X77333000Y-104383000D02*
X78333000Y-104383000D01*
X78333000Y-90383000D02*
X77333000Y-90383000D01*
X78333000Y-90383000D02*
X78333000Y-91383000D01*
X78333000Y-103383000D02*
X78333000Y-104383000D01*
%TO.C,SW20*%
X84333000Y-71383000D02*
X84333000Y-70383000D01*
X84333000Y-84383000D02*
X84333000Y-83383000D01*
X84333000Y-84383000D02*
X85333000Y-84383000D01*
X85333000Y-70383000D02*
X84333000Y-70383000D01*
X97333000Y-84383000D02*
X98333000Y-84383000D01*
X98333000Y-70383000D02*
X97333000Y-70383000D01*
X98333000Y-70383000D02*
X98333000Y-71383000D01*
X98333000Y-83383000D02*
X98333000Y-84383000D01*
%TO.C,SW37*%
X151000000Y-91383000D02*
X151000000Y-90383000D01*
X151000000Y-104383000D02*
X151000000Y-103383000D01*
X151000000Y-104383000D02*
X152000000Y-104383000D01*
X152000000Y-90383000D02*
X151000000Y-90383000D01*
X164000000Y-104383000D02*
X165000000Y-104383000D01*
X165000000Y-90383000D02*
X164000000Y-90383000D01*
X165000000Y-90383000D02*
X165000000Y-91383000D01*
X165000000Y-103383000D02*
X165000000Y-104383000D01*
%TO.C,SW5*%
X191000000Y-91383000D02*
X191000000Y-90383000D01*
X191000000Y-104383000D02*
X191000000Y-103383000D01*
X191000000Y-104383000D02*
X192000000Y-104383000D01*
X192000000Y-90383000D02*
X191000000Y-90383000D01*
X204000000Y-104383000D02*
X205000000Y-104383000D01*
X205000000Y-90383000D02*
X204000000Y-90383000D01*
X205000000Y-90383000D02*
X205000000Y-91383000D01*
X205000000Y-103383000D02*
X205000000Y-104383000D01*
%TO.C,SW_Rst1*%
X21000000Y-29191000D02*
X21000000Y-28191000D01*
X21000000Y-42191000D02*
X21000000Y-41191000D01*
X21000000Y-42191000D02*
X22000000Y-42191000D01*
X22000000Y-28191000D02*
X21000000Y-28191000D01*
X34000000Y-42191000D02*
X35000000Y-42191000D01*
X35000000Y-28191000D02*
X34000000Y-28191000D01*
X35000000Y-28191000D02*
X35000000Y-29191000D01*
X35000000Y-41191000D02*
X35000000Y-42191000D01*
%TO.C,SW6*%
X211000000Y-91383000D02*
X211000000Y-90383000D01*
X211000000Y-104383000D02*
X211000000Y-103383000D01*
X211000000Y-104383000D02*
X212000000Y-104383000D01*
X212000000Y-90383000D02*
X211000000Y-90383000D01*
X224000000Y-104383000D02*
X225000000Y-104383000D01*
X225000000Y-90383000D02*
X224000000Y-90383000D01*
X225000000Y-90383000D02*
X225000000Y-91383000D01*
X225000000Y-103383000D02*
X225000000Y-104383000D01*
%TO.C,SW40*%
X171000000Y-111383000D02*
X171000000Y-110383000D01*
X171000000Y-124383000D02*
X171000000Y-123383000D01*
X171000000Y-124383000D02*
X172000000Y-124383000D01*
X172000000Y-110383000D02*
X171000000Y-110383000D01*
X184000000Y-124383000D02*
X185000000Y-124383000D01*
X185000000Y-110383000D02*
X184000000Y-110383000D01*
X185000000Y-110383000D02*
X185000000Y-111383000D01*
X185000000Y-123383000D02*
X185000000Y-124383000D01*
%TO.C,SW4*%
X211000000Y-71383000D02*
X211000000Y-70383000D01*
X211000000Y-84383000D02*
X211000000Y-83383000D01*
X211000000Y-84383000D02*
X212000000Y-84383000D01*
X212000000Y-70383000D02*
X211000000Y-70383000D01*
X224000000Y-84383000D02*
X225000000Y-84383000D01*
X225000000Y-70383000D02*
X224000000Y-70383000D01*
X225000000Y-70383000D02*
X225000000Y-71383000D01*
X225000000Y-83383000D02*
X225000000Y-84383000D01*
%TO.C,SW35*%
X151000000Y-71383000D02*
X151000000Y-70383000D01*
X151000000Y-84383000D02*
X151000000Y-83383000D01*
X151000000Y-84383000D02*
X152000000Y-84383000D01*
X152000000Y-70383000D02*
X151000000Y-70383000D01*
X164000000Y-84383000D02*
X165000000Y-84383000D01*
X165000000Y-70383000D02*
X164000000Y-70383000D01*
X165000000Y-70383000D02*
X165000000Y-71383000D01*
X165000000Y-83383000D02*
X165000000Y-84383000D01*
%TD*%
%LPC*%
D15*
%TO.C,J5*%
X31130982Y-44314966D03*
X28590982Y-44314966D03*
X26050982Y-44314966D03*
D16*
X23510982Y-44314966D03*
%TD*%
D15*
%TO.C,J4*%
X31130982Y-48124966D03*
X28590982Y-48124966D03*
X26050982Y-48124966D03*
D16*
X23510982Y-48124966D03*
%TD*%
D17*
%TO.C,SW39*%
X163080000Y-117383000D03*
D18*
X161810000Y-119923000D03*
D19*
X158000000Y-117383000D03*
D18*
X155460000Y-122463000D03*
D17*
X152920000Y-117383000D03*
%TD*%
%TO.C,SW34*%
X182880000Y-57383000D03*
D18*
X181610000Y-59923000D03*
D19*
X177800000Y-57383000D03*
D18*
X175260000Y-62463000D03*
D17*
X172720000Y-57383000D03*
%TD*%
D20*
%TO.C,U19*%
X144420000Y-44240000D03*
D21*
X146960000Y-44240000D03*
X149500000Y-44240000D03*
X152040000Y-44240000D03*
X154580000Y-44240000D03*
X157120000Y-44240000D03*
X157120000Y-29000000D03*
X154580000Y-29000000D03*
X152040000Y-29000000D03*
X149500000Y-29000000D03*
X146960000Y-29000000D03*
X144420000Y-29000000D03*
%TD*%
D17*
%TO.C,SW9*%
X119746000Y-57383000D03*
D18*
X118476000Y-59923000D03*
D19*
X114666000Y-57383000D03*
D18*
X112126000Y-62463000D03*
D17*
X109586000Y-57383000D03*
%TD*%
%TO.C,SW38*%
X183080000Y-97383000D03*
D18*
X181810000Y-99923000D03*
D19*
X178000000Y-97383000D03*
D18*
X175460000Y-102463000D03*
D17*
X172920000Y-97383000D03*
%TD*%
%TO.C,SW33*%
X163080000Y-57383000D03*
D18*
X161810000Y-59923000D03*
D19*
X158000000Y-57383000D03*
D18*
X155460000Y-62463000D03*
D17*
X152920000Y-57383000D03*
%TD*%
%TO.C,SW11*%
X119746000Y-77383000D03*
D18*
X118476000Y-79923000D03*
D19*
X114666000Y-77383000D03*
D18*
X112126000Y-82463000D03*
D17*
X109586000Y-77383000D03*
%TD*%
%TO.C,SW30*%
X53080000Y-97383000D03*
D18*
X51810000Y-99923000D03*
D19*
X48000000Y-97383000D03*
D18*
X45460000Y-102463000D03*
D17*
X42920000Y-97383000D03*
%TD*%
%TO.C,SW13*%
X119746000Y-97383000D03*
D18*
X118476000Y-99923000D03*
D19*
X114666000Y-97383000D03*
D18*
X112126000Y-102463000D03*
D17*
X109586000Y-97383000D03*
%TD*%
%TO.C,SW18*%
X96413000Y-57383000D03*
D18*
X95143000Y-59923000D03*
D19*
X91333000Y-57383000D03*
D18*
X88793000Y-62463000D03*
D17*
X86253000Y-57383000D03*
%TD*%
%TO.C,SW12*%
X139746000Y-77383000D03*
D18*
X138476000Y-79923000D03*
D19*
X134666000Y-77383000D03*
D18*
X132126000Y-82463000D03*
D17*
X129586000Y-77383000D03*
%TD*%
%TO.C,SW23*%
X76413000Y-117383000D03*
D18*
X75143000Y-119923000D03*
D19*
X71333000Y-117383000D03*
D18*
X68793000Y-122463000D03*
D17*
X66253000Y-117383000D03*
%TD*%
%TO.C,SW7*%
X203080000Y-117383000D03*
D18*
X201810000Y-119923000D03*
D19*
X198000000Y-117383000D03*
D18*
X195460000Y-122463000D03*
D17*
X192920000Y-117383000D03*
%TD*%
%TO.C,SW3*%
X203080000Y-77383000D03*
D18*
X201810000Y-79923000D03*
D19*
X198000000Y-77383000D03*
D18*
X195460000Y-82463000D03*
D17*
X192920000Y-77383000D03*
%TD*%
%TO.C,SW36*%
X183080000Y-77383000D03*
D18*
X181810000Y-79923000D03*
D19*
X178000000Y-77383000D03*
D18*
X175460000Y-82463000D03*
D17*
X172920000Y-77383000D03*
%TD*%
%TO.C,SW8*%
X223080000Y-117383000D03*
D18*
X221810000Y-119923000D03*
D19*
X218000000Y-117383000D03*
D18*
X215460000Y-122463000D03*
D17*
X212920000Y-117383000D03*
%TD*%
%TO.C,SW27*%
X33080000Y-77383000D03*
D18*
X31810000Y-79923000D03*
D19*
X28000000Y-77383000D03*
D18*
X25460000Y-82463000D03*
D17*
X22920000Y-77383000D03*
%TD*%
%TO.C,SW1*%
X203080000Y-57383000D03*
D18*
X201810000Y-59923000D03*
D19*
X198000000Y-57383000D03*
D18*
X195460000Y-62463000D03*
D17*
X192920000Y-57383000D03*
%TD*%
%TO.C,SW28*%
X53080000Y-77383000D03*
D18*
X51810000Y-79923000D03*
D19*
X48000000Y-77383000D03*
D18*
X45460000Y-82463000D03*
D17*
X42920000Y-77383000D03*
%TD*%
D20*
%TO.C,U30*%
X195220000Y-44240000D03*
D21*
X197760000Y-44240000D03*
X200300000Y-44240000D03*
X202840000Y-44240000D03*
X205380000Y-44240000D03*
X207920000Y-44240000D03*
X207920000Y-29000000D03*
X205380000Y-29000000D03*
X202840000Y-29000000D03*
X200300000Y-29000000D03*
X197760000Y-29000000D03*
X195220000Y-29000000D03*
%TD*%
D17*
%TO.C,SW29*%
X33080000Y-97383000D03*
D18*
X31810000Y-99923000D03*
D19*
X28000000Y-97383000D03*
D18*
X25460000Y-102463000D03*
D17*
X22920000Y-97383000D03*
%TD*%
%TO.C,SW19*%
X76413000Y-77383000D03*
D18*
X75143000Y-79923000D03*
D19*
X71333000Y-77383000D03*
D18*
X68793000Y-82463000D03*
D17*
X66253000Y-77383000D03*
%TD*%
%TO.C,SW10*%
X139746000Y-57383000D03*
D18*
X138476000Y-59923000D03*
D19*
X134666000Y-57383000D03*
D18*
X132126000Y-62463000D03*
D17*
X129586000Y-57383000D03*
%TD*%
%TO.C,SW2*%
X223080000Y-57383000D03*
D18*
X221810000Y-59923000D03*
D19*
X218000000Y-57383000D03*
D18*
X215460000Y-62463000D03*
D17*
X212920000Y-57383000D03*
%TD*%
%TO.C,SW15*%
X119746000Y-117383000D03*
D18*
X118476000Y-119923000D03*
D19*
X114666000Y-117383000D03*
D18*
X112126000Y-122463000D03*
D17*
X109586000Y-117383000D03*
%TD*%
%TO.C,SW22*%
X96413000Y-97383000D03*
D18*
X95143000Y-99923000D03*
D19*
X91333000Y-97383000D03*
D18*
X88793000Y-102463000D03*
D17*
X86253000Y-97383000D03*
%TD*%
%TO.C,SW16*%
X139746000Y-117383000D03*
D18*
X138476000Y-119923000D03*
D19*
X134666000Y-117383000D03*
D18*
X132126000Y-122463000D03*
D17*
X129586000Y-117383000D03*
%TD*%
%TO.C,SW14*%
X139746000Y-97383000D03*
D18*
X138476000Y-99923000D03*
D19*
X134666000Y-97383000D03*
D18*
X132126000Y-102463000D03*
D17*
X129586000Y-97383000D03*
%TD*%
%TO.C,SW24*%
X96413000Y-117383000D03*
D18*
X95143000Y-119923000D03*
D19*
X91333000Y-117383000D03*
D18*
X88793000Y-122463000D03*
D17*
X86253000Y-117383000D03*
%TD*%
%TO.C,SW32*%
X53080000Y-117383000D03*
D18*
X51810000Y-119923000D03*
D19*
X48000000Y-117383000D03*
D18*
X45460000Y-122463000D03*
D17*
X42920000Y-117383000D03*
%TD*%
%TO.C,SW31*%
X33080000Y-117383000D03*
D18*
X31810000Y-119923000D03*
D19*
X28000000Y-117383000D03*
D18*
X25460000Y-122463000D03*
D17*
X22920000Y-117383000D03*
%TD*%
%TO.C,SW26*%
X53080000Y-57383000D03*
D18*
X51810000Y-59923000D03*
D19*
X48000000Y-57383000D03*
D18*
X45460000Y-62463000D03*
D17*
X42920000Y-57383000D03*
%TD*%
%TO.C,SW25*%
X33080000Y-57383000D03*
D18*
X31810000Y-59923000D03*
D19*
X28000000Y-57383000D03*
D18*
X25460000Y-62463000D03*
D17*
X22920000Y-57383000D03*
%TD*%
%TO.C,SW17*%
X76413000Y-57383000D03*
D18*
X75143000Y-59923000D03*
D19*
X71333000Y-57383000D03*
D18*
X68793000Y-62463000D03*
D17*
X66253000Y-57383000D03*
%TD*%
%TO.C,SW21*%
X76413000Y-97383000D03*
D18*
X75143000Y-99923000D03*
D19*
X71333000Y-97383000D03*
D18*
X68793000Y-102463000D03*
D17*
X66253000Y-97383000D03*
%TD*%
%TO.C,SW20*%
X96413000Y-77383000D03*
D18*
X95143000Y-79923000D03*
D19*
X91333000Y-77383000D03*
D18*
X88793000Y-82463000D03*
D17*
X86253000Y-77383000D03*
%TD*%
%TO.C,SW37*%
X163080000Y-97383000D03*
D18*
X161810000Y-99923000D03*
D19*
X158000000Y-97383000D03*
D18*
X155460000Y-102463000D03*
D17*
X152920000Y-97383000D03*
%TD*%
%TO.C,SW5*%
X203080000Y-97383000D03*
D18*
X201810000Y-99923000D03*
D19*
X198000000Y-97383000D03*
D18*
X195460000Y-102463000D03*
D17*
X192920000Y-97383000D03*
%TD*%
%TO.C,SW_Rst1*%
X33080000Y-35191000D03*
D18*
X31810000Y-37731000D03*
D19*
X28000000Y-35191000D03*
D18*
X25460000Y-40271000D03*
D17*
X22920000Y-35191000D03*
%TD*%
%TO.C,SW6*%
X223080000Y-97383000D03*
D18*
X221810000Y-99923000D03*
D19*
X218000000Y-97383000D03*
D18*
X215460000Y-102463000D03*
D17*
X212920000Y-97383000D03*
%TD*%
%TO.C,SW40*%
X183080000Y-117383000D03*
D18*
X181810000Y-119923000D03*
D19*
X178000000Y-117383000D03*
D18*
X175460000Y-122463000D03*
D17*
X172920000Y-117383000D03*
%TD*%
%TO.C,SW4*%
X223080000Y-77383000D03*
D18*
X221810000Y-79923000D03*
D19*
X218000000Y-77383000D03*
D18*
X215460000Y-82463000D03*
D17*
X212920000Y-77383000D03*
%TD*%
%TO.C,SW35*%
X163080000Y-77383000D03*
D18*
X161810000Y-79923000D03*
D19*
X158000000Y-77383000D03*
D18*
X155460000Y-82463000D03*
D17*
X152920000Y-77383000D03*
%TD*%
D16*
%TO.C,J3*%
X151130000Y-22860000D03*
D15*
X153670000Y-22860000D03*
X156210000Y-22860000D03*
X158750000Y-22860000D03*
X161290000Y-22860000D03*
X163830000Y-22860000D03*
X166370000Y-22860000D03*
X168910000Y-22860000D03*
X171450000Y-22860000D03*
X173990000Y-22860000D03*
X176530000Y-22860000D03*
X179070000Y-22860000D03*
X181610000Y-22860000D03*
X184150000Y-22860000D03*
X186690000Y-22860000D03*
X189230000Y-22860000D03*
%TD*%
D16*
%TO.C,J1*%
X87630000Y-22860000D03*
D15*
X85090000Y-22860000D03*
X82550000Y-22860000D03*
X80010000Y-22860000D03*
X77470000Y-22860000D03*
X74930000Y-22860000D03*
X72390000Y-22860000D03*
X69850000Y-22860000D03*
X67310000Y-22860000D03*
X64770000Y-22860000D03*
X62230000Y-22860000D03*
X59690000Y-22860000D03*
X57150000Y-22860000D03*
X54610000Y-22860000D03*
X52070000Y-22860000D03*
%TD*%
D16*
%TO.C,J2*%
X87630000Y-26670000D03*
D15*
X85090000Y-26670000D03*
X82550000Y-26670000D03*
X80010000Y-26670000D03*
X77470000Y-26670000D03*
X74930000Y-26670000D03*
X72390000Y-26670000D03*
X69850000Y-26670000D03*
X67310000Y-26670000D03*
X64770000Y-26670000D03*
X62230000Y-26670000D03*
X59690000Y-26670000D03*
X57150000Y-26670000D03*
X54610000Y-26670000D03*
X52070000Y-26670000D03*
%TD*%
%LPD*%
M02*
