%TF.GenerationSoftware,KiCad,Pcbnew,8.0.1-8.0.1-1~ubuntu22.04.1*%
%TF.CreationDate,2025-04-18T23:58:01-04:00*%
%TF.ProjectId,Claculator_Keypad,436c6163-756c-4617-946f-725f4b657970,rev?*%
%TF.SameCoordinates,Original*%
%TF.FileFunction,Drillmap*%
%TF.FilePolarity,Positive*%
%FSLAX45Y45*%
G04 Gerber Fmt 4.5, Leading zero omitted, Abs format (unit mm)*
G04 Created by KiCad (PCBNEW 8.0.1-8.0.1-1~ubuntu22.04.1) date 2025-04-18 23:58:01*
%MOMM*%
%LPD*%
G01*
G04 APERTURE LIST*
%ADD10C,0.200000*%
%ADD11C,0.170180*%
%ADD12C,0.300000*%
%ADD13C,0.398780*%
G04 APERTURE END LIST*
D10*
X1800000Y-2000000D02*
X22800000Y-2000000D01*
X22800000Y-13900000D01*
X1800000Y-13900000D01*
X1800000Y-2000000D01*
X12450000Y-2300000D02*
G75*
G02*
X12150000Y-2300000I-150000J0D01*
G01*
X12150000Y-2300000D02*
G75*
G02*
X12450000Y-2300000I150000J0D01*
G01*
X4050000Y-2300000D02*
G75*
G02*
X3750000Y-2300000I-150000J0D01*
G01*
X3750000Y-2300000D02*
G75*
G02*
X4050000Y-2300000I150000J0D01*
G01*
X20850000Y-2300000D02*
G75*
G02*
X20550000Y-2300000I-150000J0D01*
G01*
X20550000Y-2300000D02*
G75*
G02*
X20850000Y-2300000I150000J0D01*
G01*
X20850000Y-13600000D02*
G75*
G02*
X20550000Y-13600000I-150000J0D01*
G01*
X20550000Y-13600000D02*
G75*
G02*
X20850000Y-13600000I150000J0D01*
G01*
X12450000Y-13600000D02*
G75*
G02*
X12150000Y-13600000I-150000J0D01*
G01*
X12150000Y-13600000D02*
G75*
G02*
X12450000Y-13600000I150000J0D01*
G01*
X4050000Y-13600000D02*
G75*
G02*
X3750000Y-13600000I-150000J0D01*
G01*
X3750000Y-13600000D02*
G75*
G02*
X4050000Y-13600000I150000J0D01*
G01*
D11*
X2206910Y-3434010D02*
X2377090Y-3604190D01*
X2377090Y-3434010D02*
X2206910Y-3604190D01*
X2206910Y-5653210D02*
X2377090Y-5823390D01*
X2377090Y-5653210D02*
X2206910Y-5823390D01*
X2206910Y-7653210D02*
X2377090Y-7823390D01*
X2377090Y-7653210D02*
X2206910Y-7823390D01*
X2206910Y-9653210D02*
X2377090Y-9823390D01*
X2377090Y-9653210D02*
X2206910Y-9823390D01*
X2206910Y-11653210D02*
X2377090Y-11823390D01*
X2377090Y-11653210D02*
X2206910Y-11823390D01*
X3222910Y-3434010D02*
X3393090Y-3604190D01*
X3393090Y-3434010D02*
X3222910Y-3604190D01*
X3222910Y-5653210D02*
X3393090Y-5823390D01*
X3393090Y-5653210D02*
X3222910Y-5823390D01*
X3222910Y-7653210D02*
X3393090Y-7823390D01*
X3393090Y-7653210D02*
X3222910Y-7823390D01*
X3222910Y-9653210D02*
X3393090Y-9823390D01*
X3393090Y-9653210D02*
X3222910Y-9823390D01*
X3222910Y-11653210D02*
X3393090Y-11823390D01*
X3393090Y-11653210D02*
X3222910Y-11823390D01*
X4206910Y-5653210D02*
X4377090Y-5823390D01*
X4377090Y-5653210D02*
X4206910Y-5823390D01*
X4206910Y-7653210D02*
X4377090Y-7823390D01*
X4377090Y-7653210D02*
X4206910Y-7823390D01*
X4206910Y-9653210D02*
X4377090Y-9823390D01*
X4377090Y-9653210D02*
X4206910Y-9823390D01*
X4206910Y-11653210D02*
X4377090Y-11823390D01*
X4377090Y-11653210D02*
X4206910Y-11823390D01*
X5222910Y-5653210D02*
X5393090Y-5823390D01*
X5393090Y-5653210D02*
X5222910Y-5823390D01*
X5222910Y-7653210D02*
X5393090Y-7823390D01*
X5393090Y-7653210D02*
X5222910Y-7823390D01*
X5222910Y-9653210D02*
X5393090Y-9823390D01*
X5393090Y-9653210D02*
X5222910Y-9823390D01*
X5222910Y-11653210D02*
X5393090Y-11823390D01*
X5393090Y-11653210D02*
X5222910Y-11823390D01*
X6540210Y-5653210D02*
X6710390Y-5823390D01*
X6710390Y-5653210D02*
X6540210Y-5823390D01*
X6540210Y-7653210D02*
X6710390Y-7823390D01*
X6710390Y-7653210D02*
X6540210Y-7823390D01*
X6540210Y-9653210D02*
X6710390Y-9823390D01*
X6710390Y-9653210D02*
X6540210Y-9823390D01*
X6540210Y-11653210D02*
X6710390Y-11823390D01*
X6710390Y-11653210D02*
X6540210Y-11823390D01*
X7556210Y-5653210D02*
X7726390Y-5823390D01*
X7726390Y-5653210D02*
X7556210Y-5823390D01*
X7556210Y-7653210D02*
X7726390Y-7823390D01*
X7726390Y-7653210D02*
X7556210Y-7823390D01*
X7556210Y-9653210D02*
X7726390Y-9823390D01*
X7726390Y-9653210D02*
X7556210Y-9823390D01*
X7556210Y-11653210D02*
X7726390Y-11823390D01*
X7726390Y-11653210D02*
X7556210Y-11823390D01*
X8540210Y-5653210D02*
X8710390Y-5823390D01*
X8710390Y-5653210D02*
X8540210Y-5823390D01*
X8540210Y-7653210D02*
X8710390Y-7823390D01*
X8710390Y-7653210D02*
X8540210Y-7823390D01*
X8540210Y-9653210D02*
X8710390Y-9823390D01*
X8710390Y-9653210D02*
X8540210Y-9823390D01*
X8540210Y-11653210D02*
X8710390Y-11823390D01*
X8710390Y-11653210D02*
X8540210Y-11823390D01*
X9556210Y-5653210D02*
X9726390Y-5823390D01*
X9726390Y-5653210D02*
X9556210Y-5823390D01*
X9556210Y-7653210D02*
X9726390Y-7823390D01*
X9726390Y-7653210D02*
X9556210Y-7823390D01*
X9556210Y-9653210D02*
X9726390Y-9823390D01*
X9726390Y-9653210D02*
X9556210Y-9823390D01*
X9556210Y-11653210D02*
X9726390Y-11823390D01*
X9726390Y-11653210D02*
X9556210Y-11823390D01*
X10873510Y-5653210D02*
X11043690Y-5823390D01*
X11043690Y-5653210D02*
X10873510Y-5823390D01*
X10873510Y-7653210D02*
X11043690Y-7823390D01*
X11043690Y-7653210D02*
X10873510Y-7823390D01*
X10873510Y-9653210D02*
X11043690Y-9823390D01*
X11043690Y-9653210D02*
X10873510Y-9823390D01*
X10873510Y-11653210D02*
X11043690Y-11823390D01*
X11043690Y-11653210D02*
X10873510Y-11823390D01*
X11889510Y-5653210D02*
X12059690Y-5823390D01*
X12059690Y-5653210D02*
X11889510Y-5823390D01*
X11889510Y-7653210D02*
X12059690Y-7823390D01*
X12059690Y-7653210D02*
X11889510Y-7823390D01*
X11889510Y-9653210D02*
X12059690Y-9823390D01*
X12059690Y-9653210D02*
X11889510Y-9823390D01*
X11889510Y-11653210D02*
X12059690Y-11823390D01*
X12059690Y-11653210D02*
X11889510Y-11823390D01*
X12873510Y-5653210D02*
X13043690Y-5823390D01*
X13043690Y-5653210D02*
X12873510Y-5823390D01*
X12873510Y-7653210D02*
X13043690Y-7823390D01*
X13043690Y-7653210D02*
X12873510Y-7823390D01*
X12873510Y-9653210D02*
X13043690Y-9823390D01*
X13043690Y-9653210D02*
X12873510Y-9823390D01*
X12873510Y-11653210D02*
X13043690Y-11823390D01*
X13043690Y-11653210D02*
X12873510Y-11823390D01*
X13889510Y-5653210D02*
X14059690Y-5823390D01*
X14059690Y-5653210D02*
X13889510Y-5823390D01*
X13889510Y-7653210D02*
X14059690Y-7823390D01*
X14059690Y-7653210D02*
X13889510Y-7823390D01*
X13889510Y-9653210D02*
X14059690Y-9823390D01*
X14059690Y-9653210D02*
X13889510Y-9823390D01*
X13889510Y-11653210D02*
X14059690Y-11823390D01*
X14059690Y-11653210D02*
X13889510Y-11823390D01*
X15206910Y-5653210D02*
X15377090Y-5823390D01*
X15377090Y-5653210D02*
X15206910Y-5823390D01*
X15206910Y-7653210D02*
X15377090Y-7823390D01*
X15377090Y-7653210D02*
X15206910Y-7823390D01*
X15206910Y-9653210D02*
X15377090Y-9823390D01*
X15377090Y-9653210D02*
X15206910Y-9823390D01*
X15206910Y-11653210D02*
X15377090Y-11823390D01*
X15377090Y-11653210D02*
X15206910Y-11823390D01*
X16222910Y-5653210D02*
X16393090Y-5823390D01*
X16393090Y-5653210D02*
X16222910Y-5823390D01*
X16222910Y-7653210D02*
X16393090Y-7823390D01*
X16393090Y-7653210D02*
X16222910Y-7823390D01*
X16222910Y-9653210D02*
X16393090Y-9823390D01*
X16393090Y-9653210D02*
X16222910Y-9823390D01*
X16222910Y-11653210D02*
X16393090Y-11823390D01*
X16393090Y-11653210D02*
X16222910Y-11823390D01*
X17186910Y-5653210D02*
X17357090Y-5823390D01*
X17357090Y-5653210D02*
X17186910Y-5823390D01*
X17206910Y-7653210D02*
X17377090Y-7823390D01*
X17377090Y-7653210D02*
X17206910Y-7823390D01*
X17206910Y-9653210D02*
X17377090Y-9823390D01*
X17377090Y-9653210D02*
X17206910Y-9823390D01*
X17206910Y-11653210D02*
X17377090Y-11823390D01*
X17377090Y-11653210D02*
X17206910Y-11823390D01*
X18202910Y-5653210D02*
X18373090Y-5823390D01*
X18373090Y-5653210D02*
X18202910Y-5823390D01*
X18222910Y-7653210D02*
X18393090Y-7823390D01*
X18393090Y-7653210D02*
X18222910Y-7823390D01*
X18222910Y-9653210D02*
X18393090Y-9823390D01*
X18393090Y-9653210D02*
X18222910Y-9823390D01*
X18222910Y-11653210D02*
X18393090Y-11823390D01*
X18393090Y-11653210D02*
X18222910Y-11823390D01*
X19206910Y-5653210D02*
X19377090Y-5823390D01*
X19377090Y-5653210D02*
X19206910Y-5823390D01*
X19206910Y-7653210D02*
X19377090Y-7823390D01*
X19377090Y-7653210D02*
X19206910Y-7823390D01*
X19206910Y-9653210D02*
X19377090Y-9823390D01*
X19377090Y-9653210D02*
X19206910Y-9823390D01*
X19206910Y-11653210D02*
X19377090Y-11823390D01*
X19377090Y-11653210D02*
X19206910Y-11823390D01*
X20222910Y-5653210D02*
X20393090Y-5823390D01*
X20393090Y-5653210D02*
X20222910Y-5823390D01*
X20222910Y-7653210D02*
X20393090Y-7823390D01*
X20393090Y-7653210D02*
X20222910Y-7823390D01*
X20222910Y-9653210D02*
X20393090Y-9823390D01*
X20393090Y-9653210D02*
X20222910Y-9823390D01*
X20222910Y-11653210D02*
X20393090Y-11823390D01*
X20393090Y-11653210D02*
X20222910Y-11823390D01*
X21206910Y-5653210D02*
X21377090Y-5823390D01*
X21377090Y-5653210D02*
X21206910Y-5823390D01*
X21206910Y-7653210D02*
X21377090Y-7823390D01*
X21377090Y-7653210D02*
X21206910Y-7823390D01*
X21206910Y-9653210D02*
X21377090Y-9823390D01*
X21377090Y-9653210D02*
X21206910Y-9823390D01*
X21206910Y-11653210D02*
X21377090Y-11823390D01*
X21377090Y-11653210D02*
X21206910Y-11823390D01*
X22222910Y-5653210D02*
X22393090Y-5823390D01*
X22393090Y-5653210D02*
X22222910Y-5823390D01*
X22222910Y-7653210D02*
X22393090Y-7823390D01*
X22393090Y-7653210D02*
X22222910Y-7823390D01*
X22222910Y-9653210D02*
X22393090Y-9823390D01*
X22393090Y-9653210D02*
X22222910Y-9823390D01*
X22222910Y-11653210D02*
X22393090Y-11823390D01*
X22393090Y-11653210D02*
X22222910Y-11823390D01*
D12*
X2696000Y-4027100D02*
G75*
G02*
X2396000Y-4027100I-150000J0D01*
G01*
X2396000Y-4027100D02*
G75*
G02*
X2696000Y-4027100I150000J0D01*
G01*
X2696000Y-6246300D02*
G75*
G02*
X2396000Y-6246300I-150000J0D01*
G01*
X2396000Y-6246300D02*
G75*
G02*
X2696000Y-6246300I150000J0D01*
G01*
X2696000Y-8246300D02*
G75*
G02*
X2396000Y-8246300I-150000J0D01*
G01*
X2396000Y-8246300D02*
G75*
G02*
X2696000Y-8246300I150000J0D01*
G01*
X2696000Y-10246300D02*
G75*
G02*
X2396000Y-10246300I-150000J0D01*
G01*
X2396000Y-10246300D02*
G75*
G02*
X2696000Y-10246300I150000J0D01*
G01*
X2696000Y-12246300D02*
G75*
G02*
X2396000Y-12246300I-150000J0D01*
G01*
X2396000Y-12246300D02*
G75*
G02*
X2696000Y-12246300I150000J0D01*
G01*
X3331000Y-3773100D02*
G75*
G02*
X3031000Y-3773100I-150000J0D01*
G01*
X3031000Y-3773100D02*
G75*
G02*
X3331000Y-3773100I150000J0D01*
G01*
X3331000Y-5992300D02*
G75*
G02*
X3031000Y-5992300I-150000J0D01*
G01*
X3031000Y-5992300D02*
G75*
G02*
X3331000Y-5992300I150000J0D01*
G01*
X3331000Y-7992300D02*
G75*
G02*
X3031000Y-7992300I-150000J0D01*
G01*
X3031000Y-7992300D02*
G75*
G02*
X3331000Y-7992300I150000J0D01*
G01*
X3331000Y-9992300D02*
G75*
G02*
X3031000Y-9992300I-150000J0D01*
G01*
X3031000Y-9992300D02*
G75*
G02*
X3331000Y-9992300I150000J0D01*
G01*
X3331000Y-11992300D02*
G75*
G02*
X3031000Y-11992300I-150000J0D01*
G01*
X3031000Y-11992300D02*
G75*
G02*
X3331000Y-11992300I150000J0D01*
G01*
X4696000Y-6246300D02*
G75*
G02*
X4396000Y-6246300I-150000J0D01*
G01*
X4396000Y-6246300D02*
G75*
G02*
X4696000Y-6246300I150000J0D01*
G01*
X4696000Y-8246300D02*
G75*
G02*
X4396000Y-8246300I-150000J0D01*
G01*
X4396000Y-8246300D02*
G75*
G02*
X4696000Y-8246300I150000J0D01*
G01*
X4696000Y-10246300D02*
G75*
G02*
X4396000Y-10246300I-150000J0D01*
G01*
X4396000Y-10246300D02*
G75*
G02*
X4696000Y-10246300I150000J0D01*
G01*
X4696000Y-12246300D02*
G75*
G02*
X4396000Y-12246300I-150000J0D01*
G01*
X4396000Y-12246300D02*
G75*
G02*
X4696000Y-12246300I150000J0D01*
G01*
X5331000Y-5992300D02*
G75*
G02*
X5031000Y-5992300I-150000J0D01*
G01*
X5031000Y-5992300D02*
G75*
G02*
X5331000Y-5992300I150000J0D01*
G01*
X5331000Y-7992300D02*
G75*
G02*
X5031000Y-7992300I-150000J0D01*
G01*
X5031000Y-7992300D02*
G75*
G02*
X5331000Y-7992300I150000J0D01*
G01*
X5331000Y-9992300D02*
G75*
G02*
X5031000Y-9992300I-150000J0D01*
G01*
X5031000Y-9992300D02*
G75*
G02*
X5331000Y-9992300I150000J0D01*
G01*
X5331000Y-11992300D02*
G75*
G02*
X5031000Y-11992300I-150000J0D01*
G01*
X5031000Y-11992300D02*
G75*
G02*
X5331000Y-11992300I150000J0D01*
G01*
X7029300Y-6246300D02*
G75*
G02*
X6729300Y-6246300I-150000J0D01*
G01*
X6729300Y-6246300D02*
G75*
G02*
X7029300Y-6246300I150000J0D01*
G01*
X7029300Y-8246300D02*
G75*
G02*
X6729300Y-8246300I-150000J0D01*
G01*
X6729300Y-8246300D02*
G75*
G02*
X7029300Y-8246300I150000J0D01*
G01*
X7029300Y-10246300D02*
G75*
G02*
X6729300Y-10246300I-150000J0D01*
G01*
X6729300Y-10246300D02*
G75*
G02*
X7029300Y-10246300I150000J0D01*
G01*
X7029300Y-12246300D02*
G75*
G02*
X6729300Y-12246300I-150000J0D01*
G01*
X6729300Y-12246300D02*
G75*
G02*
X7029300Y-12246300I150000J0D01*
G01*
X7664300Y-5992300D02*
G75*
G02*
X7364300Y-5992300I-150000J0D01*
G01*
X7364300Y-5992300D02*
G75*
G02*
X7664300Y-5992300I150000J0D01*
G01*
X7664300Y-7992300D02*
G75*
G02*
X7364300Y-7992300I-150000J0D01*
G01*
X7364300Y-7992300D02*
G75*
G02*
X7664300Y-7992300I150000J0D01*
G01*
X7664300Y-9992300D02*
G75*
G02*
X7364300Y-9992300I-150000J0D01*
G01*
X7364300Y-9992300D02*
G75*
G02*
X7664300Y-9992300I150000J0D01*
G01*
X7664300Y-11992300D02*
G75*
G02*
X7364300Y-11992300I-150000J0D01*
G01*
X7364300Y-11992300D02*
G75*
G02*
X7664300Y-11992300I150000J0D01*
G01*
X9029300Y-6246300D02*
G75*
G02*
X8729300Y-6246300I-150000J0D01*
G01*
X8729300Y-6246300D02*
G75*
G02*
X9029300Y-6246300I150000J0D01*
G01*
X9029300Y-8246300D02*
G75*
G02*
X8729300Y-8246300I-150000J0D01*
G01*
X8729300Y-8246300D02*
G75*
G02*
X9029300Y-8246300I150000J0D01*
G01*
X9029300Y-10246300D02*
G75*
G02*
X8729300Y-10246300I-150000J0D01*
G01*
X8729300Y-10246300D02*
G75*
G02*
X9029300Y-10246300I150000J0D01*
G01*
X9029300Y-12246300D02*
G75*
G02*
X8729300Y-12246300I-150000J0D01*
G01*
X8729300Y-12246300D02*
G75*
G02*
X9029300Y-12246300I150000J0D01*
G01*
X9664300Y-5992300D02*
G75*
G02*
X9364300Y-5992300I-150000J0D01*
G01*
X9364300Y-5992300D02*
G75*
G02*
X9664300Y-5992300I150000J0D01*
G01*
X9664300Y-7992300D02*
G75*
G02*
X9364300Y-7992300I-150000J0D01*
G01*
X9364300Y-7992300D02*
G75*
G02*
X9664300Y-7992300I150000J0D01*
G01*
X9664300Y-9992300D02*
G75*
G02*
X9364300Y-9992300I-150000J0D01*
G01*
X9364300Y-9992300D02*
G75*
G02*
X9664300Y-9992300I150000J0D01*
G01*
X9664300Y-11992300D02*
G75*
G02*
X9364300Y-11992300I-150000J0D01*
G01*
X9364300Y-11992300D02*
G75*
G02*
X9664300Y-11992300I150000J0D01*
G01*
X11362600Y-6246300D02*
G75*
G02*
X11062600Y-6246300I-150000J0D01*
G01*
X11062600Y-6246300D02*
G75*
G02*
X11362600Y-6246300I150000J0D01*
G01*
X11362600Y-8246300D02*
G75*
G02*
X11062600Y-8246300I-150000J0D01*
G01*
X11062600Y-8246300D02*
G75*
G02*
X11362600Y-8246300I150000J0D01*
G01*
X11362600Y-10246300D02*
G75*
G02*
X11062600Y-10246300I-150000J0D01*
G01*
X11062600Y-10246300D02*
G75*
G02*
X11362600Y-10246300I150000J0D01*
G01*
X11362600Y-12246300D02*
G75*
G02*
X11062600Y-12246300I-150000J0D01*
G01*
X11062600Y-12246300D02*
G75*
G02*
X11362600Y-12246300I150000J0D01*
G01*
X11997600Y-5992300D02*
G75*
G02*
X11697600Y-5992300I-150000J0D01*
G01*
X11697600Y-5992300D02*
G75*
G02*
X11997600Y-5992300I150000J0D01*
G01*
X11997600Y-7992300D02*
G75*
G02*
X11697600Y-7992300I-150000J0D01*
G01*
X11697600Y-7992300D02*
G75*
G02*
X11997600Y-7992300I150000J0D01*
G01*
X11997600Y-9992300D02*
G75*
G02*
X11697600Y-9992300I-150000J0D01*
G01*
X11697600Y-9992300D02*
G75*
G02*
X11997600Y-9992300I150000J0D01*
G01*
X11997600Y-11992300D02*
G75*
G02*
X11697600Y-11992300I-150000J0D01*
G01*
X11697600Y-11992300D02*
G75*
G02*
X11997600Y-11992300I150000J0D01*
G01*
X13362600Y-6246300D02*
G75*
G02*
X13062600Y-6246300I-150000J0D01*
G01*
X13062600Y-6246300D02*
G75*
G02*
X13362600Y-6246300I150000J0D01*
G01*
X13362600Y-8246300D02*
G75*
G02*
X13062600Y-8246300I-150000J0D01*
G01*
X13062600Y-8246300D02*
G75*
G02*
X13362600Y-8246300I150000J0D01*
G01*
X13362600Y-10246300D02*
G75*
G02*
X13062600Y-10246300I-150000J0D01*
G01*
X13062600Y-10246300D02*
G75*
G02*
X13362600Y-10246300I150000J0D01*
G01*
X13362600Y-12246300D02*
G75*
G02*
X13062600Y-12246300I-150000J0D01*
G01*
X13062600Y-12246300D02*
G75*
G02*
X13362600Y-12246300I150000J0D01*
G01*
X13997600Y-5992300D02*
G75*
G02*
X13697600Y-5992300I-150000J0D01*
G01*
X13697600Y-5992300D02*
G75*
G02*
X13997600Y-5992300I150000J0D01*
G01*
X13997600Y-7992300D02*
G75*
G02*
X13697600Y-7992300I-150000J0D01*
G01*
X13697600Y-7992300D02*
G75*
G02*
X13997600Y-7992300I150000J0D01*
G01*
X13997600Y-9992300D02*
G75*
G02*
X13697600Y-9992300I-150000J0D01*
G01*
X13697600Y-9992300D02*
G75*
G02*
X13997600Y-9992300I150000J0D01*
G01*
X13997600Y-11992300D02*
G75*
G02*
X13697600Y-11992300I-150000J0D01*
G01*
X13697600Y-11992300D02*
G75*
G02*
X13997600Y-11992300I150000J0D01*
G01*
X15696000Y-6246300D02*
G75*
G02*
X15396000Y-6246300I-150000J0D01*
G01*
X15396000Y-6246300D02*
G75*
G02*
X15696000Y-6246300I150000J0D01*
G01*
X15696000Y-8246300D02*
G75*
G02*
X15396000Y-8246300I-150000J0D01*
G01*
X15396000Y-8246300D02*
G75*
G02*
X15696000Y-8246300I150000J0D01*
G01*
X15696000Y-10246300D02*
G75*
G02*
X15396000Y-10246300I-150000J0D01*
G01*
X15396000Y-10246300D02*
G75*
G02*
X15696000Y-10246300I150000J0D01*
G01*
X15696000Y-12246300D02*
G75*
G02*
X15396000Y-12246300I-150000J0D01*
G01*
X15396000Y-12246300D02*
G75*
G02*
X15696000Y-12246300I150000J0D01*
G01*
X16331000Y-5992300D02*
G75*
G02*
X16031000Y-5992300I-150000J0D01*
G01*
X16031000Y-5992300D02*
G75*
G02*
X16331000Y-5992300I150000J0D01*
G01*
X16331000Y-7992300D02*
G75*
G02*
X16031000Y-7992300I-150000J0D01*
G01*
X16031000Y-7992300D02*
G75*
G02*
X16331000Y-7992300I150000J0D01*
G01*
X16331000Y-9992300D02*
G75*
G02*
X16031000Y-9992300I-150000J0D01*
G01*
X16031000Y-9992300D02*
G75*
G02*
X16331000Y-9992300I150000J0D01*
G01*
X16331000Y-11992300D02*
G75*
G02*
X16031000Y-11992300I-150000J0D01*
G01*
X16031000Y-11992300D02*
G75*
G02*
X16331000Y-11992300I150000J0D01*
G01*
X17676000Y-6246300D02*
G75*
G02*
X17376000Y-6246300I-150000J0D01*
G01*
X17376000Y-6246300D02*
G75*
G02*
X17676000Y-6246300I150000J0D01*
G01*
X17696000Y-8246300D02*
G75*
G02*
X17396000Y-8246300I-150000J0D01*
G01*
X17396000Y-8246300D02*
G75*
G02*
X17696000Y-8246300I150000J0D01*
G01*
X17696000Y-10246300D02*
G75*
G02*
X17396000Y-10246300I-150000J0D01*
G01*
X17396000Y-10246300D02*
G75*
G02*
X17696000Y-10246300I150000J0D01*
G01*
X17696000Y-12246300D02*
G75*
G02*
X17396000Y-12246300I-150000J0D01*
G01*
X17396000Y-12246300D02*
G75*
G02*
X17696000Y-12246300I150000J0D01*
G01*
X18311000Y-5992300D02*
G75*
G02*
X18011000Y-5992300I-150000J0D01*
G01*
X18011000Y-5992300D02*
G75*
G02*
X18311000Y-5992300I150000J0D01*
G01*
X18331000Y-7992300D02*
G75*
G02*
X18031000Y-7992300I-150000J0D01*
G01*
X18031000Y-7992300D02*
G75*
G02*
X18331000Y-7992300I150000J0D01*
G01*
X18331000Y-9992300D02*
G75*
G02*
X18031000Y-9992300I-150000J0D01*
G01*
X18031000Y-9992300D02*
G75*
G02*
X18331000Y-9992300I150000J0D01*
G01*
X18331000Y-11992300D02*
G75*
G02*
X18031000Y-11992300I-150000J0D01*
G01*
X18031000Y-11992300D02*
G75*
G02*
X18331000Y-11992300I150000J0D01*
G01*
X19696000Y-6246300D02*
G75*
G02*
X19396000Y-6246300I-150000J0D01*
G01*
X19396000Y-6246300D02*
G75*
G02*
X19696000Y-6246300I150000J0D01*
G01*
X19696000Y-8246300D02*
G75*
G02*
X19396000Y-8246300I-150000J0D01*
G01*
X19396000Y-8246300D02*
G75*
G02*
X19696000Y-8246300I150000J0D01*
G01*
X19696000Y-10246300D02*
G75*
G02*
X19396000Y-10246300I-150000J0D01*
G01*
X19396000Y-10246300D02*
G75*
G02*
X19696000Y-10246300I150000J0D01*
G01*
X19696000Y-12246300D02*
G75*
G02*
X19396000Y-12246300I-150000J0D01*
G01*
X19396000Y-12246300D02*
G75*
G02*
X19696000Y-12246300I150000J0D01*
G01*
X20331000Y-5992300D02*
G75*
G02*
X20031000Y-5992300I-150000J0D01*
G01*
X20031000Y-5992300D02*
G75*
G02*
X20331000Y-5992300I150000J0D01*
G01*
X20331000Y-7992300D02*
G75*
G02*
X20031000Y-7992300I-150000J0D01*
G01*
X20031000Y-7992300D02*
G75*
G02*
X20331000Y-7992300I150000J0D01*
G01*
X20331000Y-9992300D02*
G75*
G02*
X20031000Y-9992300I-150000J0D01*
G01*
X20031000Y-9992300D02*
G75*
G02*
X20331000Y-9992300I150000J0D01*
G01*
X20331000Y-11992300D02*
G75*
G02*
X20031000Y-11992300I-150000J0D01*
G01*
X20031000Y-11992300D02*
G75*
G02*
X20331000Y-11992300I150000J0D01*
G01*
X21696000Y-6246300D02*
G75*
G02*
X21396000Y-6246300I-150000J0D01*
G01*
X21396000Y-6246300D02*
G75*
G02*
X21696000Y-6246300I150000J0D01*
G01*
X21696000Y-8246300D02*
G75*
G02*
X21396000Y-8246300I-150000J0D01*
G01*
X21396000Y-8246300D02*
G75*
G02*
X21696000Y-8246300I150000J0D01*
G01*
X21696000Y-10246300D02*
G75*
G02*
X21396000Y-10246300I-150000J0D01*
G01*
X21396000Y-10246300D02*
G75*
G02*
X21696000Y-10246300I150000J0D01*
G01*
X21696000Y-12246300D02*
G75*
G02*
X21396000Y-12246300I-150000J0D01*
G01*
X21396000Y-12246300D02*
G75*
G02*
X21696000Y-12246300I150000J0D01*
G01*
X22331000Y-5992300D02*
G75*
G02*
X22031000Y-5992300I-150000J0D01*
G01*
X22031000Y-5992300D02*
G75*
G02*
X22331000Y-5992300I150000J0D01*
G01*
X22331000Y-7992300D02*
G75*
G02*
X22031000Y-7992300I-150000J0D01*
G01*
X22031000Y-7992300D02*
G75*
G02*
X22331000Y-7992300I150000J0D01*
G01*
X22331000Y-9992300D02*
G75*
G02*
X22031000Y-9992300I-150000J0D01*
G01*
X22031000Y-9992300D02*
G75*
G02*
X22331000Y-9992300I150000J0D01*
G01*
X22331000Y-11992300D02*
G75*
G02*
X22031000Y-11992300I-150000J0D01*
G01*
X22031000Y-11992300D02*
G75*
G02*
X22331000Y-11992300I150000J0D01*
G01*
D13*
X2800000Y-3319710D02*
X2800000Y-3718490D01*
X2600610Y-3519100D02*
X2999390Y-3519100D01*
X2800000Y-5538910D02*
X2800000Y-5937690D01*
X2600610Y-5738300D02*
X2999390Y-5738300D01*
X2800000Y-7538910D02*
X2800000Y-7937690D01*
X2600610Y-7738300D02*
X2999390Y-7738300D01*
X2800000Y-9538910D02*
X2800000Y-9937690D01*
X2600610Y-9738300D02*
X2999390Y-9738300D01*
X2800000Y-11538910D02*
X2800000Y-11937690D01*
X2600610Y-11738300D02*
X2999390Y-11738300D01*
X4800000Y-5538910D02*
X4800000Y-5937690D01*
X4600610Y-5738300D02*
X4999390Y-5738300D01*
X4800000Y-7538910D02*
X4800000Y-7937690D01*
X4600610Y-7738300D02*
X4999390Y-7738300D01*
X4800000Y-9538910D02*
X4800000Y-9937690D01*
X4600610Y-9738300D02*
X4999390Y-9738300D01*
X4800000Y-11538910D02*
X4800000Y-11937690D01*
X4600610Y-11738300D02*
X4999390Y-11738300D01*
X7133300Y-5538910D02*
X7133300Y-5937690D01*
X6933910Y-5738300D02*
X7332690Y-5738300D01*
X7133300Y-7538910D02*
X7133300Y-7937690D01*
X6933910Y-7738300D02*
X7332690Y-7738300D01*
X7133300Y-9538910D02*
X7133300Y-9937690D01*
X6933910Y-9738300D02*
X7332690Y-9738300D01*
X7133300Y-11538910D02*
X7133300Y-11937690D01*
X6933910Y-11738300D02*
X7332690Y-11738300D01*
X9133300Y-5538910D02*
X9133300Y-5937690D01*
X8933910Y-5738300D02*
X9332690Y-5738300D01*
X9133300Y-7538910D02*
X9133300Y-7937690D01*
X8933910Y-7738300D02*
X9332690Y-7738300D01*
X9133300Y-9538910D02*
X9133300Y-9937690D01*
X8933910Y-9738300D02*
X9332690Y-9738300D01*
X9133300Y-11538910D02*
X9133300Y-11937690D01*
X8933910Y-11738300D02*
X9332690Y-11738300D01*
X11466600Y-5538910D02*
X11466600Y-5937690D01*
X11267210Y-5738300D02*
X11665990Y-5738300D01*
X11466600Y-7538910D02*
X11466600Y-7937690D01*
X11267210Y-7738300D02*
X11665990Y-7738300D01*
X11466600Y-9538910D02*
X11466600Y-9937690D01*
X11267210Y-9738300D02*
X11665990Y-9738300D01*
X11466600Y-11538910D02*
X11466600Y-11937690D01*
X11267210Y-11738300D02*
X11665990Y-11738300D01*
X13466600Y-5538910D02*
X13466600Y-5937690D01*
X13267210Y-5738300D02*
X13665990Y-5738300D01*
X13466600Y-7538910D02*
X13466600Y-7937690D01*
X13267210Y-7738300D02*
X13665990Y-7738300D01*
X13466600Y-9538910D02*
X13466600Y-9937690D01*
X13267210Y-9738300D02*
X13665990Y-9738300D01*
X13466600Y-11538910D02*
X13466600Y-11937690D01*
X13267210Y-11738300D02*
X13665990Y-11738300D01*
X15800000Y-5538910D02*
X15800000Y-5937690D01*
X15600610Y-5738300D02*
X15999390Y-5738300D01*
X15800000Y-7538910D02*
X15800000Y-7937690D01*
X15600610Y-7738300D02*
X15999390Y-7738300D01*
X15800000Y-9538910D02*
X15800000Y-9937690D01*
X15600610Y-9738300D02*
X15999390Y-9738300D01*
X15800000Y-11538910D02*
X15800000Y-11937690D01*
X15600610Y-11738300D02*
X15999390Y-11738300D01*
X17780000Y-5538910D02*
X17780000Y-5937690D01*
X17580610Y-5738300D02*
X17979390Y-5738300D01*
X17800000Y-7538910D02*
X17800000Y-7937690D01*
X17600610Y-7738300D02*
X17999390Y-7738300D01*
X17800000Y-9538910D02*
X17800000Y-9937690D01*
X17600610Y-9738300D02*
X17999390Y-9738300D01*
X17800000Y-11538910D02*
X17800000Y-11937690D01*
X17600610Y-11738300D02*
X17999390Y-11738300D01*
X19800000Y-5538910D02*
X19800000Y-5937690D01*
X19600610Y-5738300D02*
X19999390Y-5738300D01*
X19800000Y-7538910D02*
X19800000Y-7937690D01*
X19600610Y-7738300D02*
X19999390Y-7738300D01*
X19800000Y-9538910D02*
X19800000Y-9937690D01*
X19600610Y-9738300D02*
X19999390Y-9738300D01*
X19800000Y-11538910D02*
X19800000Y-11937690D01*
X19600610Y-11738300D02*
X19999390Y-11738300D01*
X21800000Y-5538910D02*
X21800000Y-5937690D01*
X21600610Y-5738300D02*
X21999390Y-5738300D01*
X21800000Y-7538910D02*
X21800000Y-7937690D01*
X21600610Y-7738300D02*
X21999390Y-7738300D01*
X21800000Y-9538910D02*
X21800000Y-9937690D01*
X21600610Y-9738300D02*
X21999390Y-9738300D01*
X21800000Y-11538910D02*
X21800000Y-11937690D01*
X21600610Y-11738300D02*
X21999390Y-11738300D01*
D10*
X2050777Y-14221484D02*
X2050777Y-14021484D01*
X2050777Y-14021484D02*
X2098396Y-14021484D01*
X2098396Y-14021484D02*
X2126967Y-14031008D01*
X2126967Y-14031008D02*
X2146015Y-14050055D01*
X2146015Y-14050055D02*
X2155539Y-14069103D01*
X2155539Y-14069103D02*
X2165063Y-14107198D01*
X2165063Y-14107198D02*
X2165063Y-14135769D01*
X2165063Y-14135769D02*
X2155539Y-14173865D01*
X2155539Y-14173865D02*
X2146015Y-14192912D01*
X2146015Y-14192912D02*
X2126967Y-14211960D01*
X2126967Y-14211960D02*
X2098396Y-14221484D01*
X2098396Y-14221484D02*
X2050777Y-14221484D01*
X2250777Y-14221484D02*
X2250777Y-14088150D01*
X2250777Y-14126246D02*
X2260301Y-14107198D01*
X2260301Y-14107198D02*
X2269824Y-14097674D01*
X2269824Y-14097674D02*
X2288872Y-14088150D01*
X2288872Y-14088150D02*
X2307920Y-14088150D01*
X2374586Y-14221484D02*
X2374586Y-14088150D01*
X2374586Y-14021484D02*
X2365063Y-14031008D01*
X2365063Y-14031008D02*
X2374586Y-14040531D01*
X2374586Y-14040531D02*
X2384110Y-14031008D01*
X2384110Y-14031008D02*
X2374586Y-14021484D01*
X2374586Y-14021484D02*
X2374586Y-14040531D01*
X2498396Y-14221484D02*
X2479348Y-14211960D01*
X2479348Y-14211960D02*
X2469824Y-14192912D01*
X2469824Y-14192912D02*
X2469824Y-14021484D01*
X2603158Y-14221484D02*
X2584110Y-14211960D01*
X2584110Y-14211960D02*
X2574586Y-14192912D01*
X2574586Y-14192912D02*
X2574586Y-14021484D01*
X2831729Y-14221484D02*
X2831729Y-14021484D01*
X2831729Y-14021484D02*
X2898396Y-14164341D01*
X2898396Y-14164341D02*
X2965062Y-14021484D01*
X2965062Y-14021484D02*
X2965062Y-14221484D01*
X3146015Y-14221484D02*
X3146015Y-14116722D01*
X3146015Y-14116722D02*
X3136491Y-14097674D01*
X3136491Y-14097674D02*
X3117443Y-14088150D01*
X3117443Y-14088150D02*
X3079348Y-14088150D01*
X3079348Y-14088150D02*
X3060301Y-14097674D01*
X3146015Y-14211960D02*
X3126967Y-14221484D01*
X3126967Y-14221484D02*
X3079348Y-14221484D01*
X3079348Y-14221484D02*
X3060301Y-14211960D01*
X3060301Y-14211960D02*
X3050777Y-14192912D01*
X3050777Y-14192912D02*
X3050777Y-14173865D01*
X3050777Y-14173865D02*
X3060301Y-14154817D01*
X3060301Y-14154817D02*
X3079348Y-14145293D01*
X3079348Y-14145293D02*
X3126967Y-14145293D01*
X3126967Y-14145293D02*
X3146015Y-14135769D01*
X3241253Y-14088150D02*
X3241253Y-14288150D01*
X3241253Y-14097674D02*
X3260301Y-14088150D01*
X3260301Y-14088150D02*
X3298396Y-14088150D01*
X3298396Y-14088150D02*
X3317443Y-14097674D01*
X3317443Y-14097674D02*
X3326967Y-14107198D01*
X3326967Y-14107198D02*
X3336491Y-14126246D01*
X3336491Y-14126246D02*
X3336491Y-14183388D01*
X3336491Y-14183388D02*
X3326967Y-14202436D01*
X3326967Y-14202436D02*
X3317443Y-14211960D01*
X3317443Y-14211960D02*
X3298396Y-14221484D01*
X3298396Y-14221484D02*
X3260301Y-14221484D01*
X3260301Y-14221484D02*
X3241253Y-14211960D01*
X3422205Y-14202436D02*
X3431729Y-14211960D01*
X3431729Y-14211960D02*
X3422205Y-14221484D01*
X3422205Y-14221484D02*
X3412682Y-14211960D01*
X3412682Y-14211960D02*
X3422205Y-14202436D01*
X3422205Y-14202436D02*
X3422205Y-14221484D01*
X3422205Y-14097674D02*
X3431729Y-14107198D01*
X3431729Y-14107198D02*
X3422205Y-14116722D01*
X3422205Y-14116722D02*
X3412682Y-14107198D01*
X3412682Y-14107198D02*
X3422205Y-14097674D01*
X3422205Y-14097674D02*
X3422205Y-14116722D01*
D11*
X1619820Y-14464910D02*
X1790000Y-14635090D01*
X1790000Y-14464910D02*
X1619820Y-14635090D01*
D10*
X2155539Y-14641484D02*
X2041253Y-14641484D01*
X2098396Y-14641484D02*
X2098396Y-14441484D01*
X2098396Y-14441484D02*
X2079348Y-14470055D01*
X2079348Y-14470055D02*
X2060301Y-14489103D01*
X2060301Y-14489103D02*
X2041253Y-14498627D01*
X2241253Y-14622436D02*
X2250777Y-14631960D01*
X2250777Y-14631960D02*
X2241253Y-14641484D01*
X2241253Y-14641484D02*
X2231729Y-14631960D01*
X2231729Y-14631960D02*
X2241253Y-14622436D01*
X2241253Y-14622436D02*
X2241253Y-14641484D01*
X2317444Y-14441484D02*
X2450777Y-14441484D01*
X2450777Y-14441484D02*
X2365063Y-14641484D01*
X2565063Y-14441484D02*
X2584110Y-14441484D01*
X2584110Y-14441484D02*
X2603158Y-14451008D01*
X2603158Y-14451008D02*
X2612682Y-14460531D01*
X2612682Y-14460531D02*
X2622205Y-14479579D01*
X2622205Y-14479579D02*
X2631729Y-14517674D01*
X2631729Y-14517674D02*
X2631729Y-14565293D01*
X2631729Y-14565293D02*
X2622205Y-14603388D01*
X2622205Y-14603388D02*
X2612682Y-14622436D01*
X2612682Y-14622436D02*
X2603158Y-14631960D01*
X2603158Y-14631960D02*
X2584110Y-14641484D01*
X2584110Y-14641484D02*
X2565063Y-14641484D01*
X2565063Y-14641484D02*
X2546015Y-14631960D01*
X2546015Y-14631960D02*
X2536491Y-14622436D01*
X2536491Y-14622436D02*
X2526967Y-14603388D01*
X2526967Y-14603388D02*
X2517444Y-14565293D01*
X2517444Y-14565293D02*
X2517444Y-14517674D01*
X2517444Y-14517674D02*
X2526967Y-14479579D01*
X2526967Y-14479579D02*
X2536491Y-14460531D01*
X2536491Y-14460531D02*
X2546015Y-14451008D01*
X2546015Y-14451008D02*
X2565063Y-14441484D01*
X2707920Y-14460531D02*
X2717444Y-14451008D01*
X2717444Y-14451008D02*
X2736491Y-14441484D01*
X2736491Y-14441484D02*
X2784110Y-14441484D01*
X2784110Y-14441484D02*
X2803158Y-14451008D01*
X2803158Y-14451008D02*
X2812682Y-14460531D01*
X2812682Y-14460531D02*
X2822205Y-14479579D01*
X2822205Y-14479579D02*
X2822205Y-14498627D01*
X2822205Y-14498627D02*
X2812682Y-14527198D01*
X2812682Y-14527198D02*
X2698396Y-14641484D01*
X2698396Y-14641484D02*
X2822205Y-14641484D01*
X2907920Y-14641484D02*
X2907920Y-14508150D01*
X2907920Y-14527198D02*
X2917443Y-14517674D01*
X2917443Y-14517674D02*
X2936491Y-14508150D01*
X2936491Y-14508150D02*
X2965063Y-14508150D01*
X2965063Y-14508150D02*
X2984110Y-14517674D01*
X2984110Y-14517674D02*
X2993634Y-14536722D01*
X2993634Y-14536722D02*
X2993634Y-14641484D01*
X2993634Y-14536722D02*
X3003158Y-14517674D01*
X3003158Y-14517674D02*
X3022205Y-14508150D01*
X3022205Y-14508150D02*
X3050777Y-14508150D01*
X3050777Y-14508150D02*
X3069824Y-14517674D01*
X3069824Y-14517674D02*
X3079348Y-14536722D01*
X3079348Y-14536722D02*
X3079348Y-14641484D01*
X3174586Y-14641484D02*
X3174586Y-14508150D01*
X3174586Y-14527198D02*
X3184110Y-14517674D01*
X3184110Y-14517674D02*
X3203158Y-14508150D01*
X3203158Y-14508150D02*
X3231729Y-14508150D01*
X3231729Y-14508150D02*
X3250777Y-14517674D01*
X3250777Y-14517674D02*
X3260301Y-14536722D01*
X3260301Y-14536722D02*
X3260301Y-14641484D01*
X3260301Y-14536722D02*
X3269824Y-14517674D01*
X3269824Y-14517674D02*
X3288872Y-14508150D01*
X3288872Y-14508150D02*
X3317443Y-14508150D01*
X3317443Y-14508150D02*
X3336491Y-14517674D01*
X3336491Y-14517674D02*
X3346015Y-14536722D01*
X3346015Y-14536722D02*
X3346015Y-14641484D01*
X3736491Y-14431960D02*
X3565063Y-14689103D01*
X3993634Y-14441484D02*
X4012682Y-14441484D01*
X4012682Y-14441484D02*
X4031729Y-14451008D01*
X4031729Y-14451008D02*
X4041253Y-14460531D01*
X4041253Y-14460531D02*
X4050777Y-14479579D01*
X4050777Y-14479579D02*
X4060301Y-14517674D01*
X4060301Y-14517674D02*
X4060301Y-14565293D01*
X4060301Y-14565293D02*
X4050777Y-14603388D01*
X4050777Y-14603388D02*
X4041253Y-14622436D01*
X4041253Y-14622436D02*
X4031729Y-14631960D01*
X4031729Y-14631960D02*
X4012682Y-14641484D01*
X4012682Y-14641484D02*
X3993634Y-14641484D01*
X3993634Y-14641484D02*
X3974586Y-14631960D01*
X3974586Y-14631960D02*
X3965063Y-14622436D01*
X3965063Y-14622436D02*
X3955539Y-14603388D01*
X3955539Y-14603388D02*
X3946015Y-14565293D01*
X3946015Y-14565293D02*
X3946015Y-14517674D01*
X3946015Y-14517674D02*
X3955539Y-14479579D01*
X3955539Y-14479579D02*
X3965063Y-14460531D01*
X3965063Y-14460531D02*
X3974586Y-14451008D01*
X3974586Y-14451008D02*
X3993634Y-14441484D01*
X4146015Y-14622436D02*
X4155539Y-14631960D01*
X4155539Y-14631960D02*
X4146015Y-14641484D01*
X4146015Y-14641484D02*
X4136491Y-14631960D01*
X4136491Y-14631960D02*
X4146015Y-14622436D01*
X4146015Y-14622436D02*
X4146015Y-14641484D01*
X4279348Y-14441484D02*
X4298396Y-14441484D01*
X4298396Y-14441484D02*
X4317444Y-14451008D01*
X4317444Y-14451008D02*
X4326968Y-14460531D01*
X4326968Y-14460531D02*
X4336491Y-14479579D01*
X4336491Y-14479579D02*
X4346015Y-14517674D01*
X4346015Y-14517674D02*
X4346015Y-14565293D01*
X4346015Y-14565293D02*
X4336491Y-14603388D01*
X4336491Y-14603388D02*
X4326968Y-14622436D01*
X4326968Y-14622436D02*
X4317444Y-14631960D01*
X4317444Y-14631960D02*
X4298396Y-14641484D01*
X4298396Y-14641484D02*
X4279348Y-14641484D01*
X4279348Y-14641484D02*
X4260301Y-14631960D01*
X4260301Y-14631960D02*
X4250777Y-14622436D01*
X4250777Y-14622436D02*
X4241253Y-14603388D01*
X4241253Y-14603388D02*
X4231729Y-14565293D01*
X4231729Y-14565293D02*
X4231729Y-14517674D01*
X4231729Y-14517674D02*
X4241253Y-14479579D01*
X4241253Y-14479579D02*
X4250777Y-14460531D01*
X4250777Y-14460531D02*
X4260301Y-14451008D01*
X4260301Y-14451008D02*
X4279348Y-14441484D01*
X4517444Y-14441484D02*
X4479348Y-14441484D01*
X4479348Y-14441484D02*
X4460301Y-14451008D01*
X4460301Y-14451008D02*
X4450777Y-14460531D01*
X4450777Y-14460531D02*
X4431729Y-14489103D01*
X4431729Y-14489103D02*
X4422206Y-14527198D01*
X4422206Y-14527198D02*
X4422206Y-14603388D01*
X4422206Y-14603388D02*
X4431729Y-14622436D01*
X4431729Y-14622436D02*
X4441253Y-14631960D01*
X4441253Y-14631960D02*
X4460301Y-14641484D01*
X4460301Y-14641484D02*
X4498396Y-14641484D01*
X4498396Y-14641484D02*
X4517444Y-14631960D01*
X4517444Y-14631960D02*
X4526968Y-14622436D01*
X4526968Y-14622436D02*
X4536491Y-14603388D01*
X4536491Y-14603388D02*
X4536491Y-14555769D01*
X4536491Y-14555769D02*
X4526968Y-14536722D01*
X4526968Y-14536722D02*
X4517444Y-14527198D01*
X4517444Y-14527198D02*
X4498396Y-14517674D01*
X4498396Y-14517674D02*
X4460301Y-14517674D01*
X4460301Y-14517674D02*
X4441253Y-14527198D01*
X4441253Y-14527198D02*
X4431729Y-14536722D01*
X4431729Y-14536722D02*
X4422206Y-14555769D01*
X4603158Y-14441484D02*
X4736491Y-14441484D01*
X4736491Y-14441484D02*
X4650777Y-14641484D01*
X4850777Y-14441484D02*
X4869825Y-14441484D01*
X4869825Y-14441484D02*
X4888872Y-14451008D01*
X4888872Y-14451008D02*
X4898396Y-14460531D01*
X4898396Y-14460531D02*
X4907920Y-14479579D01*
X4907920Y-14479579D02*
X4917444Y-14517674D01*
X4917444Y-14517674D02*
X4917444Y-14565293D01*
X4917444Y-14565293D02*
X4907920Y-14603388D01*
X4907920Y-14603388D02*
X4898396Y-14622436D01*
X4898396Y-14622436D02*
X4888872Y-14631960D01*
X4888872Y-14631960D02*
X4869825Y-14641484D01*
X4869825Y-14641484D02*
X4850777Y-14641484D01*
X4850777Y-14641484D02*
X4831729Y-14631960D01*
X4831729Y-14631960D02*
X4822206Y-14622436D01*
X4822206Y-14622436D02*
X4812682Y-14603388D01*
X4812682Y-14603388D02*
X4803158Y-14565293D01*
X4803158Y-14565293D02*
X4803158Y-14517674D01*
X4803158Y-14517674D02*
X4812682Y-14479579D01*
X4812682Y-14479579D02*
X4822206Y-14460531D01*
X4822206Y-14460531D02*
X4831729Y-14451008D01*
X4831729Y-14451008D02*
X4850777Y-14441484D01*
X4993634Y-14441484D02*
X4993634Y-14479579D01*
X5069825Y-14441484D02*
X5069825Y-14479579D01*
X5365063Y-14717674D02*
X5355539Y-14708150D01*
X5355539Y-14708150D02*
X5336491Y-14679579D01*
X5336491Y-14679579D02*
X5326968Y-14660531D01*
X5326968Y-14660531D02*
X5317444Y-14631960D01*
X5317444Y-14631960D02*
X5307920Y-14584341D01*
X5307920Y-14584341D02*
X5307920Y-14546246D01*
X5307920Y-14546246D02*
X5317444Y-14498627D01*
X5317444Y-14498627D02*
X5326968Y-14470055D01*
X5326968Y-14470055D02*
X5336491Y-14451008D01*
X5336491Y-14451008D02*
X5355539Y-14422436D01*
X5355539Y-14422436D02*
X5365063Y-14412912D01*
X5469825Y-14527198D02*
X5450777Y-14517674D01*
X5450777Y-14517674D02*
X5441253Y-14508150D01*
X5441253Y-14508150D02*
X5431730Y-14489103D01*
X5431730Y-14489103D02*
X5431730Y-14479579D01*
X5431730Y-14479579D02*
X5441253Y-14460531D01*
X5441253Y-14460531D02*
X5450777Y-14451008D01*
X5450777Y-14451008D02*
X5469825Y-14441484D01*
X5469825Y-14441484D02*
X5507920Y-14441484D01*
X5507920Y-14441484D02*
X5526968Y-14451008D01*
X5526968Y-14451008D02*
X5536491Y-14460531D01*
X5536491Y-14460531D02*
X5546015Y-14479579D01*
X5546015Y-14479579D02*
X5546015Y-14489103D01*
X5546015Y-14489103D02*
X5536491Y-14508150D01*
X5536491Y-14508150D02*
X5526968Y-14517674D01*
X5526968Y-14517674D02*
X5507920Y-14527198D01*
X5507920Y-14527198D02*
X5469825Y-14527198D01*
X5469825Y-14527198D02*
X5450777Y-14536722D01*
X5450777Y-14536722D02*
X5441253Y-14546246D01*
X5441253Y-14546246D02*
X5431730Y-14565293D01*
X5431730Y-14565293D02*
X5431730Y-14603388D01*
X5431730Y-14603388D02*
X5441253Y-14622436D01*
X5441253Y-14622436D02*
X5450777Y-14631960D01*
X5450777Y-14631960D02*
X5469825Y-14641484D01*
X5469825Y-14641484D02*
X5507920Y-14641484D01*
X5507920Y-14641484D02*
X5526968Y-14631960D01*
X5526968Y-14631960D02*
X5536491Y-14622436D01*
X5536491Y-14622436D02*
X5546015Y-14603388D01*
X5546015Y-14603388D02*
X5546015Y-14565293D01*
X5546015Y-14565293D02*
X5536491Y-14546246D01*
X5536491Y-14546246D02*
X5526968Y-14536722D01*
X5526968Y-14536722D02*
X5507920Y-14527198D01*
X5622206Y-14460531D02*
X5631729Y-14451008D01*
X5631729Y-14451008D02*
X5650777Y-14441484D01*
X5650777Y-14441484D02*
X5698396Y-14441484D01*
X5698396Y-14441484D02*
X5717444Y-14451008D01*
X5717444Y-14451008D02*
X5726968Y-14460531D01*
X5726968Y-14460531D02*
X5736491Y-14479579D01*
X5736491Y-14479579D02*
X5736491Y-14498627D01*
X5736491Y-14498627D02*
X5726968Y-14527198D01*
X5726968Y-14527198D02*
X5612682Y-14641484D01*
X5612682Y-14641484D02*
X5736491Y-14641484D01*
X5974587Y-14641484D02*
X5974587Y-14441484D01*
X6060301Y-14641484D02*
X6060301Y-14536722D01*
X6060301Y-14536722D02*
X6050777Y-14517674D01*
X6050777Y-14517674D02*
X6031730Y-14508150D01*
X6031730Y-14508150D02*
X6003158Y-14508150D01*
X6003158Y-14508150D02*
X5984110Y-14517674D01*
X5984110Y-14517674D02*
X5974587Y-14527198D01*
X6184110Y-14641484D02*
X6165063Y-14631960D01*
X6165063Y-14631960D02*
X6155539Y-14622436D01*
X6155539Y-14622436D02*
X6146015Y-14603388D01*
X6146015Y-14603388D02*
X6146015Y-14546246D01*
X6146015Y-14546246D02*
X6155539Y-14527198D01*
X6155539Y-14527198D02*
X6165063Y-14517674D01*
X6165063Y-14517674D02*
X6184110Y-14508150D01*
X6184110Y-14508150D02*
X6212682Y-14508150D01*
X6212682Y-14508150D02*
X6231730Y-14517674D01*
X6231730Y-14517674D02*
X6241253Y-14527198D01*
X6241253Y-14527198D02*
X6250777Y-14546246D01*
X6250777Y-14546246D02*
X6250777Y-14603388D01*
X6250777Y-14603388D02*
X6241253Y-14622436D01*
X6241253Y-14622436D02*
X6231730Y-14631960D01*
X6231730Y-14631960D02*
X6212682Y-14641484D01*
X6212682Y-14641484D02*
X6184110Y-14641484D01*
X6365063Y-14641484D02*
X6346015Y-14631960D01*
X6346015Y-14631960D02*
X6336491Y-14612912D01*
X6336491Y-14612912D02*
X6336491Y-14441484D01*
X6517444Y-14631960D02*
X6498396Y-14641484D01*
X6498396Y-14641484D02*
X6460301Y-14641484D01*
X6460301Y-14641484D02*
X6441253Y-14631960D01*
X6441253Y-14631960D02*
X6431730Y-14612912D01*
X6431730Y-14612912D02*
X6431730Y-14536722D01*
X6431730Y-14536722D02*
X6441253Y-14517674D01*
X6441253Y-14517674D02*
X6460301Y-14508150D01*
X6460301Y-14508150D02*
X6498396Y-14508150D01*
X6498396Y-14508150D02*
X6517444Y-14517674D01*
X6517444Y-14517674D02*
X6526968Y-14536722D01*
X6526968Y-14536722D02*
X6526968Y-14555769D01*
X6526968Y-14555769D02*
X6431730Y-14574817D01*
X6603158Y-14631960D02*
X6622206Y-14641484D01*
X6622206Y-14641484D02*
X6660301Y-14641484D01*
X6660301Y-14641484D02*
X6679349Y-14631960D01*
X6679349Y-14631960D02*
X6688872Y-14612912D01*
X6688872Y-14612912D02*
X6688872Y-14603388D01*
X6688872Y-14603388D02*
X6679349Y-14584341D01*
X6679349Y-14584341D02*
X6660301Y-14574817D01*
X6660301Y-14574817D02*
X6631730Y-14574817D01*
X6631730Y-14574817D02*
X6612682Y-14565293D01*
X6612682Y-14565293D02*
X6603158Y-14546246D01*
X6603158Y-14546246D02*
X6603158Y-14536722D01*
X6603158Y-14536722D02*
X6612682Y-14517674D01*
X6612682Y-14517674D02*
X6631730Y-14508150D01*
X6631730Y-14508150D02*
X6660301Y-14508150D01*
X6660301Y-14508150D02*
X6679349Y-14517674D01*
X6755539Y-14717674D02*
X6765063Y-14708150D01*
X6765063Y-14708150D02*
X6784111Y-14679579D01*
X6784111Y-14679579D02*
X6793634Y-14660531D01*
X6793634Y-14660531D02*
X6803158Y-14631960D01*
X6803158Y-14631960D02*
X6812682Y-14584341D01*
X6812682Y-14584341D02*
X6812682Y-14546246D01*
X6812682Y-14546246D02*
X6803158Y-14498627D01*
X6803158Y-14498627D02*
X6793634Y-14470055D01*
X6793634Y-14470055D02*
X6784111Y-14451008D01*
X6784111Y-14451008D02*
X6765063Y-14422436D01*
X6765063Y-14422436D02*
X6755539Y-14412912D01*
X7117444Y-14717674D02*
X7107920Y-14708150D01*
X7107920Y-14708150D02*
X7088872Y-14679579D01*
X7088872Y-14679579D02*
X7079349Y-14660531D01*
X7079349Y-14660531D02*
X7069825Y-14631960D01*
X7069825Y-14631960D02*
X7060301Y-14584341D01*
X7060301Y-14584341D02*
X7060301Y-14546246D01*
X7060301Y-14546246D02*
X7069825Y-14498627D01*
X7069825Y-14498627D02*
X7079349Y-14470055D01*
X7079349Y-14470055D02*
X7088872Y-14451008D01*
X7088872Y-14451008D02*
X7107920Y-14422436D01*
X7107920Y-14422436D02*
X7117444Y-14412912D01*
X7193634Y-14508150D02*
X7193634Y-14641484D01*
X7193634Y-14527198D02*
X7203158Y-14517674D01*
X7203158Y-14517674D02*
X7222206Y-14508150D01*
X7222206Y-14508150D02*
X7250777Y-14508150D01*
X7250777Y-14508150D02*
X7269825Y-14517674D01*
X7269825Y-14517674D02*
X7279349Y-14536722D01*
X7279349Y-14536722D02*
X7279349Y-14641484D01*
X7403158Y-14641484D02*
X7384111Y-14631960D01*
X7384111Y-14631960D02*
X7374587Y-14622436D01*
X7374587Y-14622436D02*
X7365063Y-14603388D01*
X7365063Y-14603388D02*
X7365063Y-14546246D01*
X7365063Y-14546246D02*
X7374587Y-14527198D01*
X7374587Y-14527198D02*
X7384111Y-14517674D01*
X7384111Y-14517674D02*
X7403158Y-14508150D01*
X7403158Y-14508150D02*
X7431730Y-14508150D01*
X7431730Y-14508150D02*
X7450777Y-14517674D01*
X7450777Y-14517674D02*
X7460301Y-14527198D01*
X7460301Y-14527198D02*
X7469825Y-14546246D01*
X7469825Y-14546246D02*
X7469825Y-14603388D01*
X7469825Y-14603388D02*
X7460301Y-14622436D01*
X7460301Y-14622436D02*
X7450777Y-14631960D01*
X7450777Y-14631960D02*
X7431730Y-14641484D01*
X7431730Y-14641484D02*
X7403158Y-14641484D01*
X7526968Y-14508150D02*
X7603158Y-14508150D01*
X7555539Y-14441484D02*
X7555539Y-14612912D01*
X7555539Y-14612912D02*
X7565063Y-14631960D01*
X7565063Y-14631960D02*
X7584111Y-14641484D01*
X7584111Y-14641484D02*
X7603158Y-14641484D01*
X7822206Y-14508150D02*
X7822206Y-14708150D01*
X7822206Y-14517674D02*
X7841253Y-14508150D01*
X7841253Y-14508150D02*
X7879349Y-14508150D01*
X7879349Y-14508150D02*
X7898396Y-14517674D01*
X7898396Y-14517674D02*
X7907920Y-14527198D01*
X7907920Y-14527198D02*
X7917444Y-14546246D01*
X7917444Y-14546246D02*
X7917444Y-14603388D01*
X7917444Y-14603388D02*
X7907920Y-14622436D01*
X7907920Y-14622436D02*
X7898396Y-14631960D01*
X7898396Y-14631960D02*
X7879349Y-14641484D01*
X7879349Y-14641484D02*
X7841253Y-14641484D01*
X7841253Y-14641484D02*
X7822206Y-14631960D01*
X8031730Y-14641484D02*
X8012682Y-14631960D01*
X8012682Y-14631960D02*
X8003158Y-14612912D01*
X8003158Y-14612912D02*
X8003158Y-14441484D01*
X8193634Y-14641484D02*
X8193634Y-14536722D01*
X8193634Y-14536722D02*
X8184111Y-14517674D01*
X8184111Y-14517674D02*
X8165063Y-14508150D01*
X8165063Y-14508150D02*
X8126968Y-14508150D01*
X8126968Y-14508150D02*
X8107920Y-14517674D01*
X8193634Y-14631960D02*
X8174587Y-14641484D01*
X8174587Y-14641484D02*
X8126968Y-14641484D01*
X8126968Y-14641484D02*
X8107920Y-14631960D01*
X8107920Y-14631960D02*
X8098396Y-14612912D01*
X8098396Y-14612912D02*
X8098396Y-14593865D01*
X8098396Y-14593865D02*
X8107920Y-14574817D01*
X8107920Y-14574817D02*
X8126968Y-14565293D01*
X8126968Y-14565293D02*
X8174587Y-14565293D01*
X8174587Y-14565293D02*
X8193634Y-14555769D01*
X8260301Y-14508150D02*
X8336492Y-14508150D01*
X8288873Y-14441484D02*
X8288873Y-14612912D01*
X8288873Y-14612912D02*
X8298396Y-14631960D01*
X8298396Y-14631960D02*
X8317444Y-14641484D01*
X8317444Y-14641484D02*
X8336492Y-14641484D01*
X8479349Y-14631960D02*
X8460301Y-14641484D01*
X8460301Y-14641484D02*
X8422206Y-14641484D01*
X8422206Y-14641484D02*
X8403158Y-14631960D01*
X8403158Y-14631960D02*
X8393635Y-14612912D01*
X8393635Y-14612912D02*
X8393635Y-14536722D01*
X8393635Y-14536722D02*
X8403158Y-14517674D01*
X8403158Y-14517674D02*
X8422206Y-14508150D01*
X8422206Y-14508150D02*
X8460301Y-14508150D01*
X8460301Y-14508150D02*
X8479349Y-14517674D01*
X8479349Y-14517674D02*
X8488873Y-14536722D01*
X8488873Y-14536722D02*
X8488873Y-14555769D01*
X8488873Y-14555769D02*
X8393635Y-14574817D01*
X8660301Y-14641484D02*
X8660301Y-14441484D01*
X8660301Y-14631960D02*
X8641254Y-14641484D01*
X8641254Y-14641484D02*
X8603158Y-14641484D01*
X8603158Y-14641484D02*
X8584111Y-14631960D01*
X8584111Y-14631960D02*
X8574587Y-14622436D01*
X8574587Y-14622436D02*
X8565063Y-14603388D01*
X8565063Y-14603388D02*
X8565063Y-14546246D01*
X8565063Y-14546246D02*
X8574587Y-14527198D01*
X8574587Y-14527198D02*
X8584111Y-14517674D01*
X8584111Y-14517674D02*
X8603158Y-14508150D01*
X8603158Y-14508150D02*
X8641254Y-14508150D01*
X8641254Y-14508150D02*
X8660301Y-14517674D01*
X8736492Y-14717674D02*
X8746016Y-14708150D01*
X8746016Y-14708150D02*
X8765063Y-14679579D01*
X8765063Y-14679579D02*
X8774587Y-14660531D01*
X8774587Y-14660531D02*
X8784111Y-14631960D01*
X8784111Y-14631960D02*
X8793635Y-14584341D01*
X8793635Y-14584341D02*
X8793635Y-14546246D01*
X8793635Y-14546246D02*
X8784111Y-14498627D01*
X8784111Y-14498627D02*
X8774587Y-14470055D01*
X8774587Y-14470055D02*
X8765063Y-14451008D01*
X8765063Y-14451008D02*
X8746016Y-14422436D01*
X8746016Y-14422436D02*
X8736492Y-14412912D01*
X1790000Y-14840180D02*
G75*
G02*
X1590000Y-14840180I-100000J0D01*
G01*
X1590000Y-14840180D02*
G75*
G02*
X1790000Y-14840180I100000J0D01*
G01*
X2031729Y-14731664D02*
X2155539Y-14731664D01*
X2155539Y-14731664D02*
X2088872Y-14807854D01*
X2088872Y-14807854D02*
X2117444Y-14807854D01*
X2117444Y-14807854D02*
X2136491Y-14817378D01*
X2136491Y-14817378D02*
X2146015Y-14826902D01*
X2146015Y-14826902D02*
X2155539Y-14845949D01*
X2155539Y-14845949D02*
X2155539Y-14893568D01*
X2155539Y-14893568D02*
X2146015Y-14912616D01*
X2146015Y-14912616D02*
X2136491Y-14922140D01*
X2136491Y-14922140D02*
X2117444Y-14931664D01*
X2117444Y-14931664D02*
X2060301Y-14931664D01*
X2060301Y-14931664D02*
X2041253Y-14922140D01*
X2041253Y-14922140D02*
X2031729Y-14912616D01*
X2241253Y-14912616D02*
X2250777Y-14922140D01*
X2250777Y-14922140D02*
X2241253Y-14931664D01*
X2241253Y-14931664D02*
X2231729Y-14922140D01*
X2231729Y-14922140D02*
X2241253Y-14912616D01*
X2241253Y-14912616D02*
X2241253Y-14931664D01*
X2374586Y-14731664D02*
X2393634Y-14731664D01*
X2393634Y-14731664D02*
X2412682Y-14741188D01*
X2412682Y-14741188D02*
X2422205Y-14750711D01*
X2422205Y-14750711D02*
X2431729Y-14769759D01*
X2431729Y-14769759D02*
X2441253Y-14807854D01*
X2441253Y-14807854D02*
X2441253Y-14855473D01*
X2441253Y-14855473D02*
X2431729Y-14893568D01*
X2431729Y-14893568D02*
X2422205Y-14912616D01*
X2422205Y-14912616D02*
X2412682Y-14922140D01*
X2412682Y-14922140D02*
X2393634Y-14931664D01*
X2393634Y-14931664D02*
X2374586Y-14931664D01*
X2374586Y-14931664D02*
X2355539Y-14922140D01*
X2355539Y-14922140D02*
X2346015Y-14912616D01*
X2346015Y-14912616D02*
X2336491Y-14893568D01*
X2336491Y-14893568D02*
X2326967Y-14855473D01*
X2326967Y-14855473D02*
X2326967Y-14807854D01*
X2326967Y-14807854D02*
X2336491Y-14769759D01*
X2336491Y-14769759D02*
X2346015Y-14750711D01*
X2346015Y-14750711D02*
X2355539Y-14741188D01*
X2355539Y-14741188D02*
X2374586Y-14731664D01*
X2565063Y-14731664D02*
X2584110Y-14731664D01*
X2584110Y-14731664D02*
X2603158Y-14741188D01*
X2603158Y-14741188D02*
X2612682Y-14750711D01*
X2612682Y-14750711D02*
X2622205Y-14769759D01*
X2622205Y-14769759D02*
X2631729Y-14807854D01*
X2631729Y-14807854D02*
X2631729Y-14855473D01*
X2631729Y-14855473D02*
X2622205Y-14893568D01*
X2622205Y-14893568D02*
X2612682Y-14912616D01*
X2612682Y-14912616D02*
X2603158Y-14922140D01*
X2603158Y-14922140D02*
X2584110Y-14931664D01*
X2584110Y-14931664D02*
X2565063Y-14931664D01*
X2565063Y-14931664D02*
X2546015Y-14922140D01*
X2546015Y-14922140D02*
X2536491Y-14912616D01*
X2536491Y-14912616D02*
X2526967Y-14893568D01*
X2526967Y-14893568D02*
X2517444Y-14855473D01*
X2517444Y-14855473D02*
X2517444Y-14807854D01*
X2517444Y-14807854D02*
X2526967Y-14769759D01*
X2526967Y-14769759D02*
X2536491Y-14750711D01*
X2536491Y-14750711D02*
X2546015Y-14741188D01*
X2546015Y-14741188D02*
X2565063Y-14731664D01*
X2755539Y-14731664D02*
X2774586Y-14731664D01*
X2774586Y-14731664D02*
X2793634Y-14741188D01*
X2793634Y-14741188D02*
X2803158Y-14750711D01*
X2803158Y-14750711D02*
X2812682Y-14769759D01*
X2812682Y-14769759D02*
X2822205Y-14807854D01*
X2822205Y-14807854D02*
X2822205Y-14855473D01*
X2822205Y-14855473D02*
X2812682Y-14893568D01*
X2812682Y-14893568D02*
X2803158Y-14912616D01*
X2803158Y-14912616D02*
X2793634Y-14922140D01*
X2793634Y-14922140D02*
X2774586Y-14931664D01*
X2774586Y-14931664D02*
X2755539Y-14931664D01*
X2755539Y-14931664D02*
X2736491Y-14922140D01*
X2736491Y-14922140D02*
X2726967Y-14912616D01*
X2726967Y-14912616D02*
X2717444Y-14893568D01*
X2717444Y-14893568D02*
X2707920Y-14855473D01*
X2707920Y-14855473D02*
X2707920Y-14807854D01*
X2707920Y-14807854D02*
X2717444Y-14769759D01*
X2717444Y-14769759D02*
X2726967Y-14750711D01*
X2726967Y-14750711D02*
X2736491Y-14741188D01*
X2736491Y-14741188D02*
X2755539Y-14731664D01*
X2907920Y-14931664D02*
X2907920Y-14798330D01*
X2907920Y-14817378D02*
X2917443Y-14807854D01*
X2917443Y-14807854D02*
X2936491Y-14798330D01*
X2936491Y-14798330D02*
X2965063Y-14798330D01*
X2965063Y-14798330D02*
X2984110Y-14807854D01*
X2984110Y-14807854D02*
X2993634Y-14826902D01*
X2993634Y-14826902D02*
X2993634Y-14931664D01*
X2993634Y-14826902D02*
X3003158Y-14807854D01*
X3003158Y-14807854D02*
X3022205Y-14798330D01*
X3022205Y-14798330D02*
X3050777Y-14798330D01*
X3050777Y-14798330D02*
X3069824Y-14807854D01*
X3069824Y-14807854D02*
X3079348Y-14826902D01*
X3079348Y-14826902D02*
X3079348Y-14931664D01*
X3174586Y-14931664D02*
X3174586Y-14798330D01*
X3174586Y-14817378D02*
X3184110Y-14807854D01*
X3184110Y-14807854D02*
X3203158Y-14798330D01*
X3203158Y-14798330D02*
X3231729Y-14798330D01*
X3231729Y-14798330D02*
X3250777Y-14807854D01*
X3250777Y-14807854D02*
X3260301Y-14826902D01*
X3260301Y-14826902D02*
X3260301Y-14931664D01*
X3260301Y-14826902D02*
X3269824Y-14807854D01*
X3269824Y-14807854D02*
X3288872Y-14798330D01*
X3288872Y-14798330D02*
X3317443Y-14798330D01*
X3317443Y-14798330D02*
X3336491Y-14807854D01*
X3336491Y-14807854D02*
X3346015Y-14826902D01*
X3346015Y-14826902D02*
X3346015Y-14931664D01*
X3736491Y-14722140D02*
X3565063Y-14979283D01*
X3993634Y-14731664D02*
X4012682Y-14731664D01*
X4012682Y-14731664D02*
X4031729Y-14741188D01*
X4031729Y-14741188D02*
X4041253Y-14750711D01*
X4041253Y-14750711D02*
X4050777Y-14769759D01*
X4050777Y-14769759D02*
X4060301Y-14807854D01*
X4060301Y-14807854D02*
X4060301Y-14855473D01*
X4060301Y-14855473D02*
X4050777Y-14893568D01*
X4050777Y-14893568D02*
X4041253Y-14912616D01*
X4041253Y-14912616D02*
X4031729Y-14922140D01*
X4031729Y-14922140D02*
X4012682Y-14931664D01*
X4012682Y-14931664D02*
X3993634Y-14931664D01*
X3993634Y-14931664D02*
X3974586Y-14922140D01*
X3974586Y-14922140D02*
X3965063Y-14912616D01*
X3965063Y-14912616D02*
X3955539Y-14893568D01*
X3955539Y-14893568D02*
X3946015Y-14855473D01*
X3946015Y-14855473D02*
X3946015Y-14807854D01*
X3946015Y-14807854D02*
X3955539Y-14769759D01*
X3955539Y-14769759D02*
X3965063Y-14750711D01*
X3965063Y-14750711D02*
X3974586Y-14741188D01*
X3974586Y-14741188D02*
X3993634Y-14731664D01*
X4146015Y-14912616D02*
X4155539Y-14922140D01*
X4155539Y-14922140D02*
X4146015Y-14931664D01*
X4146015Y-14931664D02*
X4136491Y-14922140D01*
X4136491Y-14922140D02*
X4146015Y-14912616D01*
X4146015Y-14912616D02*
X4146015Y-14931664D01*
X4346015Y-14931664D02*
X4231729Y-14931664D01*
X4288872Y-14931664D02*
X4288872Y-14731664D01*
X4288872Y-14731664D02*
X4269825Y-14760235D01*
X4269825Y-14760235D02*
X4250777Y-14779283D01*
X4250777Y-14779283D02*
X4231729Y-14788807D01*
X4536491Y-14931664D02*
X4422206Y-14931664D01*
X4479348Y-14931664D02*
X4479348Y-14731664D01*
X4479348Y-14731664D02*
X4460301Y-14760235D01*
X4460301Y-14760235D02*
X4441253Y-14779283D01*
X4441253Y-14779283D02*
X4422206Y-14788807D01*
X4650777Y-14817378D02*
X4631729Y-14807854D01*
X4631729Y-14807854D02*
X4622206Y-14798330D01*
X4622206Y-14798330D02*
X4612682Y-14779283D01*
X4612682Y-14779283D02*
X4612682Y-14769759D01*
X4612682Y-14769759D02*
X4622206Y-14750711D01*
X4622206Y-14750711D02*
X4631729Y-14741188D01*
X4631729Y-14741188D02*
X4650777Y-14731664D01*
X4650777Y-14731664D02*
X4688872Y-14731664D01*
X4688872Y-14731664D02*
X4707920Y-14741188D01*
X4707920Y-14741188D02*
X4717444Y-14750711D01*
X4717444Y-14750711D02*
X4726968Y-14769759D01*
X4726968Y-14769759D02*
X4726968Y-14779283D01*
X4726968Y-14779283D02*
X4717444Y-14798330D01*
X4717444Y-14798330D02*
X4707920Y-14807854D01*
X4707920Y-14807854D02*
X4688872Y-14817378D01*
X4688872Y-14817378D02*
X4650777Y-14817378D01*
X4650777Y-14817378D02*
X4631729Y-14826902D01*
X4631729Y-14826902D02*
X4622206Y-14836426D01*
X4622206Y-14836426D02*
X4612682Y-14855473D01*
X4612682Y-14855473D02*
X4612682Y-14893568D01*
X4612682Y-14893568D02*
X4622206Y-14912616D01*
X4622206Y-14912616D02*
X4631729Y-14922140D01*
X4631729Y-14922140D02*
X4650777Y-14931664D01*
X4650777Y-14931664D02*
X4688872Y-14931664D01*
X4688872Y-14931664D02*
X4707920Y-14922140D01*
X4707920Y-14922140D02*
X4717444Y-14912616D01*
X4717444Y-14912616D02*
X4726968Y-14893568D01*
X4726968Y-14893568D02*
X4726968Y-14855473D01*
X4726968Y-14855473D02*
X4717444Y-14836426D01*
X4717444Y-14836426D02*
X4707920Y-14826902D01*
X4707920Y-14826902D02*
X4688872Y-14817378D01*
X4917444Y-14931664D02*
X4803158Y-14931664D01*
X4860301Y-14931664D02*
X4860301Y-14731664D01*
X4860301Y-14731664D02*
X4841253Y-14760235D01*
X4841253Y-14760235D02*
X4822206Y-14779283D01*
X4822206Y-14779283D02*
X4803158Y-14788807D01*
X4993634Y-14731664D02*
X4993634Y-14769759D01*
X5069825Y-14731664D02*
X5069825Y-14769759D01*
X5365063Y-15007854D02*
X5355539Y-14998330D01*
X5355539Y-14998330D02*
X5336491Y-14969759D01*
X5336491Y-14969759D02*
X5326968Y-14950711D01*
X5326968Y-14950711D02*
X5317444Y-14922140D01*
X5317444Y-14922140D02*
X5307920Y-14874521D01*
X5307920Y-14874521D02*
X5307920Y-14836426D01*
X5307920Y-14836426D02*
X5317444Y-14788807D01*
X5317444Y-14788807D02*
X5326968Y-14760235D01*
X5326968Y-14760235D02*
X5336491Y-14741188D01*
X5336491Y-14741188D02*
X5355539Y-14712616D01*
X5355539Y-14712616D02*
X5365063Y-14703092D01*
X5469825Y-14817378D02*
X5450777Y-14807854D01*
X5450777Y-14807854D02*
X5441253Y-14798330D01*
X5441253Y-14798330D02*
X5431730Y-14779283D01*
X5431730Y-14779283D02*
X5431730Y-14769759D01*
X5431730Y-14769759D02*
X5441253Y-14750711D01*
X5441253Y-14750711D02*
X5450777Y-14741188D01*
X5450777Y-14741188D02*
X5469825Y-14731664D01*
X5469825Y-14731664D02*
X5507920Y-14731664D01*
X5507920Y-14731664D02*
X5526968Y-14741188D01*
X5526968Y-14741188D02*
X5536491Y-14750711D01*
X5536491Y-14750711D02*
X5546015Y-14769759D01*
X5546015Y-14769759D02*
X5546015Y-14779283D01*
X5546015Y-14779283D02*
X5536491Y-14798330D01*
X5536491Y-14798330D02*
X5526968Y-14807854D01*
X5526968Y-14807854D02*
X5507920Y-14817378D01*
X5507920Y-14817378D02*
X5469825Y-14817378D01*
X5469825Y-14817378D02*
X5450777Y-14826902D01*
X5450777Y-14826902D02*
X5441253Y-14836426D01*
X5441253Y-14836426D02*
X5431730Y-14855473D01*
X5431730Y-14855473D02*
X5431730Y-14893568D01*
X5431730Y-14893568D02*
X5441253Y-14912616D01*
X5441253Y-14912616D02*
X5450777Y-14922140D01*
X5450777Y-14922140D02*
X5469825Y-14931664D01*
X5469825Y-14931664D02*
X5507920Y-14931664D01*
X5507920Y-14931664D02*
X5526968Y-14922140D01*
X5526968Y-14922140D02*
X5536491Y-14912616D01*
X5536491Y-14912616D02*
X5546015Y-14893568D01*
X5546015Y-14893568D02*
X5546015Y-14855473D01*
X5546015Y-14855473D02*
X5536491Y-14836426D01*
X5536491Y-14836426D02*
X5526968Y-14826902D01*
X5526968Y-14826902D02*
X5507920Y-14817378D01*
X5622206Y-14750711D02*
X5631729Y-14741188D01*
X5631729Y-14741188D02*
X5650777Y-14731664D01*
X5650777Y-14731664D02*
X5698396Y-14731664D01*
X5698396Y-14731664D02*
X5717444Y-14741188D01*
X5717444Y-14741188D02*
X5726968Y-14750711D01*
X5726968Y-14750711D02*
X5736491Y-14769759D01*
X5736491Y-14769759D02*
X5736491Y-14788807D01*
X5736491Y-14788807D02*
X5726968Y-14817378D01*
X5726968Y-14817378D02*
X5612682Y-14931664D01*
X5612682Y-14931664D02*
X5736491Y-14931664D01*
X5974587Y-14931664D02*
X5974587Y-14731664D01*
X6060301Y-14931664D02*
X6060301Y-14826902D01*
X6060301Y-14826902D02*
X6050777Y-14807854D01*
X6050777Y-14807854D02*
X6031730Y-14798330D01*
X6031730Y-14798330D02*
X6003158Y-14798330D01*
X6003158Y-14798330D02*
X5984110Y-14807854D01*
X5984110Y-14807854D02*
X5974587Y-14817378D01*
X6184110Y-14931664D02*
X6165063Y-14922140D01*
X6165063Y-14922140D02*
X6155539Y-14912616D01*
X6155539Y-14912616D02*
X6146015Y-14893568D01*
X6146015Y-14893568D02*
X6146015Y-14836426D01*
X6146015Y-14836426D02*
X6155539Y-14817378D01*
X6155539Y-14817378D02*
X6165063Y-14807854D01*
X6165063Y-14807854D02*
X6184110Y-14798330D01*
X6184110Y-14798330D02*
X6212682Y-14798330D01*
X6212682Y-14798330D02*
X6231730Y-14807854D01*
X6231730Y-14807854D02*
X6241253Y-14817378D01*
X6241253Y-14817378D02*
X6250777Y-14836426D01*
X6250777Y-14836426D02*
X6250777Y-14893568D01*
X6250777Y-14893568D02*
X6241253Y-14912616D01*
X6241253Y-14912616D02*
X6231730Y-14922140D01*
X6231730Y-14922140D02*
X6212682Y-14931664D01*
X6212682Y-14931664D02*
X6184110Y-14931664D01*
X6365063Y-14931664D02*
X6346015Y-14922140D01*
X6346015Y-14922140D02*
X6336491Y-14903092D01*
X6336491Y-14903092D02*
X6336491Y-14731664D01*
X6517444Y-14922140D02*
X6498396Y-14931664D01*
X6498396Y-14931664D02*
X6460301Y-14931664D01*
X6460301Y-14931664D02*
X6441253Y-14922140D01*
X6441253Y-14922140D02*
X6431730Y-14903092D01*
X6431730Y-14903092D02*
X6431730Y-14826902D01*
X6431730Y-14826902D02*
X6441253Y-14807854D01*
X6441253Y-14807854D02*
X6460301Y-14798330D01*
X6460301Y-14798330D02*
X6498396Y-14798330D01*
X6498396Y-14798330D02*
X6517444Y-14807854D01*
X6517444Y-14807854D02*
X6526968Y-14826902D01*
X6526968Y-14826902D02*
X6526968Y-14845949D01*
X6526968Y-14845949D02*
X6431730Y-14864997D01*
X6603158Y-14922140D02*
X6622206Y-14931664D01*
X6622206Y-14931664D02*
X6660301Y-14931664D01*
X6660301Y-14931664D02*
X6679349Y-14922140D01*
X6679349Y-14922140D02*
X6688872Y-14903092D01*
X6688872Y-14903092D02*
X6688872Y-14893568D01*
X6688872Y-14893568D02*
X6679349Y-14874521D01*
X6679349Y-14874521D02*
X6660301Y-14864997D01*
X6660301Y-14864997D02*
X6631730Y-14864997D01*
X6631730Y-14864997D02*
X6612682Y-14855473D01*
X6612682Y-14855473D02*
X6603158Y-14836426D01*
X6603158Y-14836426D02*
X6603158Y-14826902D01*
X6603158Y-14826902D02*
X6612682Y-14807854D01*
X6612682Y-14807854D02*
X6631730Y-14798330D01*
X6631730Y-14798330D02*
X6660301Y-14798330D01*
X6660301Y-14798330D02*
X6679349Y-14807854D01*
X6755539Y-15007854D02*
X6765063Y-14998330D01*
X6765063Y-14998330D02*
X6784111Y-14969759D01*
X6784111Y-14969759D02*
X6793634Y-14950711D01*
X6793634Y-14950711D02*
X6803158Y-14922140D01*
X6803158Y-14922140D02*
X6812682Y-14874521D01*
X6812682Y-14874521D02*
X6812682Y-14836426D01*
X6812682Y-14836426D02*
X6803158Y-14788807D01*
X6803158Y-14788807D02*
X6793634Y-14760235D01*
X6793634Y-14760235D02*
X6784111Y-14741188D01*
X6784111Y-14741188D02*
X6765063Y-14712616D01*
X6765063Y-14712616D02*
X6755539Y-14703092D01*
X7117444Y-15007854D02*
X7107920Y-14998330D01*
X7107920Y-14998330D02*
X7088872Y-14969759D01*
X7088872Y-14969759D02*
X7079349Y-14950711D01*
X7079349Y-14950711D02*
X7069825Y-14922140D01*
X7069825Y-14922140D02*
X7060301Y-14874521D01*
X7060301Y-14874521D02*
X7060301Y-14836426D01*
X7060301Y-14836426D02*
X7069825Y-14788807D01*
X7069825Y-14788807D02*
X7079349Y-14760235D01*
X7079349Y-14760235D02*
X7088872Y-14741188D01*
X7088872Y-14741188D02*
X7107920Y-14712616D01*
X7107920Y-14712616D02*
X7117444Y-14703092D01*
X7193634Y-14798330D02*
X7193634Y-14931664D01*
X7193634Y-14817378D02*
X7203158Y-14807854D01*
X7203158Y-14807854D02*
X7222206Y-14798330D01*
X7222206Y-14798330D02*
X7250777Y-14798330D01*
X7250777Y-14798330D02*
X7269825Y-14807854D01*
X7269825Y-14807854D02*
X7279349Y-14826902D01*
X7279349Y-14826902D02*
X7279349Y-14931664D01*
X7403158Y-14931664D02*
X7384111Y-14922140D01*
X7384111Y-14922140D02*
X7374587Y-14912616D01*
X7374587Y-14912616D02*
X7365063Y-14893568D01*
X7365063Y-14893568D02*
X7365063Y-14836426D01*
X7365063Y-14836426D02*
X7374587Y-14817378D01*
X7374587Y-14817378D02*
X7384111Y-14807854D01*
X7384111Y-14807854D02*
X7403158Y-14798330D01*
X7403158Y-14798330D02*
X7431730Y-14798330D01*
X7431730Y-14798330D02*
X7450777Y-14807854D01*
X7450777Y-14807854D02*
X7460301Y-14817378D01*
X7460301Y-14817378D02*
X7469825Y-14836426D01*
X7469825Y-14836426D02*
X7469825Y-14893568D01*
X7469825Y-14893568D02*
X7460301Y-14912616D01*
X7460301Y-14912616D02*
X7450777Y-14922140D01*
X7450777Y-14922140D02*
X7431730Y-14931664D01*
X7431730Y-14931664D02*
X7403158Y-14931664D01*
X7526968Y-14798330D02*
X7603158Y-14798330D01*
X7555539Y-14731664D02*
X7555539Y-14903092D01*
X7555539Y-14903092D02*
X7565063Y-14922140D01*
X7565063Y-14922140D02*
X7584111Y-14931664D01*
X7584111Y-14931664D02*
X7603158Y-14931664D01*
X7822206Y-14798330D02*
X7822206Y-14998330D01*
X7822206Y-14807854D02*
X7841253Y-14798330D01*
X7841253Y-14798330D02*
X7879349Y-14798330D01*
X7879349Y-14798330D02*
X7898396Y-14807854D01*
X7898396Y-14807854D02*
X7907920Y-14817378D01*
X7907920Y-14817378D02*
X7917444Y-14836426D01*
X7917444Y-14836426D02*
X7917444Y-14893568D01*
X7917444Y-14893568D02*
X7907920Y-14912616D01*
X7907920Y-14912616D02*
X7898396Y-14922140D01*
X7898396Y-14922140D02*
X7879349Y-14931664D01*
X7879349Y-14931664D02*
X7841253Y-14931664D01*
X7841253Y-14931664D02*
X7822206Y-14922140D01*
X8031730Y-14931664D02*
X8012682Y-14922140D01*
X8012682Y-14922140D02*
X8003158Y-14903092D01*
X8003158Y-14903092D02*
X8003158Y-14731664D01*
X8193634Y-14931664D02*
X8193634Y-14826902D01*
X8193634Y-14826902D02*
X8184111Y-14807854D01*
X8184111Y-14807854D02*
X8165063Y-14798330D01*
X8165063Y-14798330D02*
X8126968Y-14798330D01*
X8126968Y-14798330D02*
X8107920Y-14807854D01*
X8193634Y-14922140D02*
X8174587Y-14931664D01*
X8174587Y-14931664D02*
X8126968Y-14931664D01*
X8126968Y-14931664D02*
X8107920Y-14922140D01*
X8107920Y-14922140D02*
X8098396Y-14903092D01*
X8098396Y-14903092D02*
X8098396Y-14884045D01*
X8098396Y-14884045D02*
X8107920Y-14864997D01*
X8107920Y-14864997D02*
X8126968Y-14855473D01*
X8126968Y-14855473D02*
X8174587Y-14855473D01*
X8174587Y-14855473D02*
X8193634Y-14845949D01*
X8260301Y-14798330D02*
X8336492Y-14798330D01*
X8288873Y-14731664D02*
X8288873Y-14903092D01*
X8288873Y-14903092D02*
X8298396Y-14922140D01*
X8298396Y-14922140D02*
X8317444Y-14931664D01*
X8317444Y-14931664D02*
X8336492Y-14931664D01*
X8479349Y-14922140D02*
X8460301Y-14931664D01*
X8460301Y-14931664D02*
X8422206Y-14931664D01*
X8422206Y-14931664D02*
X8403158Y-14922140D01*
X8403158Y-14922140D02*
X8393635Y-14903092D01*
X8393635Y-14903092D02*
X8393635Y-14826902D01*
X8393635Y-14826902D02*
X8403158Y-14807854D01*
X8403158Y-14807854D02*
X8422206Y-14798330D01*
X8422206Y-14798330D02*
X8460301Y-14798330D01*
X8460301Y-14798330D02*
X8479349Y-14807854D01*
X8479349Y-14807854D02*
X8488873Y-14826902D01*
X8488873Y-14826902D02*
X8488873Y-14845949D01*
X8488873Y-14845949D02*
X8393635Y-14864997D01*
X8660301Y-14931664D02*
X8660301Y-14731664D01*
X8660301Y-14922140D02*
X8641254Y-14931664D01*
X8641254Y-14931664D02*
X8603158Y-14931664D01*
X8603158Y-14931664D02*
X8584111Y-14922140D01*
X8584111Y-14922140D02*
X8574587Y-14912616D01*
X8574587Y-14912616D02*
X8565063Y-14893568D01*
X8565063Y-14893568D02*
X8565063Y-14836426D01*
X8565063Y-14836426D02*
X8574587Y-14817378D01*
X8574587Y-14817378D02*
X8584111Y-14807854D01*
X8584111Y-14807854D02*
X8603158Y-14798330D01*
X8603158Y-14798330D02*
X8641254Y-14798330D01*
X8641254Y-14798330D02*
X8660301Y-14807854D01*
X8736492Y-15007854D02*
X8746016Y-14998330D01*
X8746016Y-14998330D02*
X8765063Y-14969759D01*
X8765063Y-14969759D02*
X8774587Y-14950711D01*
X8774587Y-14950711D02*
X8784111Y-14922140D01*
X8784111Y-14922140D02*
X8793635Y-14874521D01*
X8793635Y-14874521D02*
X8793635Y-14836426D01*
X8793635Y-14836426D02*
X8784111Y-14788807D01*
X8784111Y-14788807D02*
X8774587Y-14760235D01*
X8774587Y-14760235D02*
X8765063Y-14741188D01*
X8765063Y-14741188D02*
X8746016Y-14712616D01*
X8746016Y-14712616D02*
X8736492Y-14703092D01*
X1690000Y-15060180D02*
X1690000Y-15260180D01*
X1590000Y-15160180D02*
X1790000Y-15160180D01*
X2031729Y-15051664D02*
X2155539Y-15051664D01*
X2155539Y-15051664D02*
X2088872Y-15127854D01*
X2088872Y-15127854D02*
X2117444Y-15127854D01*
X2117444Y-15127854D02*
X2136491Y-15137378D01*
X2136491Y-15137378D02*
X2146015Y-15146902D01*
X2146015Y-15146902D02*
X2155539Y-15165949D01*
X2155539Y-15165949D02*
X2155539Y-15213568D01*
X2155539Y-15213568D02*
X2146015Y-15232616D01*
X2146015Y-15232616D02*
X2136491Y-15242140D01*
X2136491Y-15242140D02*
X2117444Y-15251664D01*
X2117444Y-15251664D02*
X2060301Y-15251664D01*
X2060301Y-15251664D02*
X2041253Y-15242140D01*
X2041253Y-15242140D02*
X2031729Y-15232616D01*
X2241253Y-15232616D02*
X2250777Y-15242140D01*
X2250777Y-15242140D02*
X2241253Y-15251664D01*
X2241253Y-15251664D02*
X2231729Y-15242140D01*
X2231729Y-15242140D02*
X2241253Y-15232616D01*
X2241253Y-15232616D02*
X2241253Y-15251664D01*
X2346015Y-15251664D02*
X2384110Y-15251664D01*
X2384110Y-15251664D02*
X2403158Y-15242140D01*
X2403158Y-15242140D02*
X2412682Y-15232616D01*
X2412682Y-15232616D02*
X2431729Y-15204045D01*
X2431729Y-15204045D02*
X2441253Y-15165949D01*
X2441253Y-15165949D02*
X2441253Y-15089759D01*
X2441253Y-15089759D02*
X2431729Y-15070711D01*
X2431729Y-15070711D02*
X2422205Y-15061188D01*
X2422205Y-15061188D02*
X2403158Y-15051664D01*
X2403158Y-15051664D02*
X2365063Y-15051664D01*
X2365063Y-15051664D02*
X2346015Y-15061188D01*
X2346015Y-15061188D02*
X2336491Y-15070711D01*
X2336491Y-15070711D02*
X2326967Y-15089759D01*
X2326967Y-15089759D02*
X2326967Y-15137378D01*
X2326967Y-15137378D02*
X2336491Y-15156426D01*
X2336491Y-15156426D02*
X2346015Y-15165949D01*
X2346015Y-15165949D02*
X2365063Y-15175473D01*
X2365063Y-15175473D02*
X2403158Y-15175473D01*
X2403158Y-15175473D02*
X2422205Y-15165949D01*
X2422205Y-15165949D02*
X2431729Y-15156426D01*
X2431729Y-15156426D02*
X2441253Y-15137378D01*
X2555539Y-15137378D02*
X2536491Y-15127854D01*
X2536491Y-15127854D02*
X2526967Y-15118330D01*
X2526967Y-15118330D02*
X2517444Y-15099283D01*
X2517444Y-15099283D02*
X2517444Y-15089759D01*
X2517444Y-15089759D02*
X2526967Y-15070711D01*
X2526967Y-15070711D02*
X2536491Y-15061188D01*
X2536491Y-15061188D02*
X2555539Y-15051664D01*
X2555539Y-15051664D02*
X2593634Y-15051664D01*
X2593634Y-15051664D02*
X2612682Y-15061188D01*
X2612682Y-15061188D02*
X2622205Y-15070711D01*
X2622205Y-15070711D02*
X2631729Y-15089759D01*
X2631729Y-15089759D02*
X2631729Y-15099283D01*
X2631729Y-15099283D02*
X2622205Y-15118330D01*
X2622205Y-15118330D02*
X2612682Y-15127854D01*
X2612682Y-15127854D02*
X2593634Y-15137378D01*
X2593634Y-15137378D02*
X2555539Y-15137378D01*
X2555539Y-15137378D02*
X2536491Y-15146902D01*
X2536491Y-15146902D02*
X2526967Y-15156426D01*
X2526967Y-15156426D02*
X2517444Y-15175473D01*
X2517444Y-15175473D02*
X2517444Y-15213568D01*
X2517444Y-15213568D02*
X2526967Y-15232616D01*
X2526967Y-15232616D02*
X2536491Y-15242140D01*
X2536491Y-15242140D02*
X2555539Y-15251664D01*
X2555539Y-15251664D02*
X2593634Y-15251664D01*
X2593634Y-15251664D02*
X2612682Y-15242140D01*
X2612682Y-15242140D02*
X2622205Y-15232616D01*
X2622205Y-15232616D02*
X2631729Y-15213568D01*
X2631729Y-15213568D02*
X2631729Y-15175473D01*
X2631729Y-15175473D02*
X2622205Y-15156426D01*
X2622205Y-15156426D02*
X2612682Y-15146902D01*
X2612682Y-15146902D02*
X2593634Y-15137378D01*
X2746015Y-15137378D02*
X2726967Y-15127854D01*
X2726967Y-15127854D02*
X2717444Y-15118330D01*
X2717444Y-15118330D02*
X2707920Y-15099283D01*
X2707920Y-15099283D02*
X2707920Y-15089759D01*
X2707920Y-15089759D02*
X2717444Y-15070711D01*
X2717444Y-15070711D02*
X2726967Y-15061188D01*
X2726967Y-15061188D02*
X2746015Y-15051664D01*
X2746015Y-15051664D02*
X2784110Y-15051664D01*
X2784110Y-15051664D02*
X2803158Y-15061188D01*
X2803158Y-15061188D02*
X2812682Y-15070711D01*
X2812682Y-15070711D02*
X2822205Y-15089759D01*
X2822205Y-15089759D02*
X2822205Y-15099283D01*
X2822205Y-15099283D02*
X2812682Y-15118330D01*
X2812682Y-15118330D02*
X2803158Y-15127854D01*
X2803158Y-15127854D02*
X2784110Y-15137378D01*
X2784110Y-15137378D02*
X2746015Y-15137378D01*
X2746015Y-15137378D02*
X2726967Y-15146902D01*
X2726967Y-15146902D02*
X2717444Y-15156426D01*
X2717444Y-15156426D02*
X2707920Y-15175473D01*
X2707920Y-15175473D02*
X2707920Y-15213568D01*
X2707920Y-15213568D02*
X2717444Y-15232616D01*
X2717444Y-15232616D02*
X2726967Y-15242140D01*
X2726967Y-15242140D02*
X2746015Y-15251664D01*
X2746015Y-15251664D02*
X2784110Y-15251664D01*
X2784110Y-15251664D02*
X2803158Y-15242140D01*
X2803158Y-15242140D02*
X2812682Y-15232616D01*
X2812682Y-15232616D02*
X2822205Y-15213568D01*
X2822205Y-15213568D02*
X2822205Y-15175473D01*
X2822205Y-15175473D02*
X2812682Y-15156426D01*
X2812682Y-15156426D02*
X2803158Y-15146902D01*
X2803158Y-15146902D02*
X2784110Y-15137378D01*
X2907920Y-15251664D02*
X2907920Y-15118330D01*
X2907920Y-15137378D02*
X2917443Y-15127854D01*
X2917443Y-15127854D02*
X2936491Y-15118330D01*
X2936491Y-15118330D02*
X2965063Y-15118330D01*
X2965063Y-15118330D02*
X2984110Y-15127854D01*
X2984110Y-15127854D02*
X2993634Y-15146902D01*
X2993634Y-15146902D02*
X2993634Y-15251664D01*
X2993634Y-15146902D02*
X3003158Y-15127854D01*
X3003158Y-15127854D02*
X3022205Y-15118330D01*
X3022205Y-15118330D02*
X3050777Y-15118330D01*
X3050777Y-15118330D02*
X3069824Y-15127854D01*
X3069824Y-15127854D02*
X3079348Y-15146902D01*
X3079348Y-15146902D02*
X3079348Y-15251664D01*
X3174586Y-15251664D02*
X3174586Y-15118330D01*
X3174586Y-15137378D02*
X3184110Y-15127854D01*
X3184110Y-15127854D02*
X3203158Y-15118330D01*
X3203158Y-15118330D02*
X3231729Y-15118330D01*
X3231729Y-15118330D02*
X3250777Y-15127854D01*
X3250777Y-15127854D02*
X3260301Y-15146902D01*
X3260301Y-15146902D02*
X3260301Y-15251664D01*
X3260301Y-15146902D02*
X3269824Y-15127854D01*
X3269824Y-15127854D02*
X3288872Y-15118330D01*
X3288872Y-15118330D02*
X3317443Y-15118330D01*
X3317443Y-15118330D02*
X3336491Y-15127854D01*
X3336491Y-15127854D02*
X3346015Y-15146902D01*
X3346015Y-15146902D02*
X3346015Y-15251664D01*
X3736491Y-15042140D02*
X3565063Y-15299283D01*
X3993634Y-15051664D02*
X4012682Y-15051664D01*
X4012682Y-15051664D02*
X4031729Y-15061188D01*
X4031729Y-15061188D02*
X4041253Y-15070711D01*
X4041253Y-15070711D02*
X4050777Y-15089759D01*
X4050777Y-15089759D02*
X4060301Y-15127854D01*
X4060301Y-15127854D02*
X4060301Y-15175473D01*
X4060301Y-15175473D02*
X4050777Y-15213568D01*
X4050777Y-15213568D02*
X4041253Y-15232616D01*
X4041253Y-15232616D02*
X4031729Y-15242140D01*
X4031729Y-15242140D02*
X4012682Y-15251664D01*
X4012682Y-15251664D02*
X3993634Y-15251664D01*
X3993634Y-15251664D02*
X3974586Y-15242140D01*
X3974586Y-15242140D02*
X3965063Y-15232616D01*
X3965063Y-15232616D02*
X3955539Y-15213568D01*
X3955539Y-15213568D02*
X3946015Y-15175473D01*
X3946015Y-15175473D02*
X3946015Y-15127854D01*
X3946015Y-15127854D02*
X3955539Y-15089759D01*
X3955539Y-15089759D02*
X3965063Y-15070711D01*
X3965063Y-15070711D02*
X3974586Y-15061188D01*
X3974586Y-15061188D02*
X3993634Y-15051664D01*
X4146015Y-15232616D02*
X4155539Y-15242140D01*
X4155539Y-15242140D02*
X4146015Y-15251664D01*
X4146015Y-15251664D02*
X4136491Y-15242140D01*
X4136491Y-15242140D02*
X4146015Y-15232616D01*
X4146015Y-15232616D02*
X4146015Y-15251664D01*
X4346015Y-15251664D02*
X4231729Y-15251664D01*
X4288872Y-15251664D02*
X4288872Y-15051664D01*
X4288872Y-15051664D02*
X4269825Y-15080235D01*
X4269825Y-15080235D02*
X4250777Y-15099283D01*
X4250777Y-15099283D02*
X4231729Y-15108807D01*
X4526968Y-15051664D02*
X4431729Y-15051664D01*
X4431729Y-15051664D02*
X4422206Y-15146902D01*
X4422206Y-15146902D02*
X4431729Y-15137378D01*
X4431729Y-15137378D02*
X4450777Y-15127854D01*
X4450777Y-15127854D02*
X4498396Y-15127854D01*
X4498396Y-15127854D02*
X4517444Y-15137378D01*
X4517444Y-15137378D02*
X4526968Y-15146902D01*
X4526968Y-15146902D02*
X4536491Y-15165949D01*
X4536491Y-15165949D02*
X4536491Y-15213568D01*
X4536491Y-15213568D02*
X4526968Y-15232616D01*
X4526968Y-15232616D02*
X4517444Y-15242140D01*
X4517444Y-15242140D02*
X4498396Y-15251664D01*
X4498396Y-15251664D02*
X4450777Y-15251664D01*
X4450777Y-15251664D02*
X4431729Y-15242140D01*
X4431729Y-15242140D02*
X4422206Y-15232616D01*
X4603158Y-15051664D02*
X4736491Y-15051664D01*
X4736491Y-15051664D02*
X4650777Y-15251664D01*
X4850777Y-15051664D02*
X4869825Y-15051664D01*
X4869825Y-15051664D02*
X4888872Y-15061188D01*
X4888872Y-15061188D02*
X4898396Y-15070711D01*
X4898396Y-15070711D02*
X4907920Y-15089759D01*
X4907920Y-15089759D02*
X4917444Y-15127854D01*
X4917444Y-15127854D02*
X4917444Y-15175473D01*
X4917444Y-15175473D02*
X4907920Y-15213568D01*
X4907920Y-15213568D02*
X4898396Y-15232616D01*
X4898396Y-15232616D02*
X4888872Y-15242140D01*
X4888872Y-15242140D02*
X4869825Y-15251664D01*
X4869825Y-15251664D02*
X4850777Y-15251664D01*
X4850777Y-15251664D02*
X4831729Y-15242140D01*
X4831729Y-15242140D02*
X4822206Y-15232616D01*
X4822206Y-15232616D02*
X4812682Y-15213568D01*
X4812682Y-15213568D02*
X4803158Y-15175473D01*
X4803158Y-15175473D02*
X4803158Y-15127854D01*
X4803158Y-15127854D02*
X4812682Y-15089759D01*
X4812682Y-15089759D02*
X4822206Y-15070711D01*
X4822206Y-15070711D02*
X4831729Y-15061188D01*
X4831729Y-15061188D02*
X4850777Y-15051664D01*
X4993634Y-15051664D02*
X4993634Y-15089759D01*
X5069825Y-15051664D02*
X5069825Y-15089759D01*
X5365063Y-15327854D02*
X5355539Y-15318330D01*
X5355539Y-15318330D02*
X5336491Y-15289759D01*
X5336491Y-15289759D02*
X5326968Y-15270711D01*
X5326968Y-15270711D02*
X5317444Y-15242140D01*
X5317444Y-15242140D02*
X5307920Y-15194521D01*
X5307920Y-15194521D02*
X5307920Y-15156426D01*
X5307920Y-15156426D02*
X5317444Y-15108807D01*
X5317444Y-15108807D02*
X5326968Y-15080235D01*
X5326968Y-15080235D02*
X5336491Y-15061188D01*
X5336491Y-15061188D02*
X5355539Y-15032616D01*
X5355539Y-15032616D02*
X5365063Y-15023092D01*
X5526968Y-15118330D02*
X5526968Y-15251664D01*
X5479349Y-15042140D02*
X5431730Y-15184997D01*
X5431730Y-15184997D02*
X5555539Y-15184997D01*
X5736491Y-15251664D02*
X5622206Y-15251664D01*
X5679348Y-15251664D02*
X5679348Y-15051664D01*
X5679348Y-15051664D02*
X5660301Y-15080235D01*
X5660301Y-15080235D02*
X5641253Y-15099283D01*
X5641253Y-15099283D02*
X5622206Y-15108807D01*
X5974587Y-15251664D02*
X5974587Y-15051664D01*
X6060301Y-15251664D02*
X6060301Y-15146902D01*
X6060301Y-15146902D02*
X6050777Y-15127854D01*
X6050777Y-15127854D02*
X6031730Y-15118330D01*
X6031730Y-15118330D02*
X6003158Y-15118330D01*
X6003158Y-15118330D02*
X5984110Y-15127854D01*
X5984110Y-15127854D02*
X5974587Y-15137378D01*
X6184110Y-15251664D02*
X6165063Y-15242140D01*
X6165063Y-15242140D02*
X6155539Y-15232616D01*
X6155539Y-15232616D02*
X6146015Y-15213568D01*
X6146015Y-15213568D02*
X6146015Y-15156426D01*
X6146015Y-15156426D02*
X6155539Y-15137378D01*
X6155539Y-15137378D02*
X6165063Y-15127854D01*
X6165063Y-15127854D02*
X6184110Y-15118330D01*
X6184110Y-15118330D02*
X6212682Y-15118330D01*
X6212682Y-15118330D02*
X6231730Y-15127854D01*
X6231730Y-15127854D02*
X6241253Y-15137378D01*
X6241253Y-15137378D02*
X6250777Y-15156426D01*
X6250777Y-15156426D02*
X6250777Y-15213568D01*
X6250777Y-15213568D02*
X6241253Y-15232616D01*
X6241253Y-15232616D02*
X6231730Y-15242140D01*
X6231730Y-15242140D02*
X6212682Y-15251664D01*
X6212682Y-15251664D02*
X6184110Y-15251664D01*
X6365063Y-15251664D02*
X6346015Y-15242140D01*
X6346015Y-15242140D02*
X6336491Y-15223092D01*
X6336491Y-15223092D02*
X6336491Y-15051664D01*
X6517444Y-15242140D02*
X6498396Y-15251664D01*
X6498396Y-15251664D02*
X6460301Y-15251664D01*
X6460301Y-15251664D02*
X6441253Y-15242140D01*
X6441253Y-15242140D02*
X6431730Y-15223092D01*
X6431730Y-15223092D02*
X6431730Y-15146902D01*
X6431730Y-15146902D02*
X6441253Y-15127854D01*
X6441253Y-15127854D02*
X6460301Y-15118330D01*
X6460301Y-15118330D02*
X6498396Y-15118330D01*
X6498396Y-15118330D02*
X6517444Y-15127854D01*
X6517444Y-15127854D02*
X6526968Y-15146902D01*
X6526968Y-15146902D02*
X6526968Y-15165949D01*
X6526968Y-15165949D02*
X6431730Y-15184997D01*
X6603158Y-15242140D02*
X6622206Y-15251664D01*
X6622206Y-15251664D02*
X6660301Y-15251664D01*
X6660301Y-15251664D02*
X6679349Y-15242140D01*
X6679349Y-15242140D02*
X6688872Y-15223092D01*
X6688872Y-15223092D02*
X6688872Y-15213568D01*
X6688872Y-15213568D02*
X6679349Y-15194521D01*
X6679349Y-15194521D02*
X6660301Y-15184997D01*
X6660301Y-15184997D02*
X6631730Y-15184997D01*
X6631730Y-15184997D02*
X6612682Y-15175473D01*
X6612682Y-15175473D02*
X6603158Y-15156426D01*
X6603158Y-15156426D02*
X6603158Y-15146902D01*
X6603158Y-15146902D02*
X6612682Y-15127854D01*
X6612682Y-15127854D02*
X6631730Y-15118330D01*
X6631730Y-15118330D02*
X6660301Y-15118330D01*
X6660301Y-15118330D02*
X6679349Y-15127854D01*
X6755539Y-15327854D02*
X6765063Y-15318330D01*
X6765063Y-15318330D02*
X6784111Y-15289759D01*
X6784111Y-15289759D02*
X6793634Y-15270711D01*
X6793634Y-15270711D02*
X6803158Y-15242140D01*
X6803158Y-15242140D02*
X6812682Y-15194521D01*
X6812682Y-15194521D02*
X6812682Y-15156426D01*
X6812682Y-15156426D02*
X6803158Y-15108807D01*
X6803158Y-15108807D02*
X6793634Y-15080235D01*
X6793634Y-15080235D02*
X6784111Y-15061188D01*
X6784111Y-15061188D02*
X6765063Y-15032616D01*
X6765063Y-15032616D02*
X6755539Y-15023092D01*
X7117444Y-15327854D02*
X7107920Y-15318330D01*
X7107920Y-15318330D02*
X7088872Y-15289759D01*
X7088872Y-15289759D02*
X7079349Y-15270711D01*
X7079349Y-15270711D02*
X7069825Y-15242140D01*
X7069825Y-15242140D02*
X7060301Y-15194521D01*
X7060301Y-15194521D02*
X7060301Y-15156426D01*
X7060301Y-15156426D02*
X7069825Y-15108807D01*
X7069825Y-15108807D02*
X7079349Y-15080235D01*
X7079349Y-15080235D02*
X7088872Y-15061188D01*
X7088872Y-15061188D02*
X7107920Y-15032616D01*
X7107920Y-15032616D02*
X7117444Y-15023092D01*
X7193634Y-15118330D02*
X7193634Y-15251664D01*
X7193634Y-15137378D02*
X7203158Y-15127854D01*
X7203158Y-15127854D02*
X7222206Y-15118330D01*
X7222206Y-15118330D02*
X7250777Y-15118330D01*
X7250777Y-15118330D02*
X7269825Y-15127854D01*
X7269825Y-15127854D02*
X7279349Y-15146902D01*
X7279349Y-15146902D02*
X7279349Y-15251664D01*
X7403158Y-15251664D02*
X7384111Y-15242140D01*
X7384111Y-15242140D02*
X7374587Y-15232616D01*
X7374587Y-15232616D02*
X7365063Y-15213568D01*
X7365063Y-15213568D02*
X7365063Y-15156426D01*
X7365063Y-15156426D02*
X7374587Y-15137378D01*
X7374587Y-15137378D02*
X7384111Y-15127854D01*
X7384111Y-15127854D02*
X7403158Y-15118330D01*
X7403158Y-15118330D02*
X7431730Y-15118330D01*
X7431730Y-15118330D02*
X7450777Y-15127854D01*
X7450777Y-15127854D02*
X7460301Y-15137378D01*
X7460301Y-15137378D02*
X7469825Y-15156426D01*
X7469825Y-15156426D02*
X7469825Y-15213568D01*
X7469825Y-15213568D02*
X7460301Y-15232616D01*
X7460301Y-15232616D02*
X7450777Y-15242140D01*
X7450777Y-15242140D02*
X7431730Y-15251664D01*
X7431730Y-15251664D02*
X7403158Y-15251664D01*
X7526968Y-15118330D02*
X7603158Y-15118330D01*
X7555539Y-15051664D02*
X7555539Y-15223092D01*
X7555539Y-15223092D02*
X7565063Y-15242140D01*
X7565063Y-15242140D02*
X7584111Y-15251664D01*
X7584111Y-15251664D02*
X7603158Y-15251664D01*
X7822206Y-15118330D02*
X7822206Y-15318330D01*
X7822206Y-15127854D02*
X7841253Y-15118330D01*
X7841253Y-15118330D02*
X7879349Y-15118330D01*
X7879349Y-15118330D02*
X7898396Y-15127854D01*
X7898396Y-15127854D02*
X7907920Y-15137378D01*
X7907920Y-15137378D02*
X7917444Y-15156426D01*
X7917444Y-15156426D02*
X7917444Y-15213568D01*
X7917444Y-15213568D02*
X7907920Y-15232616D01*
X7907920Y-15232616D02*
X7898396Y-15242140D01*
X7898396Y-15242140D02*
X7879349Y-15251664D01*
X7879349Y-15251664D02*
X7841253Y-15251664D01*
X7841253Y-15251664D02*
X7822206Y-15242140D01*
X8031730Y-15251664D02*
X8012682Y-15242140D01*
X8012682Y-15242140D02*
X8003158Y-15223092D01*
X8003158Y-15223092D02*
X8003158Y-15051664D01*
X8193634Y-15251664D02*
X8193634Y-15146902D01*
X8193634Y-15146902D02*
X8184111Y-15127854D01*
X8184111Y-15127854D02*
X8165063Y-15118330D01*
X8165063Y-15118330D02*
X8126968Y-15118330D01*
X8126968Y-15118330D02*
X8107920Y-15127854D01*
X8193634Y-15242140D02*
X8174587Y-15251664D01*
X8174587Y-15251664D02*
X8126968Y-15251664D01*
X8126968Y-15251664D02*
X8107920Y-15242140D01*
X8107920Y-15242140D02*
X8098396Y-15223092D01*
X8098396Y-15223092D02*
X8098396Y-15204045D01*
X8098396Y-15204045D02*
X8107920Y-15184997D01*
X8107920Y-15184997D02*
X8126968Y-15175473D01*
X8126968Y-15175473D02*
X8174587Y-15175473D01*
X8174587Y-15175473D02*
X8193634Y-15165949D01*
X8260301Y-15118330D02*
X8336492Y-15118330D01*
X8288873Y-15051664D02*
X8288873Y-15223092D01*
X8288873Y-15223092D02*
X8298396Y-15242140D01*
X8298396Y-15242140D02*
X8317444Y-15251664D01*
X8317444Y-15251664D02*
X8336492Y-15251664D01*
X8479349Y-15242140D02*
X8460301Y-15251664D01*
X8460301Y-15251664D02*
X8422206Y-15251664D01*
X8422206Y-15251664D02*
X8403158Y-15242140D01*
X8403158Y-15242140D02*
X8393635Y-15223092D01*
X8393635Y-15223092D02*
X8393635Y-15146902D01*
X8393635Y-15146902D02*
X8403158Y-15127854D01*
X8403158Y-15127854D02*
X8422206Y-15118330D01*
X8422206Y-15118330D02*
X8460301Y-15118330D01*
X8460301Y-15118330D02*
X8479349Y-15127854D01*
X8479349Y-15127854D02*
X8488873Y-15146902D01*
X8488873Y-15146902D02*
X8488873Y-15165949D01*
X8488873Y-15165949D02*
X8393635Y-15184997D01*
X8660301Y-15251664D02*
X8660301Y-15051664D01*
X8660301Y-15242140D02*
X8641254Y-15251664D01*
X8641254Y-15251664D02*
X8603158Y-15251664D01*
X8603158Y-15251664D02*
X8584111Y-15242140D01*
X8584111Y-15242140D02*
X8574587Y-15232616D01*
X8574587Y-15232616D02*
X8565063Y-15213568D01*
X8565063Y-15213568D02*
X8565063Y-15156426D01*
X8565063Y-15156426D02*
X8574587Y-15137378D01*
X8574587Y-15137378D02*
X8584111Y-15127854D01*
X8584111Y-15127854D02*
X8603158Y-15118330D01*
X8603158Y-15118330D02*
X8641254Y-15118330D01*
X8641254Y-15118330D02*
X8660301Y-15127854D01*
X8736492Y-15327854D02*
X8746016Y-15318330D01*
X8746016Y-15318330D02*
X8765063Y-15289759D01*
X8765063Y-15289759D02*
X8774587Y-15270711D01*
X8774587Y-15270711D02*
X8784111Y-15242140D01*
X8784111Y-15242140D02*
X8793635Y-15194521D01*
X8793635Y-15194521D02*
X8793635Y-15156426D01*
X8793635Y-15156426D02*
X8784111Y-15108807D01*
X8784111Y-15108807D02*
X8774587Y-15080235D01*
X8774587Y-15080235D02*
X8765063Y-15061188D01*
X8765063Y-15061188D02*
X8746016Y-15032616D01*
X8746016Y-15032616D02*
X8736492Y-15023092D01*
M02*
