M48
; DRILL file {KiCad 8.0.1-8.0.1-1~ubuntu22.04.1} date 2025-04-18T23:57:58-0400
; FORMAT={-:-/ absolute / metric / decimal}
; #@! TF.CreationDate,2025-04-18T23:57:58-04:00
; #@! TF.GenerationSoftware,Kicad,Pcbnew,8.0.1-8.0.1-1~ubuntu22.04.1
; #@! TF.FileFunction,Plated,1,6,PTH
FMAT,2
METRIC
; #@! TA.AperFunction,Plated,PTH,ViaDrill
T1C0.300
; #@! TA.AperFunction,Plated,PTH,ComponentDrill
T2C1.000
%
G90
G05
T1
X20.32Y-46.355
X20.32Y-128.27
X20.32Y-129.54
X20.32Y-130.81
X20.32Y-132.08
X20.32Y-133.35
X20.32Y-134.62
X20.32Y-135.89
X20.32Y-137.16
X20.955Y-111.76
X20.971Y-22.929
X21.59Y-38.1
X21.59Y-53.975
X21.604Y-105.611
X21.736Y-118.974
X21.925Y-86.965
X22.016Y-93.333
X22.225Y-60.325
X22.225Y-80.01
X22.225Y-100.33
X22.225Y-120.015
X22.383Y-69.189
X24.13Y-125.73
X24.49Y-137.039
X24.629Y-30.087
X24.719Y-75.328
X25.269Y-126.869
X27.88Y-91.592
X28.201Y-134.703
X28.659Y-125.586
X29.274Y-23.215
X29.845Y-125.095
X29.845Y-126.365
X29.845Y-127.635
X29.845Y-128.905
X29.845Y-130.175
X29.845Y-131.445
X29.845Y-134.28
X29.845Y-135.255
X29.845Y-136.525
X29.845Y-137.795
X30.079Y-105.611
X30.217Y-86.324
X30.48Y-54.61
X30.492Y-111.704
X30.721Y-66.486
X32.385Y-53.34
X33.378Y-134.657
X34.089Y-84.558
X34.149Y-64.362
X34.29Y-47.625
X34.29Y-104.14
X34.29Y-124.46
X35.073Y-75.374
X35.485Y-56.178
X35.531Y-115.736
X35.56Y-35.56
X35.806Y-95.166
X35.828Y-32.441
X37.465Y-68.58
X38.1Y-40.64
X38.1Y-128.905
X38.397Y-42.842
X38.735Y-38.1
X38.735Y-88.9
X39.37Y-108.585
X39.646Y-28.274
X39.792Y-69.418
X40.113Y-95.166
X40.204Y-105.153
X40.314Y-33.682
X40.846Y-58.973
X40.937Y-87.331
X41.275Y-80.645
X41.275Y-100.33
X41.275Y-120.65
X41.533Y-112.621
X41.91Y-60.325
X43.815Y-38.1
X44.74Y-137.085
X44.864Y-22.356
X46.041Y-29.546
X46.263Y-35.178
X47.625Y-41.275
X47.625Y-42.545
X47.625Y-44.45
X47.625Y-50.8
X47.809Y-93.562
X48.26Y-52.07
X48.65Y-24.233
X48.863Y-67.357
X49.596Y-88.889
X49.688Y-73.771
X50.237Y-112.987
X50.421Y-106.069
X50.787Y-134.611
X51.435Y-38.1
X51.435Y-39.37
X51.435Y-40.64
X51.435Y-41.91
X51.435Y-46.355
X51.435Y-47.625
X51.435Y-48.895
X51.435Y-50.165
X52.086Y-35.114
X52.595Y-30.66
X52.705Y-40.64
X52.911Y-53.642
X53.975Y-84.455
X53.975Y-124.46
X53.989Y-64.306
X53.989Y-104.433
X54.217Y-45.072
X54.61Y-70.485
X54.61Y-90.805
X54.61Y-110.49
X56.603Y-41.636
X57.15Y-128.905
X57.201Y-56.316
X57.335Y-34.923
X57.335Y-50.64
X57.785Y-43.18
X57.785Y-44.45
X57.797Y-63.234
X58.484Y-75.786
X58.8Y-124.073
X59.339Y-31.232
X59.583Y-86.965
X59.583Y-120.546
X59.675Y-137.085
X59.812Y-68.731
X59.812Y-109.23
X59.967Y-53.653
X60.01Y-34.615
X60.133Y-96.952
X60.96Y-45.72
X61.595Y-40.64
X62.23Y-128.27
X62.23Y-129.54
X62.23Y-130.81
X62.23Y-132.08
X62.23Y-133.35
X62.23Y-134.62
X62.23Y-135.89
X62.23Y-137.16
X62.622Y-35.245
X62.865Y-45.72
X63.5Y-32.385
X63.5Y-45.085
X63.5Y-55.245
X64.35Y-36.029
X64.77Y-32.385
X64.77Y-38.1
X64.77Y-51.435
X64.77Y-80.01
X64.77Y-100.33
X64.77Y-120.015
X65.405Y-41.91
X65.405Y-60.325
X65.512Y-37.15
X65.722Y-54.927
X66.04Y-32.385
X66.04Y-38.1
X66.04Y-51.435
X66.04Y-125.73
X67.31Y-32.385
X67.31Y-38.1
X67.31Y-51.435
X68.58Y-38.1
X68.58Y-51.435
X68.777Y-32.188
X69.85Y-38.1
X69.85Y-51.435
X70.485Y-46.99
X71.12Y-32.385
X71.12Y-38.1
X71.12Y-51.435
X71.12Y-125.095
X71.12Y-126.365
X71.12Y-127.635
X71.12Y-128.905
X71.12Y-130.175
X71.12Y-131.445
X71.12Y-132.715
X71.12Y-133.985
X71.12Y-135.255
X71.12Y-136.525
X71.752Y-28.72
X72.39Y-38.1
X72.39Y-51.435
X73.66Y-38.1
X73.66Y-51.435
X74.93Y-36.195
X75.565Y-43.815
X75.821Y-40.393
X75.867Y-53.072
X77.47Y-84.455
X77.47Y-104.14
X77.47Y-124.46
X77.605Y-64.281
X79.375Y-36.195
X79.779Y-30.395
X80.01Y-128.905
X80.112Y-46.743
X80.645Y-68.58
X81.28Y-46.99
X81.705Y-50.862
X81.849Y-55.674
X81.915Y-88.9
X82.124Y-73.771
X82.353Y-84.903
X82.398Y-95.211
X82.398Y-127.235
X82.49Y-65.845
X82.55Y-108.585
X82.762Y-39.067
X83.205Y-40.95
X83.245Y-30.017
X83.59Y-114.911
X84.368Y-105.84
X85.09Y-60.325
X85.09Y-80.01
X85.09Y-100.33
X85.09Y-120.015
X85.725Y-50.165
X86.673Y-33.04
X87.066Y-35.955
X87.366Y-37.5
X87.372Y-30.339
X88.238Y-36.168
X88.263Y-118.622
X88.265Y-45.085
X88.379Y-47.832
X88.431Y-43.745
X88.442Y-37.43
X88.558Y-32.364
X89.683Y-93.012
X90.462Y-112.575
X90.805Y-27.305
X91.703Y-40.105
X91.764Y-39.081
X93.256Y-86.003
X93.943Y-106.39
X94.173Y-73.358
X94.356Y-66.349
X94.407Y-52.765
X94.62Y-46.995
X94.814Y-125.769
X94.887Y-33.02
X95.034Y-31.738
X95.156Y-43.589
X95.438Y-49.979
X95.646Y-39.126
X95.646Y-40.64
X96.188Y-111.613
X96.246Y-41.91
X96.52Y-29.21
X96.52Y-32.004
X96.52Y-36.83
X96.52Y-46.355
X96.846Y-40.005
X97.79Y-64.135
X97.79Y-84.455
X97.79Y-104.14
X97.79Y-123.825
X98.425Y-70.485
X98.425Y-90.805
X98.425Y-110.49
X98.425Y-130.175
X99.045Y-22.849
X99.06Y-23.495
X99.06Y-24.765
X99.06Y-25.4
X99.168Y-26.83
X99.695Y-22.86
X99.695Y-23.495
X99.695Y-24.765
X99.695Y-25.4
X99.853Y-96.723
X99.945Y-51.199
X100.174Y-75.786
X100.174Y-117.064
X100.316Y-53.24
X100.403Y-82.933
X100.541Y-63.188
X100.614Y-46.99
X100.632Y-102.725
X100.653Y-50.179
X100.757Y-32.985
X100.965Y-31.75
X100.965Y-34.29
X100.965Y-35.56
X100.965Y-36.83
X101.432Y-43.41
X101.6Y-27.94
X102.87Y-57.785
X103.505Y-57.15
X103.961Y-49.53
X104.046Y-56.555
X104.14Y-31.115
X104.14Y-39.97
X104.14Y-46.044
X104.418Y-23.076
X104.61Y-55.88
X104.775Y-38.735
X104.99Y-42.973
X105.234Y-42.086
X105.41Y-44.45
X105.41Y-55.88
X106.038Y-97.502
X106.045Y-107.95
X106.045Y-117.475
X106.045Y-128.27
X106.045Y-129.54
X106.045Y-130.81
X106.045Y-132.08
X106.045Y-133.35
X106.045Y-134.62
X106.045Y-135.89
X106.045Y-137.16
X106.075Y-56.511
X106.376Y-53.039
X106.496Y-64.883
X106.588Y-76.474
X106.68Y-27.305
X106.68Y-57.15
X107.138Y-87.24
X107.315Y-57.785
X108.585Y-59.69
X108.585Y-80.01
X108.585Y-99.695
X108.585Y-120.015
X108.853Y-47.737
X108.907Y-48.729
X108.911Y-50.077
X108.932Y-45.673
X109.612Y-127.281
X109.855Y-34.29
X109.855Y-37.465
X109.855Y-40.64
X109.855Y-125.73
X110.328Y-39.37
X110.49Y-42.545
X110.518Y-32.413
X111.307Y-134.565
X111.76Y-41.91
X111.811Y-112.987
X111.948Y-91.271
X112.223Y-70.839
X112.395Y-22.225
X112.395Y-27.94
X112.395Y-42.545
X112.59Y-136.764
X113.552Y-125.677
X113.614Y-36.454
X113.665Y-32.385
X113.665Y-40.64
X113.665Y-45.72
X114.3Y-33.02
X114.3Y-37.465
X114.3Y-38.735
X114.935Y-27.94
X114.935Y-125.095
X114.935Y-126.365
X114.935Y-127.635
X114.935Y-128.905
X114.935Y-130.175
X114.935Y-131.445
X114.935Y-134.28
X114.935Y-135.255
X114.935Y-136.525
X114.935Y-137.795
X115.748Y-53.112
X117.03Y-51.548
X117.102Y-52.682
X117.125Y-86.873
X117.127Y-50.754
X117.142Y-48.143
X117.171Y-66.532
X117.675Y-106.115
X117.698Y-40.553
X117.824Y-30.606
X117.861Y-36.587
X117.861Y-38.711
X118.745Y-27.305
X120.007Y-27.435
X120.015Y-37.255
X120.329Y-45.63
X120.608Y-49.495
X120.65Y-84.455
X120.65Y-124.46
X120.703Y-39.317
X120.834Y-32.271
X120.964Y-64.348
X120.99Y-104.347
X121.006Y-44.462
X121.285Y-40.005
X121.336Y-48.198
X121.92Y-38.735
X121.936Y-95.67
X122.009Y-49.543
X122.073Y-116.835
X122.134Y-48.136
X122.361Y-39.747
X122.485Y-75.42
X122.555Y-31.75
X123.083Y-38.842
X123.182Y-32.379
X123.19Y-29.845
X123.577Y-39.969
X123.825Y-32.855
X123.825Y-68.58
X125.095Y-45.085
X125.095Y-88.9
X125.326Y-63.692
X125.334Y-48.136
X125.391Y-50.243
X125.447Y-51.546
X125.73Y-108.585
X125.921Y-74.916
X125.953Y-42.019
X126.105Y-105.016
X126.425Y-119.923
X126.582Y-55.518
X127.0Y-29.845
X127.204Y-114.499
X127.635Y-33.02
X127.929Y-28.167
X127.932Y-36.294
X127.946Y-38.538
X128.27Y-100.33
X128.502Y-21.867
X128.513Y-29.999
X128.705Y-48.229
X128.905Y-45.085
X128.905Y-59.69
X128.905Y-80.01
X128.905Y-120.015
X128.932Y-44.206
X129.174Y-134.932
X129.303Y-47.625
X130.02Y-40.64
X130.175Y-24.13
X130.503Y-48.233
X130.503Y-49.965
X131.085Y-33.249
X131.211Y-55.88
X131.391Y-32.51
X131.759Y-35.808
X132.487Y-53.087
X132.688Y-37.169
X132.715Y-31.75
X132.715Y-36.195
X132.715Y-38.1
X132.745Y-23.73
X133.657Y-44.859
X134.305Y-72.396
X134.62Y-40.64
X134.62Y-52.705
X134.718Y-111.613
X135.534Y-22.234
X135.577Y-23.173
X135.716Y-45.085
X136.296Y-50.342
X136.316Y-35.707
X136.367Y-93.15
X136.367Y-137.085
X136.825Y-66.441
X137.65Y-105.84
X137.795Y-42.545
X138.778Y-35.993
X139.7Y-50.8
X140.335Y-25.4
X140.335Y-124.46
X140.444Y-113.354
X140.56Y-37.711
X140.729Y-104.302
X140.869Y-84.089
X140.885Y-64.331
X141.062Y-27.213
X141.605Y-70.485
X141.605Y-90.17
X141.605Y-110.49
X142.781Y-134.565
X143.147Y-56.865
X143.51Y-125.73
X144.109Y-77.39
X144.145Y-26.035
X144.613Y-100.297
X145.415Y-33.255
X145.415Y-125.095
X145.586Y-47.192
X145.873Y-52.982
X145.896Y-69.877
X145.988Y-119.859
X146.685Y-33.655
X147.591Y-137.452
X147.637Y-62.913
X147.82Y-109.047
X147.955Y-33.655
X147.955Y-53.34
X148.141Y-55.995
X148.141Y-91.18
X148.859Y-49.247
X149.225Y-33.655
X149.225Y-128.27
X149.225Y-129.54
X149.225Y-130.81
X149.225Y-132.08
X149.225Y-133.35
X149.225Y-134.62
X149.225Y-135.89
X149.225Y-137.16
X150.495Y-33.655
X150.645Y-35.866
X150.89Y-75.603
X151.13Y-80.01
X151.13Y-100.33
X151.173Y-49.188
X151.348Y-66.166
X151.765Y-60.325
X151.765Y-120.015
X152.745Y-52.855
X153.035Y-125.73
X154.113Y-33.625
X154.143Y-30.7
X154.339Y-49.155
X155.863Y-37.807
X156.479Y-70.701
X157.51Y-49.155
X158.115Y-125.73
X158.115Y-126.53
X158.115Y-127.635
X158.115Y-128.905
X158.115Y-130.175
X158.115Y-131.445
X158.115Y-132.715
X158.115Y-133.985
X158.115Y-135.255
X158.115Y-136.525
X158.75Y-27.305
X159.385Y-31.02
X159.385Y-33.655
X159.508Y-27.05
X160.02Y-44.45
X160.694Y-49.219
X161.198Y-66.028
X161.925Y-29.82
X162.56Y-46.99
X163.195Y-38.1
X164.107Y-84.575
X164.163Y-64.31
X164.28Y-104.238
X164.465Y-29.21
X164.465Y-123.825
X165.321Y-75.145
X165.735Y-36.195
X165.948Y-49.101
X166.012Y-42.229
X167.609Y-44.113
X167.64Y-68.58
X168.482Y-57.644
X168.875Y-44.121
X168.91Y-34.29
X168.91Y-35.56
X168.91Y-36.83
X168.91Y-38.1
X168.91Y-45.085
X168.91Y-46.355
X168.91Y-47.625
X168.91Y-48.895
X168.91Y-50.165
X168.91Y-88.9
X169.028Y-82.235
X169.11Y-109.22
X169.257Y-96.667
X169.353Y-75.191
X169.51Y-41.84
X169.944Y-106.058
X170.18Y-127.635
X170.211Y-115.679
X170.593Y-53.014
X171.45Y-26.67
X171.45Y-60.325
X171.45Y-80.01
X171.45Y-100.33
X171.45Y-120.015
X171.878Y-30.687
X172.697Y-67.54
X172.72Y-51.435
X173.113Y-87.886
X173.39Y-31.115
X173.99Y-31.75
X173.99Y-34.29
X173.99Y-35.56
X173.99Y-36.83
X173.99Y-38.1
X173.99Y-39.37
X173.99Y-42.545
X173.99Y-45.085
X173.99Y-46.355
X173.99Y-47.625
X173.99Y-48.895
X173.99Y-50.165
X173.99Y-51.435
X177.393Y-40.665
X177.502Y-41.642
X177.8Y-28.575
X178.229Y-93.46
X179.477Y-69.052
X179.527Y-112.663
X179.565Y-126.713
X180.219Y-30.601
X180.863Y-105.867
X180.975Y-51.435
X181.61Y-31.115
X182.245Y-31.75
X182.245Y-34.29
X182.245Y-35.56
X182.245Y-36.83
X182.245Y-38.1
X182.245Y-39.37
X182.245Y-40.64
X182.245Y-42.545
X182.245Y-43.815
X182.245Y-45.085
X182.245Y-46.355
X182.245Y-47.625
X182.245Y-48.895
X182.245Y-50.165
X182.245Y-51.435
X182.88Y-73.66
X183.515Y-131.445
X183.785Y-64.36
X183.902Y-124.75
X183.976Y-104.408
X184.15Y-70.485
X184.15Y-84.455
X184.15Y-110.49
X184.369Y-53.014
X184.785Y-90.805
X185.42Y-28.575
X185.705Y-41.687
X186.375Y-124.541
X187.506Y-116.748
X187.96Y-56.515
X187.96Y-86.995
X188.425Y-30.65
X188.595Y-70.485
X188.595Y-98.425
X189.23Y-51.435
X189.23Y-128.27
X189.23Y-129.54
X189.23Y-130.81
X189.23Y-132.08
X189.23Y-133.35
X189.23Y-134.62
X189.23Y-135.89
X189.23Y-137.16
X189.865Y-31.115
X190.484Y-53.182
X190.5Y-31.75
X190.5Y-34.29
X190.5Y-35.56
X190.5Y-36.83
X190.5Y-38.1
X190.5Y-39.37
X190.5Y-40.64
X190.5Y-42.545
X190.5Y-43.815
X190.5Y-45.085
X190.5Y-46.355
X190.5Y-47.625
X190.5Y-48.895
X190.5Y-50.165
X190.5Y-51.435
X191.135Y-60.325
X191.135Y-80.01
X191.135Y-100.33
X191.135Y-120.65
X191.934Y-106.287
X191.973Y-87.046
X192.405Y-23.495
X193.675Y-125.73
X194.149Y-127.171
X194.263Y-41.483
X195.065Y-93.421
X195.447Y-111.021
X196.707Y-135.684
X196.808Y-41.245
X198.654Y-52.762
X198.755Y-125.73
X198.755Y-127.0
X198.755Y-128.27
X198.755Y-129.54
X198.755Y-130.81
X198.755Y-132.08
X198.755Y-133.35
X198.755Y-134.62
X198.755Y-135.89
X198.755Y-137.16
X199.035Y-41.218
X199.39Y-22.86
X200.295Y-106.516
X200.601Y-85.557
X201.739Y-41.298
X202.204Y-94.529
X203.835Y-64.77
X203.835Y-84.455
X203.835Y-104.14
X204.046Y-41.139
X204.463Y-124.0
X205.068Y-52.762
X206.289Y-114.725
X206.856Y-41.324
X207.358Y-91.131
X207.473Y-104.111
X207.598Y-31.488
X207.778Y-63.681
X208.632Y-40.794
X208.771Y-56.923
X209.55Y-41.91
X209.55Y-69.215
X210.185Y-88.9
X210.336Y-73.645
X210.603Y-131.867
X210.82Y-53.34
X210.82Y-109.22
X211.062Y-104.455
X211.214Y-86.015
X211.455Y-60.325
X211.455Y-80.01
X211.455Y-100.33
X211.455Y-128.201
X211.94Y-93.307
X212.09Y-120.015
X212.155Y-30.545
X212.398Y-111.67
X212.725Y-51.435
X213.696Y-136.524
X213.995Y-34.29
X213.995Y-35.56
X213.995Y-36.83
X213.995Y-38.1
X213.995Y-39.37
X213.995Y-40.64
X213.995Y-42.545
X213.995Y-43.815
X213.995Y-45.085
X213.995Y-46.355
X213.995Y-47.625
X213.995Y-48.895
X213.995Y-50.165
X213.995Y-51.435
X214.397Y-32.492
X214.63Y-22.86
X215.222Y-30.831
X215.265Y-53.34
X215.643Y-89.413
X217.17Y-28.575
X217.285Y-72.92
X217.285Y-113.388
X217.552Y-41.607
X218.44Y-53.975
X219.003Y-131.599
X219.499Y-126.293
X220.186Y-106.058
X220.345Y-30.61
X220.415Y-65.895
X220.797Y-85.748
X220.98Y-51.435
X222.25Y-34.29
X222.25Y-35.56
X222.25Y-36.83
X222.25Y-38.1
X222.25Y-39.37
X222.25Y-40.64
X222.25Y-42.545
X222.25Y-43.815
X222.25Y-45.085
X222.25Y-46.355
X222.25Y-47.625
X222.25Y-48.895
X222.25Y-50.165
X222.25Y-51.435
X222.42Y-32.26
X223.31Y-30.763
X223.52Y-64.77
X223.52Y-84.455
X223.539Y-130.194
X223.847Y-104.349
X224.026Y-124.065
X224.729Y-95.254
X224.79Y-22.86
X224.79Y-71.12
X224.79Y-90.805
X224.79Y-110.49
X224.958Y-136.448
X225.149Y-112.205
X225.264Y-74.485
X225.34Y-55.549
T2
X23.511Y-44.315
X23.511Y-48.125
X26.051Y-44.315
X26.051Y-48.125
X28.591Y-44.315
X28.591Y-48.125
X31.131Y-44.315
X31.131Y-48.125
X52.07Y-22.86
X52.07Y-26.67
X54.61Y-22.86
X54.61Y-26.67
X57.15Y-22.86
X57.15Y-26.67
X59.69Y-22.86
X59.69Y-26.67
X62.23Y-22.86
X62.23Y-26.67
X64.77Y-22.86
X64.77Y-26.67
X67.31Y-22.86
X67.31Y-26.67
X69.85Y-22.86
X69.85Y-26.67
X72.39Y-22.86
X72.39Y-26.67
X74.93Y-22.86
X74.93Y-26.67
X77.47Y-22.86
X77.47Y-26.67
X80.01Y-22.86
X80.01Y-26.67
X82.55Y-22.86
X82.55Y-26.67
X85.09Y-22.86
X85.09Y-26.67
X87.63Y-22.86
X87.63Y-26.67
X144.42Y-29.0
X144.42Y-44.24
X146.96Y-29.0
X146.96Y-44.24
X149.5Y-29.0
X149.5Y-44.24
X151.13Y-22.86
X152.04Y-29.0
X152.04Y-44.24
X153.67Y-22.86
X154.58Y-29.0
X154.58Y-44.24
X156.21Y-22.86
X157.12Y-29.0
X157.12Y-44.24
X158.75Y-22.86
X161.29Y-22.86
X163.83Y-22.86
X166.37Y-22.86
X168.91Y-22.86
X171.45Y-22.86
X173.99Y-22.86
X176.53Y-22.86
X179.07Y-22.86
X181.61Y-22.86
X184.15Y-22.86
X186.69Y-22.86
X189.23Y-22.86
X195.22Y-29.0
X195.22Y-44.24
X197.76Y-29.0
X197.76Y-44.24
X200.3Y-29.0
X200.3Y-44.24
X202.84Y-29.0
X202.84Y-44.24
X205.38Y-29.0
X205.38Y-44.24
X207.92Y-29.0
X207.92Y-44.24
M30
