M48
; DRILL file {KiCad 8.0.1-8.0.1-1~ubuntu22.04.1} date 2025-04-18T23:57:58-0400
; FORMAT={-:-/ absolute / metric / decimal}
; #@! TF.CreationDate,2025-04-18T23:57:58-04:00
; #@! TF.GenerationSoftware,Kicad,Pcbnew,8.0.1-8.0.1-1~ubuntu22.04.1
; #@! TF.FileFunction,NonPlated,1,6,NPTH
FMAT,2
METRIC
; #@! TA.AperFunction,NonPlated,NPTH,ComponentDrill
T1C1.702
; #@! TA.AperFunction,NonPlated,NPTH,ComponentDrill
T2C3.000
; #@! TA.AperFunction,NonPlated,NPTH,ComponentDrill
T3C3.988
%
G90
G05
T1
X22.92Y-35.191
X22.92Y-57.383
X22.92Y-77.383
X22.92Y-97.383
X22.92Y-117.383
X33.08Y-35.191
X33.08Y-57.383
X33.08Y-77.383
X33.08Y-97.383
X33.08Y-117.383
X42.92Y-57.383
X42.92Y-77.383
X42.92Y-97.383
X42.92Y-117.383
X53.08Y-57.383
X53.08Y-77.383
X53.08Y-97.383
X53.08Y-117.383
X66.253Y-57.383
X66.253Y-77.383
X66.253Y-97.383
X66.253Y-117.383
X76.413Y-57.383
X76.413Y-77.383
X76.413Y-97.383
X76.413Y-117.383
X86.253Y-57.383
X86.253Y-77.383
X86.253Y-97.383
X86.253Y-117.383
X96.413Y-57.383
X96.413Y-77.383
X96.413Y-97.383
X96.413Y-117.383
X109.586Y-57.383
X109.586Y-77.383
X109.586Y-97.383
X109.586Y-117.383
X119.746Y-57.383
X119.746Y-77.383
X119.746Y-97.383
X119.746Y-117.383
X129.586Y-57.383
X129.586Y-77.383
X129.586Y-97.383
X129.586Y-117.383
X139.746Y-57.383
X139.746Y-77.383
X139.746Y-97.383
X139.746Y-117.383
X152.92Y-57.383
X152.92Y-77.383
X152.92Y-97.383
X152.92Y-117.383
X163.08Y-57.383
X163.08Y-77.383
X163.08Y-97.383
X163.08Y-117.383
X172.72Y-57.383
X172.92Y-77.383
X172.92Y-97.383
X172.92Y-117.383
X182.88Y-57.383
X183.08Y-77.383
X183.08Y-97.383
X183.08Y-117.383
X192.92Y-57.383
X192.92Y-77.383
X192.92Y-97.383
X192.92Y-117.383
X203.08Y-57.383
X203.08Y-77.383
X203.08Y-97.383
X203.08Y-117.383
X212.92Y-57.383
X212.92Y-77.383
X212.92Y-97.383
X212.92Y-117.383
X223.08Y-57.383
X223.08Y-77.383
X223.08Y-97.383
X223.08Y-117.383
T2
X25.46Y-40.271
X25.46Y-62.463
X25.46Y-82.463
X25.46Y-102.463
X25.46Y-122.463
X31.81Y-37.731
X31.81Y-59.923
X31.81Y-79.923
X31.81Y-99.923
X31.81Y-119.923
X45.46Y-62.463
X45.46Y-82.463
X45.46Y-102.463
X45.46Y-122.463
X51.81Y-59.923
X51.81Y-79.923
X51.81Y-99.923
X51.81Y-119.923
X68.793Y-62.463
X68.793Y-82.463
X68.793Y-102.463
X68.793Y-122.463
X75.143Y-59.923
X75.143Y-79.923
X75.143Y-99.923
X75.143Y-119.923
X88.793Y-62.463
X88.793Y-82.463
X88.793Y-102.463
X88.793Y-122.463
X95.143Y-59.923
X95.143Y-79.923
X95.143Y-99.923
X95.143Y-119.923
X112.126Y-62.463
X112.126Y-82.463
X112.126Y-102.463
X112.126Y-122.463
X118.476Y-59.923
X118.476Y-79.923
X118.476Y-99.923
X118.476Y-119.923
X132.126Y-62.463
X132.126Y-82.463
X132.126Y-102.463
X132.126Y-122.463
X138.476Y-59.923
X138.476Y-79.923
X138.476Y-99.923
X138.476Y-119.923
X155.46Y-62.463
X155.46Y-82.463
X155.46Y-102.463
X155.46Y-122.463
X161.81Y-59.923
X161.81Y-79.923
X161.81Y-99.923
X161.81Y-119.923
X175.26Y-62.463
X175.46Y-82.463
X175.46Y-102.463
X175.46Y-122.463
X181.61Y-59.923
X181.81Y-79.923
X181.81Y-99.923
X181.81Y-119.923
X195.46Y-62.463
X195.46Y-82.463
X195.46Y-102.463
X195.46Y-122.463
X201.81Y-59.923
X201.81Y-79.923
X201.81Y-99.923
X201.81Y-119.923
X215.46Y-62.463
X215.46Y-82.463
X215.46Y-102.463
X215.46Y-122.463
X221.81Y-59.923
X221.81Y-79.923
X221.81Y-99.923
X221.81Y-119.923
T3
X28.0Y-35.191
X28.0Y-57.383
X28.0Y-77.383
X28.0Y-97.383
X28.0Y-117.383
X48.0Y-57.383
X48.0Y-77.383
X48.0Y-97.383
X48.0Y-117.383
X71.333Y-57.383
X71.333Y-77.383
X71.333Y-97.383
X71.333Y-117.383
X91.333Y-57.383
X91.333Y-77.383
X91.333Y-97.383
X91.333Y-117.383
X114.666Y-57.383
X114.666Y-77.383
X114.666Y-97.383
X114.666Y-117.383
X134.666Y-57.383
X134.666Y-77.383
X134.666Y-97.383
X134.666Y-117.383
X158.0Y-57.383
X158.0Y-77.383
X158.0Y-97.383
X158.0Y-117.383
X177.8Y-57.383
X178.0Y-77.383
X178.0Y-97.383
X178.0Y-117.383
X198.0Y-57.383
X198.0Y-77.383
X198.0Y-97.383
X198.0Y-117.383
X218.0Y-57.383
X218.0Y-77.383
X218.0Y-97.383
X218.0Y-117.383
M30
