%TF.GenerationSoftware,KiCad,Pcbnew,8.0.1-8.0.1-1~ubuntu22.04.1*%
%TF.CreationDate,2024-05-02T00:15:07-04:00*%
%TF.ProjectId,Claculator_Display,436c6163-756c-4617-946f-725f44697370,rev?*%
%TF.SameCoordinates,Original*%
%TF.FileFunction,Drillmap*%
%TF.FilePolarity,Positive*%
%FSLAX45Y45*%
G04 Gerber Fmt 4.5, Leading zero omitted, Abs format (unit mm)*
G04 Created by KiCad (PCBNEW 8.0.1-8.0.1-1~ubuntu22.04.1) date 2024-05-02 00:15:07*
%MOMM*%
%LPD*%
G01*
G04 APERTURE LIST*
%ADD10C,0.100000*%
%ADD11C,0.200000*%
%ADD12C,0.110000*%
G04 APERTURE END LIST*
D10*
X12348000Y-4410000D02*
G75*
G02*
X12048000Y-4410000I-150000J0D01*
G01*
X12048000Y-4410000D02*
G75*
G02*
X12348000Y-4410000I150000J0D01*
G01*
X20748000Y-4410000D02*
G75*
G02*
X20448000Y-4410000I-150000J0D01*
G01*
X20448000Y-4410000D02*
G75*
G02*
X20748000Y-4410000I150000J0D01*
G01*
D11*
X11898000Y-4110000D02*
X29298000Y-4110000D01*
X29298000Y-15010000D01*
X11898000Y-15010000D01*
X11898000Y-4110000D01*
D10*
X20748000Y-14710000D02*
G75*
G02*
X20448000Y-14710000I-150000J0D01*
G01*
X20448000Y-14710000D02*
G75*
G02*
X20748000Y-14710000I150000J0D01*
G01*
X12348000Y-14710000D02*
G75*
G02*
X12048000Y-14710000I-150000J0D01*
G01*
X12048000Y-14710000D02*
G75*
G02*
X12348000Y-14710000I150000J0D01*
G01*
X29148000Y-14710000D02*
G75*
G02*
X28848000Y-14710000I-150000J0D01*
G01*
X28848000Y-14710000D02*
G75*
G02*
X29148000Y-14710000I150000J0D01*
G01*
X29148000Y-4410000D02*
G75*
G02*
X28848000Y-4410000I-150000J0D01*
G01*
X28848000Y-4410000D02*
G75*
G02*
X29148000Y-4410000I150000J0D01*
G01*
D11*
D10*
X11943120Y-6946233D02*
X11983120Y-6986233D01*
X11983120Y-6946233D02*
X11943120Y-6986233D01*
X11947150Y-9327200D02*
X11987150Y-9367200D01*
X11987150Y-9327200D02*
X11947150Y-9367200D01*
X11968800Y-6076000D02*
X12008800Y-6116000D01*
X12008800Y-6076000D02*
X11968800Y-6116000D01*
X11968800Y-8514400D02*
X12008800Y-8554400D01*
X12008800Y-8514400D02*
X11968800Y-8554400D01*
X11968800Y-10952800D02*
X12008800Y-10992800D01*
X12008800Y-10952800D02*
X11968800Y-10992800D01*
X12019600Y-13442000D02*
X12059600Y-13482000D01*
X12059600Y-13442000D02*
X12019600Y-13482000D01*
X12020250Y-9399650D02*
X12060250Y-9439650D01*
X12060250Y-9399650D02*
X12020250Y-9439650D01*
X12033253Y-7016100D02*
X12073253Y-7056100D01*
X12073253Y-7016100D02*
X12033253Y-7056100D01*
X12070400Y-7904800D02*
X12110400Y-7944800D01*
X12110400Y-7904800D02*
X12070400Y-7944800D01*
X12070400Y-10444800D02*
X12110400Y-10484800D01*
X12110400Y-10444800D02*
X12070400Y-10484800D01*
X12070400Y-12019600D02*
X12110400Y-12059600D01*
X12110400Y-12019600D02*
X12070400Y-12059600D01*
X12070400Y-12934000D02*
X12110400Y-12974000D01*
X12110400Y-12934000D02*
X12070400Y-12974000D01*
X12172000Y-5466400D02*
X12212000Y-5506400D01*
X12212000Y-5466400D02*
X12172000Y-5506400D01*
X12284425Y-6758050D02*
X12324425Y-6798050D01*
X12324425Y-6758050D02*
X12284425Y-6798050D01*
X12324400Y-5364800D02*
X12364400Y-5404800D01*
X12364400Y-5364800D02*
X12324400Y-5404800D01*
X12375200Y-7752400D02*
X12415200Y-7792400D01*
X12415200Y-7752400D02*
X12375200Y-7792400D01*
X12375200Y-10241600D02*
X12415200Y-10281600D01*
X12415200Y-10241600D02*
X12375200Y-10281600D01*
X12426000Y-12730800D02*
X12466000Y-12770800D01*
X12466000Y-12730800D02*
X12426000Y-12770800D01*
X12527600Y-7324350D02*
X12567600Y-7364350D01*
X12567600Y-7324350D02*
X12527600Y-7364350D01*
X12578400Y-5263200D02*
X12618400Y-5303200D01*
X12618400Y-5263200D02*
X12578400Y-5303200D01*
X12578400Y-11206800D02*
X12618400Y-11246800D01*
X12618400Y-11206800D02*
X12578400Y-11246800D01*
X12578400Y-13746800D02*
X12618400Y-13786800D01*
X12618400Y-13746800D02*
X12578400Y-13786800D01*
X12629200Y-8768400D02*
X12669200Y-8808400D01*
X12669200Y-8768400D02*
X12629200Y-8808400D01*
X12630000Y-14330000D02*
X12670000Y-14370000D01*
X12670000Y-14330000D02*
X12630000Y-14370000D01*
X12655400Y-6795750D02*
X12695400Y-6835750D01*
X12695400Y-6795750D02*
X12655400Y-6835750D01*
X12730800Y-6228400D02*
X12770800Y-6268400D01*
X12770800Y-6228400D02*
X12730800Y-6268400D01*
X12809168Y-6836135D02*
X12849168Y-6876135D01*
X12849168Y-6836135D02*
X12809168Y-6876135D01*
X12832400Y-7955600D02*
X12872400Y-7995600D01*
X12872400Y-7955600D02*
X12832400Y-7995600D01*
X12883200Y-6102025D02*
X12923200Y-6142025D01*
X12923200Y-6102025D02*
X12883200Y-6142025D01*
X12883200Y-8616000D02*
X12923200Y-8656000D01*
X12923200Y-8616000D02*
X12883200Y-8656000D01*
X12883200Y-11105200D02*
X12923200Y-11145200D01*
X12923200Y-11105200D02*
X12883200Y-11145200D01*
X12883200Y-13594400D02*
X12923200Y-13634400D01*
X12923200Y-13594400D02*
X12883200Y-13634400D01*
X12911700Y-9530400D02*
X12951700Y-9570400D01*
X12951700Y-9530400D02*
X12911700Y-9570400D01*
X12928257Y-7098633D02*
X12968257Y-7138633D01*
X12968257Y-7098633D02*
X12928257Y-7138633D01*
X12984800Y-13797600D02*
X13024800Y-13837600D01*
X13024800Y-13797600D02*
X12984800Y-13837600D01*
X13035600Y-7053800D02*
X13075600Y-7093800D01*
X13075600Y-7053800D02*
X13035600Y-7093800D01*
X13061202Y-9450450D02*
X13101202Y-9490450D01*
X13101202Y-9450450D02*
X13061202Y-9490450D01*
X13071950Y-5364800D02*
X13111950Y-5404800D01*
X13111950Y-5364800D02*
X13071950Y-5404800D01*
X13086400Y-7882900D02*
X13126400Y-7922900D01*
X13126400Y-7882900D02*
X13086400Y-7922900D01*
X13086400Y-10365500D02*
X13126400Y-10405500D01*
X13126400Y-10365500D02*
X13086400Y-10405500D01*
X13086400Y-12832400D02*
X13126400Y-12872400D01*
X13126400Y-12832400D02*
X13086400Y-12872400D01*
X13155919Y-6871150D02*
X13195919Y-6911150D01*
X13195919Y-6871150D02*
X13155919Y-6911150D01*
X13289600Y-7286650D02*
X13329600Y-7326650D01*
X13329600Y-7286650D02*
X13289600Y-7326650D01*
X13340400Y-4501200D02*
X13380400Y-4541200D01*
X13380400Y-4501200D02*
X13340400Y-4541200D01*
X13480000Y-5255000D02*
X13520000Y-5295000D01*
X13520000Y-5255000D02*
X13480000Y-5295000D01*
X13492800Y-9682800D02*
X13532800Y-9722800D01*
X13532800Y-9682800D02*
X13492800Y-9722800D01*
X13645200Y-8819200D02*
X13685200Y-8859200D01*
X13685200Y-8819200D02*
X13645200Y-8859200D01*
X13645200Y-11105200D02*
X13685200Y-11145200D01*
X13685200Y-11105200D02*
X13645200Y-11145200D01*
X13696000Y-7498400D02*
X13736000Y-7538400D01*
X13736000Y-7498400D02*
X13696000Y-7538400D01*
X13696000Y-12934000D02*
X13736000Y-12974000D01*
X13736000Y-12934000D02*
X13696000Y-12974000D01*
X13730000Y-11380000D02*
X13770000Y-11420000D01*
X13770000Y-11380000D02*
X13730000Y-11420000D01*
X13746800Y-8057200D02*
X13786800Y-8097200D01*
X13786800Y-8057200D02*
X13746800Y-8097200D01*
X13852850Y-11100750D02*
X13892850Y-11140750D01*
X13892850Y-11100750D02*
X13852850Y-11140750D01*
X13899200Y-9022400D02*
X13939200Y-9062400D01*
X13939200Y-9022400D02*
X13899200Y-9062400D01*
X13950000Y-9124000D02*
X13990000Y-9164000D01*
X13990000Y-9124000D02*
X13950000Y-9164000D01*
X13950000Y-10241600D02*
X13990000Y-10281600D01*
X13990000Y-10241600D02*
X13950000Y-10281600D01*
X13971689Y-11092589D02*
X14011689Y-11132589D01*
X14011689Y-11092589D02*
X13971689Y-11132589D01*
X14000800Y-7142800D02*
X14040800Y-7182800D01*
X14040800Y-7142800D02*
X14000800Y-7182800D01*
X14000800Y-9225600D02*
X14040800Y-9265600D01*
X14040800Y-9225600D02*
X14000800Y-9265600D01*
X14000800Y-13797600D02*
X14040800Y-13837600D01*
X14040800Y-13797600D02*
X14000800Y-13837600D01*
X14051600Y-6482400D02*
X14091600Y-6522400D01*
X14091600Y-6482400D02*
X14051600Y-6522400D01*
X14051600Y-9327200D02*
X14091600Y-9367200D01*
X14091600Y-9327200D02*
X14051600Y-9367200D01*
X14081450Y-11075350D02*
X14121450Y-11115350D01*
X14121450Y-11075350D02*
X14081450Y-11115350D01*
X14102400Y-10749600D02*
X14142400Y-10789600D01*
X14142400Y-10749600D02*
X14102400Y-10789600D01*
X14102400Y-13594400D02*
X14142400Y-13634400D01*
X14142400Y-13594400D02*
X14102400Y-13634400D01*
X14130000Y-14204000D02*
X14170000Y-14244000D01*
X14170000Y-14204000D02*
X14130000Y-14244000D01*
X14180000Y-8780000D02*
X14220000Y-8820000D01*
X14220000Y-8780000D02*
X14180000Y-8820000D01*
X14180000Y-13680000D02*
X14220000Y-13720000D01*
X14220000Y-13680000D02*
X14180000Y-13720000D01*
X14280000Y-13680000D02*
X14320000Y-13720000D01*
X14320000Y-13680000D02*
X14280000Y-13720000D01*
X14305600Y-8463600D02*
X14345600Y-8503600D01*
X14345600Y-8463600D02*
X14305600Y-8503600D01*
X14430000Y-12480000D02*
X14470000Y-12520000D01*
X14470000Y-12480000D02*
X14430000Y-12520000D01*
X14430000Y-13680000D02*
X14470000Y-13720000D01*
X14470000Y-13680000D02*
X14430000Y-13720000D01*
X14458000Y-8920800D02*
X14498000Y-8960800D01*
X14498000Y-8920800D02*
X14458000Y-8960800D01*
X14475450Y-8768400D02*
X14515450Y-8808400D01*
X14515450Y-8768400D02*
X14475450Y-8808400D01*
X14530000Y-6455000D02*
X14570000Y-6495000D01*
X14570000Y-6455000D02*
X14530000Y-6495000D01*
X14530000Y-13680000D02*
X14570000Y-13720000D01*
X14570000Y-13680000D02*
X14530000Y-13720000D01*
X14559600Y-7498400D02*
X14599600Y-7538400D01*
X14599600Y-7498400D02*
X14559600Y-7538400D01*
X14580000Y-8730000D02*
X14620000Y-8770000D01*
X14620000Y-8730000D02*
X14580000Y-8770000D01*
X14610400Y-12375200D02*
X14650400Y-12415200D01*
X14650400Y-12375200D02*
X14610400Y-12415200D01*
X14620350Y-8893862D02*
X14660350Y-8933862D01*
X14660350Y-8893862D02*
X14620350Y-8933862D01*
X14630000Y-12230000D02*
X14670000Y-12270000D01*
X14670000Y-12230000D02*
X14630000Y-12270000D01*
X14680000Y-13680000D02*
X14720000Y-13720000D01*
X14720000Y-13680000D02*
X14680000Y-13720000D01*
X14712000Y-8666800D02*
X14752000Y-8706800D01*
X14752000Y-8666800D02*
X14712000Y-8706800D01*
X14712000Y-12426000D02*
X14752000Y-12466000D01*
X14752000Y-12426000D02*
X14712000Y-12466000D01*
X14780000Y-13680000D02*
X14820000Y-13720000D01*
X14820000Y-13680000D02*
X14780000Y-13720000D01*
X14823300Y-12502734D02*
X14863300Y-12542734D01*
X14863300Y-12502734D02*
X14823300Y-12542734D01*
X14829645Y-8913254D02*
X14869645Y-8953254D01*
X14869645Y-8913254D02*
X14829645Y-8953254D01*
X14864400Y-10343200D02*
X14904400Y-10383200D01*
X14904400Y-10343200D02*
X14864400Y-10383200D01*
X14880000Y-8730000D02*
X14920000Y-8770000D01*
X14920000Y-8730000D02*
X14880000Y-8770000D01*
X14880000Y-13680000D02*
X14920000Y-13720000D01*
X14920000Y-13680000D02*
X14880000Y-13720000D01*
X14915200Y-12324400D02*
X14955200Y-12364400D01*
X14955200Y-12324400D02*
X14915200Y-12364400D01*
X14930000Y-9230000D02*
X14970000Y-9270000D01*
X14970000Y-9230000D02*
X14930000Y-9270000D01*
X14948056Y-11774395D02*
X14988056Y-11814395D01*
X14988056Y-11774395D02*
X14948056Y-11814395D01*
X14965791Y-8911450D02*
X15005791Y-8951450D01*
X15005791Y-8911450D02*
X14965791Y-8951450D01*
X15005000Y-4755000D02*
X15045000Y-4795000D01*
X15045000Y-4755000D02*
X15005000Y-4795000D01*
X15016800Y-12273600D02*
X15056800Y-12313600D01*
X15056800Y-12273600D02*
X15016800Y-12313600D01*
X15016800Y-13668683D02*
X15056800Y-13708683D01*
X15056800Y-13668683D02*
X15016800Y-13708683D01*
X15016800Y-14204000D02*
X15056800Y-14244000D01*
X15056800Y-14204000D02*
X15016800Y-14244000D01*
X15060712Y-8321518D02*
X15100712Y-8361518D01*
X15100712Y-8321518D02*
X15060712Y-8361518D01*
X15067600Y-4501200D02*
X15107600Y-4541200D01*
X15107600Y-4501200D02*
X15067600Y-4541200D01*
X15118400Y-12222800D02*
X15158400Y-12262800D01*
X15158400Y-12222800D02*
X15118400Y-12262800D01*
X15169200Y-10089200D02*
X15209200Y-10129200D01*
X15209200Y-10089200D02*
X15169200Y-10129200D01*
X15220000Y-9682800D02*
X15260000Y-9722800D01*
X15260000Y-9682800D02*
X15220000Y-9722800D01*
X15220000Y-12172000D02*
X15260000Y-12212000D01*
X15260000Y-12172000D02*
X15220000Y-12212000D01*
X15321170Y-12120770D02*
X15361170Y-12160770D01*
X15361170Y-12120770D02*
X15321170Y-12160770D01*
X15372400Y-7498400D02*
X15412400Y-7538400D01*
X15412400Y-7498400D02*
X15372400Y-7538400D01*
X15423200Y-6533200D02*
X15463200Y-6573200D01*
X15463200Y-6533200D02*
X15423200Y-6573200D01*
X15423200Y-8362000D02*
X15463200Y-8402000D01*
X15463200Y-8362000D02*
X15423200Y-8402000D01*
X15423200Y-12121200D02*
X15463200Y-12161200D01*
X15463200Y-12121200D02*
X15423200Y-12161200D01*
X15430000Y-9330000D02*
X15470000Y-9370000D01*
X15470000Y-9330000D02*
X15430000Y-9370000D01*
X15461860Y-12213371D02*
X15501860Y-12253371D01*
X15501860Y-12213371D02*
X15461860Y-12253371D01*
X15474000Y-11206800D02*
X15514000Y-11246800D01*
X15514000Y-11206800D02*
X15474000Y-11246800D01*
X15474000Y-13238800D02*
X15514000Y-13278800D01*
X15514000Y-13238800D02*
X15474000Y-13278800D01*
X15498819Y-8795218D02*
X15538819Y-8835218D01*
X15538819Y-8795218D02*
X15498819Y-8835218D01*
X15540412Y-14182831D02*
X15580412Y-14222831D01*
X15580412Y-14182831D02*
X15540412Y-14222831D01*
X15575600Y-13238800D02*
X15615600Y-13278800D01*
X15615600Y-13238800D02*
X15575600Y-13278800D01*
X15580000Y-9330000D02*
X15620000Y-9370000D01*
X15620000Y-9330000D02*
X15580000Y-9370000D01*
X15599756Y-12194499D02*
X15639756Y-12234499D01*
X15639756Y-12194499D02*
X15599756Y-12234499D01*
X15626400Y-10343200D02*
X15666400Y-10383200D01*
X15666400Y-10343200D02*
X15626400Y-10383200D01*
X15626400Y-10749600D02*
X15666400Y-10789600D01*
X15666400Y-10749600D02*
X15626400Y-10789600D01*
X15639156Y-12286356D02*
X15679156Y-12326356D01*
X15679156Y-12286356D02*
X15639156Y-12326356D01*
X15677200Y-13238800D02*
X15717200Y-13278800D01*
X15717200Y-13238800D02*
X15677200Y-13278800D01*
X15722950Y-8717600D02*
X15762950Y-8757600D01*
X15762950Y-8717600D02*
X15722950Y-8757600D01*
X15728430Y-10749170D02*
X15768430Y-10789170D01*
X15768430Y-10749170D02*
X15728430Y-10789170D01*
X15752749Y-12298349D02*
X15792749Y-12338349D01*
X15792749Y-12298349D02*
X15752749Y-12338349D01*
X15778800Y-6330000D02*
X15818800Y-6370000D01*
X15818800Y-6330000D02*
X15778800Y-6370000D01*
X15778800Y-6431600D02*
X15818800Y-6471600D01*
X15818800Y-6431600D02*
X15778800Y-6471600D01*
X15778800Y-13238800D02*
X15818800Y-13278800D01*
X15818800Y-13238800D02*
X15778800Y-13278800D01*
X15780000Y-9280000D02*
X15820000Y-9320000D01*
X15820000Y-9280000D02*
X15780000Y-9320000D01*
X15857758Y-12320710D02*
X15897758Y-12360710D01*
X15897758Y-12320710D02*
X15857758Y-12360710D01*
X15879970Y-10749170D02*
X15919970Y-10789170D01*
X15919970Y-10749170D02*
X15879970Y-10789170D01*
X15880000Y-8330000D02*
X15920000Y-8370000D01*
X15920000Y-8330000D02*
X15880000Y-8370000D01*
X15880400Y-6330000D02*
X15920400Y-6370000D01*
X15920400Y-6330000D02*
X15880400Y-6370000D01*
X15880400Y-6431600D02*
X15920400Y-6471600D01*
X15920400Y-6431600D02*
X15880400Y-6471600D01*
X15880400Y-8819200D02*
X15920400Y-8859200D01*
X15920400Y-8819200D02*
X15880400Y-8859200D01*
X15905000Y-4980000D02*
X15945000Y-5020000D01*
X15945000Y-4980000D02*
X15905000Y-5020000D01*
X15931200Y-13238800D02*
X15971200Y-13278800D01*
X15971200Y-13238800D02*
X15931200Y-13278800D01*
X15966208Y-12344792D02*
X16006208Y-12384792D01*
X16006208Y-12344792D02*
X15966208Y-12384792D01*
X15980000Y-9280000D02*
X16020000Y-9320000D01*
X16020000Y-9280000D02*
X15980000Y-9320000D01*
X15982000Y-6330000D02*
X16022000Y-6370000D01*
X16022000Y-6330000D02*
X15982000Y-6370000D01*
X15982000Y-6431600D02*
X16022000Y-6471600D01*
X16022000Y-6431600D02*
X15982000Y-6471600D01*
X15982000Y-10749600D02*
X16022000Y-10789600D01*
X16022000Y-10749600D02*
X15982000Y-10789600D01*
X15982000Y-14153200D02*
X16022000Y-14193200D01*
X16022000Y-14153200D02*
X15982000Y-14193200D01*
X16033230Y-13238370D02*
X16073230Y-13278370D01*
X16073230Y-13238370D02*
X16033230Y-13278370D01*
X16033966Y-8910750D02*
X16073966Y-8950750D01*
X16073966Y-8910750D02*
X16033966Y-8950750D01*
X16083600Y-6330000D02*
X16123600Y-6370000D01*
X16123600Y-6330000D02*
X16083600Y-6370000D01*
X16083600Y-6431600D02*
X16123600Y-6471600D01*
X16123600Y-6431600D02*
X16083600Y-6471600D01*
X16134400Y-14153200D02*
X16174400Y-14193200D01*
X16174400Y-14153200D02*
X16134400Y-14193200D01*
X16169206Y-11815065D02*
X16209206Y-11855065D01*
X16209206Y-11815065D02*
X16169206Y-11855065D01*
X16185200Y-11968800D02*
X16225200Y-12008800D01*
X16225200Y-11968800D02*
X16185200Y-12008800D01*
X16185200Y-13238800D02*
X16225200Y-13278800D01*
X16225200Y-13238800D02*
X16185200Y-13278800D01*
X16286800Y-8311200D02*
X16326800Y-8351200D01*
X16326800Y-8311200D02*
X16286800Y-8351200D01*
X16286800Y-11257600D02*
X16326800Y-11297600D01*
X16326800Y-11257600D02*
X16286800Y-11297600D01*
X16286800Y-11359200D02*
X16326800Y-11399200D01*
X16326800Y-11359200D02*
X16286800Y-11399200D01*
X16286800Y-13188000D02*
X16326800Y-13228000D01*
X16326800Y-13188000D02*
X16286800Y-13228000D01*
X16286800Y-14153200D02*
X16326800Y-14193200D01*
X16326800Y-14153200D02*
X16286800Y-14193200D01*
X16313550Y-12896450D02*
X16353550Y-12936450D01*
X16353550Y-12896450D02*
X16313550Y-12936450D01*
X16337600Y-9378000D02*
X16377600Y-9418000D01*
X16377600Y-9378000D02*
X16337600Y-9418000D01*
X16388400Y-11257600D02*
X16428400Y-11297600D01*
X16428400Y-11257600D02*
X16388400Y-11297600D01*
X16388400Y-11359200D02*
X16428400Y-11399200D01*
X16428400Y-11359200D02*
X16388400Y-11399200D01*
X16390614Y-11518740D02*
X16430614Y-11558740D01*
X16430614Y-11518740D02*
X16390614Y-11558740D01*
X16439200Y-9073200D02*
X16479200Y-9113200D01*
X16479200Y-9073200D02*
X16439200Y-9113200D01*
X16439200Y-10343200D02*
X16479200Y-10383200D01*
X16479200Y-10343200D02*
X16439200Y-10383200D01*
X16439200Y-13746800D02*
X16479200Y-13786800D01*
X16479200Y-13746800D02*
X16439200Y-13786800D01*
X16439200Y-13848400D02*
X16479200Y-13888400D01*
X16479200Y-13848400D02*
X16439200Y-13888400D01*
X16439200Y-14153200D02*
X16479200Y-14193200D01*
X16479200Y-14153200D02*
X16439200Y-14193200D01*
X16490000Y-5314000D02*
X16530000Y-5354000D01*
X16530000Y-5314000D02*
X16490000Y-5354000D01*
X16490000Y-8057200D02*
X16530000Y-8097200D01*
X16530000Y-8057200D02*
X16490000Y-8097200D01*
X16490000Y-8158800D02*
X16530000Y-8198800D01*
X16530000Y-8158800D02*
X16490000Y-8198800D01*
X16490000Y-8260400D02*
X16530000Y-8300400D01*
X16530000Y-8260400D02*
X16490000Y-8300400D01*
X16490000Y-8362000D02*
X16530000Y-8402000D01*
X16530000Y-8362000D02*
X16490000Y-8402000D01*
X16490000Y-11257600D02*
X16530000Y-11297600D01*
X16530000Y-11257600D02*
X16490000Y-11297600D01*
X16490000Y-11359200D02*
X16530000Y-11399200D01*
X16530000Y-11359200D02*
X16490000Y-11399200D01*
X16540800Y-12578400D02*
X16580800Y-12618400D01*
X16580800Y-12578400D02*
X16540800Y-12618400D01*
X16540800Y-13746800D02*
X16580800Y-13786800D01*
X16580800Y-13746800D02*
X16540800Y-13786800D01*
X16540800Y-13848400D02*
X16580800Y-13888400D01*
X16580800Y-13848400D02*
X16540800Y-13888400D01*
X16559446Y-8514400D02*
X16599446Y-8554400D01*
X16599446Y-8514400D02*
X16559446Y-8554400D01*
X16591600Y-6380800D02*
X16631600Y-6420800D01*
X16631600Y-6380800D02*
X16591600Y-6420800D01*
X16591600Y-8057200D02*
X16631600Y-8097200D01*
X16631600Y-8057200D02*
X16591600Y-8097200D01*
X16591600Y-8158800D02*
X16631600Y-8198800D01*
X16631600Y-8158800D02*
X16591600Y-8198800D01*
X16591600Y-8260400D02*
X16631600Y-8300400D01*
X16631600Y-8260400D02*
X16591600Y-8300400D01*
X16591600Y-8362000D02*
X16631600Y-8402000D01*
X16631600Y-8362000D02*
X16591600Y-8402000D01*
X16591600Y-11257600D02*
X16631600Y-11297600D01*
X16631600Y-11257600D02*
X16591600Y-11297600D01*
X16591600Y-11359200D02*
X16631600Y-11399200D01*
X16631600Y-11359200D02*
X16591600Y-11399200D01*
X16591600Y-13594400D02*
X16631600Y-13634400D01*
X16631600Y-13594400D02*
X16591600Y-13634400D01*
X16630000Y-4630000D02*
X16670000Y-4670000D01*
X16670000Y-4630000D02*
X16630000Y-4670000D01*
X16642400Y-13746800D02*
X16682400Y-13786800D01*
X16682400Y-13746800D02*
X16642400Y-13786800D01*
X16642400Y-13848400D02*
X16682400Y-13888400D01*
X16682400Y-13848400D02*
X16642400Y-13888400D01*
X16744000Y-13746800D02*
X16784000Y-13786800D01*
X16784000Y-13746800D02*
X16744000Y-13786800D01*
X16744000Y-13848400D02*
X16784000Y-13888400D01*
X16784000Y-13848400D02*
X16744000Y-13888400D01*
X16794800Y-10749600D02*
X16834800Y-10789600D01*
X16834800Y-10749600D02*
X16794800Y-10789600D01*
X16794800Y-11511600D02*
X16834800Y-11551600D01*
X16834800Y-11511600D02*
X16794800Y-11551600D01*
X16845600Y-7498400D02*
X16885600Y-7538400D01*
X16885600Y-7498400D02*
X16845600Y-7538400D01*
X16845600Y-14458000D02*
X16885600Y-14498000D01*
X16885600Y-14458000D02*
X16845600Y-14498000D01*
X16896400Y-6025200D02*
X16936400Y-6065200D01*
X16936400Y-6025200D02*
X16896400Y-6065200D01*
X16896400Y-9124000D02*
X16936400Y-9164000D01*
X16936400Y-9124000D02*
X16896400Y-9164000D01*
X16896400Y-9276400D02*
X16936400Y-9316400D01*
X16936400Y-9276400D02*
X16896400Y-9316400D01*
X16896400Y-9378000D02*
X16936400Y-9418000D01*
X16936400Y-9378000D02*
X16896400Y-9418000D01*
X16925350Y-12782131D02*
X16965350Y-12822131D01*
X16965350Y-12782131D02*
X16925350Y-12822131D01*
X16947200Y-7062850D02*
X16987200Y-7102850D01*
X16987200Y-7062850D02*
X16947200Y-7102850D01*
X16947200Y-8463600D02*
X16987200Y-8503600D01*
X16987200Y-8463600D02*
X16947200Y-8503600D01*
X16947200Y-11511600D02*
X16987200Y-11551600D01*
X16987200Y-11511600D02*
X16947200Y-11551600D01*
X17048800Y-13587850D02*
X17088800Y-13627850D01*
X17088800Y-13587850D02*
X17048800Y-13627850D01*
X17098413Y-7101737D02*
X17138413Y-7141737D01*
X17138413Y-7101737D02*
X17098413Y-7141737D01*
X17099600Y-9203950D02*
X17139600Y-9243950D01*
X17139600Y-9203950D02*
X17099600Y-9243950D01*
X17099600Y-13442000D02*
X17139600Y-13482000D01*
X17139600Y-13442000D02*
X17099600Y-13482000D01*
X17150400Y-5466400D02*
X17190400Y-5506400D01*
X17190400Y-5466400D02*
X17150400Y-5506400D01*
X17150400Y-8717600D02*
X17190400Y-8757600D01*
X17190400Y-8717600D02*
X17150400Y-8757600D01*
X17178050Y-7904800D02*
X17218050Y-7944800D01*
X17218050Y-7904800D02*
X17178050Y-7944800D01*
X17178050Y-10444800D02*
X17218050Y-10484800D01*
X17218050Y-10444800D02*
X17178050Y-10484800D01*
X17178050Y-12934000D02*
X17218050Y-12974000D01*
X17218050Y-12934000D02*
X17178050Y-12974000D01*
X17353600Y-6758050D02*
X17393600Y-6798050D01*
X17393600Y-6758050D02*
X17353600Y-6798050D01*
X17404400Y-7752400D02*
X17444400Y-7792400D01*
X17444400Y-7752400D02*
X17404400Y-7792400D01*
X17404400Y-11257600D02*
X17444400Y-11297600D01*
X17444400Y-11257600D02*
X17404400Y-11297600D01*
X17529232Y-12627421D02*
X17569232Y-12667421D01*
X17569232Y-12627421D02*
X17529232Y-12667421D01*
X17556800Y-13746800D02*
X17596800Y-13786800D01*
X17596800Y-13746800D02*
X17556800Y-13786800D01*
X17607600Y-7324350D02*
X17647600Y-7364350D01*
X17647600Y-7324350D02*
X17607600Y-7364350D01*
X17658400Y-8819200D02*
X17698400Y-8859200D01*
X17698400Y-8819200D02*
X17658400Y-8859200D01*
X17658400Y-10241600D02*
X17698400Y-10281600D01*
X17698400Y-10241600D02*
X17658400Y-10281600D01*
X17709200Y-6795750D02*
X17749200Y-6835750D01*
X17749200Y-6795750D02*
X17709200Y-6835750D01*
X17760000Y-5314000D02*
X17800000Y-5354000D01*
X17800000Y-5314000D02*
X17760000Y-5354000D01*
X17861600Y-6833450D02*
X17901600Y-6873450D01*
X17901600Y-6833450D02*
X17861600Y-6873450D01*
X17880000Y-4605000D02*
X17920000Y-4645000D01*
X17920000Y-4605000D02*
X17880000Y-4645000D01*
X17959900Y-11101900D02*
X17999900Y-11141900D01*
X17999900Y-11101900D02*
X17959900Y-11141900D01*
X17963200Y-6126800D02*
X18003200Y-6166800D01*
X18003200Y-6126800D02*
X17963200Y-6166800D01*
X17963200Y-7204600D02*
X18003200Y-7244600D01*
X18003200Y-7204600D02*
X17963200Y-7244600D01*
X17963200Y-8616000D02*
X18003200Y-8656000D01*
X18003200Y-8616000D02*
X17963200Y-8656000D01*
X17963200Y-9378000D02*
X18003200Y-9418000D01*
X18003200Y-9378000D02*
X17963200Y-9418000D01*
X17963200Y-13587800D02*
X18003200Y-13627800D01*
X18003200Y-13587800D02*
X17963200Y-13627800D01*
X18102300Y-7244400D02*
X18142300Y-7284400D01*
X18142300Y-7244400D02*
X18102300Y-7284400D01*
X18115600Y-7860600D02*
X18155600Y-7900600D01*
X18155600Y-7860600D02*
X18115600Y-7900600D01*
X18128887Y-9272399D02*
X18168887Y-9312399D01*
X18168887Y-9272399D02*
X18128887Y-9312399D01*
X18166400Y-7701600D02*
X18206400Y-7741600D01*
X18206400Y-7701600D02*
X18166400Y-7741600D01*
X18166400Y-10365500D02*
X18206400Y-10405500D01*
X18206400Y-10365500D02*
X18166400Y-10405500D01*
X18166400Y-11257600D02*
X18206400Y-11297600D01*
X18206400Y-11257600D02*
X18166400Y-11297600D01*
X18191800Y-12857800D02*
X18231800Y-12897800D01*
X18231800Y-12857800D02*
X18191800Y-12897800D01*
X18217200Y-5314000D02*
X18257200Y-5354000D01*
X18257200Y-5314000D02*
X18217200Y-5354000D01*
X18217200Y-6871150D02*
X18257200Y-6911150D01*
X18257200Y-6871150D02*
X18217200Y-6911150D01*
X18268000Y-14661200D02*
X18308000Y-14701200D01*
X18308000Y-14661200D02*
X18268000Y-14701200D01*
X18369600Y-7286650D02*
X18409600Y-7326650D01*
X18409600Y-7286650D02*
X18369600Y-7326650D01*
X18471200Y-7955600D02*
X18511200Y-7995600D01*
X18511200Y-7955600D02*
X18471200Y-7995600D01*
X18471200Y-12730800D02*
X18511200Y-12770800D01*
X18511200Y-12730800D02*
X18471200Y-12770800D01*
X18471200Y-13797600D02*
X18511200Y-13837600D01*
X18511200Y-13797600D02*
X18471200Y-13837600D01*
X18522000Y-8819200D02*
X18562000Y-8859200D01*
X18562000Y-8819200D02*
X18522000Y-8859200D01*
X18594450Y-9428800D02*
X18634450Y-9468800D01*
X18634450Y-9428800D02*
X18594450Y-9468800D01*
X18623600Y-14407200D02*
X18663600Y-14447200D01*
X18663600Y-14407200D02*
X18623600Y-14447200D01*
X18674400Y-11054400D02*
X18714400Y-11094400D01*
X18714400Y-11054400D02*
X18674400Y-11094400D01*
X18674400Y-12426000D02*
X18714400Y-12466000D01*
X18714400Y-12426000D02*
X18674400Y-12466000D01*
X18699800Y-6457000D02*
X18739800Y-6497000D01*
X18739800Y-6457000D02*
X18699800Y-6497000D01*
X18776000Y-10749600D02*
X18816000Y-10789600D01*
X18816000Y-10749600D02*
X18776000Y-10789600D01*
X18777936Y-10293629D02*
X18817936Y-10333629D01*
X18817936Y-10293629D02*
X18777936Y-10333629D01*
X18826800Y-10495600D02*
X18866800Y-10535600D01*
X18866800Y-10495600D02*
X18826800Y-10535600D01*
X18826800Y-14610400D02*
X18866800Y-14650400D01*
X18866800Y-14610400D02*
X18826800Y-14650400D01*
X18979200Y-5720400D02*
X19019200Y-5760400D01*
X19019200Y-5720400D02*
X18979200Y-5760400D01*
X18979200Y-12426000D02*
X19019200Y-12466000D01*
X19019200Y-12426000D02*
X18979200Y-12466000D01*
X19080800Y-13797600D02*
X19120800Y-13837600D01*
X19120800Y-13797600D02*
X19080800Y-13837600D01*
X19083250Y-13190450D02*
X19123250Y-13230450D01*
X19123250Y-13190450D02*
X19083250Y-13230450D01*
X19131600Y-4653600D02*
X19171600Y-4693600D01*
X19171600Y-4653600D02*
X19131600Y-4693600D01*
X19230000Y-8630000D02*
X19270000Y-8670000D01*
X19270000Y-8630000D02*
X19230000Y-8670000D01*
X19230000Y-9153100D02*
X19270000Y-9193100D01*
X19270000Y-9153100D02*
X19230000Y-9193100D01*
X19330000Y-7905000D02*
X19370000Y-7945000D01*
X19370000Y-7905000D02*
X19330000Y-7945000D01*
X19385600Y-14508800D02*
X19425600Y-14548800D01*
X19425600Y-14508800D02*
X19385600Y-14548800D01*
X19408972Y-13421530D02*
X19448972Y-13461530D01*
X19448972Y-13421530D02*
X19408972Y-13461530D01*
X19436400Y-10292400D02*
X19476400Y-10332400D01*
X19476400Y-10292400D02*
X19436400Y-10332400D01*
X19501798Y-11098567D02*
X19541798Y-11138567D01*
X19541798Y-11098567D02*
X19501798Y-11138567D01*
X19517330Y-9152500D02*
X19557330Y-9192500D01*
X19557330Y-9152500D02*
X19517330Y-9192500D01*
X19540127Y-12052276D02*
X19580127Y-12092276D01*
X19580127Y-12052276D02*
X19540127Y-12092276D01*
X19573400Y-11003600D02*
X19613400Y-11043600D01*
X19613400Y-11003600D02*
X19573400Y-11043600D01*
X19607500Y-9197947D02*
X19647500Y-9237947D01*
X19647500Y-9197947D02*
X19607500Y-9237947D01*
X19639600Y-5771200D02*
X19679600Y-5811200D01*
X19679600Y-5771200D02*
X19639600Y-5811200D01*
X19639600Y-7244400D02*
X19679600Y-7284400D01*
X19679600Y-7244400D02*
X19639600Y-7284400D01*
X19741200Y-11003600D02*
X19781200Y-11043600D01*
X19781200Y-11003600D02*
X19741200Y-11043600D01*
X19752500Y-9180000D02*
X19792500Y-9220000D01*
X19792500Y-9180000D02*
X19752500Y-9220000D01*
X19770350Y-13746800D02*
X19810350Y-13786800D01*
X19810350Y-13746800D02*
X19770350Y-13786800D01*
X19792000Y-12832400D02*
X19832000Y-12872400D01*
X19832000Y-12832400D02*
X19792000Y-12872400D01*
X19842800Y-13594400D02*
X19882800Y-13634400D01*
X19882800Y-13594400D02*
X19842800Y-13634400D01*
X19848185Y-9212774D02*
X19888185Y-9252774D01*
X19888185Y-9212774D02*
X19848185Y-9252774D01*
X19861681Y-10648000D02*
X19901681Y-10688000D01*
X19901681Y-10648000D02*
X19861681Y-10688000D01*
X19861940Y-10495600D02*
X19901940Y-10535600D01*
X19901940Y-10495600D02*
X19861940Y-10535600D01*
X19865949Y-10809293D02*
X19905949Y-10849293D01*
X19905949Y-10809293D02*
X19865949Y-10849293D01*
X19880000Y-4655000D02*
X19920000Y-4695000D01*
X19920000Y-4655000D02*
X19880000Y-4695000D01*
X19995200Y-10241600D02*
X20035200Y-10281600D01*
X20035200Y-10241600D02*
X19995200Y-10281600D01*
X19995200Y-11562400D02*
X20035200Y-11602400D01*
X20035200Y-11562400D02*
X19995200Y-11602400D01*
X19995200Y-14712000D02*
X20035200Y-14752000D01*
X20035200Y-14712000D02*
X19995200Y-14752000D01*
X20005500Y-8630000D02*
X20045500Y-8670000D01*
X20045500Y-8630000D02*
X20005500Y-8670000D01*
X20046000Y-7701600D02*
X20086000Y-7741600D01*
X20086000Y-7701600D02*
X20046000Y-7741600D01*
X20096800Y-14508800D02*
X20136800Y-14548800D01*
X20136800Y-14508800D02*
X20096800Y-14548800D01*
X20554000Y-5720400D02*
X20594000Y-5760400D01*
X20594000Y-5720400D02*
X20554000Y-5760400D01*
X20554000Y-9225600D02*
X20594000Y-9265600D01*
X20594000Y-9225600D02*
X20554000Y-9265600D01*
X20604800Y-10190800D02*
X20644800Y-10230800D01*
X20644800Y-10190800D02*
X20604800Y-10230800D01*
X20706400Y-10876600D02*
X20746400Y-10916600D01*
X20746400Y-10876600D02*
X20706400Y-10916600D01*
X20757200Y-11765600D02*
X20797200Y-11805600D01*
X20797200Y-11765600D02*
X20757200Y-11805600D01*
X21011200Y-14661200D02*
X21051200Y-14701200D01*
X21051200Y-14661200D02*
X21011200Y-14701200D01*
X21030000Y-9480000D02*
X21070000Y-9520000D01*
X21070000Y-9480000D02*
X21030000Y-9520000D01*
X21062000Y-4602800D02*
X21102000Y-4642800D01*
X21102000Y-4602800D02*
X21062000Y-4642800D01*
X21062000Y-12883200D02*
X21102000Y-12923200D01*
X21102000Y-12883200D02*
X21062000Y-12923200D01*
X21094032Y-9887400D02*
X21134032Y-9927400D01*
X21134032Y-9887400D02*
X21094032Y-9927400D01*
X21112800Y-7854000D02*
X21152800Y-7894000D01*
X21152800Y-7854000D02*
X21112800Y-7894000D01*
X21163600Y-8768400D02*
X21203600Y-8808400D01*
X21203600Y-8768400D02*
X21163600Y-8808400D01*
X21163600Y-11410000D02*
X21203600Y-11450000D01*
X21203600Y-11410000D02*
X21163600Y-11450000D01*
X21214400Y-7244400D02*
X21254400Y-7284400D01*
X21254400Y-7244400D02*
X21214400Y-7284400D01*
X21214400Y-9174800D02*
X21254400Y-9214800D01*
X21254400Y-9174800D02*
X21214400Y-9214800D01*
X21265200Y-14051600D02*
X21305200Y-14091600D01*
X21305200Y-14051600D02*
X21265200Y-14091600D01*
X21400150Y-9327200D02*
X21440150Y-9367200D01*
X21440150Y-9327200D02*
X21400150Y-9367200D01*
X21468400Y-8768400D02*
X21508400Y-8808400D01*
X21508400Y-8768400D02*
X21468400Y-8808400D01*
X21509250Y-9327200D02*
X21549250Y-9367200D01*
X21549250Y-9327200D02*
X21509250Y-9367200D01*
X21580000Y-8830000D02*
X21620000Y-8870000D01*
X21620000Y-8830000D02*
X21580000Y-8870000D01*
X21667008Y-9669023D02*
X21707008Y-9709023D01*
X21707008Y-9669023D02*
X21667008Y-9709023D01*
X21722400Y-9124000D02*
X21762400Y-9164000D01*
X21762400Y-9124000D02*
X21722400Y-9164000D01*
X21722400Y-9327200D02*
X21762400Y-9367200D01*
X21762400Y-9327200D02*
X21722400Y-9367200D01*
X21773200Y-5771200D02*
X21813200Y-5811200D01*
X21813200Y-5771200D02*
X21773200Y-5811200D01*
X21830000Y-8880000D02*
X21870000Y-8920000D01*
X21870000Y-8880000D02*
X21830000Y-8920000D01*
X21910200Y-9327200D02*
X21950200Y-9367200D01*
X21950200Y-9327200D02*
X21910200Y-9367200D01*
X21980000Y-4580000D02*
X22020000Y-4620000D01*
X22020000Y-4580000D02*
X21980000Y-4620000D01*
X22027200Y-9784400D02*
X22067200Y-9824400D01*
X22067200Y-9784400D02*
X22027200Y-9824400D01*
X22027537Y-10448567D02*
X22067537Y-10488567D01*
X22067537Y-10448567D02*
X22027537Y-10488567D01*
X22078000Y-8108000D02*
X22118000Y-8148000D01*
X22118000Y-8108000D02*
X22078000Y-8148000D01*
X22078000Y-11410000D02*
X22118000Y-11450000D01*
X22118000Y-11410000D02*
X22078000Y-11450000D01*
X22128800Y-12781600D02*
X22168800Y-12821600D01*
X22168800Y-12781600D02*
X22128800Y-12821600D01*
X22179600Y-7854000D02*
X22219600Y-7894000D01*
X22219600Y-7854000D02*
X22179600Y-7894000D01*
X22230400Y-7244400D02*
X22270400Y-7284400D01*
X22270400Y-7244400D02*
X22230400Y-7284400D01*
X22332000Y-13848400D02*
X22372000Y-13888400D01*
X22372000Y-13848400D02*
X22332000Y-13888400D01*
X22433600Y-8971600D02*
X22473600Y-9011600D01*
X22473600Y-8971600D02*
X22433600Y-9011600D01*
X22484400Y-12578400D02*
X22524400Y-12618400D01*
X22524400Y-12578400D02*
X22484400Y-12618400D01*
X22535200Y-6025200D02*
X22575200Y-6065200D01*
X22575200Y-6025200D02*
X22535200Y-6065200D01*
X22535200Y-6910450D02*
X22575200Y-6950450D01*
X22575200Y-6910450D02*
X22535200Y-6950450D01*
X22535200Y-8514400D02*
X22575200Y-8554400D01*
X22575200Y-8514400D02*
X22535200Y-8554400D01*
X22535200Y-10952800D02*
X22575200Y-10992800D01*
X22575200Y-10952800D02*
X22535200Y-10992800D01*
X22687600Y-5466400D02*
X22727600Y-5506400D01*
X22727600Y-5466400D02*
X22687600Y-5506400D01*
X22687600Y-6939600D02*
X22727600Y-6979600D01*
X22727600Y-6939600D02*
X22687600Y-6979600D01*
X22738400Y-13340400D02*
X22778400Y-13380400D01*
X22778400Y-13340400D02*
X22738400Y-13380400D01*
X22741935Y-14425584D02*
X22781935Y-14465584D01*
X22781935Y-14425584D02*
X22741935Y-14465584D01*
X22761373Y-12741656D02*
X22801373Y-12781656D01*
X22801373Y-12741656D02*
X22761373Y-12781656D01*
X22778050Y-8006400D02*
X22818050Y-8046400D01*
X22818050Y-8006400D02*
X22778050Y-8046400D01*
X22778050Y-10458000D02*
X22818050Y-10498000D01*
X22818050Y-10458000D02*
X22778050Y-10498000D01*
X22941600Y-6758050D02*
X22981600Y-6798050D01*
X22981600Y-6758050D02*
X22941600Y-6798050D01*
X22941600Y-12172000D02*
X22981600Y-12212000D01*
X22981600Y-12172000D02*
X22941600Y-12212000D01*
X22941600Y-14559600D02*
X22981600Y-14599600D01*
X22981600Y-14559600D02*
X22941600Y-14599600D01*
X22992400Y-7752400D02*
X23032400Y-7792400D01*
X23032400Y-7752400D02*
X22992400Y-7792400D01*
X22998143Y-10374844D02*
X23038143Y-10414844D01*
X23038143Y-10374844D02*
X22998143Y-10414844D01*
X23029416Y-12781341D02*
X23069416Y-12821341D01*
X23069416Y-12781341D02*
X23029416Y-12821341D01*
X23043200Y-11968800D02*
X23083200Y-12008800D01*
X23083200Y-11968800D02*
X23043200Y-12008800D01*
X23043200Y-12324400D02*
X23083200Y-12364400D01*
X23083200Y-12324400D02*
X23043200Y-12364400D01*
X23043200Y-13746800D02*
X23083200Y-13786800D01*
X23083200Y-13746800D02*
X23043200Y-13786800D01*
X23144800Y-4552000D02*
X23184800Y-4592000D01*
X23184800Y-4552000D02*
X23144800Y-4592000D01*
X23195600Y-7324350D02*
X23235600Y-7364350D01*
X23235600Y-7324350D02*
X23195600Y-7364350D01*
X23195600Y-11823850D02*
X23235600Y-11863850D01*
X23235600Y-11823850D02*
X23195600Y-11863850D01*
X23215950Y-13492800D02*
X23255950Y-13532800D01*
X23255950Y-13492800D02*
X23215950Y-13532800D01*
X23297200Y-5263200D02*
X23337200Y-5303200D01*
X23337200Y-5263200D02*
X23297200Y-5303200D01*
X23297200Y-6795750D02*
X23337200Y-6835750D01*
X23337200Y-6795750D02*
X23297200Y-6835750D01*
X23297200Y-11714800D02*
X23337200Y-11754800D01*
X23337200Y-11714800D02*
X23297200Y-11754800D01*
X23449600Y-6838000D02*
X23489600Y-6878000D01*
X23489600Y-6838000D02*
X23449600Y-6878000D01*
X23449600Y-12098619D02*
X23489600Y-12138619D01*
X23489600Y-12098619D02*
X23449600Y-12138619D01*
X23500400Y-14356400D02*
X23540400Y-14396400D01*
X23540400Y-14356400D02*
X23500400Y-14396400D01*
X23551200Y-6126800D02*
X23591200Y-6166800D01*
X23591200Y-6126800D02*
X23551200Y-6166800D01*
X23551200Y-7020650D02*
X23591200Y-7060650D01*
X23591200Y-7020650D02*
X23551200Y-7060650D01*
X23551200Y-8616000D02*
X23591200Y-8656000D01*
X23591200Y-8616000D02*
X23551200Y-8656000D01*
X23551200Y-11105200D02*
X23591200Y-11145200D01*
X23591200Y-11105200D02*
X23551200Y-11145200D01*
X23551200Y-13594400D02*
X23591200Y-13634400D01*
X23591200Y-13594400D02*
X23551200Y-13634400D01*
X23652800Y-13797600D02*
X23692800Y-13837600D01*
X23692800Y-13797600D02*
X23652800Y-13837600D01*
X23684950Y-6982950D02*
X23724950Y-7022950D01*
X23724950Y-6982950D02*
X23684950Y-7022950D01*
X23702834Y-10371533D02*
X23742834Y-10411533D01*
X23742834Y-10371533D02*
X23702834Y-10411533D01*
X23703600Y-5364800D02*
X23743600Y-5404800D01*
X23743600Y-5364800D02*
X23703600Y-5404800D01*
X23703600Y-7854000D02*
X23743600Y-7894000D01*
X23743600Y-7854000D02*
X23703600Y-7894000D01*
X23703600Y-12781600D02*
X23743600Y-12821600D01*
X23743600Y-12781600D02*
X23703600Y-12821600D01*
X23805200Y-6871150D02*
X23845200Y-6911150D01*
X23845200Y-6871150D02*
X23805200Y-6911150D01*
X23805200Y-11786150D02*
X23845200Y-11826150D01*
X23845200Y-11786150D02*
X23805200Y-11826150D01*
X23957600Y-7286650D02*
X23997600Y-7326650D01*
X23997600Y-7286650D02*
X23957600Y-7326650D01*
X23957600Y-12054550D02*
X23997600Y-12094550D01*
X23997600Y-12054550D02*
X23957600Y-12094550D01*
X23957600Y-12680000D02*
X23997600Y-12720000D01*
X23997600Y-12680000D02*
X23957600Y-12720000D01*
X24059200Y-9174800D02*
X24099200Y-9214800D01*
X24099200Y-9174800D02*
X24059200Y-9214800D01*
X24160800Y-10101370D02*
X24200800Y-10141370D01*
X24200800Y-10101370D02*
X24160800Y-10141370D01*
X24211600Y-13797600D02*
X24251600Y-13837600D01*
X24251600Y-13797600D02*
X24211600Y-13837600D01*
X24262400Y-8666800D02*
X24302400Y-8706800D01*
X24302400Y-8666800D02*
X24262400Y-8706800D01*
X24262400Y-13492800D02*
X24302400Y-13532800D01*
X24302400Y-13492800D02*
X24262400Y-13532800D01*
X24313200Y-12476800D02*
X24353200Y-12516800D01*
X24353200Y-12476800D02*
X24313200Y-12516800D01*
X24313200Y-12578400D02*
X24353200Y-12618400D01*
X24353200Y-12578400D02*
X24313200Y-12618400D01*
X24313200Y-12680000D02*
X24353200Y-12720000D01*
X24353200Y-12680000D02*
X24313200Y-12720000D01*
X24313200Y-12781600D02*
X24353200Y-12821600D01*
X24353200Y-12781600D02*
X24313200Y-12821600D01*
X24380000Y-4530000D02*
X24420000Y-4570000D01*
X24420000Y-4530000D02*
X24380000Y-4570000D01*
X24414800Y-12476800D02*
X24454800Y-12516800D01*
X24454800Y-12476800D02*
X24414800Y-12516800D01*
X24414800Y-12578400D02*
X24454800Y-12618400D01*
X24454800Y-12578400D02*
X24414800Y-12618400D01*
X24414800Y-12680000D02*
X24454800Y-12720000D01*
X24454800Y-12680000D02*
X24414800Y-12720000D01*
X24414800Y-12781600D02*
X24454800Y-12821600D01*
X24454800Y-12781600D02*
X24414800Y-12821600D01*
X24465600Y-7142800D02*
X24505600Y-7182800D01*
X24505600Y-7142800D02*
X24465600Y-7182800D01*
X24465600Y-9632000D02*
X24505600Y-9672000D01*
X24505600Y-9632000D02*
X24465600Y-9672000D01*
X24465600Y-9733600D02*
X24505600Y-9773600D01*
X24505600Y-9733600D02*
X24465600Y-9773600D01*
X24465600Y-9835200D02*
X24505600Y-9875200D01*
X24505600Y-9835200D02*
X24465600Y-9875200D01*
X24465600Y-9936800D02*
X24505600Y-9976800D01*
X24505600Y-9936800D02*
X24465600Y-9976800D01*
X24516400Y-6380800D02*
X24556400Y-6420800D01*
X24556400Y-6380800D02*
X24516400Y-6420800D01*
X24516400Y-6482400D02*
X24556400Y-6522400D01*
X24556400Y-6482400D02*
X24516400Y-6522400D01*
X24516400Y-9073200D02*
X24556400Y-9113200D01*
X24556400Y-9073200D02*
X24516400Y-9113200D01*
X24567200Y-9632000D02*
X24607200Y-9672000D01*
X24607200Y-9632000D02*
X24567200Y-9672000D01*
X24567200Y-9733600D02*
X24607200Y-9773600D01*
X24607200Y-9733600D02*
X24567200Y-9773600D01*
X24567200Y-9835200D02*
X24607200Y-9875200D01*
X24607200Y-9835200D02*
X24567200Y-9875200D01*
X24567200Y-9936800D02*
X24607200Y-9976800D01*
X24607200Y-9936800D02*
X24567200Y-9976800D01*
X24618000Y-6380800D02*
X24658000Y-6420800D01*
X24658000Y-6380800D02*
X24618000Y-6420800D01*
X24618000Y-6482400D02*
X24658000Y-6522400D01*
X24658000Y-6482400D02*
X24618000Y-6522400D01*
X24618000Y-7803200D02*
X24658000Y-7843200D01*
X24658000Y-7803200D02*
X24618000Y-7843200D01*
X24668800Y-8717600D02*
X24708800Y-8757600D01*
X24708800Y-8717600D02*
X24668800Y-8757600D01*
X24668800Y-8819200D02*
X24708800Y-8859200D01*
X24708800Y-8819200D02*
X24668800Y-8859200D01*
X24668800Y-14508800D02*
X24708800Y-14548800D01*
X24708800Y-14508800D02*
X24668800Y-14548800D01*
X24719600Y-5161600D02*
X24759600Y-5201600D01*
X24759600Y-5161600D02*
X24719600Y-5201600D01*
X24719600Y-6380800D02*
X24759600Y-6420800D01*
X24759600Y-6380800D02*
X24719600Y-6420800D01*
X24719600Y-6482400D02*
X24759600Y-6522400D01*
X24759600Y-6482400D02*
X24719600Y-6522400D01*
X24719600Y-12629200D02*
X24759600Y-12669200D01*
X24759600Y-12629200D02*
X24719600Y-12669200D01*
X24719600Y-13115550D02*
X24759600Y-13155550D01*
X24759600Y-13115550D02*
X24719600Y-13155550D01*
X24770400Y-8717600D02*
X24810400Y-8757600D01*
X24810400Y-8717600D02*
X24770400Y-8757600D01*
X24770400Y-8819200D02*
X24810400Y-8859200D01*
X24810400Y-8819200D02*
X24770400Y-8859200D01*
X24780000Y-12009500D02*
X24820000Y-12049500D01*
X24820000Y-12009500D02*
X24780000Y-12049500D01*
X24821200Y-6380800D02*
X24861200Y-6420800D01*
X24861200Y-6380800D02*
X24821200Y-6420800D01*
X24821200Y-6482400D02*
X24861200Y-6522400D01*
X24861200Y-6482400D02*
X24821200Y-6522400D01*
X24821200Y-10190800D02*
X24861200Y-10230800D01*
X24861200Y-10190800D02*
X24821200Y-10230800D01*
X24821200Y-14102400D02*
X24861200Y-14142400D01*
X24861200Y-14102400D02*
X24821200Y-14142400D01*
X24872000Y-8717600D02*
X24912000Y-8757600D01*
X24912000Y-8717600D02*
X24872000Y-8757600D01*
X24872000Y-8819200D02*
X24912000Y-8859200D01*
X24912000Y-8819200D02*
X24872000Y-8859200D01*
X24872000Y-11105200D02*
X24912000Y-11145200D01*
X24912000Y-11105200D02*
X24872000Y-11145200D01*
X24973600Y-8717600D02*
X25013600Y-8757600D01*
X25013600Y-8717600D02*
X24973600Y-8757600D01*
X24973600Y-8819200D02*
X25013600Y-8859200D01*
X25013600Y-8819200D02*
X24973600Y-8859200D01*
X24973600Y-11105200D02*
X25013600Y-11145200D01*
X25013600Y-11105200D02*
X24973600Y-11145200D01*
X24980000Y-11467400D02*
X25020000Y-11507400D01*
X25020000Y-11467400D02*
X24980000Y-11507400D01*
X25075200Y-6482400D02*
X25115200Y-6522400D01*
X25115200Y-6482400D02*
X25075200Y-6522400D01*
X25075200Y-10190800D02*
X25115200Y-10230800D01*
X25115200Y-10190800D02*
X25075200Y-10230800D01*
X25075200Y-13115550D02*
X25115200Y-13155550D01*
X25115200Y-13115550D02*
X25075200Y-13155550D01*
X25126000Y-11105200D02*
X25166000Y-11145200D01*
X25166000Y-11105200D02*
X25126000Y-11145200D01*
X25126000Y-13746800D02*
X25166000Y-13786800D01*
X25166000Y-13746800D02*
X25126000Y-13786800D01*
X25278400Y-8920800D02*
X25318400Y-8960800D01*
X25318400Y-8920800D02*
X25278400Y-8960800D01*
X25278400Y-11105200D02*
X25318400Y-11145200D01*
X25318400Y-11105200D02*
X25278400Y-11145200D01*
X25280000Y-11918000D02*
X25320000Y-11958000D01*
X25320000Y-11918000D02*
X25280000Y-11958000D01*
X25329200Y-10190800D02*
X25369200Y-10230800D01*
X25369200Y-10190800D02*
X25329200Y-10230800D01*
X25329200Y-13492800D02*
X25369200Y-13532800D01*
X25369200Y-13492800D02*
X25329200Y-13532800D01*
X25430800Y-10698800D02*
X25470800Y-10738800D01*
X25470800Y-10698800D02*
X25430800Y-10738800D01*
X25481600Y-12527600D02*
X25521600Y-12567600D01*
X25521600Y-12527600D02*
X25481600Y-12567600D01*
X25481600Y-13746800D02*
X25521600Y-13786800D01*
X25521600Y-13746800D02*
X25481600Y-13786800D01*
X25532400Y-7193600D02*
X25572400Y-7233600D01*
X25572400Y-7193600D02*
X25532400Y-7233600D01*
X25532400Y-10140000D02*
X25572400Y-10180000D01*
X25572400Y-10140000D02*
X25532400Y-10180000D01*
X25637853Y-12247253D02*
X25677853Y-12287253D01*
X25677853Y-12247253D02*
X25637853Y-12287253D01*
X25680000Y-11460800D02*
X25720000Y-11500800D01*
X25720000Y-11460800D02*
X25680000Y-11500800D01*
X25680000Y-11918000D02*
X25720000Y-11958000D01*
X25720000Y-11918000D02*
X25680000Y-11958000D01*
X25705000Y-4555000D02*
X25745000Y-4595000D01*
X25745000Y-4555000D02*
X25705000Y-4595000D01*
X25755000Y-7605000D02*
X25795000Y-7645000D01*
X25795000Y-7605000D02*
X25755000Y-7645000D01*
X25786400Y-9886000D02*
X25826400Y-9926000D01*
X25826400Y-9886000D02*
X25786400Y-9926000D01*
X25837200Y-13035600D02*
X25877200Y-13075600D01*
X25877200Y-13035600D02*
X25837200Y-13075600D01*
X25837200Y-13746800D02*
X25877200Y-13786800D01*
X25877200Y-13746800D02*
X25837200Y-13786800D01*
X25989600Y-8819200D02*
X26029600Y-8859200D01*
X26029600Y-8819200D02*
X25989600Y-8859200D01*
X26040400Y-10190800D02*
X26080400Y-10230800D01*
X26080400Y-10190800D02*
X26040400Y-10230800D01*
X26040400Y-12984800D02*
X26080400Y-13024800D01*
X26080400Y-12984800D02*
X26040400Y-13024800D01*
X26040400Y-13086400D02*
X26080400Y-13126400D01*
X26080400Y-13086400D02*
X26040400Y-13126400D01*
X26079649Y-11473235D02*
X26119649Y-11513235D01*
X26119649Y-11473235D02*
X26079649Y-11513235D01*
X26090269Y-11918000D02*
X26130269Y-11958000D01*
X26130269Y-11918000D02*
X26090269Y-11958000D01*
X26091200Y-6228400D02*
X26131200Y-6268400D01*
X26131200Y-6228400D02*
X26091200Y-6268400D01*
X26091200Y-14813600D02*
X26131200Y-14853600D01*
X26131200Y-14813600D02*
X26091200Y-14853600D01*
X26142000Y-11105200D02*
X26182000Y-11145200D01*
X26182000Y-11105200D02*
X26142000Y-11145200D01*
X26142000Y-12984800D02*
X26182000Y-13024800D01*
X26182000Y-12984800D02*
X26142000Y-13024800D01*
X26142000Y-13086400D02*
X26182000Y-13126400D01*
X26182000Y-13086400D02*
X26142000Y-13126400D01*
X26192800Y-13746800D02*
X26232800Y-13786800D01*
X26232800Y-13746800D02*
X26192800Y-13786800D01*
X26243600Y-12984800D02*
X26283600Y-13024800D01*
X26283600Y-12984800D02*
X26243600Y-13024800D01*
X26243600Y-13086400D02*
X26283600Y-13126400D01*
X26283600Y-13086400D02*
X26243600Y-13126400D01*
X26294400Y-8006400D02*
X26334400Y-8046400D01*
X26334400Y-8006400D02*
X26294400Y-8046400D01*
X26294400Y-10190800D02*
X26334400Y-10230800D01*
X26334400Y-10190800D02*
X26294400Y-10230800D01*
X26294400Y-11105200D02*
X26334400Y-11145200D01*
X26334400Y-11105200D02*
X26294400Y-11145200D01*
X26345200Y-12984800D02*
X26385200Y-13024800D01*
X26385200Y-12984800D02*
X26345200Y-13024800D01*
X26345200Y-13086400D02*
X26385200Y-13126400D01*
X26385200Y-13086400D02*
X26345200Y-13126400D01*
X26396000Y-12629200D02*
X26436000Y-12669200D01*
X26436000Y-12629200D02*
X26396000Y-12669200D01*
X26396000Y-14407200D02*
X26436000Y-14447200D01*
X26436000Y-14407200D02*
X26396000Y-14447200D01*
X26446800Y-11105200D02*
X26486800Y-11145200D01*
X26486800Y-11105200D02*
X26446800Y-11145200D01*
X26497600Y-9682800D02*
X26537600Y-9722800D01*
X26537600Y-9682800D02*
X26497600Y-9722800D01*
X26548400Y-7142800D02*
X26588400Y-7182800D01*
X26588400Y-7142800D02*
X26548400Y-7182800D01*
X26548400Y-10190800D02*
X26588400Y-10230800D01*
X26588400Y-10190800D02*
X26548400Y-10230800D01*
X26654449Y-10652299D02*
X26694449Y-10692299D01*
X26694449Y-10652299D02*
X26654449Y-10692299D01*
X26700800Y-5415600D02*
X26740800Y-5455600D01*
X26740800Y-5415600D02*
X26700800Y-5455600D01*
X26751600Y-6380800D02*
X26791600Y-6420800D01*
X26791600Y-6380800D02*
X26751600Y-6420800D01*
X26853200Y-11105200D02*
X26893200Y-11145200D01*
X26893200Y-11105200D02*
X26853200Y-11145200D01*
X26880000Y-4580000D02*
X26920000Y-4620000D01*
X26920000Y-4580000D02*
X26880000Y-4620000D01*
X27158000Y-8819200D02*
X27198000Y-8859200D01*
X27198000Y-8819200D02*
X27158000Y-8859200D01*
X27310400Y-7701600D02*
X27350400Y-7741600D01*
X27350400Y-7701600D02*
X27310400Y-7741600D01*
X27361200Y-14204000D02*
X27401200Y-14244000D01*
X27401200Y-14204000D02*
X27361200Y-14244000D01*
X27361200Y-14305600D02*
X27401200Y-14345600D01*
X27401200Y-14305600D02*
X27361200Y-14345600D01*
X27361200Y-14407200D02*
X27401200Y-14447200D01*
X27401200Y-14407200D02*
X27361200Y-14447200D01*
X27412000Y-7142800D02*
X27452000Y-7182800D01*
X27452000Y-7142800D02*
X27412000Y-7182800D01*
X27462800Y-13899200D02*
X27502800Y-13939200D01*
X27502800Y-13899200D02*
X27462800Y-13939200D01*
X27462800Y-14000800D02*
X27502800Y-14040800D01*
X27502800Y-14000800D02*
X27462800Y-14040800D01*
X27462800Y-14102400D02*
X27502800Y-14142400D01*
X27502800Y-14102400D02*
X27462800Y-14142400D01*
X27462800Y-14204000D02*
X27502800Y-14244000D01*
X27502800Y-14204000D02*
X27462800Y-14244000D01*
X27462800Y-14305600D02*
X27502800Y-14345600D01*
X27502800Y-14305600D02*
X27462800Y-14345600D01*
X27462800Y-14407200D02*
X27502800Y-14447200D01*
X27502800Y-14407200D02*
X27462800Y-14447200D01*
X27564400Y-13746800D02*
X27604400Y-13786800D01*
X27604400Y-13746800D02*
X27564400Y-13786800D01*
X27564400Y-13899200D02*
X27604400Y-13939200D01*
X27604400Y-13899200D02*
X27564400Y-13939200D01*
X27564400Y-14000800D02*
X27604400Y-14040800D01*
X27604400Y-14000800D02*
X27564400Y-14040800D01*
X27564400Y-14102400D02*
X27604400Y-14142400D01*
X27604400Y-14102400D02*
X27564400Y-14142400D01*
X27564400Y-14204000D02*
X27604400Y-14244000D01*
X27604400Y-14204000D02*
X27564400Y-14244000D01*
X27564400Y-14305600D02*
X27604400Y-14345600D01*
X27604400Y-14305600D02*
X27564400Y-14345600D01*
X27564400Y-14407200D02*
X27604400Y-14447200D01*
X27604400Y-14407200D02*
X27564400Y-14447200D01*
X27613050Y-6126800D02*
X27653050Y-6166800D01*
X27653050Y-6126800D02*
X27613050Y-6166800D01*
X27613050Y-6910450D02*
X27653050Y-6950450D01*
X27653050Y-6910450D02*
X27613050Y-6950450D01*
X27613050Y-8616000D02*
X27653050Y-8656000D01*
X27653050Y-8616000D02*
X27613050Y-8656000D01*
X27716800Y-14762800D02*
X27756800Y-14802800D01*
X27756800Y-14762800D02*
X27716800Y-14802800D01*
X27720250Y-6910490D02*
X27760250Y-6950490D01*
X27760250Y-6910490D02*
X27720250Y-6950490D01*
X27767600Y-5314000D02*
X27807600Y-5354000D01*
X27807600Y-5314000D02*
X27767600Y-5354000D01*
X27767600Y-7803200D02*
X27807600Y-7843200D01*
X27807600Y-7803200D02*
X27767600Y-7843200D01*
X27790350Y-11054400D02*
X27830350Y-11094400D01*
X27830350Y-11054400D02*
X27790350Y-11094400D01*
X27818400Y-10190800D02*
X27858400Y-10230800D01*
X27858400Y-10190800D02*
X27818400Y-10230800D01*
X27828050Y-12781600D02*
X27868050Y-12821600D01*
X27868050Y-12781600D02*
X27828050Y-12821600D01*
X27828050Y-13492800D02*
X27868050Y-13532800D01*
X27868050Y-13492800D02*
X27828050Y-13532800D01*
X28021600Y-14458000D02*
X28061600Y-14498000D01*
X28061600Y-14458000D02*
X28021600Y-14498000D01*
X28055553Y-7773841D02*
X28095553Y-7813841D01*
X28095553Y-7773841D02*
X28055553Y-7813841D01*
X28174000Y-12781600D02*
X28214000Y-12821600D01*
X28214000Y-12781600D02*
X28174000Y-12821600D01*
X28311547Y-10256347D02*
X28351547Y-10296347D01*
X28351547Y-10256347D02*
X28311547Y-10296347D01*
X28330000Y-4530000D02*
X28370000Y-4570000D01*
X28370000Y-4530000D02*
X28330000Y-4570000D01*
X28529600Y-7752400D02*
X28569600Y-7792400D01*
X28569600Y-7752400D02*
X28529600Y-7792400D01*
X28580400Y-6025200D02*
X28620400Y-6065200D01*
X28620400Y-6025200D02*
X28580400Y-6065200D01*
X28580400Y-8514400D02*
X28620400Y-8554400D01*
X28620400Y-8514400D02*
X28580400Y-8554400D01*
X28595430Y-6853030D02*
X28635430Y-6893030D01*
X28635430Y-6853030D02*
X28595430Y-6893030D01*
X28682000Y-11105200D02*
X28722000Y-11145200D01*
X28722000Y-11105200D02*
X28682000Y-11145200D01*
X28682000Y-14762800D02*
X28722000Y-14802800D01*
X28722000Y-14762800D02*
X28682000Y-14802800D01*
X28717306Y-5365229D02*
X28757306Y-5405229D01*
X28757306Y-5365229D02*
X28717306Y-5405229D01*
X28732800Y-13645200D02*
X28772800Y-13685200D01*
X28772800Y-13645200D02*
X28732800Y-13685200D01*
X28736629Y-7758526D02*
X28776629Y-7798526D01*
X28776629Y-7758526D02*
X28736629Y-7798526D01*
X28783600Y-6888800D02*
X28823600Y-6928800D01*
X28823600Y-6888800D02*
X28783600Y-6928800D01*
X28783600Y-10343200D02*
X28823600Y-10383200D01*
X28823600Y-10343200D02*
X28783600Y-10383200D01*
X28834400Y-5720400D02*
X28874400Y-5760400D01*
X28874400Y-5720400D02*
X28834400Y-5760400D01*
X28834400Y-8362000D02*
X28874400Y-8402000D01*
X28874400Y-8362000D02*
X28834400Y-8402000D01*
X28834400Y-12883200D02*
X28874400Y-12923200D01*
X28874400Y-12883200D02*
X28834400Y-12923200D01*
X29088400Y-6177600D02*
X29128400Y-6217600D01*
X29128400Y-6177600D02*
X29088400Y-6217600D01*
X29088400Y-7092000D02*
X29128400Y-7132000D01*
X29128400Y-7092000D02*
X29088400Y-7132000D01*
X29088400Y-7854000D02*
X29128400Y-7894000D01*
X29128400Y-7854000D02*
X29088400Y-7894000D01*
X29088400Y-9581200D02*
X29128400Y-9621200D01*
X29128400Y-9581200D02*
X29088400Y-9621200D01*
X29088400Y-11257600D02*
X29128400Y-11297600D01*
X29128400Y-11257600D02*
X29088400Y-11297600D01*
X29088400Y-12121200D02*
X29128400Y-12161200D01*
X29128400Y-12121200D02*
X29088400Y-12161200D01*
X29088400Y-12883200D02*
X29128400Y-12923200D01*
X29128400Y-12883200D02*
X29088400Y-12923200D01*
X29088400Y-13696000D02*
X29128400Y-13736000D01*
X29128400Y-13696000D02*
X29088400Y-13736000D01*
X29088400Y-14407200D02*
X29128400Y-14447200D01*
X29128400Y-14407200D02*
X29088400Y-14447200D01*
X12163000Y-5033000D02*
G75*
G02*
X12063000Y-5033000I-50000J0D01*
G01*
X12063000Y-5033000D02*
G75*
G02*
X12163000Y-5033000I50000J0D01*
G01*
X12163000Y-6557000D02*
G75*
G02*
X12063000Y-6557000I-50000J0D01*
G01*
X12063000Y-6557000D02*
G75*
G02*
X12163000Y-6557000I50000J0D01*
G01*
X12163000Y-7533000D02*
G75*
G02*
X12063000Y-7533000I-50000J0D01*
G01*
X12063000Y-7533000D02*
G75*
G02*
X12163000Y-7533000I50000J0D01*
G01*
X12163000Y-9057000D02*
G75*
G02*
X12063000Y-9057000I-50000J0D01*
G01*
X12063000Y-9057000D02*
G75*
G02*
X12163000Y-9057000I50000J0D01*
G01*
X12163000Y-10033000D02*
G75*
G02*
X12063000Y-10033000I-50000J0D01*
G01*
X12063000Y-10033000D02*
G75*
G02*
X12163000Y-10033000I50000J0D01*
G01*
X12163000Y-11557000D02*
G75*
G02*
X12063000Y-11557000I-50000J0D01*
G01*
X12063000Y-11557000D02*
G75*
G02*
X12163000Y-11557000I50000J0D01*
G01*
X12163000Y-12533000D02*
G75*
G02*
X12063000Y-12533000I-50000J0D01*
G01*
X12063000Y-12533000D02*
G75*
G02*
X12163000Y-12533000I50000J0D01*
G01*
X12163000Y-14057000D02*
G75*
G02*
X12063000Y-14057000I-50000J0D01*
G01*
X12063000Y-14057000D02*
G75*
G02*
X12163000Y-14057000I50000J0D01*
G01*
X12417000Y-5033000D02*
G75*
G02*
X12317000Y-5033000I-50000J0D01*
G01*
X12317000Y-5033000D02*
G75*
G02*
X12417000Y-5033000I50000J0D01*
G01*
X12417000Y-6557000D02*
G75*
G02*
X12317000Y-6557000I-50000J0D01*
G01*
X12317000Y-6557000D02*
G75*
G02*
X12417000Y-6557000I50000J0D01*
G01*
X12417000Y-7533000D02*
G75*
G02*
X12317000Y-7533000I-50000J0D01*
G01*
X12317000Y-7533000D02*
G75*
G02*
X12417000Y-7533000I50000J0D01*
G01*
X12417000Y-9057000D02*
G75*
G02*
X12317000Y-9057000I-50000J0D01*
G01*
X12317000Y-9057000D02*
G75*
G02*
X12417000Y-9057000I50000J0D01*
G01*
X12417000Y-10033000D02*
G75*
G02*
X12317000Y-10033000I-50000J0D01*
G01*
X12317000Y-10033000D02*
G75*
G02*
X12417000Y-10033000I50000J0D01*
G01*
X12417000Y-11557000D02*
G75*
G02*
X12317000Y-11557000I-50000J0D01*
G01*
X12317000Y-11557000D02*
G75*
G02*
X12417000Y-11557000I50000J0D01*
G01*
X12417000Y-12533000D02*
G75*
G02*
X12317000Y-12533000I-50000J0D01*
G01*
X12317000Y-12533000D02*
G75*
G02*
X12417000Y-12533000I50000J0D01*
G01*
X12417000Y-14057000D02*
G75*
G02*
X12317000Y-14057000I-50000J0D01*
G01*
X12317000Y-14057000D02*
G75*
G02*
X12417000Y-14057000I50000J0D01*
G01*
X12671000Y-5033000D02*
G75*
G02*
X12571000Y-5033000I-50000J0D01*
G01*
X12571000Y-5033000D02*
G75*
G02*
X12671000Y-5033000I50000J0D01*
G01*
X12671000Y-6557000D02*
G75*
G02*
X12571000Y-6557000I-50000J0D01*
G01*
X12571000Y-6557000D02*
G75*
G02*
X12671000Y-6557000I50000J0D01*
G01*
X12671000Y-7533000D02*
G75*
G02*
X12571000Y-7533000I-50000J0D01*
G01*
X12571000Y-7533000D02*
G75*
G02*
X12671000Y-7533000I50000J0D01*
G01*
X12671000Y-9057000D02*
G75*
G02*
X12571000Y-9057000I-50000J0D01*
G01*
X12571000Y-9057000D02*
G75*
G02*
X12671000Y-9057000I50000J0D01*
G01*
X12671000Y-10033000D02*
G75*
G02*
X12571000Y-10033000I-50000J0D01*
G01*
X12571000Y-10033000D02*
G75*
G02*
X12671000Y-10033000I50000J0D01*
G01*
X12671000Y-11557000D02*
G75*
G02*
X12571000Y-11557000I-50000J0D01*
G01*
X12571000Y-11557000D02*
G75*
G02*
X12671000Y-11557000I50000J0D01*
G01*
X12671000Y-12533000D02*
G75*
G02*
X12571000Y-12533000I-50000J0D01*
G01*
X12571000Y-12533000D02*
G75*
G02*
X12671000Y-12533000I50000J0D01*
G01*
X12671000Y-14057000D02*
G75*
G02*
X12571000Y-14057000I-50000J0D01*
G01*
X12571000Y-14057000D02*
G75*
G02*
X12671000Y-14057000I50000J0D01*
G01*
X12796000Y-14600000D02*
G75*
G02*
X12696000Y-14600000I-50000J0D01*
G01*
X12696000Y-14600000D02*
G75*
G02*
X12796000Y-14600000I50000J0D01*
G01*
X12796000Y-14854000D02*
G75*
G02*
X12696000Y-14854000I-50000J0D01*
G01*
X12696000Y-14854000D02*
G75*
G02*
X12796000Y-14854000I50000J0D01*
G01*
X12925000Y-5033000D02*
G75*
G02*
X12825000Y-5033000I-50000J0D01*
G01*
X12825000Y-5033000D02*
G75*
G02*
X12925000Y-5033000I50000J0D01*
G01*
X12925000Y-6557000D02*
G75*
G02*
X12825000Y-6557000I-50000J0D01*
G01*
X12825000Y-6557000D02*
G75*
G02*
X12925000Y-6557000I50000J0D01*
G01*
X12925000Y-7533000D02*
G75*
G02*
X12825000Y-7533000I-50000J0D01*
G01*
X12825000Y-7533000D02*
G75*
G02*
X12925000Y-7533000I50000J0D01*
G01*
X12925000Y-9057000D02*
G75*
G02*
X12825000Y-9057000I-50000J0D01*
G01*
X12825000Y-9057000D02*
G75*
G02*
X12925000Y-9057000I50000J0D01*
G01*
X12925000Y-10033000D02*
G75*
G02*
X12825000Y-10033000I-50000J0D01*
G01*
X12825000Y-10033000D02*
G75*
G02*
X12925000Y-10033000I50000J0D01*
G01*
X12925000Y-11557000D02*
G75*
G02*
X12825000Y-11557000I-50000J0D01*
G01*
X12825000Y-11557000D02*
G75*
G02*
X12925000Y-11557000I50000J0D01*
G01*
X12925000Y-12533000D02*
G75*
G02*
X12825000Y-12533000I-50000J0D01*
G01*
X12825000Y-12533000D02*
G75*
G02*
X12925000Y-12533000I50000J0D01*
G01*
X12925000Y-14057000D02*
G75*
G02*
X12825000Y-14057000I-50000J0D01*
G01*
X12825000Y-14057000D02*
G75*
G02*
X12925000Y-14057000I50000J0D01*
G01*
X13050000Y-14600000D02*
G75*
G02*
X12950000Y-14600000I-50000J0D01*
G01*
X12950000Y-14600000D02*
G75*
G02*
X13050000Y-14600000I50000J0D01*
G01*
X13050000Y-14854000D02*
G75*
G02*
X12950000Y-14854000I-50000J0D01*
G01*
X12950000Y-14854000D02*
G75*
G02*
X13050000Y-14854000I50000J0D01*
G01*
X13179000Y-5033000D02*
G75*
G02*
X13079000Y-5033000I-50000J0D01*
G01*
X13079000Y-5033000D02*
G75*
G02*
X13179000Y-5033000I50000J0D01*
G01*
X13179000Y-6557000D02*
G75*
G02*
X13079000Y-6557000I-50000J0D01*
G01*
X13079000Y-6557000D02*
G75*
G02*
X13179000Y-6557000I50000J0D01*
G01*
X13179000Y-7533000D02*
G75*
G02*
X13079000Y-7533000I-50000J0D01*
G01*
X13079000Y-7533000D02*
G75*
G02*
X13179000Y-7533000I50000J0D01*
G01*
X13179000Y-9057000D02*
G75*
G02*
X13079000Y-9057000I-50000J0D01*
G01*
X13079000Y-9057000D02*
G75*
G02*
X13179000Y-9057000I50000J0D01*
G01*
X13179000Y-10033000D02*
G75*
G02*
X13079000Y-10033000I-50000J0D01*
G01*
X13079000Y-10033000D02*
G75*
G02*
X13179000Y-10033000I50000J0D01*
G01*
X13179000Y-11557000D02*
G75*
G02*
X13079000Y-11557000I-50000J0D01*
G01*
X13079000Y-11557000D02*
G75*
G02*
X13179000Y-11557000I50000J0D01*
G01*
X13179000Y-11918000D02*
G75*
G02*
X13079000Y-11918000I-50000J0D01*
G01*
X13079000Y-11918000D02*
G75*
G02*
X13179000Y-11918000I50000J0D01*
G01*
X13179000Y-12172000D02*
G75*
G02*
X13079000Y-12172000I-50000J0D01*
G01*
X13079000Y-12172000D02*
G75*
G02*
X13179000Y-12172000I50000J0D01*
G01*
X13179000Y-12533000D02*
G75*
G02*
X13079000Y-12533000I-50000J0D01*
G01*
X13079000Y-12533000D02*
G75*
G02*
X13179000Y-12533000I50000J0D01*
G01*
X13179000Y-14057000D02*
G75*
G02*
X13079000Y-14057000I-50000J0D01*
G01*
X13079000Y-14057000D02*
G75*
G02*
X13179000Y-14057000I50000J0D01*
G01*
X13304000Y-14600000D02*
G75*
G02*
X13204000Y-14600000I-50000J0D01*
G01*
X13204000Y-14600000D02*
G75*
G02*
X13304000Y-14600000I50000J0D01*
G01*
X13304000Y-14854000D02*
G75*
G02*
X13204000Y-14854000I-50000J0D01*
G01*
X13204000Y-14854000D02*
G75*
G02*
X13304000Y-14854000I50000J0D01*
G01*
X13433000Y-5033000D02*
G75*
G02*
X13333000Y-5033000I-50000J0D01*
G01*
X13333000Y-5033000D02*
G75*
G02*
X13433000Y-5033000I50000J0D01*
G01*
X13433000Y-6557000D02*
G75*
G02*
X13333000Y-6557000I-50000J0D01*
G01*
X13333000Y-6557000D02*
G75*
G02*
X13433000Y-6557000I50000J0D01*
G01*
X13433000Y-7533000D02*
G75*
G02*
X13333000Y-7533000I-50000J0D01*
G01*
X13333000Y-7533000D02*
G75*
G02*
X13433000Y-7533000I50000J0D01*
G01*
X13433000Y-9057000D02*
G75*
G02*
X13333000Y-9057000I-50000J0D01*
G01*
X13333000Y-9057000D02*
G75*
G02*
X13433000Y-9057000I50000J0D01*
G01*
X13433000Y-10033000D02*
G75*
G02*
X13333000Y-10033000I-50000J0D01*
G01*
X13333000Y-10033000D02*
G75*
G02*
X13433000Y-10033000I50000J0D01*
G01*
X13433000Y-11557000D02*
G75*
G02*
X13333000Y-11557000I-50000J0D01*
G01*
X13333000Y-11557000D02*
G75*
G02*
X13433000Y-11557000I50000J0D01*
G01*
X13433000Y-11918000D02*
G75*
G02*
X13333000Y-11918000I-50000J0D01*
G01*
X13333000Y-11918000D02*
G75*
G02*
X13433000Y-11918000I50000J0D01*
G01*
X13433000Y-12172000D02*
G75*
G02*
X13333000Y-12172000I-50000J0D01*
G01*
X13333000Y-12172000D02*
G75*
G02*
X13433000Y-12172000I50000J0D01*
G01*
X13433000Y-12533000D02*
G75*
G02*
X13333000Y-12533000I-50000J0D01*
G01*
X13333000Y-12533000D02*
G75*
G02*
X13433000Y-12533000I50000J0D01*
G01*
X13433000Y-14057000D02*
G75*
G02*
X13333000Y-14057000I-50000J0D01*
G01*
X13333000Y-14057000D02*
G75*
G02*
X13433000Y-14057000I50000J0D01*
G01*
X13558000Y-14600000D02*
G75*
G02*
X13458000Y-14600000I-50000J0D01*
G01*
X13458000Y-14600000D02*
G75*
G02*
X13558000Y-14600000I50000J0D01*
G01*
X13558000Y-14854000D02*
G75*
G02*
X13458000Y-14854000I-50000J0D01*
G01*
X13458000Y-14854000D02*
G75*
G02*
X13558000Y-14854000I50000J0D01*
G01*
X13687000Y-11918000D02*
G75*
G02*
X13587000Y-11918000I-50000J0D01*
G01*
X13587000Y-11918000D02*
G75*
G02*
X13687000Y-11918000I50000J0D01*
G01*
X13687000Y-12172000D02*
G75*
G02*
X13587000Y-12172000I-50000J0D01*
G01*
X13587000Y-12172000D02*
G75*
G02*
X13687000Y-12172000I50000J0D01*
G01*
X13812000Y-14600000D02*
G75*
G02*
X13712000Y-14600000I-50000J0D01*
G01*
X13712000Y-14600000D02*
G75*
G02*
X13812000Y-14600000I50000J0D01*
G01*
X13812000Y-14854000D02*
G75*
G02*
X13712000Y-14854000I-50000J0D01*
G01*
X13712000Y-14854000D02*
G75*
G02*
X13812000Y-14854000I50000J0D01*
G01*
X13941000Y-11918000D02*
G75*
G02*
X13841000Y-11918000I-50000J0D01*
G01*
X13841000Y-11918000D02*
G75*
G02*
X13941000Y-11918000I50000J0D01*
G01*
X13941000Y-12172000D02*
G75*
G02*
X13841000Y-12172000I-50000J0D01*
G01*
X13841000Y-12172000D02*
G75*
G02*
X13941000Y-12172000I50000J0D01*
G01*
X14195000Y-11918000D02*
G75*
G02*
X14095000Y-11918000I-50000J0D01*
G01*
X14095000Y-11918000D02*
G75*
G02*
X14195000Y-11918000I50000J0D01*
G01*
X14195000Y-12172000D02*
G75*
G02*
X14095000Y-12172000I-50000J0D01*
G01*
X14095000Y-12172000D02*
G75*
G02*
X14195000Y-12172000I50000J0D01*
G01*
X14307650Y-7171434D02*
G75*
G02*
X14207650Y-7171434I-50000J0D01*
G01*
X14207650Y-7171434D02*
G75*
G02*
X14307650Y-7171434I50000J0D01*
G01*
X14561650Y-7171434D02*
G75*
G02*
X14461650Y-7171434I-50000J0D01*
G01*
X14461650Y-7171434D02*
G75*
G02*
X14561650Y-7171434I50000J0D01*
G01*
X14655000Y-14859000D02*
G75*
G02*
X14555000Y-14859000I-50000J0D01*
G01*
X14555000Y-14859000D02*
G75*
G02*
X14655000Y-14859000I50000J0D01*
G01*
X14815650Y-7171434D02*
G75*
G02*
X14715650Y-7171434I-50000J0D01*
G01*
X14715650Y-7171434D02*
G75*
G02*
X14815650Y-7171434I50000J0D01*
G01*
X14909000Y-14859000D02*
G75*
G02*
X14809000Y-14859000I-50000J0D01*
G01*
X14809000Y-14859000D02*
G75*
G02*
X14909000Y-14859000I50000J0D01*
G01*
X15069650Y-7171434D02*
G75*
G02*
X14969650Y-7171434I-50000J0D01*
G01*
X14969650Y-7171434D02*
G75*
G02*
X15069650Y-7171434I50000J0D01*
G01*
X15163000Y-14859000D02*
G75*
G02*
X15063000Y-14859000I-50000J0D01*
G01*
X15063000Y-14859000D02*
G75*
G02*
X15163000Y-14859000I50000J0D01*
G01*
X15323650Y-7171434D02*
G75*
G02*
X15223650Y-7171434I-50000J0D01*
G01*
X15223650Y-7171434D02*
G75*
G02*
X15323650Y-7171434I50000J0D01*
G01*
X15417000Y-14859000D02*
G75*
G02*
X15317000Y-14859000I-50000J0D01*
G01*
X15317000Y-14859000D02*
G75*
G02*
X15417000Y-14859000I50000J0D01*
G01*
X15577650Y-7171434D02*
G75*
G02*
X15477650Y-7171434I-50000J0D01*
G01*
X15477650Y-7171434D02*
G75*
G02*
X15577650Y-7171434I50000J0D01*
G01*
X15671000Y-14859000D02*
G75*
G02*
X15571000Y-14859000I-50000J0D01*
G01*
X15571000Y-14859000D02*
G75*
G02*
X15671000Y-14859000I50000J0D01*
G01*
X15831650Y-7171434D02*
G75*
G02*
X15731650Y-7171434I-50000J0D01*
G01*
X15731650Y-7171434D02*
G75*
G02*
X15831650Y-7171434I50000J0D01*
G01*
X15925000Y-14859000D02*
G75*
G02*
X15825000Y-14859000I-50000J0D01*
G01*
X15825000Y-14859000D02*
G75*
G02*
X15925000Y-14859000I50000J0D01*
G01*
X16085650Y-7171434D02*
G75*
G02*
X15985650Y-7171434I-50000J0D01*
G01*
X15985650Y-7171434D02*
G75*
G02*
X16085650Y-7171434I50000J0D01*
G01*
X16179000Y-14859000D02*
G75*
G02*
X16079000Y-14859000I-50000J0D01*
G01*
X16079000Y-14859000D02*
G75*
G02*
X16179000Y-14859000I50000J0D01*
G01*
X16339650Y-7171434D02*
G75*
G02*
X16239650Y-7171434I-50000J0D01*
G01*
X16239650Y-7171434D02*
G75*
G02*
X16339650Y-7171434I50000J0D01*
G01*
X16433000Y-14859000D02*
G75*
G02*
X16333000Y-14859000I-50000J0D01*
G01*
X16333000Y-14859000D02*
G75*
G02*
X16433000Y-14859000I50000J0D01*
G01*
X16593650Y-7171434D02*
G75*
G02*
X16493650Y-7171434I-50000J0D01*
G01*
X16493650Y-7171434D02*
G75*
G02*
X16593650Y-7171434I50000J0D01*
G01*
X16687000Y-14859000D02*
G75*
G02*
X16587000Y-14859000I-50000J0D01*
G01*
X16587000Y-14859000D02*
G75*
G02*
X16687000Y-14859000I50000J0D01*
G01*
X16941000Y-14859000D02*
G75*
G02*
X16841000Y-14859000I-50000J0D01*
G01*
X16841000Y-14859000D02*
G75*
G02*
X16941000Y-14859000I50000J0D01*
G01*
X17195000Y-14859000D02*
G75*
G02*
X17095000Y-14859000I-50000J0D01*
G01*
X17095000Y-14859000D02*
G75*
G02*
X17195000Y-14859000I50000J0D01*
G01*
X17213000Y-5033000D02*
G75*
G02*
X17113000Y-5033000I-50000J0D01*
G01*
X17113000Y-5033000D02*
G75*
G02*
X17213000Y-5033000I50000J0D01*
G01*
X17213000Y-6557000D02*
G75*
G02*
X17113000Y-6557000I-50000J0D01*
G01*
X17113000Y-6557000D02*
G75*
G02*
X17213000Y-6557000I50000J0D01*
G01*
X17213000Y-7533000D02*
G75*
G02*
X17113000Y-7533000I-50000J0D01*
G01*
X17113000Y-7533000D02*
G75*
G02*
X17213000Y-7533000I50000J0D01*
G01*
X17213000Y-9057000D02*
G75*
G02*
X17113000Y-9057000I-50000J0D01*
G01*
X17113000Y-9057000D02*
G75*
G02*
X17213000Y-9057000I50000J0D01*
G01*
X17213000Y-10033000D02*
G75*
G02*
X17113000Y-10033000I-50000J0D01*
G01*
X17113000Y-10033000D02*
G75*
G02*
X17213000Y-10033000I50000J0D01*
G01*
X17213000Y-11557000D02*
G75*
G02*
X17113000Y-11557000I-50000J0D01*
G01*
X17113000Y-11557000D02*
G75*
G02*
X17213000Y-11557000I50000J0D01*
G01*
X17213000Y-12533000D02*
G75*
G02*
X17113000Y-12533000I-50000J0D01*
G01*
X17113000Y-12533000D02*
G75*
G02*
X17213000Y-12533000I50000J0D01*
G01*
X17213000Y-14057000D02*
G75*
G02*
X17113000Y-14057000I-50000J0D01*
G01*
X17113000Y-14057000D02*
G75*
G02*
X17213000Y-14057000I50000J0D01*
G01*
X17449000Y-14859000D02*
G75*
G02*
X17349000Y-14859000I-50000J0D01*
G01*
X17349000Y-14859000D02*
G75*
G02*
X17449000Y-14859000I50000J0D01*
G01*
X17467000Y-5033000D02*
G75*
G02*
X17367000Y-5033000I-50000J0D01*
G01*
X17367000Y-5033000D02*
G75*
G02*
X17467000Y-5033000I50000J0D01*
G01*
X17467000Y-6557000D02*
G75*
G02*
X17367000Y-6557000I-50000J0D01*
G01*
X17367000Y-6557000D02*
G75*
G02*
X17467000Y-6557000I50000J0D01*
G01*
X17467000Y-7533000D02*
G75*
G02*
X17367000Y-7533000I-50000J0D01*
G01*
X17367000Y-7533000D02*
G75*
G02*
X17467000Y-7533000I50000J0D01*
G01*
X17467000Y-9057000D02*
G75*
G02*
X17367000Y-9057000I-50000J0D01*
G01*
X17367000Y-9057000D02*
G75*
G02*
X17467000Y-9057000I50000J0D01*
G01*
X17467000Y-10033000D02*
G75*
G02*
X17367000Y-10033000I-50000J0D01*
G01*
X17367000Y-10033000D02*
G75*
G02*
X17467000Y-10033000I50000J0D01*
G01*
X17467000Y-11557000D02*
G75*
G02*
X17367000Y-11557000I-50000J0D01*
G01*
X17367000Y-11557000D02*
G75*
G02*
X17467000Y-11557000I50000J0D01*
G01*
X17467000Y-12533000D02*
G75*
G02*
X17367000Y-12533000I-50000J0D01*
G01*
X17367000Y-12533000D02*
G75*
G02*
X17467000Y-12533000I50000J0D01*
G01*
X17467000Y-14057000D02*
G75*
G02*
X17367000Y-14057000I-50000J0D01*
G01*
X17367000Y-14057000D02*
G75*
G02*
X17467000Y-14057000I50000J0D01*
G01*
X17703000Y-14859000D02*
G75*
G02*
X17603000Y-14859000I-50000J0D01*
G01*
X17603000Y-14859000D02*
G75*
G02*
X17703000Y-14859000I50000J0D01*
G01*
X17721000Y-5033000D02*
G75*
G02*
X17621000Y-5033000I-50000J0D01*
G01*
X17621000Y-5033000D02*
G75*
G02*
X17721000Y-5033000I50000J0D01*
G01*
X17721000Y-6557000D02*
G75*
G02*
X17621000Y-6557000I-50000J0D01*
G01*
X17621000Y-6557000D02*
G75*
G02*
X17721000Y-6557000I50000J0D01*
G01*
X17721000Y-7533000D02*
G75*
G02*
X17621000Y-7533000I-50000J0D01*
G01*
X17621000Y-7533000D02*
G75*
G02*
X17721000Y-7533000I50000J0D01*
G01*
X17721000Y-9057000D02*
G75*
G02*
X17621000Y-9057000I-50000J0D01*
G01*
X17621000Y-9057000D02*
G75*
G02*
X17721000Y-9057000I50000J0D01*
G01*
X17721000Y-10033000D02*
G75*
G02*
X17621000Y-10033000I-50000J0D01*
G01*
X17621000Y-10033000D02*
G75*
G02*
X17721000Y-10033000I50000J0D01*
G01*
X17721000Y-11557000D02*
G75*
G02*
X17621000Y-11557000I-50000J0D01*
G01*
X17621000Y-11557000D02*
G75*
G02*
X17721000Y-11557000I50000J0D01*
G01*
X17721000Y-12533000D02*
G75*
G02*
X17621000Y-12533000I-50000J0D01*
G01*
X17621000Y-12533000D02*
G75*
G02*
X17721000Y-12533000I50000J0D01*
G01*
X17721000Y-14057000D02*
G75*
G02*
X17621000Y-14057000I-50000J0D01*
G01*
X17621000Y-14057000D02*
G75*
G02*
X17721000Y-14057000I50000J0D01*
G01*
X17957000Y-14859000D02*
G75*
G02*
X17857000Y-14859000I-50000J0D01*
G01*
X17857000Y-14859000D02*
G75*
G02*
X17957000Y-14859000I50000J0D01*
G01*
X17975000Y-5033000D02*
G75*
G02*
X17875000Y-5033000I-50000J0D01*
G01*
X17875000Y-5033000D02*
G75*
G02*
X17975000Y-5033000I50000J0D01*
G01*
X17975000Y-6557000D02*
G75*
G02*
X17875000Y-6557000I-50000J0D01*
G01*
X17875000Y-6557000D02*
G75*
G02*
X17975000Y-6557000I50000J0D01*
G01*
X17975000Y-7533000D02*
G75*
G02*
X17875000Y-7533000I-50000J0D01*
G01*
X17875000Y-7533000D02*
G75*
G02*
X17975000Y-7533000I50000J0D01*
G01*
X17975000Y-9057000D02*
G75*
G02*
X17875000Y-9057000I-50000J0D01*
G01*
X17875000Y-9057000D02*
G75*
G02*
X17975000Y-9057000I50000J0D01*
G01*
X17975000Y-10033000D02*
G75*
G02*
X17875000Y-10033000I-50000J0D01*
G01*
X17875000Y-10033000D02*
G75*
G02*
X17975000Y-10033000I50000J0D01*
G01*
X17975000Y-11557000D02*
G75*
G02*
X17875000Y-11557000I-50000J0D01*
G01*
X17875000Y-11557000D02*
G75*
G02*
X17975000Y-11557000I50000J0D01*
G01*
X17975000Y-12533000D02*
G75*
G02*
X17875000Y-12533000I-50000J0D01*
G01*
X17875000Y-12533000D02*
G75*
G02*
X17975000Y-12533000I50000J0D01*
G01*
X17975000Y-14057000D02*
G75*
G02*
X17875000Y-14057000I-50000J0D01*
G01*
X17875000Y-14057000D02*
G75*
G02*
X17975000Y-14057000I50000J0D01*
G01*
X18211000Y-14859000D02*
G75*
G02*
X18111000Y-14859000I-50000J0D01*
G01*
X18111000Y-14859000D02*
G75*
G02*
X18211000Y-14859000I50000J0D01*
G01*
X18229000Y-5033000D02*
G75*
G02*
X18129000Y-5033000I-50000J0D01*
G01*
X18129000Y-5033000D02*
G75*
G02*
X18229000Y-5033000I50000J0D01*
G01*
X18229000Y-6557000D02*
G75*
G02*
X18129000Y-6557000I-50000J0D01*
G01*
X18129000Y-6557000D02*
G75*
G02*
X18229000Y-6557000I50000J0D01*
G01*
X18229000Y-7533000D02*
G75*
G02*
X18129000Y-7533000I-50000J0D01*
G01*
X18129000Y-7533000D02*
G75*
G02*
X18229000Y-7533000I50000J0D01*
G01*
X18229000Y-9057000D02*
G75*
G02*
X18129000Y-9057000I-50000J0D01*
G01*
X18129000Y-9057000D02*
G75*
G02*
X18229000Y-9057000I50000J0D01*
G01*
X18229000Y-10033000D02*
G75*
G02*
X18129000Y-10033000I-50000J0D01*
G01*
X18129000Y-10033000D02*
G75*
G02*
X18229000Y-10033000I50000J0D01*
G01*
X18229000Y-11557000D02*
G75*
G02*
X18129000Y-11557000I-50000J0D01*
G01*
X18129000Y-11557000D02*
G75*
G02*
X18229000Y-11557000I50000J0D01*
G01*
X18229000Y-12533000D02*
G75*
G02*
X18129000Y-12533000I-50000J0D01*
G01*
X18129000Y-12533000D02*
G75*
G02*
X18229000Y-12533000I50000J0D01*
G01*
X18229000Y-14057000D02*
G75*
G02*
X18129000Y-14057000I-50000J0D01*
G01*
X18129000Y-14057000D02*
G75*
G02*
X18229000Y-14057000I50000J0D01*
G01*
X18465000Y-14859000D02*
G75*
G02*
X18365000Y-14859000I-50000J0D01*
G01*
X18365000Y-14859000D02*
G75*
G02*
X18465000Y-14859000I50000J0D01*
G01*
X18483000Y-5033000D02*
G75*
G02*
X18383000Y-5033000I-50000J0D01*
G01*
X18383000Y-5033000D02*
G75*
G02*
X18483000Y-5033000I50000J0D01*
G01*
X18483000Y-6557000D02*
G75*
G02*
X18383000Y-6557000I-50000J0D01*
G01*
X18383000Y-6557000D02*
G75*
G02*
X18483000Y-6557000I50000J0D01*
G01*
X18483000Y-7533000D02*
G75*
G02*
X18383000Y-7533000I-50000J0D01*
G01*
X18383000Y-7533000D02*
G75*
G02*
X18483000Y-7533000I50000J0D01*
G01*
X18483000Y-9057000D02*
G75*
G02*
X18383000Y-9057000I-50000J0D01*
G01*
X18383000Y-9057000D02*
G75*
G02*
X18483000Y-9057000I50000J0D01*
G01*
X18483000Y-10033000D02*
G75*
G02*
X18383000Y-10033000I-50000J0D01*
G01*
X18383000Y-10033000D02*
G75*
G02*
X18483000Y-10033000I50000J0D01*
G01*
X18483000Y-11557000D02*
G75*
G02*
X18383000Y-11557000I-50000J0D01*
G01*
X18383000Y-11557000D02*
G75*
G02*
X18483000Y-11557000I50000J0D01*
G01*
X18483000Y-12533000D02*
G75*
G02*
X18383000Y-12533000I-50000J0D01*
G01*
X18383000Y-12533000D02*
G75*
G02*
X18483000Y-12533000I50000J0D01*
G01*
X18483000Y-14057000D02*
G75*
G02*
X18383000Y-14057000I-50000J0D01*
G01*
X18383000Y-14057000D02*
G75*
G02*
X18483000Y-14057000I50000J0D01*
G01*
X18719000Y-14859000D02*
G75*
G02*
X18619000Y-14859000I-50000J0D01*
G01*
X18619000Y-14859000D02*
G75*
G02*
X18719000Y-14859000I50000J0D01*
G01*
X18973000Y-14859000D02*
G75*
G02*
X18873000Y-14859000I-50000J0D01*
G01*
X18873000Y-14859000D02*
G75*
G02*
X18973000Y-14859000I50000J0D01*
G01*
X19227000Y-14859000D02*
G75*
G02*
X19127000Y-14859000I-50000J0D01*
G01*
X19127000Y-14859000D02*
G75*
G02*
X19227000Y-14859000I50000J0D01*
G01*
X19481000Y-14859000D02*
G75*
G02*
X19381000Y-14859000I-50000J0D01*
G01*
X19381000Y-14859000D02*
G75*
G02*
X19481000Y-14859000I50000J0D01*
G01*
X20521000Y-7991500D02*
G75*
G02*
X20421000Y-7991500I-50000J0D01*
G01*
X20421000Y-7991500D02*
G75*
G02*
X20521000Y-7991500I50000J0D01*
G01*
X20521000Y-8245500D02*
G75*
G02*
X20421000Y-8245500I-50000J0D01*
G01*
X20421000Y-8245500D02*
G75*
G02*
X20521000Y-8245500I50000J0D01*
G01*
X20521000Y-8499500D02*
G75*
G02*
X20421000Y-8499500I-50000J0D01*
G01*
X20421000Y-8499500D02*
G75*
G02*
X20521000Y-8499500I50000J0D01*
G01*
X20521000Y-8753500D02*
G75*
G02*
X20421000Y-8753500I-50000J0D01*
G01*
X20421000Y-8753500D02*
G75*
G02*
X20521000Y-8753500I50000J0D01*
G01*
X20521000Y-9007500D02*
G75*
G02*
X20421000Y-9007500I-50000J0D01*
G01*
X20421000Y-9007500D02*
G75*
G02*
X20521000Y-9007500I50000J0D01*
G01*
X20521427Y-12375741D02*
G75*
G02*
X20421427Y-12375741I-50000J0D01*
G01*
X20421427Y-12375741D02*
G75*
G02*
X20521427Y-12375741I50000J0D01*
G01*
X20521427Y-12629741D02*
G75*
G02*
X20421427Y-12629741I-50000J0D01*
G01*
X20421427Y-12629741D02*
G75*
G02*
X20521427Y-12629741I50000J0D01*
G01*
X20521427Y-12883741D02*
G75*
G02*
X20421427Y-12883741I-50000J0D01*
G01*
X20421427Y-12883741D02*
G75*
G02*
X20521427Y-12883741I50000J0D01*
G01*
X20521427Y-13137741D02*
G75*
G02*
X20421427Y-13137741I-50000J0D01*
G01*
X20421427Y-13137741D02*
G75*
G02*
X20521427Y-13137741I50000J0D01*
G01*
X20521427Y-13391741D02*
G75*
G02*
X20421427Y-13391741I-50000J0D01*
G01*
X20421427Y-13391741D02*
G75*
G02*
X20521427Y-13391741I50000J0D01*
G01*
X20521427Y-13645741D02*
G75*
G02*
X20421427Y-13645741I-50000J0D01*
G01*
X20421427Y-13645741D02*
G75*
G02*
X20521427Y-13645741I50000J0D01*
G01*
X20521427Y-13899741D02*
G75*
G02*
X20421427Y-13899741I-50000J0D01*
G01*
X20421427Y-13899741D02*
G75*
G02*
X20521427Y-13899741I50000J0D01*
G01*
X20521427Y-14153741D02*
G75*
G02*
X20421427Y-14153741I-50000J0D01*
G01*
X20421427Y-14153741D02*
G75*
G02*
X20521427Y-14153741I50000J0D01*
G01*
X20775000Y-7991500D02*
G75*
G02*
X20675000Y-7991500I-50000J0D01*
G01*
X20675000Y-7991500D02*
G75*
G02*
X20775000Y-7991500I50000J0D01*
G01*
X20775000Y-8245500D02*
G75*
G02*
X20675000Y-8245500I-50000J0D01*
G01*
X20675000Y-8245500D02*
G75*
G02*
X20775000Y-8245500I50000J0D01*
G01*
X20775000Y-8499500D02*
G75*
G02*
X20675000Y-8499500I-50000J0D01*
G01*
X20675000Y-8499500D02*
G75*
G02*
X20775000Y-8499500I50000J0D01*
G01*
X20775000Y-8753500D02*
G75*
G02*
X20675000Y-8753500I-50000J0D01*
G01*
X20675000Y-8753500D02*
G75*
G02*
X20775000Y-8753500I50000J0D01*
G01*
X20775000Y-9007500D02*
G75*
G02*
X20675000Y-9007500I-50000J0D01*
G01*
X20675000Y-9007500D02*
G75*
G02*
X20775000Y-9007500I50000J0D01*
G01*
X20775427Y-12375741D02*
G75*
G02*
X20675427Y-12375741I-50000J0D01*
G01*
X20675427Y-12375741D02*
G75*
G02*
X20775427Y-12375741I50000J0D01*
G01*
X20775427Y-12629741D02*
G75*
G02*
X20675427Y-12629741I-50000J0D01*
G01*
X20675427Y-12629741D02*
G75*
G02*
X20775427Y-12629741I50000J0D01*
G01*
X20775427Y-12883741D02*
G75*
G02*
X20675427Y-12883741I-50000J0D01*
G01*
X20675427Y-12883741D02*
G75*
G02*
X20775427Y-12883741I50000J0D01*
G01*
X20775427Y-13137741D02*
G75*
G02*
X20675427Y-13137741I-50000J0D01*
G01*
X20675427Y-13137741D02*
G75*
G02*
X20775427Y-13137741I50000J0D01*
G01*
X20775427Y-13391741D02*
G75*
G02*
X20675427Y-13391741I-50000J0D01*
G01*
X20675427Y-13391741D02*
G75*
G02*
X20775427Y-13391741I50000J0D01*
G01*
X20775427Y-13645741D02*
G75*
G02*
X20675427Y-13645741I-50000J0D01*
G01*
X20675427Y-13645741D02*
G75*
G02*
X20775427Y-13645741I50000J0D01*
G01*
X20775427Y-13899741D02*
G75*
G02*
X20675427Y-13899741I-50000J0D01*
G01*
X20675427Y-13899741D02*
G75*
G02*
X20775427Y-13899741I50000J0D01*
G01*
X20775427Y-14153741D02*
G75*
G02*
X20675427Y-14153741I-50000J0D01*
G01*
X20675427Y-14153741D02*
G75*
G02*
X20775427Y-14153741I50000J0D01*
G01*
X21314033Y-11918291D02*
G75*
G02*
X21214033Y-11918291I-50000J0D01*
G01*
X21214033Y-11918291D02*
G75*
G02*
X21314033Y-11918291I50000J0D01*
G01*
X21314033Y-12172291D02*
G75*
G02*
X21214033Y-12172291I-50000J0D01*
G01*
X21214033Y-12172291D02*
G75*
G02*
X21314033Y-12172291I50000J0D01*
G01*
X21568033Y-11918291D02*
G75*
G02*
X21468033Y-11918291I-50000J0D01*
G01*
X21468033Y-11918291D02*
G75*
G02*
X21568033Y-11918291I50000J0D01*
G01*
X21568033Y-12172291D02*
G75*
G02*
X21468033Y-12172291I-50000J0D01*
G01*
X21468033Y-12172291D02*
G75*
G02*
X21568033Y-12172291I50000J0D01*
G01*
X21767000Y-14859000D02*
G75*
G02*
X21667000Y-14859000I-50000J0D01*
G01*
X21667000Y-14859000D02*
G75*
G02*
X21767000Y-14859000I50000J0D01*
G01*
X21822033Y-11918291D02*
G75*
G02*
X21722033Y-11918291I-50000J0D01*
G01*
X21722033Y-11918291D02*
G75*
G02*
X21822033Y-11918291I50000J0D01*
G01*
X21822033Y-12172291D02*
G75*
G02*
X21722033Y-12172291I-50000J0D01*
G01*
X21722033Y-12172291D02*
G75*
G02*
X21822033Y-12172291I50000J0D01*
G01*
X22021000Y-14859000D02*
G75*
G02*
X21921000Y-14859000I-50000J0D01*
G01*
X21921000Y-14859000D02*
G75*
G02*
X22021000Y-14859000I50000J0D01*
G01*
X22275000Y-14859000D02*
G75*
G02*
X22175000Y-14859000I-50000J0D01*
G01*
X22175000Y-14859000D02*
G75*
G02*
X22275000Y-14859000I50000J0D01*
G01*
X22529000Y-14859000D02*
G75*
G02*
X22429000Y-14859000I-50000J0D01*
G01*
X22429000Y-14859000D02*
G75*
G02*
X22529000Y-14859000I50000J0D01*
G01*
X22783000Y-14859000D02*
G75*
G02*
X22683000Y-14859000I-50000J0D01*
G01*
X22683000Y-14859000D02*
G75*
G02*
X22783000Y-14859000I50000J0D01*
G01*
X22813000Y-5033000D02*
G75*
G02*
X22713000Y-5033000I-50000J0D01*
G01*
X22713000Y-5033000D02*
G75*
G02*
X22813000Y-5033000I50000J0D01*
G01*
X22813000Y-6557000D02*
G75*
G02*
X22713000Y-6557000I-50000J0D01*
G01*
X22713000Y-6557000D02*
G75*
G02*
X22813000Y-6557000I50000J0D01*
G01*
X22813000Y-7533000D02*
G75*
G02*
X22713000Y-7533000I-50000J0D01*
G01*
X22713000Y-7533000D02*
G75*
G02*
X22813000Y-7533000I50000J0D01*
G01*
X22813000Y-9057000D02*
G75*
G02*
X22713000Y-9057000I-50000J0D01*
G01*
X22713000Y-9057000D02*
G75*
G02*
X22813000Y-9057000I50000J0D01*
G01*
X22813000Y-10033000D02*
G75*
G02*
X22713000Y-10033000I-50000J0D01*
G01*
X22713000Y-10033000D02*
G75*
G02*
X22813000Y-10033000I50000J0D01*
G01*
X22813000Y-11557000D02*
G75*
G02*
X22713000Y-11557000I-50000J0D01*
G01*
X22713000Y-11557000D02*
G75*
G02*
X22813000Y-11557000I50000J0D01*
G01*
X22813000Y-12533000D02*
G75*
G02*
X22713000Y-12533000I-50000J0D01*
G01*
X22713000Y-12533000D02*
G75*
G02*
X22813000Y-12533000I50000J0D01*
G01*
X22813000Y-14057000D02*
G75*
G02*
X22713000Y-14057000I-50000J0D01*
G01*
X22713000Y-14057000D02*
G75*
G02*
X22813000Y-14057000I50000J0D01*
G01*
X23037000Y-14859000D02*
G75*
G02*
X22937000Y-14859000I-50000J0D01*
G01*
X22937000Y-14859000D02*
G75*
G02*
X23037000Y-14859000I50000J0D01*
G01*
X23067000Y-5033000D02*
G75*
G02*
X22967000Y-5033000I-50000J0D01*
G01*
X22967000Y-5033000D02*
G75*
G02*
X23067000Y-5033000I50000J0D01*
G01*
X23067000Y-6557000D02*
G75*
G02*
X22967000Y-6557000I-50000J0D01*
G01*
X22967000Y-6557000D02*
G75*
G02*
X23067000Y-6557000I50000J0D01*
G01*
X23067000Y-7533000D02*
G75*
G02*
X22967000Y-7533000I-50000J0D01*
G01*
X22967000Y-7533000D02*
G75*
G02*
X23067000Y-7533000I50000J0D01*
G01*
X23067000Y-9057000D02*
G75*
G02*
X22967000Y-9057000I-50000J0D01*
G01*
X22967000Y-9057000D02*
G75*
G02*
X23067000Y-9057000I50000J0D01*
G01*
X23067000Y-10033000D02*
G75*
G02*
X22967000Y-10033000I-50000J0D01*
G01*
X22967000Y-10033000D02*
G75*
G02*
X23067000Y-10033000I50000J0D01*
G01*
X23067000Y-11557000D02*
G75*
G02*
X22967000Y-11557000I-50000J0D01*
G01*
X22967000Y-11557000D02*
G75*
G02*
X23067000Y-11557000I50000J0D01*
G01*
X23067000Y-12533000D02*
G75*
G02*
X22967000Y-12533000I-50000J0D01*
G01*
X22967000Y-12533000D02*
G75*
G02*
X23067000Y-12533000I50000J0D01*
G01*
X23067000Y-14057000D02*
G75*
G02*
X22967000Y-14057000I-50000J0D01*
G01*
X22967000Y-14057000D02*
G75*
G02*
X23067000Y-14057000I50000J0D01*
G01*
X23291000Y-14859000D02*
G75*
G02*
X23191000Y-14859000I-50000J0D01*
G01*
X23191000Y-14859000D02*
G75*
G02*
X23291000Y-14859000I50000J0D01*
G01*
X23321000Y-5033000D02*
G75*
G02*
X23221000Y-5033000I-50000J0D01*
G01*
X23221000Y-5033000D02*
G75*
G02*
X23321000Y-5033000I50000J0D01*
G01*
X23321000Y-6557000D02*
G75*
G02*
X23221000Y-6557000I-50000J0D01*
G01*
X23221000Y-6557000D02*
G75*
G02*
X23321000Y-6557000I50000J0D01*
G01*
X23321000Y-7533000D02*
G75*
G02*
X23221000Y-7533000I-50000J0D01*
G01*
X23221000Y-7533000D02*
G75*
G02*
X23321000Y-7533000I50000J0D01*
G01*
X23321000Y-9057000D02*
G75*
G02*
X23221000Y-9057000I-50000J0D01*
G01*
X23221000Y-9057000D02*
G75*
G02*
X23321000Y-9057000I50000J0D01*
G01*
X23321000Y-10033000D02*
G75*
G02*
X23221000Y-10033000I-50000J0D01*
G01*
X23221000Y-10033000D02*
G75*
G02*
X23321000Y-10033000I50000J0D01*
G01*
X23321000Y-11557000D02*
G75*
G02*
X23221000Y-11557000I-50000J0D01*
G01*
X23221000Y-11557000D02*
G75*
G02*
X23321000Y-11557000I50000J0D01*
G01*
X23321000Y-12533000D02*
G75*
G02*
X23221000Y-12533000I-50000J0D01*
G01*
X23221000Y-12533000D02*
G75*
G02*
X23321000Y-12533000I50000J0D01*
G01*
X23321000Y-14057000D02*
G75*
G02*
X23221000Y-14057000I-50000J0D01*
G01*
X23221000Y-14057000D02*
G75*
G02*
X23321000Y-14057000I50000J0D01*
G01*
X23545000Y-14859000D02*
G75*
G02*
X23445000Y-14859000I-50000J0D01*
G01*
X23445000Y-14859000D02*
G75*
G02*
X23545000Y-14859000I50000J0D01*
G01*
X23575000Y-5033000D02*
G75*
G02*
X23475000Y-5033000I-50000J0D01*
G01*
X23475000Y-5033000D02*
G75*
G02*
X23575000Y-5033000I50000J0D01*
G01*
X23575000Y-6557000D02*
G75*
G02*
X23475000Y-6557000I-50000J0D01*
G01*
X23475000Y-6557000D02*
G75*
G02*
X23575000Y-6557000I50000J0D01*
G01*
X23575000Y-7533000D02*
G75*
G02*
X23475000Y-7533000I-50000J0D01*
G01*
X23475000Y-7533000D02*
G75*
G02*
X23575000Y-7533000I50000J0D01*
G01*
X23575000Y-9057000D02*
G75*
G02*
X23475000Y-9057000I-50000J0D01*
G01*
X23475000Y-9057000D02*
G75*
G02*
X23575000Y-9057000I50000J0D01*
G01*
X23575000Y-10033000D02*
G75*
G02*
X23475000Y-10033000I-50000J0D01*
G01*
X23475000Y-10033000D02*
G75*
G02*
X23575000Y-10033000I50000J0D01*
G01*
X23575000Y-11557000D02*
G75*
G02*
X23475000Y-11557000I-50000J0D01*
G01*
X23475000Y-11557000D02*
G75*
G02*
X23575000Y-11557000I50000J0D01*
G01*
X23575000Y-12533000D02*
G75*
G02*
X23475000Y-12533000I-50000J0D01*
G01*
X23475000Y-12533000D02*
G75*
G02*
X23575000Y-12533000I50000J0D01*
G01*
X23575000Y-14057000D02*
G75*
G02*
X23475000Y-14057000I-50000J0D01*
G01*
X23475000Y-14057000D02*
G75*
G02*
X23575000Y-14057000I50000J0D01*
G01*
X23799000Y-14859000D02*
G75*
G02*
X23699000Y-14859000I-50000J0D01*
G01*
X23699000Y-14859000D02*
G75*
G02*
X23799000Y-14859000I50000J0D01*
G01*
X23829000Y-5033000D02*
G75*
G02*
X23729000Y-5033000I-50000J0D01*
G01*
X23729000Y-5033000D02*
G75*
G02*
X23829000Y-5033000I50000J0D01*
G01*
X23829000Y-6557000D02*
G75*
G02*
X23729000Y-6557000I-50000J0D01*
G01*
X23729000Y-6557000D02*
G75*
G02*
X23829000Y-6557000I50000J0D01*
G01*
X23829000Y-7533000D02*
G75*
G02*
X23729000Y-7533000I-50000J0D01*
G01*
X23729000Y-7533000D02*
G75*
G02*
X23829000Y-7533000I50000J0D01*
G01*
X23829000Y-9057000D02*
G75*
G02*
X23729000Y-9057000I-50000J0D01*
G01*
X23729000Y-9057000D02*
G75*
G02*
X23829000Y-9057000I50000J0D01*
G01*
X23829000Y-10033000D02*
G75*
G02*
X23729000Y-10033000I-50000J0D01*
G01*
X23729000Y-10033000D02*
G75*
G02*
X23829000Y-10033000I50000J0D01*
G01*
X23829000Y-11557000D02*
G75*
G02*
X23729000Y-11557000I-50000J0D01*
G01*
X23729000Y-11557000D02*
G75*
G02*
X23829000Y-11557000I50000J0D01*
G01*
X23829000Y-12533000D02*
G75*
G02*
X23729000Y-12533000I-50000J0D01*
G01*
X23729000Y-12533000D02*
G75*
G02*
X23829000Y-12533000I50000J0D01*
G01*
X23829000Y-14057000D02*
G75*
G02*
X23729000Y-14057000I-50000J0D01*
G01*
X23729000Y-14057000D02*
G75*
G02*
X23829000Y-14057000I50000J0D01*
G01*
X24053000Y-14859000D02*
G75*
G02*
X23953000Y-14859000I-50000J0D01*
G01*
X23953000Y-14859000D02*
G75*
G02*
X24053000Y-14859000I50000J0D01*
G01*
X24083000Y-5033000D02*
G75*
G02*
X23983000Y-5033000I-50000J0D01*
G01*
X23983000Y-5033000D02*
G75*
G02*
X24083000Y-5033000I50000J0D01*
G01*
X24083000Y-6557000D02*
G75*
G02*
X23983000Y-6557000I-50000J0D01*
G01*
X23983000Y-6557000D02*
G75*
G02*
X24083000Y-6557000I50000J0D01*
G01*
X24083000Y-7533000D02*
G75*
G02*
X23983000Y-7533000I-50000J0D01*
G01*
X23983000Y-7533000D02*
G75*
G02*
X24083000Y-7533000I50000J0D01*
G01*
X24083000Y-9057000D02*
G75*
G02*
X23983000Y-9057000I-50000J0D01*
G01*
X23983000Y-9057000D02*
G75*
G02*
X24083000Y-9057000I50000J0D01*
G01*
X24083000Y-10033000D02*
G75*
G02*
X23983000Y-10033000I-50000J0D01*
G01*
X23983000Y-10033000D02*
G75*
G02*
X24083000Y-10033000I50000J0D01*
G01*
X24083000Y-11557000D02*
G75*
G02*
X23983000Y-11557000I-50000J0D01*
G01*
X23983000Y-11557000D02*
G75*
G02*
X24083000Y-11557000I50000J0D01*
G01*
X24083000Y-12533000D02*
G75*
G02*
X23983000Y-12533000I-50000J0D01*
G01*
X23983000Y-12533000D02*
G75*
G02*
X24083000Y-12533000I50000J0D01*
G01*
X24083000Y-14057000D02*
G75*
G02*
X23983000Y-14057000I-50000J0D01*
G01*
X23983000Y-14057000D02*
G75*
G02*
X24083000Y-14057000I50000J0D01*
G01*
X24307000Y-14859000D02*
G75*
G02*
X24207000Y-14859000I-50000J0D01*
G01*
X24207000Y-14859000D02*
G75*
G02*
X24307000Y-14859000I50000J0D01*
G01*
X24561000Y-14859000D02*
G75*
G02*
X24461000Y-14859000I-50000J0D01*
G01*
X24461000Y-14859000D02*
G75*
G02*
X24561000Y-14859000I50000J0D01*
G01*
X24815000Y-14859000D02*
G75*
G02*
X24715000Y-14859000I-50000J0D01*
G01*
X24715000Y-14859000D02*
G75*
G02*
X24815000Y-14859000I50000J0D01*
G01*
X25069000Y-14859000D02*
G75*
G02*
X24969000Y-14859000I-50000J0D01*
G01*
X24969000Y-14859000D02*
G75*
G02*
X25069000Y-14859000I50000J0D01*
G01*
X25323000Y-14859000D02*
G75*
G02*
X25223000Y-14859000I-50000J0D01*
G01*
X25223000Y-14859000D02*
G75*
G02*
X25323000Y-14859000I50000J0D01*
G01*
X25577000Y-14859000D02*
G75*
G02*
X25477000Y-14859000I-50000J0D01*
G01*
X25477000Y-14859000D02*
G75*
G02*
X25577000Y-14859000I50000J0D01*
G01*
X26973500Y-14495000D02*
G75*
G02*
X26873500Y-14495000I-50000J0D01*
G01*
X26873500Y-14495000D02*
G75*
G02*
X26973500Y-14495000I50000J0D01*
G01*
X26973500Y-14859000D02*
G75*
G02*
X26873500Y-14859000I-50000J0D01*
G01*
X26873500Y-14859000D02*
G75*
G02*
X26973500Y-14859000I50000J0D01*
G01*
X27173500Y-9600000D02*
G75*
G02*
X27073500Y-9600000I-50000J0D01*
G01*
X27073500Y-9600000D02*
G75*
G02*
X27173500Y-9600000I50000J0D01*
G01*
X27227500Y-14495000D02*
G75*
G02*
X27127500Y-14495000I-50000J0D01*
G01*
X27127500Y-14495000D02*
G75*
G02*
X27227500Y-14495000I50000J0D01*
G01*
X27227500Y-14859000D02*
G75*
G02*
X27127500Y-14859000I-50000J0D01*
G01*
X27127500Y-14859000D02*
G75*
G02*
X27227500Y-14859000I50000J0D01*
G01*
X27427500Y-9600000D02*
G75*
G02*
X27327500Y-9600000I-50000J0D01*
G01*
X27327500Y-9600000D02*
G75*
G02*
X27427500Y-9600000I50000J0D01*
G01*
X27863000Y-5033000D02*
G75*
G02*
X27763000Y-5033000I-50000J0D01*
G01*
X27763000Y-5033000D02*
G75*
G02*
X27863000Y-5033000I50000J0D01*
G01*
X27863000Y-6557000D02*
G75*
G02*
X27763000Y-6557000I-50000J0D01*
G01*
X27763000Y-6557000D02*
G75*
G02*
X27863000Y-6557000I50000J0D01*
G01*
X27863000Y-7533000D02*
G75*
G02*
X27763000Y-7533000I-50000J0D01*
G01*
X27763000Y-7533000D02*
G75*
G02*
X27863000Y-7533000I50000J0D01*
G01*
X27863000Y-9057000D02*
G75*
G02*
X27763000Y-9057000I-50000J0D01*
G01*
X27763000Y-9057000D02*
G75*
G02*
X27863000Y-9057000I50000J0D01*
G01*
X27863000Y-10033000D02*
G75*
G02*
X27763000Y-10033000I-50000J0D01*
G01*
X27763000Y-10033000D02*
G75*
G02*
X27863000Y-10033000I50000J0D01*
G01*
X27863000Y-11557000D02*
G75*
G02*
X27763000Y-11557000I-50000J0D01*
G01*
X27763000Y-11557000D02*
G75*
G02*
X27863000Y-11557000I50000J0D01*
G01*
X27863000Y-12533000D02*
G75*
G02*
X27763000Y-12533000I-50000J0D01*
G01*
X27763000Y-12533000D02*
G75*
G02*
X27863000Y-12533000I50000J0D01*
G01*
X27863000Y-14057000D02*
G75*
G02*
X27763000Y-14057000I-50000J0D01*
G01*
X27763000Y-14057000D02*
G75*
G02*
X27863000Y-14057000I50000J0D01*
G01*
X28117000Y-5033000D02*
G75*
G02*
X28017000Y-5033000I-50000J0D01*
G01*
X28017000Y-5033000D02*
G75*
G02*
X28117000Y-5033000I50000J0D01*
G01*
X28117000Y-6557000D02*
G75*
G02*
X28017000Y-6557000I-50000J0D01*
G01*
X28017000Y-6557000D02*
G75*
G02*
X28117000Y-6557000I50000J0D01*
G01*
X28117000Y-7533000D02*
G75*
G02*
X28017000Y-7533000I-50000J0D01*
G01*
X28017000Y-7533000D02*
G75*
G02*
X28117000Y-7533000I50000J0D01*
G01*
X28117000Y-9057000D02*
G75*
G02*
X28017000Y-9057000I-50000J0D01*
G01*
X28017000Y-9057000D02*
G75*
G02*
X28117000Y-9057000I50000J0D01*
G01*
X28117000Y-10033000D02*
G75*
G02*
X28017000Y-10033000I-50000J0D01*
G01*
X28017000Y-10033000D02*
G75*
G02*
X28117000Y-10033000I50000J0D01*
G01*
X28117000Y-11557000D02*
G75*
G02*
X28017000Y-11557000I-50000J0D01*
G01*
X28017000Y-11557000D02*
G75*
G02*
X28117000Y-11557000I50000J0D01*
G01*
X28117000Y-12533000D02*
G75*
G02*
X28017000Y-12533000I-50000J0D01*
G01*
X28017000Y-12533000D02*
G75*
G02*
X28117000Y-12533000I50000J0D01*
G01*
X28117000Y-14057000D02*
G75*
G02*
X28017000Y-14057000I-50000J0D01*
G01*
X28017000Y-14057000D02*
G75*
G02*
X28117000Y-14057000I50000J0D01*
G01*
X28371000Y-5033000D02*
G75*
G02*
X28271000Y-5033000I-50000J0D01*
G01*
X28271000Y-5033000D02*
G75*
G02*
X28371000Y-5033000I50000J0D01*
G01*
X28371000Y-6557000D02*
G75*
G02*
X28271000Y-6557000I-50000J0D01*
G01*
X28271000Y-6557000D02*
G75*
G02*
X28371000Y-6557000I50000J0D01*
G01*
X28371000Y-7533000D02*
G75*
G02*
X28271000Y-7533000I-50000J0D01*
G01*
X28271000Y-7533000D02*
G75*
G02*
X28371000Y-7533000I50000J0D01*
G01*
X28371000Y-9057000D02*
G75*
G02*
X28271000Y-9057000I-50000J0D01*
G01*
X28271000Y-9057000D02*
G75*
G02*
X28371000Y-9057000I50000J0D01*
G01*
X28371000Y-10033000D02*
G75*
G02*
X28271000Y-10033000I-50000J0D01*
G01*
X28271000Y-10033000D02*
G75*
G02*
X28371000Y-10033000I50000J0D01*
G01*
X28371000Y-11557000D02*
G75*
G02*
X28271000Y-11557000I-50000J0D01*
G01*
X28271000Y-11557000D02*
G75*
G02*
X28371000Y-11557000I50000J0D01*
G01*
X28371000Y-12533000D02*
G75*
G02*
X28271000Y-12533000I-50000J0D01*
G01*
X28271000Y-12533000D02*
G75*
G02*
X28371000Y-12533000I50000J0D01*
G01*
X28371000Y-14057000D02*
G75*
G02*
X28271000Y-14057000I-50000J0D01*
G01*
X28271000Y-14057000D02*
G75*
G02*
X28371000Y-14057000I50000J0D01*
G01*
X28625000Y-5033000D02*
G75*
G02*
X28525000Y-5033000I-50000J0D01*
G01*
X28525000Y-5033000D02*
G75*
G02*
X28625000Y-5033000I50000J0D01*
G01*
X28625000Y-6557000D02*
G75*
G02*
X28525000Y-6557000I-50000J0D01*
G01*
X28525000Y-6557000D02*
G75*
G02*
X28625000Y-6557000I50000J0D01*
G01*
X28625000Y-7533000D02*
G75*
G02*
X28525000Y-7533000I-50000J0D01*
G01*
X28525000Y-7533000D02*
G75*
G02*
X28625000Y-7533000I50000J0D01*
G01*
X28625000Y-9057000D02*
G75*
G02*
X28525000Y-9057000I-50000J0D01*
G01*
X28525000Y-9057000D02*
G75*
G02*
X28625000Y-9057000I50000J0D01*
G01*
X28625000Y-10033000D02*
G75*
G02*
X28525000Y-10033000I-50000J0D01*
G01*
X28525000Y-10033000D02*
G75*
G02*
X28625000Y-10033000I50000J0D01*
G01*
X28625000Y-11557000D02*
G75*
G02*
X28525000Y-11557000I-50000J0D01*
G01*
X28525000Y-11557000D02*
G75*
G02*
X28625000Y-11557000I50000J0D01*
G01*
X28625000Y-12533000D02*
G75*
G02*
X28525000Y-12533000I-50000J0D01*
G01*
X28525000Y-12533000D02*
G75*
G02*
X28625000Y-12533000I50000J0D01*
G01*
X28625000Y-14057000D02*
G75*
G02*
X28525000Y-14057000I-50000J0D01*
G01*
X28525000Y-14057000D02*
G75*
G02*
X28625000Y-14057000I50000J0D01*
G01*
X28879000Y-5033000D02*
G75*
G02*
X28779000Y-5033000I-50000J0D01*
G01*
X28779000Y-5033000D02*
G75*
G02*
X28879000Y-5033000I50000J0D01*
G01*
X28879000Y-6557000D02*
G75*
G02*
X28779000Y-6557000I-50000J0D01*
G01*
X28779000Y-6557000D02*
G75*
G02*
X28879000Y-6557000I50000J0D01*
G01*
X28879000Y-7533000D02*
G75*
G02*
X28779000Y-7533000I-50000J0D01*
G01*
X28779000Y-7533000D02*
G75*
G02*
X28879000Y-7533000I50000J0D01*
G01*
X28879000Y-9057000D02*
G75*
G02*
X28779000Y-9057000I-50000J0D01*
G01*
X28779000Y-9057000D02*
G75*
G02*
X28879000Y-9057000I50000J0D01*
G01*
X28879000Y-10033000D02*
G75*
G02*
X28779000Y-10033000I-50000J0D01*
G01*
X28779000Y-10033000D02*
G75*
G02*
X28879000Y-10033000I50000J0D01*
G01*
X28879000Y-11557000D02*
G75*
G02*
X28779000Y-11557000I-50000J0D01*
G01*
X28779000Y-11557000D02*
G75*
G02*
X28879000Y-11557000I50000J0D01*
G01*
X28879000Y-12533000D02*
G75*
G02*
X28779000Y-12533000I-50000J0D01*
G01*
X28779000Y-12533000D02*
G75*
G02*
X28879000Y-12533000I50000J0D01*
G01*
X28879000Y-14057000D02*
G75*
G02*
X28779000Y-14057000I-50000J0D01*
G01*
X28779000Y-14057000D02*
G75*
G02*
X28879000Y-14057000I50000J0D01*
G01*
X29133000Y-5033000D02*
G75*
G02*
X29033000Y-5033000I-50000J0D01*
G01*
X29033000Y-5033000D02*
G75*
G02*
X29133000Y-5033000I50000J0D01*
G01*
X29133000Y-6557000D02*
G75*
G02*
X29033000Y-6557000I-50000J0D01*
G01*
X29033000Y-6557000D02*
G75*
G02*
X29133000Y-6557000I50000J0D01*
G01*
X29133000Y-7533000D02*
G75*
G02*
X29033000Y-7533000I-50000J0D01*
G01*
X29033000Y-7533000D02*
G75*
G02*
X29133000Y-7533000I50000J0D01*
G01*
X29133000Y-9057000D02*
G75*
G02*
X29033000Y-9057000I-50000J0D01*
G01*
X29033000Y-9057000D02*
G75*
G02*
X29133000Y-9057000I50000J0D01*
G01*
X29133000Y-10033000D02*
G75*
G02*
X29033000Y-10033000I-50000J0D01*
G01*
X29033000Y-10033000D02*
G75*
G02*
X29133000Y-10033000I50000J0D01*
G01*
X29133000Y-11557000D02*
G75*
G02*
X29033000Y-11557000I-50000J0D01*
G01*
X29033000Y-11557000D02*
G75*
G02*
X29133000Y-11557000I50000J0D01*
G01*
X29133000Y-12533000D02*
G75*
G02*
X29033000Y-12533000I-50000J0D01*
G01*
X29033000Y-12533000D02*
G75*
G02*
X29133000Y-12533000I50000J0D01*
G01*
X29133000Y-14057000D02*
G75*
G02*
X29033000Y-14057000I-50000J0D01*
G01*
X29033000Y-14057000D02*
G75*
G02*
X29133000Y-14057000I50000J0D01*
G01*
D12*
X26873200Y-12010000D02*
X26873200Y-12120000D01*
X26818200Y-12065000D02*
X26928200Y-12065000D01*
X27127200Y-12010000D02*
X27127200Y-12120000D01*
X27072200Y-12065000D02*
X27182200Y-12065000D01*
X27381200Y-12010000D02*
X27381200Y-12120000D01*
X27326200Y-12065000D02*
X27436200Y-12065000D01*
D11*
X12148777Y-15331484D02*
X12148777Y-15131484D01*
X12148777Y-15131484D02*
X12196396Y-15131484D01*
X12196396Y-15131484D02*
X12224967Y-15141008D01*
X12224967Y-15141008D02*
X12244015Y-15160055D01*
X12244015Y-15160055D02*
X12253539Y-15179103D01*
X12253539Y-15179103D02*
X12263062Y-15217198D01*
X12263062Y-15217198D02*
X12263062Y-15245769D01*
X12263062Y-15245769D02*
X12253539Y-15283865D01*
X12253539Y-15283865D02*
X12244015Y-15302912D01*
X12244015Y-15302912D02*
X12224967Y-15321960D01*
X12224967Y-15321960D02*
X12196396Y-15331484D01*
X12196396Y-15331484D02*
X12148777Y-15331484D01*
X12348777Y-15331484D02*
X12348777Y-15198150D01*
X12348777Y-15236246D02*
X12358301Y-15217198D01*
X12358301Y-15217198D02*
X12367824Y-15207674D01*
X12367824Y-15207674D02*
X12386872Y-15198150D01*
X12386872Y-15198150D02*
X12405920Y-15198150D01*
X12472586Y-15331484D02*
X12472586Y-15198150D01*
X12472586Y-15131484D02*
X12463062Y-15141008D01*
X12463062Y-15141008D02*
X12472586Y-15150531D01*
X12472586Y-15150531D02*
X12482110Y-15141008D01*
X12482110Y-15141008D02*
X12472586Y-15131484D01*
X12472586Y-15131484D02*
X12472586Y-15150531D01*
X12596396Y-15331484D02*
X12577348Y-15321960D01*
X12577348Y-15321960D02*
X12567824Y-15302912D01*
X12567824Y-15302912D02*
X12567824Y-15131484D01*
X12701158Y-15331484D02*
X12682110Y-15321960D01*
X12682110Y-15321960D02*
X12672586Y-15302912D01*
X12672586Y-15302912D02*
X12672586Y-15131484D01*
X12929729Y-15331484D02*
X12929729Y-15131484D01*
X12929729Y-15131484D02*
X12996396Y-15274341D01*
X12996396Y-15274341D02*
X13063062Y-15131484D01*
X13063062Y-15131484D02*
X13063062Y-15331484D01*
X13244015Y-15331484D02*
X13244015Y-15226722D01*
X13244015Y-15226722D02*
X13234491Y-15207674D01*
X13234491Y-15207674D02*
X13215443Y-15198150D01*
X13215443Y-15198150D02*
X13177348Y-15198150D01*
X13177348Y-15198150D02*
X13158301Y-15207674D01*
X13244015Y-15321960D02*
X13224967Y-15331484D01*
X13224967Y-15331484D02*
X13177348Y-15331484D01*
X13177348Y-15331484D02*
X13158301Y-15321960D01*
X13158301Y-15321960D02*
X13148777Y-15302912D01*
X13148777Y-15302912D02*
X13148777Y-15283865D01*
X13148777Y-15283865D02*
X13158301Y-15264817D01*
X13158301Y-15264817D02*
X13177348Y-15255293D01*
X13177348Y-15255293D02*
X13224967Y-15255293D01*
X13224967Y-15255293D02*
X13244015Y-15245769D01*
X13339253Y-15198150D02*
X13339253Y-15398150D01*
X13339253Y-15207674D02*
X13358301Y-15198150D01*
X13358301Y-15198150D02*
X13396396Y-15198150D01*
X13396396Y-15198150D02*
X13415443Y-15207674D01*
X13415443Y-15207674D02*
X13424967Y-15217198D01*
X13424967Y-15217198D02*
X13434491Y-15236246D01*
X13434491Y-15236246D02*
X13434491Y-15293388D01*
X13434491Y-15293388D02*
X13424967Y-15312436D01*
X13424967Y-15312436D02*
X13415443Y-15321960D01*
X13415443Y-15321960D02*
X13396396Y-15331484D01*
X13396396Y-15331484D02*
X13358301Y-15331484D01*
X13358301Y-15331484D02*
X13339253Y-15321960D01*
X13520205Y-15312436D02*
X13529729Y-15321960D01*
X13529729Y-15321960D02*
X13520205Y-15331484D01*
X13520205Y-15331484D02*
X13510682Y-15321960D01*
X13510682Y-15321960D02*
X13520205Y-15312436D01*
X13520205Y-15312436D02*
X13520205Y-15331484D01*
X13520205Y-15207674D02*
X13529729Y-15217198D01*
X13529729Y-15217198D02*
X13520205Y-15226722D01*
X13520205Y-15226722D02*
X13510682Y-15217198D01*
X13510682Y-15217198D02*
X13520205Y-15207674D01*
X13520205Y-15207674D02*
X13520205Y-15226722D01*
D10*
X11848000Y-15640000D02*
X11888000Y-15680000D01*
X11888000Y-15640000D02*
X11848000Y-15680000D01*
D11*
X12186872Y-15551484D02*
X12205920Y-15551484D01*
X12205920Y-15551484D02*
X12224967Y-15561008D01*
X12224967Y-15561008D02*
X12234491Y-15570531D01*
X12234491Y-15570531D02*
X12244015Y-15589579D01*
X12244015Y-15589579D02*
X12253539Y-15627674D01*
X12253539Y-15627674D02*
X12253539Y-15675293D01*
X12253539Y-15675293D02*
X12244015Y-15713388D01*
X12244015Y-15713388D02*
X12234491Y-15732436D01*
X12234491Y-15732436D02*
X12224967Y-15741960D01*
X12224967Y-15741960D02*
X12205920Y-15751484D01*
X12205920Y-15751484D02*
X12186872Y-15751484D01*
X12186872Y-15751484D02*
X12167824Y-15741960D01*
X12167824Y-15741960D02*
X12158301Y-15732436D01*
X12158301Y-15732436D02*
X12148777Y-15713388D01*
X12148777Y-15713388D02*
X12139253Y-15675293D01*
X12139253Y-15675293D02*
X12139253Y-15627674D01*
X12139253Y-15627674D02*
X12148777Y-15589579D01*
X12148777Y-15589579D02*
X12158301Y-15570531D01*
X12158301Y-15570531D02*
X12167824Y-15561008D01*
X12167824Y-15561008D02*
X12186872Y-15551484D01*
X12339253Y-15732436D02*
X12348777Y-15741960D01*
X12348777Y-15741960D02*
X12339253Y-15751484D01*
X12339253Y-15751484D02*
X12329729Y-15741960D01*
X12329729Y-15741960D02*
X12339253Y-15732436D01*
X12339253Y-15732436D02*
X12339253Y-15751484D01*
X12520205Y-15618150D02*
X12520205Y-15751484D01*
X12472586Y-15541960D02*
X12424967Y-15684817D01*
X12424967Y-15684817D02*
X12548777Y-15684817D01*
X12663062Y-15551484D02*
X12682110Y-15551484D01*
X12682110Y-15551484D02*
X12701158Y-15561008D01*
X12701158Y-15561008D02*
X12710682Y-15570531D01*
X12710682Y-15570531D02*
X12720205Y-15589579D01*
X12720205Y-15589579D02*
X12729729Y-15627674D01*
X12729729Y-15627674D02*
X12729729Y-15675293D01*
X12729729Y-15675293D02*
X12720205Y-15713388D01*
X12720205Y-15713388D02*
X12710682Y-15732436D01*
X12710682Y-15732436D02*
X12701158Y-15741960D01*
X12701158Y-15741960D02*
X12682110Y-15751484D01*
X12682110Y-15751484D02*
X12663062Y-15751484D01*
X12663062Y-15751484D02*
X12644015Y-15741960D01*
X12644015Y-15741960D02*
X12634491Y-15732436D01*
X12634491Y-15732436D02*
X12624967Y-15713388D01*
X12624967Y-15713388D02*
X12615443Y-15675293D01*
X12615443Y-15675293D02*
X12615443Y-15627674D01*
X12615443Y-15627674D02*
X12624967Y-15589579D01*
X12624967Y-15589579D02*
X12634491Y-15570531D01*
X12634491Y-15570531D02*
X12644015Y-15561008D01*
X12644015Y-15561008D02*
X12663062Y-15551484D01*
X12853539Y-15551484D02*
X12872586Y-15551484D01*
X12872586Y-15551484D02*
X12891634Y-15561008D01*
X12891634Y-15561008D02*
X12901158Y-15570531D01*
X12901158Y-15570531D02*
X12910682Y-15589579D01*
X12910682Y-15589579D02*
X12920205Y-15627674D01*
X12920205Y-15627674D02*
X12920205Y-15675293D01*
X12920205Y-15675293D02*
X12910682Y-15713388D01*
X12910682Y-15713388D02*
X12901158Y-15732436D01*
X12901158Y-15732436D02*
X12891634Y-15741960D01*
X12891634Y-15741960D02*
X12872586Y-15751484D01*
X12872586Y-15751484D02*
X12853539Y-15751484D01*
X12853539Y-15751484D02*
X12834491Y-15741960D01*
X12834491Y-15741960D02*
X12824967Y-15732436D01*
X12824967Y-15732436D02*
X12815443Y-15713388D01*
X12815443Y-15713388D02*
X12805920Y-15675293D01*
X12805920Y-15675293D02*
X12805920Y-15627674D01*
X12805920Y-15627674D02*
X12815443Y-15589579D01*
X12815443Y-15589579D02*
X12824967Y-15570531D01*
X12824967Y-15570531D02*
X12834491Y-15561008D01*
X12834491Y-15561008D02*
X12853539Y-15551484D01*
X13005920Y-15751484D02*
X13005920Y-15618150D01*
X13005920Y-15637198D02*
X13015443Y-15627674D01*
X13015443Y-15627674D02*
X13034491Y-15618150D01*
X13034491Y-15618150D02*
X13063063Y-15618150D01*
X13063063Y-15618150D02*
X13082110Y-15627674D01*
X13082110Y-15627674D02*
X13091634Y-15646722D01*
X13091634Y-15646722D02*
X13091634Y-15751484D01*
X13091634Y-15646722D02*
X13101158Y-15627674D01*
X13101158Y-15627674D02*
X13120205Y-15618150D01*
X13120205Y-15618150D02*
X13148777Y-15618150D01*
X13148777Y-15618150D02*
X13167824Y-15627674D01*
X13167824Y-15627674D02*
X13177348Y-15646722D01*
X13177348Y-15646722D02*
X13177348Y-15751484D01*
X13272586Y-15751484D02*
X13272586Y-15618150D01*
X13272586Y-15637198D02*
X13282110Y-15627674D01*
X13282110Y-15627674D02*
X13301158Y-15618150D01*
X13301158Y-15618150D02*
X13329729Y-15618150D01*
X13329729Y-15618150D02*
X13348777Y-15627674D01*
X13348777Y-15627674D02*
X13358301Y-15646722D01*
X13358301Y-15646722D02*
X13358301Y-15751484D01*
X13358301Y-15646722D02*
X13367824Y-15627674D01*
X13367824Y-15627674D02*
X13386872Y-15618150D01*
X13386872Y-15618150D02*
X13415443Y-15618150D01*
X13415443Y-15618150D02*
X13434491Y-15627674D01*
X13434491Y-15627674D02*
X13444015Y-15646722D01*
X13444015Y-15646722D02*
X13444015Y-15751484D01*
X13834491Y-15541960D02*
X13663063Y-15799103D01*
X14091634Y-15551484D02*
X14110682Y-15551484D01*
X14110682Y-15551484D02*
X14129729Y-15561008D01*
X14129729Y-15561008D02*
X14139253Y-15570531D01*
X14139253Y-15570531D02*
X14148777Y-15589579D01*
X14148777Y-15589579D02*
X14158301Y-15627674D01*
X14158301Y-15627674D02*
X14158301Y-15675293D01*
X14158301Y-15675293D02*
X14148777Y-15713388D01*
X14148777Y-15713388D02*
X14139253Y-15732436D01*
X14139253Y-15732436D02*
X14129729Y-15741960D01*
X14129729Y-15741960D02*
X14110682Y-15751484D01*
X14110682Y-15751484D02*
X14091634Y-15751484D01*
X14091634Y-15751484D02*
X14072586Y-15741960D01*
X14072586Y-15741960D02*
X14063063Y-15732436D01*
X14063063Y-15732436D02*
X14053539Y-15713388D01*
X14053539Y-15713388D02*
X14044015Y-15675293D01*
X14044015Y-15675293D02*
X14044015Y-15627674D01*
X14044015Y-15627674D02*
X14053539Y-15589579D01*
X14053539Y-15589579D02*
X14063063Y-15570531D01*
X14063063Y-15570531D02*
X14072586Y-15561008D01*
X14072586Y-15561008D02*
X14091634Y-15551484D01*
X14244015Y-15732436D02*
X14253539Y-15741960D01*
X14253539Y-15741960D02*
X14244015Y-15751484D01*
X14244015Y-15751484D02*
X14234491Y-15741960D01*
X14234491Y-15741960D02*
X14244015Y-15732436D01*
X14244015Y-15732436D02*
X14244015Y-15751484D01*
X14377348Y-15551484D02*
X14396396Y-15551484D01*
X14396396Y-15551484D02*
X14415444Y-15561008D01*
X14415444Y-15561008D02*
X14424967Y-15570531D01*
X14424967Y-15570531D02*
X14434491Y-15589579D01*
X14434491Y-15589579D02*
X14444015Y-15627674D01*
X14444015Y-15627674D02*
X14444015Y-15675293D01*
X14444015Y-15675293D02*
X14434491Y-15713388D01*
X14434491Y-15713388D02*
X14424967Y-15732436D01*
X14424967Y-15732436D02*
X14415444Y-15741960D01*
X14415444Y-15741960D02*
X14396396Y-15751484D01*
X14396396Y-15751484D02*
X14377348Y-15751484D01*
X14377348Y-15751484D02*
X14358301Y-15741960D01*
X14358301Y-15741960D02*
X14348777Y-15732436D01*
X14348777Y-15732436D02*
X14339253Y-15713388D01*
X14339253Y-15713388D02*
X14329729Y-15675293D01*
X14329729Y-15675293D02*
X14329729Y-15627674D01*
X14329729Y-15627674D02*
X14339253Y-15589579D01*
X14339253Y-15589579D02*
X14348777Y-15570531D01*
X14348777Y-15570531D02*
X14358301Y-15561008D01*
X14358301Y-15561008D02*
X14377348Y-15551484D01*
X14634491Y-15751484D02*
X14520206Y-15751484D01*
X14577348Y-15751484D02*
X14577348Y-15551484D01*
X14577348Y-15551484D02*
X14558301Y-15580055D01*
X14558301Y-15580055D02*
X14539253Y-15599103D01*
X14539253Y-15599103D02*
X14520206Y-15608627D01*
X14815444Y-15551484D02*
X14720206Y-15551484D01*
X14720206Y-15551484D02*
X14710682Y-15646722D01*
X14710682Y-15646722D02*
X14720206Y-15637198D01*
X14720206Y-15637198D02*
X14739253Y-15627674D01*
X14739253Y-15627674D02*
X14786872Y-15627674D01*
X14786872Y-15627674D02*
X14805920Y-15637198D01*
X14805920Y-15637198D02*
X14815444Y-15646722D01*
X14815444Y-15646722D02*
X14824967Y-15665769D01*
X14824967Y-15665769D02*
X14824967Y-15713388D01*
X14824967Y-15713388D02*
X14815444Y-15732436D01*
X14815444Y-15732436D02*
X14805920Y-15741960D01*
X14805920Y-15741960D02*
X14786872Y-15751484D01*
X14786872Y-15751484D02*
X14739253Y-15751484D01*
X14739253Y-15751484D02*
X14720206Y-15741960D01*
X14720206Y-15741960D02*
X14710682Y-15732436D01*
X14891634Y-15551484D02*
X15024967Y-15551484D01*
X15024967Y-15551484D02*
X14939253Y-15751484D01*
X15091634Y-15551484D02*
X15091634Y-15589579D01*
X15167825Y-15551484D02*
X15167825Y-15589579D01*
X15463063Y-15827674D02*
X15453539Y-15818150D01*
X15453539Y-15818150D02*
X15434491Y-15789579D01*
X15434491Y-15789579D02*
X15424968Y-15770531D01*
X15424968Y-15770531D02*
X15415444Y-15741960D01*
X15415444Y-15741960D02*
X15405920Y-15694341D01*
X15405920Y-15694341D02*
X15405920Y-15656246D01*
X15405920Y-15656246D02*
X15415444Y-15608627D01*
X15415444Y-15608627D02*
X15424968Y-15580055D01*
X15424968Y-15580055D02*
X15434491Y-15561008D01*
X15434491Y-15561008D02*
X15453539Y-15532436D01*
X15453539Y-15532436D02*
X15463063Y-15522912D01*
X15634491Y-15551484D02*
X15539253Y-15551484D01*
X15539253Y-15551484D02*
X15529729Y-15646722D01*
X15529729Y-15646722D02*
X15539253Y-15637198D01*
X15539253Y-15637198D02*
X15558301Y-15627674D01*
X15558301Y-15627674D02*
X15605920Y-15627674D01*
X15605920Y-15627674D02*
X15624968Y-15637198D01*
X15624968Y-15637198D02*
X15634491Y-15646722D01*
X15634491Y-15646722D02*
X15644015Y-15665769D01*
X15644015Y-15665769D02*
X15644015Y-15713388D01*
X15644015Y-15713388D02*
X15634491Y-15732436D01*
X15634491Y-15732436D02*
X15624968Y-15741960D01*
X15624968Y-15741960D02*
X15605920Y-15751484D01*
X15605920Y-15751484D02*
X15558301Y-15751484D01*
X15558301Y-15751484D02*
X15539253Y-15741960D01*
X15539253Y-15741960D02*
X15529729Y-15732436D01*
X15710682Y-15551484D02*
X15834491Y-15551484D01*
X15834491Y-15551484D02*
X15767825Y-15627674D01*
X15767825Y-15627674D02*
X15796396Y-15627674D01*
X15796396Y-15627674D02*
X15815444Y-15637198D01*
X15815444Y-15637198D02*
X15824968Y-15646722D01*
X15824968Y-15646722D02*
X15834491Y-15665769D01*
X15834491Y-15665769D02*
X15834491Y-15713388D01*
X15834491Y-15713388D02*
X15824968Y-15732436D01*
X15824968Y-15732436D02*
X15815444Y-15741960D01*
X15815444Y-15741960D02*
X15796396Y-15751484D01*
X15796396Y-15751484D02*
X15739253Y-15751484D01*
X15739253Y-15751484D02*
X15720206Y-15741960D01*
X15720206Y-15741960D02*
X15710682Y-15732436D01*
X15910682Y-15570531D02*
X15920206Y-15561008D01*
X15920206Y-15561008D02*
X15939253Y-15551484D01*
X15939253Y-15551484D02*
X15986872Y-15551484D01*
X15986872Y-15551484D02*
X16005920Y-15561008D01*
X16005920Y-15561008D02*
X16015444Y-15570531D01*
X16015444Y-15570531D02*
X16024968Y-15589579D01*
X16024968Y-15589579D02*
X16024968Y-15608627D01*
X16024968Y-15608627D02*
X16015444Y-15637198D01*
X16015444Y-15637198D02*
X15901158Y-15751484D01*
X15901158Y-15751484D02*
X16024968Y-15751484D01*
X16263063Y-15751484D02*
X16263063Y-15551484D01*
X16348777Y-15751484D02*
X16348777Y-15646722D01*
X16348777Y-15646722D02*
X16339253Y-15627674D01*
X16339253Y-15627674D02*
X16320206Y-15618150D01*
X16320206Y-15618150D02*
X16291634Y-15618150D01*
X16291634Y-15618150D02*
X16272587Y-15627674D01*
X16272587Y-15627674D02*
X16263063Y-15637198D01*
X16472587Y-15751484D02*
X16453539Y-15741960D01*
X16453539Y-15741960D02*
X16444015Y-15732436D01*
X16444015Y-15732436D02*
X16434491Y-15713388D01*
X16434491Y-15713388D02*
X16434491Y-15656246D01*
X16434491Y-15656246D02*
X16444015Y-15637198D01*
X16444015Y-15637198D02*
X16453539Y-15627674D01*
X16453539Y-15627674D02*
X16472587Y-15618150D01*
X16472587Y-15618150D02*
X16501158Y-15618150D01*
X16501158Y-15618150D02*
X16520206Y-15627674D01*
X16520206Y-15627674D02*
X16529730Y-15637198D01*
X16529730Y-15637198D02*
X16539253Y-15656246D01*
X16539253Y-15656246D02*
X16539253Y-15713388D01*
X16539253Y-15713388D02*
X16529730Y-15732436D01*
X16529730Y-15732436D02*
X16520206Y-15741960D01*
X16520206Y-15741960D02*
X16501158Y-15751484D01*
X16501158Y-15751484D02*
X16472587Y-15751484D01*
X16653539Y-15751484D02*
X16634491Y-15741960D01*
X16634491Y-15741960D02*
X16624968Y-15722912D01*
X16624968Y-15722912D02*
X16624968Y-15551484D01*
X16805920Y-15741960D02*
X16786873Y-15751484D01*
X16786873Y-15751484D02*
X16748777Y-15751484D01*
X16748777Y-15751484D02*
X16729730Y-15741960D01*
X16729730Y-15741960D02*
X16720206Y-15722912D01*
X16720206Y-15722912D02*
X16720206Y-15646722D01*
X16720206Y-15646722D02*
X16729730Y-15627674D01*
X16729730Y-15627674D02*
X16748777Y-15618150D01*
X16748777Y-15618150D02*
X16786873Y-15618150D01*
X16786873Y-15618150D02*
X16805920Y-15627674D01*
X16805920Y-15627674D02*
X16815444Y-15646722D01*
X16815444Y-15646722D02*
X16815444Y-15665769D01*
X16815444Y-15665769D02*
X16720206Y-15684817D01*
X16891634Y-15741960D02*
X16910682Y-15751484D01*
X16910682Y-15751484D02*
X16948777Y-15751484D01*
X16948777Y-15751484D02*
X16967825Y-15741960D01*
X16967825Y-15741960D02*
X16977349Y-15722912D01*
X16977349Y-15722912D02*
X16977349Y-15713388D01*
X16977349Y-15713388D02*
X16967825Y-15694341D01*
X16967825Y-15694341D02*
X16948777Y-15684817D01*
X16948777Y-15684817D02*
X16920206Y-15684817D01*
X16920206Y-15684817D02*
X16901158Y-15675293D01*
X16901158Y-15675293D02*
X16891634Y-15656246D01*
X16891634Y-15656246D02*
X16891634Y-15646722D01*
X16891634Y-15646722D02*
X16901158Y-15627674D01*
X16901158Y-15627674D02*
X16920206Y-15618150D01*
X16920206Y-15618150D02*
X16948777Y-15618150D01*
X16948777Y-15618150D02*
X16967825Y-15627674D01*
X17044015Y-15827674D02*
X17053539Y-15818150D01*
X17053539Y-15818150D02*
X17072587Y-15789579D01*
X17072587Y-15789579D02*
X17082111Y-15770531D01*
X17082111Y-15770531D02*
X17091634Y-15741960D01*
X17091634Y-15741960D02*
X17101158Y-15694341D01*
X17101158Y-15694341D02*
X17101158Y-15656246D01*
X17101158Y-15656246D02*
X17091634Y-15608627D01*
X17091634Y-15608627D02*
X17082111Y-15580055D01*
X17082111Y-15580055D02*
X17072587Y-15561008D01*
X17072587Y-15561008D02*
X17053539Y-15532436D01*
X17053539Y-15532436D02*
X17044015Y-15522912D01*
D10*
X11888000Y-15924000D02*
G75*
G02*
X11788000Y-15924000I-50000J0D01*
G01*
X11788000Y-15924000D02*
G75*
G02*
X11888000Y-15924000I50000J0D01*
G01*
D11*
X12253539Y-16015484D02*
X12139253Y-16015484D01*
X12196396Y-16015484D02*
X12196396Y-15815484D01*
X12196396Y-15815484D02*
X12177348Y-15844055D01*
X12177348Y-15844055D02*
X12158301Y-15863103D01*
X12158301Y-15863103D02*
X12139253Y-15872627D01*
X12339253Y-15996436D02*
X12348777Y-16005960D01*
X12348777Y-16005960D02*
X12339253Y-16015484D01*
X12339253Y-16015484D02*
X12329729Y-16005960D01*
X12329729Y-16005960D02*
X12339253Y-15996436D01*
X12339253Y-15996436D02*
X12339253Y-16015484D01*
X12472586Y-15815484D02*
X12491634Y-15815484D01*
X12491634Y-15815484D02*
X12510682Y-15825008D01*
X12510682Y-15825008D02*
X12520205Y-15834531D01*
X12520205Y-15834531D02*
X12529729Y-15853579D01*
X12529729Y-15853579D02*
X12539253Y-15891674D01*
X12539253Y-15891674D02*
X12539253Y-15939293D01*
X12539253Y-15939293D02*
X12529729Y-15977388D01*
X12529729Y-15977388D02*
X12520205Y-15996436D01*
X12520205Y-15996436D02*
X12510682Y-16005960D01*
X12510682Y-16005960D02*
X12491634Y-16015484D01*
X12491634Y-16015484D02*
X12472586Y-16015484D01*
X12472586Y-16015484D02*
X12453539Y-16005960D01*
X12453539Y-16005960D02*
X12444015Y-15996436D01*
X12444015Y-15996436D02*
X12434491Y-15977388D01*
X12434491Y-15977388D02*
X12424967Y-15939293D01*
X12424967Y-15939293D02*
X12424967Y-15891674D01*
X12424967Y-15891674D02*
X12434491Y-15853579D01*
X12434491Y-15853579D02*
X12444015Y-15834531D01*
X12444015Y-15834531D02*
X12453539Y-15825008D01*
X12453539Y-15825008D02*
X12472586Y-15815484D01*
X12663062Y-15815484D02*
X12682110Y-15815484D01*
X12682110Y-15815484D02*
X12701158Y-15825008D01*
X12701158Y-15825008D02*
X12710682Y-15834531D01*
X12710682Y-15834531D02*
X12720205Y-15853579D01*
X12720205Y-15853579D02*
X12729729Y-15891674D01*
X12729729Y-15891674D02*
X12729729Y-15939293D01*
X12729729Y-15939293D02*
X12720205Y-15977388D01*
X12720205Y-15977388D02*
X12710682Y-15996436D01*
X12710682Y-15996436D02*
X12701158Y-16005960D01*
X12701158Y-16005960D02*
X12682110Y-16015484D01*
X12682110Y-16015484D02*
X12663062Y-16015484D01*
X12663062Y-16015484D02*
X12644015Y-16005960D01*
X12644015Y-16005960D02*
X12634491Y-15996436D01*
X12634491Y-15996436D02*
X12624967Y-15977388D01*
X12624967Y-15977388D02*
X12615443Y-15939293D01*
X12615443Y-15939293D02*
X12615443Y-15891674D01*
X12615443Y-15891674D02*
X12624967Y-15853579D01*
X12624967Y-15853579D02*
X12634491Y-15834531D01*
X12634491Y-15834531D02*
X12644015Y-15825008D01*
X12644015Y-15825008D02*
X12663062Y-15815484D01*
X12853539Y-15815484D02*
X12872586Y-15815484D01*
X12872586Y-15815484D02*
X12891634Y-15825008D01*
X12891634Y-15825008D02*
X12901158Y-15834531D01*
X12901158Y-15834531D02*
X12910682Y-15853579D01*
X12910682Y-15853579D02*
X12920205Y-15891674D01*
X12920205Y-15891674D02*
X12920205Y-15939293D01*
X12920205Y-15939293D02*
X12910682Y-15977388D01*
X12910682Y-15977388D02*
X12901158Y-15996436D01*
X12901158Y-15996436D02*
X12891634Y-16005960D01*
X12891634Y-16005960D02*
X12872586Y-16015484D01*
X12872586Y-16015484D02*
X12853539Y-16015484D01*
X12853539Y-16015484D02*
X12834491Y-16005960D01*
X12834491Y-16005960D02*
X12824967Y-15996436D01*
X12824967Y-15996436D02*
X12815443Y-15977388D01*
X12815443Y-15977388D02*
X12805920Y-15939293D01*
X12805920Y-15939293D02*
X12805920Y-15891674D01*
X12805920Y-15891674D02*
X12815443Y-15853579D01*
X12815443Y-15853579D02*
X12824967Y-15834531D01*
X12824967Y-15834531D02*
X12834491Y-15825008D01*
X12834491Y-15825008D02*
X12853539Y-15815484D01*
X13005920Y-16015484D02*
X13005920Y-15882150D01*
X13005920Y-15901198D02*
X13015443Y-15891674D01*
X13015443Y-15891674D02*
X13034491Y-15882150D01*
X13034491Y-15882150D02*
X13063063Y-15882150D01*
X13063063Y-15882150D02*
X13082110Y-15891674D01*
X13082110Y-15891674D02*
X13091634Y-15910722D01*
X13091634Y-15910722D02*
X13091634Y-16015484D01*
X13091634Y-15910722D02*
X13101158Y-15891674D01*
X13101158Y-15891674D02*
X13120205Y-15882150D01*
X13120205Y-15882150D02*
X13148777Y-15882150D01*
X13148777Y-15882150D02*
X13167824Y-15891674D01*
X13167824Y-15891674D02*
X13177348Y-15910722D01*
X13177348Y-15910722D02*
X13177348Y-16015484D01*
X13272586Y-16015484D02*
X13272586Y-15882150D01*
X13272586Y-15901198D02*
X13282110Y-15891674D01*
X13282110Y-15891674D02*
X13301158Y-15882150D01*
X13301158Y-15882150D02*
X13329729Y-15882150D01*
X13329729Y-15882150D02*
X13348777Y-15891674D01*
X13348777Y-15891674D02*
X13358301Y-15910722D01*
X13358301Y-15910722D02*
X13358301Y-16015484D01*
X13358301Y-15910722D02*
X13367824Y-15891674D01*
X13367824Y-15891674D02*
X13386872Y-15882150D01*
X13386872Y-15882150D02*
X13415443Y-15882150D01*
X13415443Y-15882150D02*
X13434491Y-15891674D01*
X13434491Y-15891674D02*
X13444015Y-15910722D01*
X13444015Y-15910722D02*
X13444015Y-16015484D01*
X13834491Y-15805960D02*
X13663063Y-16063103D01*
X14091634Y-15815484D02*
X14110682Y-15815484D01*
X14110682Y-15815484D02*
X14129729Y-15825008D01*
X14129729Y-15825008D02*
X14139253Y-15834531D01*
X14139253Y-15834531D02*
X14148777Y-15853579D01*
X14148777Y-15853579D02*
X14158301Y-15891674D01*
X14158301Y-15891674D02*
X14158301Y-15939293D01*
X14158301Y-15939293D02*
X14148777Y-15977388D01*
X14148777Y-15977388D02*
X14139253Y-15996436D01*
X14139253Y-15996436D02*
X14129729Y-16005960D01*
X14129729Y-16005960D02*
X14110682Y-16015484D01*
X14110682Y-16015484D02*
X14091634Y-16015484D01*
X14091634Y-16015484D02*
X14072586Y-16005960D01*
X14072586Y-16005960D02*
X14063063Y-15996436D01*
X14063063Y-15996436D02*
X14053539Y-15977388D01*
X14053539Y-15977388D02*
X14044015Y-15939293D01*
X14044015Y-15939293D02*
X14044015Y-15891674D01*
X14044015Y-15891674D02*
X14053539Y-15853579D01*
X14053539Y-15853579D02*
X14063063Y-15834531D01*
X14063063Y-15834531D02*
X14072586Y-15825008D01*
X14072586Y-15825008D02*
X14091634Y-15815484D01*
X14244015Y-15996436D02*
X14253539Y-16005960D01*
X14253539Y-16005960D02*
X14244015Y-16015484D01*
X14244015Y-16015484D02*
X14234491Y-16005960D01*
X14234491Y-16005960D02*
X14244015Y-15996436D01*
X14244015Y-15996436D02*
X14244015Y-16015484D01*
X14377348Y-15815484D02*
X14396396Y-15815484D01*
X14396396Y-15815484D02*
X14415444Y-15825008D01*
X14415444Y-15825008D02*
X14424967Y-15834531D01*
X14424967Y-15834531D02*
X14434491Y-15853579D01*
X14434491Y-15853579D02*
X14444015Y-15891674D01*
X14444015Y-15891674D02*
X14444015Y-15939293D01*
X14444015Y-15939293D02*
X14434491Y-15977388D01*
X14434491Y-15977388D02*
X14424967Y-15996436D01*
X14424967Y-15996436D02*
X14415444Y-16005960D01*
X14415444Y-16005960D02*
X14396396Y-16015484D01*
X14396396Y-16015484D02*
X14377348Y-16015484D01*
X14377348Y-16015484D02*
X14358301Y-16005960D01*
X14358301Y-16005960D02*
X14348777Y-15996436D01*
X14348777Y-15996436D02*
X14339253Y-15977388D01*
X14339253Y-15977388D02*
X14329729Y-15939293D01*
X14329729Y-15939293D02*
X14329729Y-15891674D01*
X14329729Y-15891674D02*
X14339253Y-15853579D01*
X14339253Y-15853579D02*
X14348777Y-15834531D01*
X14348777Y-15834531D02*
X14358301Y-15825008D01*
X14358301Y-15825008D02*
X14377348Y-15815484D01*
X14510682Y-15815484D02*
X14634491Y-15815484D01*
X14634491Y-15815484D02*
X14567825Y-15891674D01*
X14567825Y-15891674D02*
X14596396Y-15891674D01*
X14596396Y-15891674D02*
X14615444Y-15901198D01*
X14615444Y-15901198D02*
X14624967Y-15910722D01*
X14624967Y-15910722D02*
X14634491Y-15929769D01*
X14634491Y-15929769D02*
X14634491Y-15977388D01*
X14634491Y-15977388D02*
X14624967Y-15996436D01*
X14624967Y-15996436D02*
X14615444Y-16005960D01*
X14615444Y-16005960D02*
X14596396Y-16015484D01*
X14596396Y-16015484D02*
X14539253Y-16015484D01*
X14539253Y-16015484D02*
X14520206Y-16005960D01*
X14520206Y-16005960D02*
X14510682Y-15996436D01*
X14729729Y-16015484D02*
X14767825Y-16015484D01*
X14767825Y-16015484D02*
X14786872Y-16005960D01*
X14786872Y-16005960D02*
X14796396Y-15996436D01*
X14796396Y-15996436D02*
X14815444Y-15967865D01*
X14815444Y-15967865D02*
X14824967Y-15929769D01*
X14824967Y-15929769D02*
X14824967Y-15853579D01*
X14824967Y-15853579D02*
X14815444Y-15834531D01*
X14815444Y-15834531D02*
X14805920Y-15825008D01*
X14805920Y-15825008D02*
X14786872Y-15815484D01*
X14786872Y-15815484D02*
X14748777Y-15815484D01*
X14748777Y-15815484D02*
X14729729Y-15825008D01*
X14729729Y-15825008D02*
X14720206Y-15834531D01*
X14720206Y-15834531D02*
X14710682Y-15853579D01*
X14710682Y-15853579D02*
X14710682Y-15901198D01*
X14710682Y-15901198D02*
X14720206Y-15920246D01*
X14720206Y-15920246D02*
X14729729Y-15929769D01*
X14729729Y-15929769D02*
X14748777Y-15939293D01*
X14748777Y-15939293D02*
X14786872Y-15939293D01*
X14786872Y-15939293D02*
X14805920Y-15929769D01*
X14805920Y-15929769D02*
X14815444Y-15920246D01*
X14815444Y-15920246D02*
X14824967Y-15901198D01*
X14996396Y-15882150D02*
X14996396Y-16015484D01*
X14948777Y-15805960D02*
X14901158Y-15948817D01*
X14901158Y-15948817D02*
X15024967Y-15948817D01*
X15091634Y-15815484D02*
X15091634Y-15853579D01*
X15167825Y-15815484D02*
X15167825Y-15853579D01*
X15463063Y-16091674D02*
X15453539Y-16082150D01*
X15453539Y-16082150D02*
X15434491Y-16053579D01*
X15434491Y-16053579D02*
X15424968Y-16034531D01*
X15424968Y-16034531D02*
X15415444Y-16005960D01*
X15415444Y-16005960D02*
X15405920Y-15958341D01*
X15405920Y-15958341D02*
X15405920Y-15920246D01*
X15405920Y-15920246D02*
X15415444Y-15872627D01*
X15415444Y-15872627D02*
X15424968Y-15844055D01*
X15424968Y-15844055D02*
X15434491Y-15825008D01*
X15434491Y-15825008D02*
X15453539Y-15796436D01*
X15453539Y-15796436D02*
X15463063Y-15786912D01*
X15529729Y-15834531D02*
X15539253Y-15825008D01*
X15539253Y-15825008D02*
X15558301Y-15815484D01*
X15558301Y-15815484D02*
X15605920Y-15815484D01*
X15605920Y-15815484D02*
X15624968Y-15825008D01*
X15624968Y-15825008D02*
X15634491Y-15834531D01*
X15634491Y-15834531D02*
X15644015Y-15853579D01*
X15644015Y-15853579D02*
X15644015Y-15872627D01*
X15644015Y-15872627D02*
X15634491Y-15901198D01*
X15634491Y-15901198D02*
X15520206Y-16015484D01*
X15520206Y-16015484D02*
X15644015Y-16015484D01*
X15739253Y-16015484D02*
X15777348Y-16015484D01*
X15777348Y-16015484D02*
X15796396Y-16005960D01*
X15796396Y-16005960D02*
X15805920Y-15996436D01*
X15805920Y-15996436D02*
X15824968Y-15967865D01*
X15824968Y-15967865D02*
X15834491Y-15929769D01*
X15834491Y-15929769D02*
X15834491Y-15853579D01*
X15834491Y-15853579D02*
X15824968Y-15834531D01*
X15824968Y-15834531D02*
X15815444Y-15825008D01*
X15815444Y-15825008D02*
X15796396Y-15815484D01*
X15796396Y-15815484D02*
X15758301Y-15815484D01*
X15758301Y-15815484D02*
X15739253Y-15825008D01*
X15739253Y-15825008D02*
X15729729Y-15834531D01*
X15729729Y-15834531D02*
X15720206Y-15853579D01*
X15720206Y-15853579D02*
X15720206Y-15901198D01*
X15720206Y-15901198D02*
X15729729Y-15920246D01*
X15729729Y-15920246D02*
X15739253Y-15929769D01*
X15739253Y-15929769D02*
X15758301Y-15939293D01*
X15758301Y-15939293D02*
X15796396Y-15939293D01*
X15796396Y-15939293D02*
X15815444Y-15929769D01*
X15815444Y-15929769D02*
X15824968Y-15920246D01*
X15824968Y-15920246D02*
X15834491Y-15901198D01*
X16005920Y-15815484D02*
X15967825Y-15815484D01*
X15967825Y-15815484D02*
X15948777Y-15825008D01*
X15948777Y-15825008D02*
X15939253Y-15834531D01*
X15939253Y-15834531D02*
X15920206Y-15863103D01*
X15920206Y-15863103D02*
X15910682Y-15901198D01*
X15910682Y-15901198D02*
X15910682Y-15977388D01*
X15910682Y-15977388D02*
X15920206Y-15996436D01*
X15920206Y-15996436D02*
X15929729Y-16005960D01*
X15929729Y-16005960D02*
X15948777Y-16015484D01*
X15948777Y-16015484D02*
X15986872Y-16015484D01*
X15986872Y-16015484D02*
X16005920Y-16005960D01*
X16005920Y-16005960D02*
X16015444Y-15996436D01*
X16015444Y-15996436D02*
X16024968Y-15977388D01*
X16024968Y-15977388D02*
X16024968Y-15929769D01*
X16024968Y-15929769D02*
X16015444Y-15910722D01*
X16015444Y-15910722D02*
X16005920Y-15901198D01*
X16005920Y-15901198D02*
X15986872Y-15891674D01*
X15986872Y-15891674D02*
X15948777Y-15891674D01*
X15948777Y-15891674D02*
X15929729Y-15901198D01*
X15929729Y-15901198D02*
X15920206Y-15910722D01*
X15920206Y-15910722D02*
X15910682Y-15929769D01*
X16263063Y-16015484D02*
X16263063Y-15815484D01*
X16348777Y-16015484D02*
X16348777Y-15910722D01*
X16348777Y-15910722D02*
X16339253Y-15891674D01*
X16339253Y-15891674D02*
X16320206Y-15882150D01*
X16320206Y-15882150D02*
X16291634Y-15882150D01*
X16291634Y-15882150D02*
X16272587Y-15891674D01*
X16272587Y-15891674D02*
X16263063Y-15901198D01*
X16472587Y-16015484D02*
X16453539Y-16005960D01*
X16453539Y-16005960D02*
X16444015Y-15996436D01*
X16444015Y-15996436D02*
X16434491Y-15977388D01*
X16434491Y-15977388D02*
X16434491Y-15920246D01*
X16434491Y-15920246D02*
X16444015Y-15901198D01*
X16444015Y-15901198D02*
X16453539Y-15891674D01*
X16453539Y-15891674D02*
X16472587Y-15882150D01*
X16472587Y-15882150D02*
X16501158Y-15882150D01*
X16501158Y-15882150D02*
X16520206Y-15891674D01*
X16520206Y-15891674D02*
X16529730Y-15901198D01*
X16529730Y-15901198D02*
X16539253Y-15920246D01*
X16539253Y-15920246D02*
X16539253Y-15977388D01*
X16539253Y-15977388D02*
X16529730Y-15996436D01*
X16529730Y-15996436D02*
X16520206Y-16005960D01*
X16520206Y-16005960D02*
X16501158Y-16015484D01*
X16501158Y-16015484D02*
X16472587Y-16015484D01*
X16653539Y-16015484D02*
X16634491Y-16005960D01*
X16634491Y-16005960D02*
X16624968Y-15986912D01*
X16624968Y-15986912D02*
X16624968Y-15815484D01*
X16805920Y-16005960D02*
X16786873Y-16015484D01*
X16786873Y-16015484D02*
X16748777Y-16015484D01*
X16748777Y-16015484D02*
X16729730Y-16005960D01*
X16729730Y-16005960D02*
X16720206Y-15986912D01*
X16720206Y-15986912D02*
X16720206Y-15910722D01*
X16720206Y-15910722D02*
X16729730Y-15891674D01*
X16729730Y-15891674D02*
X16748777Y-15882150D01*
X16748777Y-15882150D02*
X16786873Y-15882150D01*
X16786873Y-15882150D02*
X16805920Y-15891674D01*
X16805920Y-15891674D02*
X16815444Y-15910722D01*
X16815444Y-15910722D02*
X16815444Y-15929769D01*
X16815444Y-15929769D02*
X16720206Y-15948817D01*
X16891634Y-16005960D02*
X16910682Y-16015484D01*
X16910682Y-16015484D02*
X16948777Y-16015484D01*
X16948777Y-16015484D02*
X16967825Y-16005960D01*
X16967825Y-16005960D02*
X16977349Y-15986912D01*
X16977349Y-15986912D02*
X16977349Y-15977388D01*
X16977349Y-15977388D02*
X16967825Y-15958341D01*
X16967825Y-15958341D02*
X16948777Y-15948817D01*
X16948777Y-15948817D02*
X16920206Y-15948817D01*
X16920206Y-15948817D02*
X16901158Y-15939293D01*
X16901158Y-15939293D02*
X16891634Y-15920246D01*
X16891634Y-15920246D02*
X16891634Y-15910722D01*
X16891634Y-15910722D02*
X16901158Y-15891674D01*
X16901158Y-15891674D02*
X16920206Y-15882150D01*
X16920206Y-15882150D02*
X16948777Y-15882150D01*
X16948777Y-15882150D02*
X16967825Y-15891674D01*
X17044015Y-16091674D02*
X17053539Y-16082150D01*
X17053539Y-16082150D02*
X17072587Y-16053579D01*
X17072587Y-16053579D02*
X17082111Y-16034531D01*
X17082111Y-16034531D02*
X17091634Y-16005960D01*
X17091634Y-16005960D02*
X17101158Y-15958341D01*
X17101158Y-15958341D02*
X17101158Y-15920246D01*
X17101158Y-15920246D02*
X17091634Y-15872627D01*
X17091634Y-15872627D02*
X17082111Y-15844055D01*
X17082111Y-15844055D02*
X17072587Y-15825008D01*
X17072587Y-15825008D02*
X17053539Y-15796436D01*
X17053539Y-15796436D02*
X17044015Y-15786912D01*
D12*
X11833000Y-16133000D02*
X11833000Y-16243000D01*
X11778000Y-16188000D02*
X11888000Y-16188000D01*
D11*
X12253539Y-16279484D02*
X12139253Y-16279484D01*
X12196396Y-16279484D02*
X12196396Y-16079484D01*
X12196396Y-16079484D02*
X12177348Y-16108055D01*
X12177348Y-16108055D02*
X12158301Y-16127103D01*
X12158301Y-16127103D02*
X12139253Y-16136627D01*
X12339253Y-16260436D02*
X12348777Y-16269960D01*
X12348777Y-16269960D02*
X12339253Y-16279484D01*
X12339253Y-16279484D02*
X12329729Y-16269960D01*
X12329729Y-16269960D02*
X12339253Y-16260436D01*
X12339253Y-16260436D02*
X12339253Y-16279484D01*
X12539253Y-16279484D02*
X12424967Y-16279484D01*
X12482110Y-16279484D02*
X12482110Y-16079484D01*
X12482110Y-16079484D02*
X12463062Y-16108055D01*
X12463062Y-16108055D02*
X12444015Y-16127103D01*
X12444015Y-16127103D02*
X12424967Y-16136627D01*
X12663062Y-16079484D02*
X12682110Y-16079484D01*
X12682110Y-16079484D02*
X12701158Y-16089008D01*
X12701158Y-16089008D02*
X12710682Y-16098531D01*
X12710682Y-16098531D02*
X12720205Y-16117579D01*
X12720205Y-16117579D02*
X12729729Y-16155674D01*
X12729729Y-16155674D02*
X12729729Y-16203293D01*
X12729729Y-16203293D02*
X12720205Y-16241388D01*
X12720205Y-16241388D02*
X12710682Y-16260436D01*
X12710682Y-16260436D02*
X12701158Y-16269960D01*
X12701158Y-16269960D02*
X12682110Y-16279484D01*
X12682110Y-16279484D02*
X12663062Y-16279484D01*
X12663062Y-16279484D02*
X12644015Y-16269960D01*
X12644015Y-16269960D02*
X12634491Y-16260436D01*
X12634491Y-16260436D02*
X12624967Y-16241388D01*
X12624967Y-16241388D02*
X12615443Y-16203293D01*
X12615443Y-16203293D02*
X12615443Y-16155674D01*
X12615443Y-16155674D02*
X12624967Y-16117579D01*
X12624967Y-16117579D02*
X12634491Y-16098531D01*
X12634491Y-16098531D02*
X12644015Y-16089008D01*
X12644015Y-16089008D02*
X12663062Y-16079484D01*
X12853539Y-16079484D02*
X12872586Y-16079484D01*
X12872586Y-16079484D02*
X12891634Y-16089008D01*
X12891634Y-16089008D02*
X12901158Y-16098531D01*
X12901158Y-16098531D02*
X12910682Y-16117579D01*
X12910682Y-16117579D02*
X12920205Y-16155674D01*
X12920205Y-16155674D02*
X12920205Y-16203293D01*
X12920205Y-16203293D02*
X12910682Y-16241388D01*
X12910682Y-16241388D02*
X12901158Y-16260436D01*
X12901158Y-16260436D02*
X12891634Y-16269960D01*
X12891634Y-16269960D02*
X12872586Y-16279484D01*
X12872586Y-16279484D02*
X12853539Y-16279484D01*
X12853539Y-16279484D02*
X12834491Y-16269960D01*
X12834491Y-16269960D02*
X12824967Y-16260436D01*
X12824967Y-16260436D02*
X12815443Y-16241388D01*
X12815443Y-16241388D02*
X12805920Y-16203293D01*
X12805920Y-16203293D02*
X12805920Y-16155674D01*
X12805920Y-16155674D02*
X12815443Y-16117579D01*
X12815443Y-16117579D02*
X12824967Y-16098531D01*
X12824967Y-16098531D02*
X12834491Y-16089008D01*
X12834491Y-16089008D02*
X12853539Y-16079484D01*
X13005920Y-16279484D02*
X13005920Y-16146150D01*
X13005920Y-16165198D02*
X13015443Y-16155674D01*
X13015443Y-16155674D02*
X13034491Y-16146150D01*
X13034491Y-16146150D02*
X13063063Y-16146150D01*
X13063063Y-16146150D02*
X13082110Y-16155674D01*
X13082110Y-16155674D02*
X13091634Y-16174722D01*
X13091634Y-16174722D02*
X13091634Y-16279484D01*
X13091634Y-16174722D02*
X13101158Y-16155674D01*
X13101158Y-16155674D02*
X13120205Y-16146150D01*
X13120205Y-16146150D02*
X13148777Y-16146150D01*
X13148777Y-16146150D02*
X13167824Y-16155674D01*
X13167824Y-16155674D02*
X13177348Y-16174722D01*
X13177348Y-16174722D02*
X13177348Y-16279484D01*
X13272586Y-16279484D02*
X13272586Y-16146150D01*
X13272586Y-16165198D02*
X13282110Y-16155674D01*
X13282110Y-16155674D02*
X13301158Y-16146150D01*
X13301158Y-16146150D02*
X13329729Y-16146150D01*
X13329729Y-16146150D02*
X13348777Y-16155674D01*
X13348777Y-16155674D02*
X13358301Y-16174722D01*
X13358301Y-16174722D02*
X13358301Y-16279484D01*
X13358301Y-16174722D02*
X13367824Y-16155674D01*
X13367824Y-16155674D02*
X13386872Y-16146150D01*
X13386872Y-16146150D02*
X13415443Y-16146150D01*
X13415443Y-16146150D02*
X13434491Y-16155674D01*
X13434491Y-16155674D02*
X13444015Y-16174722D01*
X13444015Y-16174722D02*
X13444015Y-16279484D01*
X13834491Y-16069960D02*
X13663063Y-16327103D01*
X14091634Y-16079484D02*
X14110682Y-16079484D01*
X14110682Y-16079484D02*
X14129729Y-16089008D01*
X14129729Y-16089008D02*
X14139253Y-16098531D01*
X14139253Y-16098531D02*
X14148777Y-16117579D01*
X14148777Y-16117579D02*
X14158301Y-16155674D01*
X14158301Y-16155674D02*
X14158301Y-16203293D01*
X14158301Y-16203293D02*
X14148777Y-16241388D01*
X14148777Y-16241388D02*
X14139253Y-16260436D01*
X14139253Y-16260436D02*
X14129729Y-16269960D01*
X14129729Y-16269960D02*
X14110682Y-16279484D01*
X14110682Y-16279484D02*
X14091634Y-16279484D01*
X14091634Y-16279484D02*
X14072586Y-16269960D01*
X14072586Y-16269960D02*
X14063063Y-16260436D01*
X14063063Y-16260436D02*
X14053539Y-16241388D01*
X14053539Y-16241388D02*
X14044015Y-16203293D01*
X14044015Y-16203293D02*
X14044015Y-16155674D01*
X14044015Y-16155674D02*
X14053539Y-16117579D01*
X14053539Y-16117579D02*
X14063063Y-16098531D01*
X14063063Y-16098531D02*
X14072586Y-16089008D01*
X14072586Y-16089008D02*
X14091634Y-16079484D01*
X14244015Y-16260436D02*
X14253539Y-16269960D01*
X14253539Y-16269960D02*
X14244015Y-16279484D01*
X14244015Y-16279484D02*
X14234491Y-16269960D01*
X14234491Y-16269960D02*
X14244015Y-16260436D01*
X14244015Y-16260436D02*
X14244015Y-16279484D01*
X14377348Y-16079484D02*
X14396396Y-16079484D01*
X14396396Y-16079484D02*
X14415444Y-16089008D01*
X14415444Y-16089008D02*
X14424967Y-16098531D01*
X14424967Y-16098531D02*
X14434491Y-16117579D01*
X14434491Y-16117579D02*
X14444015Y-16155674D01*
X14444015Y-16155674D02*
X14444015Y-16203293D01*
X14444015Y-16203293D02*
X14434491Y-16241388D01*
X14434491Y-16241388D02*
X14424967Y-16260436D01*
X14424967Y-16260436D02*
X14415444Y-16269960D01*
X14415444Y-16269960D02*
X14396396Y-16279484D01*
X14396396Y-16279484D02*
X14377348Y-16279484D01*
X14377348Y-16279484D02*
X14358301Y-16269960D01*
X14358301Y-16269960D02*
X14348777Y-16260436D01*
X14348777Y-16260436D02*
X14339253Y-16241388D01*
X14339253Y-16241388D02*
X14329729Y-16203293D01*
X14329729Y-16203293D02*
X14329729Y-16155674D01*
X14329729Y-16155674D02*
X14339253Y-16117579D01*
X14339253Y-16117579D02*
X14348777Y-16098531D01*
X14348777Y-16098531D02*
X14358301Y-16089008D01*
X14358301Y-16089008D02*
X14377348Y-16079484D01*
X14615444Y-16146150D02*
X14615444Y-16279484D01*
X14567825Y-16069960D02*
X14520206Y-16212817D01*
X14520206Y-16212817D02*
X14644015Y-16212817D01*
X14701158Y-16079484D02*
X14824967Y-16079484D01*
X14824967Y-16079484D02*
X14758301Y-16155674D01*
X14758301Y-16155674D02*
X14786872Y-16155674D01*
X14786872Y-16155674D02*
X14805920Y-16165198D01*
X14805920Y-16165198D02*
X14815444Y-16174722D01*
X14815444Y-16174722D02*
X14824967Y-16193769D01*
X14824967Y-16193769D02*
X14824967Y-16241388D01*
X14824967Y-16241388D02*
X14815444Y-16260436D01*
X14815444Y-16260436D02*
X14805920Y-16269960D01*
X14805920Y-16269960D02*
X14786872Y-16279484D01*
X14786872Y-16279484D02*
X14729729Y-16279484D01*
X14729729Y-16279484D02*
X14710682Y-16269960D01*
X14710682Y-16269960D02*
X14701158Y-16260436D01*
X14891634Y-16079484D02*
X15015444Y-16079484D01*
X15015444Y-16079484D02*
X14948777Y-16155674D01*
X14948777Y-16155674D02*
X14977348Y-16155674D01*
X14977348Y-16155674D02*
X14996396Y-16165198D01*
X14996396Y-16165198D02*
X15005920Y-16174722D01*
X15005920Y-16174722D02*
X15015444Y-16193769D01*
X15015444Y-16193769D02*
X15015444Y-16241388D01*
X15015444Y-16241388D02*
X15005920Y-16260436D01*
X15005920Y-16260436D02*
X14996396Y-16269960D01*
X14996396Y-16269960D02*
X14977348Y-16279484D01*
X14977348Y-16279484D02*
X14920206Y-16279484D01*
X14920206Y-16279484D02*
X14901158Y-16269960D01*
X14901158Y-16269960D02*
X14891634Y-16260436D01*
X15091634Y-16079484D02*
X15091634Y-16117579D01*
X15167825Y-16079484D02*
X15167825Y-16117579D01*
X15463063Y-16355674D02*
X15453539Y-16346150D01*
X15453539Y-16346150D02*
X15434491Y-16317579D01*
X15434491Y-16317579D02*
X15424968Y-16298531D01*
X15424968Y-16298531D02*
X15415444Y-16269960D01*
X15415444Y-16269960D02*
X15405920Y-16222341D01*
X15405920Y-16222341D02*
X15405920Y-16184246D01*
X15405920Y-16184246D02*
X15415444Y-16136627D01*
X15415444Y-16136627D02*
X15424968Y-16108055D01*
X15424968Y-16108055D02*
X15434491Y-16089008D01*
X15434491Y-16089008D02*
X15453539Y-16060436D01*
X15453539Y-16060436D02*
X15463063Y-16050912D01*
X15520206Y-16079484D02*
X15644015Y-16079484D01*
X15644015Y-16079484D02*
X15577348Y-16155674D01*
X15577348Y-16155674D02*
X15605920Y-16155674D01*
X15605920Y-16155674D02*
X15624968Y-16165198D01*
X15624968Y-16165198D02*
X15634491Y-16174722D01*
X15634491Y-16174722D02*
X15644015Y-16193769D01*
X15644015Y-16193769D02*
X15644015Y-16241388D01*
X15644015Y-16241388D02*
X15634491Y-16260436D01*
X15634491Y-16260436D02*
X15624968Y-16269960D01*
X15624968Y-16269960D02*
X15605920Y-16279484D01*
X15605920Y-16279484D02*
X15548777Y-16279484D01*
X15548777Y-16279484D02*
X15529729Y-16269960D01*
X15529729Y-16269960D02*
X15520206Y-16260436D01*
X15882110Y-16279484D02*
X15882110Y-16079484D01*
X15967825Y-16279484D02*
X15967825Y-16174722D01*
X15967825Y-16174722D02*
X15958301Y-16155674D01*
X15958301Y-16155674D02*
X15939253Y-16146150D01*
X15939253Y-16146150D02*
X15910682Y-16146150D01*
X15910682Y-16146150D02*
X15891634Y-16155674D01*
X15891634Y-16155674D02*
X15882110Y-16165198D01*
X16091634Y-16279484D02*
X16072587Y-16269960D01*
X16072587Y-16269960D02*
X16063063Y-16260436D01*
X16063063Y-16260436D02*
X16053539Y-16241388D01*
X16053539Y-16241388D02*
X16053539Y-16184246D01*
X16053539Y-16184246D02*
X16063063Y-16165198D01*
X16063063Y-16165198D02*
X16072587Y-16155674D01*
X16072587Y-16155674D02*
X16091634Y-16146150D01*
X16091634Y-16146150D02*
X16120206Y-16146150D01*
X16120206Y-16146150D02*
X16139253Y-16155674D01*
X16139253Y-16155674D02*
X16148777Y-16165198D01*
X16148777Y-16165198D02*
X16158301Y-16184246D01*
X16158301Y-16184246D02*
X16158301Y-16241388D01*
X16158301Y-16241388D02*
X16148777Y-16260436D01*
X16148777Y-16260436D02*
X16139253Y-16269960D01*
X16139253Y-16269960D02*
X16120206Y-16279484D01*
X16120206Y-16279484D02*
X16091634Y-16279484D01*
X16272587Y-16279484D02*
X16253539Y-16269960D01*
X16253539Y-16269960D02*
X16244015Y-16250912D01*
X16244015Y-16250912D02*
X16244015Y-16079484D01*
X16424968Y-16269960D02*
X16405920Y-16279484D01*
X16405920Y-16279484D02*
X16367825Y-16279484D01*
X16367825Y-16279484D02*
X16348777Y-16269960D01*
X16348777Y-16269960D02*
X16339253Y-16250912D01*
X16339253Y-16250912D02*
X16339253Y-16174722D01*
X16339253Y-16174722D02*
X16348777Y-16155674D01*
X16348777Y-16155674D02*
X16367825Y-16146150D01*
X16367825Y-16146150D02*
X16405920Y-16146150D01*
X16405920Y-16146150D02*
X16424968Y-16155674D01*
X16424968Y-16155674D02*
X16434491Y-16174722D01*
X16434491Y-16174722D02*
X16434491Y-16193769D01*
X16434491Y-16193769D02*
X16339253Y-16212817D01*
X16510682Y-16269960D02*
X16529730Y-16279484D01*
X16529730Y-16279484D02*
X16567825Y-16279484D01*
X16567825Y-16279484D02*
X16586872Y-16269960D01*
X16586872Y-16269960D02*
X16596396Y-16250912D01*
X16596396Y-16250912D02*
X16596396Y-16241388D01*
X16596396Y-16241388D02*
X16586872Y-16222341D01*
X16586872Y-16222341D02*
X16567825Y-16212817D01*
X16567825Y-16212817D02*
X16539253Y-16212817D01*
X16539253Y-16212817D02*
X16520206Y-16203293D01*
X16520206Y-16203293D02*
X16510682Y-16184246D01*
X16510682Y-16184246D02*
X16510682Y-16174722D01*
X16510682Y-16174722D02*
X16520206Y-16155674D01*
X16520206Y-16155674D02*
X16539253Y-16146150D01*
X16539253Y-16146150D02*
X16567825Y-16146150D01*
X16567825Y-16146150D02*
X16586872Y-16155674D01*
X16663063Y-16355674D02*
X16672587Y-16346150D01*
X16672587Y-16346150D02*
X16691634Y-16317579D01*
X16691634Y-16317579D02*
X16701158Y-16298531D01*
X16701158Y-16298531D02*
X16710682Y-16269960D01*
X16710682Y-16269960D02*
X16720206Y-16222341D01*
X16720206Y-16222341D02*
X16720206Y-16184246D01*
X16720206Y-16184246D02*
X16710682Y-16136627D01*
X16710682Y-16136627D02*
X16701158Y-16108055D01*
X16701158Y-16108055D02*
X16691634Y-16089008D01*
X16691634Y-16089008D02*
X16672587Y-16060436D01*
X16672587Y-16060436D02*
X16663063Y-16050912D01*
M02*
