%TF.GenerationSoftware,KiCad,Pcbnew,8.0.1-8.0.1-1~ubuntu22.04.1*%
%TF.CreationDate,2024-05-02T00:15:07-04:00*%
%TF.ProjectId,Claculator_Display,436c6163-756c-4617-946f-725f44697370,rev?*%
%TF.SameCoordinates,Original*%
%TF.FileFunction,Drillmap*%
%TF.FilePolarity,Positive*%
%FSLAX45Y45*%
G04 Gerber Fmt 4.5, Leading zero omitted, Abs format (unit mm)*
G04 Created by KiCad (PCBNEW 8.0.1-8.0.1-1~ubuntu22.04.1) date 2024-05-02 00:15:07*
%MOMM*%
%LPD*%
G01*
G04 APERTURE LIST*
%ADD10C,0.100000*%
%ADD11C,0.200000*%
G04 APERTURE END LIST*
D10*
X12348000Y-4410000D02*
G75*
G02*
X12048000Y-4410000I-150000J0D01*
G01*
X12048000Y-4410000D02*
G75*
G02*
X12348000Y-4410000I150000J0D01*
G01*
X20748000Y-4410000D02*
G75*
G02*
X20448000Y-4410000I-150000J0D01*
G01*
X20448000Y-4410000D02*
G75*
G02*
X20748000Y-4410000I150000J0D01*
G01*
D11*
X11898000Y-4110000D02*
X29298000Y-4110000D01*
X29298000Y-15010000D01*
X11898000Y-15010000D01*
X11898000Y-4110000D01*
D10*
X20748000Y-14710000D02*
G75*
G02*
X20448000Y-14710000I-150000J0D01*
G01*
X20448000Y-14710000D02*
G75*
G02*
X20748000Y-14710000I150000J0D01*
G01*
X12348000Y-14710000D02*
G75*
G02*
X12048000Y-14710000I-150000J0D01*
G01*
X12048000Y-14710000D02*
G75*
G02*
X12348000Y-14710000I150000J0D01*
G01*
X29148000Y-14710000D02*
G75*
G02*
X28848000Y-14710000I-150000J0D01*
G01*
X28848000Y-14710000D02*
G75*
G02*
X29148000Y-14710000I150000J0D01*
G01*
X29148000Y-4410000D02*
G75*
G02*
X28848000Y-4410000I-150000J0D01*
G01*
X28848000Y-4410000D02*
G75*
G02*
X29148000Y-4410000I150000J0D01*
G01*
D11*
X12148777Y-15331484D02*
X12148777Y-15131484D01*
X12148777Y-15131484D02*
X12196396Y-15131484D01*
X12196396Y-15131484D02*
X12224967Y-15141008D01*
X12224967Y-15141008D02*
X12244015Y-15160055D01*
X12244015Y-15160055D02*
X12253539Y-15179103D01*
X12253539Y-15179103D02*
X12263062Y-15217198D01*
X12263062Y-15217198D02*
X12263062Y-15245769D01*
X12263062Y-15245769D02*
X12253539Y-15283865D01*
X12253539Y-15283865D02*
X12244015Y-15302912D01*
X12244015Y-15302912D02*
X12224967Y-15321960D01*
X12224967Y-15321960D02*
X12196396Y-15331484D01*
X12196396Y-15331484D02*
X12148777Y-15331484D01*
X12348777Y-15331484D02*
X12348777Y-15198150D01*
X12348777Y-15236246D02*
X12358301Y-15217198D01*
X12358301Y-15217198D02*
X12367824Y-15207674D01*
X12367824Y-15207674D02*
X12386872Y-15198150D01*
X12386872Y-15198150D02*
X12405920Y-15198150D01*
X12472586Y-15331484D02*
X12472586Y-15198150D01*
X12472586Y-15131484D02*
X12463062Y-15141008D01*
X12463062Y-15141008D02*
X12472586Y-15150531D01*
X12472586Y-15150531D02*
X12482110Y-15141008D01*
X12482110Y-15141008D02*
X12472586Y-15131484D01*
X12472586Y-15131484D02*
X12472586Y-15150531D01*
X12596396Y-15331484D02*
X12577348Y-15321960D01*
X12577348Y-15321960D02*
X12567824Y-15302912D01*
X12567824Y-15302912D02*
X12567824Y-15131484D01*
X12701158Y-15331484D02*
X12682110Y-15321960D01*
X12682110Y-15321960D02*
X12672586Y-15302912D01*
X12672586Y-15302912D02*
X12672586Y-15131484D01*
X12929729Y-15331484D02*
X12929729Y-15131484D01*
X12929729Y-15131484D02*
X12996396Y-15274341D01*
X12996396Y-15274341D02*
X13063062Y-15131484D01*
X13063062Y-15131484D02*
X13063062Y-15331484D01*
X13244015Y-15331484D02*
X13244015Y-15226722D01*
X13244015Y-15226722D02*
X13234491Y-15207674D01*
X13234491Y-15207674D02*
X13215443Y-15198150D01*
X13215443Y-15198150D02*
X13177348Y-15198150D01*
X13177348Y-15198150D02*
X13158301Y-15207674D01*
X13244015Y-15321960D02*
X13224967Y-15331484D01*
X13224967Y-15331484D02*
X13177348Y-15331484D01*
X13177348Y-15331484D02*
X13158301Y-15321960D01*
X13158301Y-15321960D02*
X13148777Y-15302912D01*
X13148777Y-15302912D02*
X13148777Y-15283865D01*
X13148777Y-15283865D02*
X13158301Y-15264817D01*
X13158301Y-15264817D02*
X13177348Y-15255293D01*
X13177348Y-15255293D02*
X13224967Y-15255293D01*
X13224967Y-15255293D02*
X13244015Y-15245769D01*
X13339253Y-15198150D02*
X13339253Y-15398150D01*
X13339253Y-15207674D02*
X13358301Y-15198150D01*
X13358301Y-15198150D02*
X13396396Y-15198150D01*
X13396396Y-15198150D02*
X13415443Y-15207674D01*
X13415443Y-15207674D02*
X13424967Y-15217198D01*
X13424967Y-15217198D02*
X13434491Y-15236246D01*
X13434491Y-15236246D02*
X13434491Y-15293388D01*
X13434491Y-15293388D02*
X13424967Y-15312436D01*
X13424967Y-15312436D02*
X13415443Y-15321960D01*
X13415443Y-15321960D02*
X13396396Y-15331484D01*
X13396396Y-15331484D02*
X13358301Y-15331484D01*
X13358301Y-15331484D02*
X13339253Y-15321960D01*
X13520205Y-15312436D02*
X13529729Y-15321960D01*
X13529729Y-15321960D02*
X13520205Y-15331484D01*
X13520205Y-15331484D02*
X13510682Y-15321960D01*
X13510682Y-15321960D02*
X13520205Y-15312436D01*
X13520205Y-15312436D02*
X13520205Y-15331484D01*
X13520205Y-15207674D02*
X13529729Y-15217198D01*
X13529729Y-15217198D02*
X13520205Y-15226722D01*
X13520205Y-15226722D02*
X13510682Y-15217198D01*
X13510682Y-15217198D02*
X13520205Y-15207674D01*
X13520205Y-15207674D02*
X13520205Y-15226722D01*
M02*
