G04 #@! TF.GenerationSoftware,KiCad,Pcbnew,8.0.1-8.0.1-1~ubuntu22.04.1*
G04 #@! TF.CreationDate,2024-05-02T00:15:03-04:00*
G04 #@! TF.ProjectId,Claculator_Display,436c6163-756c-4617-946f-725f44697370,rev?*
G04 #@! TF.SameCoordinates,Original*
G04 #@! TF.FileFunction,Legend,Top*
G04 #@! TF.FilePolarity,Positive*
%FSLAX46Y46*%
G04 Gerber Fmt 4.6, Leading zero omitted, Abs format (unit mm)*
G04 Created by KiCad (PCBNEW 8.0.1-8.0.1-1~ubuntu22.04.1) date 2024-05-02 00:15:03*
%MOMM*%
%LPD*%
G01*
G04 APERTURE LIST*
%ADD10C,0.120000*%
%ADD11R,1.700000X1.700000*%
%ADD12O,1.700000X1.700000*%
%ADD13R,1.500000X1.500000*%
%ADD14O,1.500000X1.500000*%
%ADD15C,1.500000*%
%ADD16R,1.905000X2.000000*%
%ADD17O,1.905000X2.000000*%
G04 APERTURE END LIST*
D10*
X138950000Y-144670000D02*
X138950000Y-146000000D01*
X137620000Y-144670000D02*
X138950000Y-144670000D01*
X136350000Y-144670000D02*
X126130000Y-144670000D01*
X136350000Y-144670000D02*
X136350000Y-147270000D01*
X126130000Y-144670000D02*
X126130000Y-149870000D01*
X138950000Y-147270000D02*
X138950000Y-149870000D01*
X136350000Y-147270000D02*
X138950000Y-147270000D01*
X138950000Y-149870000D02*
X126130000Y-149870000D01*
X208710000Y-92570000D02*
X208710000Y-73330000D01*
X208710000Y-92570000D02*
X259250000Y-92570000D01*
X226630000Y-92950000D02*
X228630000Y-92950000D01*
X259250000Y-73330000D02*
X208710000Y-73330000D01*
X259250000Y-92570000D02*
X259250000Y-73330000D01*
X152710000Y-117570000D02*
X152710000Y-98330000D01*
X152710000Y-117570000D02*
X203250000Y-117570000D01*
X170630000Y-117950000D02*
X172630000Y-117950000D01*
X203250000Y-98330000D02*
X152710000Y-98330000D01*
X203250000Y-117570000D02*
X203250000Y-98330000D01*
X208710000Y-117570000D02*
X208710000Y-98330000D01*
X208710000Y-117570000D02*
X259250000Y-117570000D01*
X226630000Y-117950000D02*
X228630000Y-117950000D01*
X259250000Y-98330000D02*
X208710000Y-98330000D01*
X259250000Y-117570000D02*
X259250000Y-98330000D01*
X152750000Y-67570000D02*
X152750000Y-48330000D01*
X152750000Y-48330000D02*
X102210000Y-48330000D01*
X120130000Y-67950000D02*
X122130000Y-67950000D01*
X102210000Y-67570000D02*
X152750000Y-67570000D01*
X102210000Y-67570000D02*
X102210000Y-48330000D01*
X102210000Y-117570000D02*
X102210000Y-98330000D01*
X102210000Y-117570000D02*
X152750000Y-117570000D01*
X120130000Y-117950000D02*
X122130000Y-117950000D01*
X152750000Y-98330000D02*
X102210000Y-98330000D01*
X152750000Y-117570000D02*
X152750000Y-98330000D01*
X208710000Y-67570000D02*
X208710000Y-48330000D01*
X208710000Y-67570000D02*
X259250000Y-67570000D01*
X226630000Y-67950000D02*
X228630000Y-67950000D01*
X259250000Y-48330000D02*
X208710000Y-48330000D01*
X259250000Y-67570000D02*
X259250000Y-48330000D01*
X195640000Y-149920000D02*
X195640000Y-147260000D01*
X147320000Y-149920000D02*
X195640000Y-149920000D01*
X147320000Y-149920000D02*
X147320000Y-147260000D01*
X147320000Y-147260000D02*
X195640000Y-147260000D01*
X146050000Y-149920000D02*
X144720000Y-149920000D01*
X144720000Y-149920000D02*
X144720000Y-148590000D01*
X259210000Y-67570000D02*
X259210000Y-48330000D01*
X259210000Y-67570000D02*
X309750000Y-67570000D01*
X277130000Y-67950000D02*
X279130000Y-67950000D01*
X309750000Y-48330000D02*
X259210000Y-48330000D01*
X309750000Y-67570000D02*
X309750000Y-48330000D01*
X152710000Y-92570000D02*
X152710000Y-73330000D01*
X152710000Y-92570000D02*
X203250000Y-92570000D01*
X170630000Y-92950000D02*
X172630000Y-92950000D01*
X203250000Y-73330000D02*
X152710000Y-73330000D01*
X203250000Y-92570000D02*
X203250000Y-73330000D01*
X102210000Y-142570000D02*
X102210000Y-123330000D01*
X102210000Y-142570000D02*
X152750000Y-142570000D01*
X120130000Y-142950000D02*
X122130000Y-142950000D01*
X152750000Y-123330000D02*
X102210000Y-123330000D01*
X152750000Y-142570000D02*
X152750000Y-123330000D01*
X152710000Y-67570000D02*
X152710000Y-48330000D01*
X152710000Y-67570000D02*
X203250000Y-67570000D01*
X170630000Y-67950000D02*
X172630000Y-67950000D01*
X203250000Y-48330000D02*
X152710000Y-48330000D01*
X203250000Y-67570000D02*
X203250000Y-48330000D01*
X102210000Y-92570000D02*
X102210000Y-73330000D01*
X102210000Y-92570000D02*
X152750000Y-92570000D01*
X120130000Y-92950000D02*
X122130000Y-92950000D01*
X152750000Y-73330000D02*
X102210000Y-73330000D01*
X152750000Y-92570000D02*
X152750000Y-73330000D01*
X256600000Y-149920000D02*
X256600000Y-147260000D01*
X218440000Y-149920000D02*
X256600000Y-149920000D01*
X218440000Y-149920000D02*
X218440000Y-147260000D01*
X218440000Y-147260000D02*
X256600000Y-147260000D01*
X217170000Y-149920000D02*
X215840000Y-149920000D01*
X215840000Y-149920000D02*
X215840000Y-148590000D01*
X259210000Y-117570000D02*
X259210000Y-98330000D01*
X259210000Y-117570000D02*
X309750000Y-117570000D01*
X277130000Y-117950000D02*
X279130000Y-117950000D01*
X309750000Y-98330000D02*
X259210000Y-98330000D01*
X309750000Y-117570000D02*
X309750000Y-98330000D01*
X259210000Y-92570000D02*
X259210000Y-73330000D01*
X259210000Y-92570000D02*
X309750000Y-92570000D01*
X277130000Y-92950000D02*
X279130000Y-92950000D01*
X309750000Y-73330000D02*
X259210000Y-73330000D01*
X309750000Y-92570000D02*
X309750000Y-73330000D01*
X152710000Y-142570000D02*
X152710000Y-123330000D01*
X152710000Y-142570000D02*
X203250000Y-142570000D01*
X170630000Y-142950000D02*
X172630000Y-142950000D01*
X203250000Y-123330000D02*
X152710000Y-123330000D01*
X203250000Y-142570000D02*
X203250000Y-123330000D01*
X208710000Y-142570000D02*
X208710000Y-123330000D01*
X208710000Y-142570000D02*
X259250000Y-142570000D01*
X226630000Y-142950000D02*
X228630000Y-142950000D01*
X259250000Y-123330000D02*
X208710000Y-123330000D01*
X259250000Y-142570000D02*
X259250000Y-123330000D01*
X259210000Y-142570000D02*
X259210000Y-123330000D01*
X259210000Y-142570000D02*
X309750000Y-142570000D01*
X277130000Y-142950000D02*
X279130000Y-142950000D01*
X309750000Y-123330000D02*
X259210000Y-123330000D01*
X309750000Y-142570000D02*
X309750000Y-123330000D01*
%LPC*%
D11*
X273775000Y-96000000D03*
D12*
X271235000Y-96000000D03*
X269235000Y-144950000D03*
D11*
X271775000Y-144950000D03*
D12*
X212640330Y-119182911D03*
X212640330Y-121722911D03*
X215180330Y-119182911D03*
X215180330Y-121722911D03*
X217720330Y-119182911D03*
D11*
X217720330Y-121722911D03*
D13*
X131290000Y-119180000D03*
D14*
X131290000Y-121720000D03*
X133830000Y-119180000D03*
X133830000Y-121720000D03*
X136370000Y-119180000D03*
X136370000Y-121720000D03*
X138910000Y-119180000D03*
X138910000Y-121720000D03*
X141450000Y-119180000D03*
X141450000Y-121720000D03*
D11*
X137620000Y-146000000D03*
D12*
X137620000Y-148540000D03*
X135080000Y-146000000D03*
X135080000Y-148540000D03*
X132540000Y-146000000D03*
X132540000Y-148540000D03*
X130000000Y-146000000D03*
X130000000Y-148540000D03*
X127460000Y-146000000D03*
X127460000Y-148540000D03*
D11*
X165436501Y-71714337D03*
D12*
X162896501Y-71714337D03*
X160356501Y-71714337D03*
X157816501Y-71714337D03*
X155276501Y-71714337D03*
X152736501Y-71714337D03*
X150196501Y-71714337D03*
X147656501Y-71714337D03*
X145116501Y-71714337D03*
X142576501Y-71714337D03*
D11*
X204710000Y-90075000D03*
D12*
X207250000Y-90075000D03*
X204710000Y-87535000D03*
X207250000Y-87535000D03*
X204710000Y-84995000D03*
X207250000Y-84995000D03*
X204710000Y-82455000D03*
X207250000Y-82455000D03*
X204710000Y-79915000D03*
X207250000Y-79915000D03*
D13*
X227630000Y-90570000D03*
D15*
X230170000Y-90570000D03*
X232710000Y-90570000D03*
X235250000Y-90570000D03*
X237790000Y-90570000D03*
X240330000Y-90570000D03*
X240330000Y-75330000D03*
X237790000Y-75330000D03*
X235250000Y-75330000D03*
X232710000Y-75330000D03*
X230170000Y-75330000D03*
X227630000Y-75330000D03*
D13*
X171630000Y-115570000D03*
D15*
X174170000Y-115570000D03*
X176710000Y-115570000D03*
X179250000Y-115570000D03*
X181790000Y-115570000D03*
X184330000Y-115570000D03*
X184330000Y-100330000D03*
X181790000Y-100330000D03*
X179250000Y-100330000D03*
X176710000Y-100330000D03*
X174170000Y-100330000D03*
X171630000Y-100330000D03*
D13*
X227630000Y-115570000D03*
D15*
X230170000Y-115570000D03*
X232710000Y-115570000D03*
X235250000Y-115570000D03*
X237790000Y-115570000D03*
X240330000Y-115570000D03*
X240330000Y-100330000D03*
X237790000Y-100330000D03*
X235250000Y-100330000D03*
X232710000Y-100330000D03*
X230170000Y-100330000D03*
X227630000Y-100330000D03*
X121130000Y-50330000D03*
X123670000Y-50330000D03*
X126210000Y-50330000D03*
X128750000Y-50330000D03*
X131290000Y-50330000D03*
X133830000Y-50330000D03*
X133830000Y-65570000D03*
X131290000Y-65570000D03*
X128750000Y-65570000D03*
X126210000Y-65570000D03*
X123670000Y-65570000D03*
D13*
X121130000Y-65570000D03*
X121130000Y-115570000D03*
D15*
X123670000Y-115570000D03*
X126210000Y-115570000D03*
X128750000Y-115570000D03*
X131290000Y-115570000D03*
X133830000Y-115570000D03*
X133830000Y-100330000D03*
X131290000Y-100330000D03*
X128750000Y-100330000D03*
X126210000Y-100330000D03*
X123670000Y-100330000D03*
X121130000Y-100330000D03*
D13*
X227630000Y-65570000D03*
D15*
X230170000Y-65570000D03*
X232710000Y-65570000D03*
X235250000Y-65570000D03*
X237790000Y-65570000D03*
X240330000Y-65570000D03*
X240330000Y-50330000D03*
X237790000Y-50330000D03*
X235250000Y-50330000D03*
X232710000Y-50330000D03*
X230170000Y-50330000D03*
X227630000Y-50330000D03*
D12*
X194310000Y-148590000D03*
X191770000Y-148590000D03*
X189230000Y-148590000D03*
X186690000Y-148590000D03*
X184150000Y-148590000D03*
X181610000Y-148590000D03*
X179070000Y-148590000D03*
X176530000Y-148590000D03*
X173990000Y-148590000D03*
X171450000Y-148590000D03*
X168910000Y-148590000D03*
X166370000Y-148590000D03*
X163830000Y-148590000D03*
X161290000Y-148590000D03*
X158750000Y-148590000D03*
X156210000Y-148590000D03*
X153670000Y-148590000D03*
X151130000Y-148590000D03*
X148590000Y-148590000D03*
D11*
X146050000Y-148590000D03*
D13*
X278130000Y-65570000D03*
D15*
X280670000Y-65570000D03*
X283210000Y-65570000D03*
X285750000Y-65570000D03*
X288290000Y-65570000D03*
X290830000Y-65570000D03*
X290830000Y-50330000D03*
X288290000Y-50330000D03*
X285750000Y-50330000D03*
X283210000Y-50330000D03*
X280670000Y-50330000D03*
X278130000Y-50330000D03*
D13*
X171630000Y-90570000D03*
D15*
X174170000Y-90570000D03*
X176710000Y-90570000D03*
X179250000Y-90570000D03*
X181790000Y-90570000D03*
X184330000Y-90570000D03*
X184330000Y-75330000D03*
X181790000Y-75330000D03*
X179250000Y-75330000D03*
X176710000Y-75330000D03*
X174170000Y-75330000D03*
X171630000Y-75330000D03*
D13*
X121130000Y-140570000D03*
D15*
X123670000Y-140570000D03*
X126210000Y-140570000D03*
X128750000Y-140570000D03*
X131290000Y-140570000D03*
X133830000Y-140570000D03*
X133830000Y-125330000D03*
X131290000Y-125330000D03*
X128750000Y-125330000D03*
X126210000Y-125330000D03*
X123670000Y-125330000D03*
X121130000Y-125330000D03*
D13*
X171630000Y-65570000D03*
D15*
X174170000Y-65570000D03*
X176710000Y-65570000D03*
X179250000Y-65570000D03*
X181790000Y-65570000D03*
X184330000Y-65570000D03*
X184330000Y-50330000D03*
X181790000Y-50330000D03*
X179250000Y-50330000D03*
X176710000Y-50330000D03*
X174170000Y-50330000D03*
X171630000Y-50330000D03*
D13*
X121130000Y-90570000D03*
D15*
X123670000Y-90570000D03*
X126210000Y-90570000D03*
X128750000Y-90570000D03*
X131290000Y-90570000D03*
X133830000Y-90570000D03*
X133830000Y-75330000D03*
X131290000Y-75330000D03*
X128750000Y-75330000D03*
X126210000Y-75330000D03*
X123670000Y-75330000D03*
X121130000Y-75330000D03*
D12*
X255270000Y-148590000D03*
X252730000Y-148590000D03*
X250190000Y-148590000D03*
X247650000Y-148590000D03*
X245110000Y-148590000D03*
X242570000Y-148590000D03*
X240030000Y-148590000D03*
X237490000Y-148590000D03*
X234950000Y-148590000D03*
X232410000Y-148590000D03*
X229870000Y-148590000D03*
X227330000Y-148590000D03*
X224790000Y-148590000D03*
X222250000Y-148590000D03*
X219710000Y-148590000D03*
D11*
X217170000Y-148590000D03*
D13*
X278130000Y-115570000D03*
D15*
X280670000Y-115570000D03*
X283210000Y-115570000D03*
X285750000Y-115570000D03*
X288290000Y-115570000D03*
X290830000Y-115570000D03*
X290830000Y-100330000D03*
X288290000Y-100330000D03*
X285750000Y-100330000D03*
X283210000Y-100330000D03*
X280670000Y-100330000D03*
X278130000Y-100330000D03*
D13*
X278130000Y-90570000D03*
D15*
X280670000Y-90570000D03*
X283210000Y-90570000D03*
X285750000Y-90570000D03*
X288290000Y-90570000D03*
X290830000Y-90570000D03*
X290830000Y-75330000D03*
X288290000Y-75330000D03*
X285750000Y-75330000D03*
X283210000Y-75330000D03*
X280670000Y-75330000D03*
X278130000Y-75330000D03*
D13*
X171630000Y-140570000D03*
D15*
X174170000Y-140570000D03*
X176710000Y-140570000D03*
X179250000Y-140570000D03*
X181790000Y-140570000D03*
X184330000Y-140570000D03*
X184330000Y-125330000D03*
X181790000Y-125330000D03*
X179250000Y-125330000D03*
X176710000Y-125330000D03*
X174170000Y-125330000D03*
X171630000Y-125330000D03*
D13*
X227630000Y-140570000D03*
D15*
X230170000Y-140570000D03*
X232710000Y-140570000D03*
X235250000Y-140570000D03*
X237790000Y-140570000D03*
X240330000Y-140570000D03*
X240330000Y-125330000D03*
X237790000Y-125330000D03*
X235250000Y-125330000D03*
X232710000Y-125330000D03*
X230170000Y-125330000D03*
X227630000Y-125330000D03*
D13*
X278130000Y-140570000D03*
D15*
X280670000Y-140570000D03*
X283210000Y-140570000D03*
X285750000Y-140570000D03*
X288290000Y-140570000D03*
X290830000Y-140570000D03*
X290830000Y-125330000D03*
X288290000Y-125330000D03*
X285750000Y-125330000D03*
X283210000Y-125330000D03*
X280670000Y-125330000D03*
X278130000Y-125330000D03*
D16*
X273812000Y-120650000D03*
D17*
X271272000Y-120650000D03*
X268732000Y-120650000D03*
D11*
X204714274Y-141537415D03*
D12*
X207254274Y-141537415D03*
X204714274Y-138997415D03*
X207254274Y-138997415D03*
X204714274Y-136457415D03*
X207254274Y-136457415D03*
X204714274Y-133917415D03*
X207254274Y-133917415D03*
X204714274Y-131377415D03*
X207254274Y-131377415D03*
X204714274Y-128837415D03*
X207254274Y-128837415D03*
X204714274Y-126297415D03*
X207254274Y-126297415D03*
X204714274Y-123757415D03*
X207254274Y-123757415D03*
D11*
X271775000Y-148590000D03*
D12*
X269235000Y-148590000D03*
%LPD*%
M02*
