M48
; DRILL file {KiCad 8.0.1-8.0.1-1~ubuntu22.04.1} date 2024-05-02T00:15:06-0400
; FORMAT={-:-/ absolute / metric / decimal}
; #@! TF.CreationDate,2024-05-02T00:15:06-04:00
; #@! TF.GenerationSoftware,Kicad,Pcbnew,8.0.1-8.0.1-1~ubuntu22.04.1
; #@! TF.FileFunction,Plated,1,4,PTH
FMAT,2
METRIC
; #@! TA.AperFunction,Plated,PTH,ViaDrill
T1C0.400
; #@! TA.AperFunction,Plated,PTH,ComponentDrill
T2C1.000
; #@! TA.AperFunction,Plated,PTH,ComponentDrill
T3C1.100
%
G90
G05
T1
X119.631Y-69.662
X119.671Y-93.472
X119.888Y-60.96
X119.888Y-85.344
X119.888Y-109.728
X120.396Y-134.62
X120.402Y-94.197
X120.533Y-70.361
X120.904Y-79.248
X120.904Y-104.648
X120.904Y-120.396
X120.904Y-129.54
X121.92Y-54.864
X123.044Y-67.781
X123.444Y-53.848
X123.952Y-77.724
X123.952Y-102.616
X124.46Y-127.508
X125.476Y-73.444
X125.984Y-52.832
X125.984Y-112.268
X125.984Y-137.668
X126.492Y-87.884
X126.5Y-143.5
X126.754Y-68.157
X127.508Y-62.484
X128.292Y-68.561
X128.524Y-79.756
X129.032Y-61.22
X129.032Y-86.36
X129.032Y-111.252
X129.032Y-136.144
X129.317Y-95.504
X129.483Y-71.186
X130.048Y-138.176
X130.556Y-70.738
X130.812Y-94.704
X130.919Y-53.848
X131.064Y-79.029
X131.064Y-103.855
X131.064Y-128.524
X131.759Y-68.912
X133.096Y-73.066
X133.604Y-45.212
X135.0Y-52.75
X135.128Y-97.028
X136.652Y-88.392
X136.652Y-111.252
X137.16Y-75.184
X137.16Y-129.54
X137.5Y-114.0
X137.668Y-80.772
X138.729Y-111.207
X139.192Y-90.424
X139.7Y-91.44
X139.7Y-102.616
X139.917Y-111.126
X140.208Y-71.628
X140.208Y-92.456
X140.208Y-138.176
X140.716Y-65.024
X140.716Y-93.472
X141.015Y-110.953
X141.224Y-107.696
X141.224Y-136.144
X141.5Y-142.24
X142.0Y-88.0
X142.0Y-137.0
X143.0Y-137.0
X143.256Y-84.836
X144.5Y-125.0
X144.5Y-137.0
X144.78Y-89.408
X144.954Y-87.884
X145.5Y-64.75
X145.5Y-137.0
X145.796Y-75.184
X146.0Y-87.5
X146.304Y-123.952
X146.403Y-89.139
X146.5Y-122.5
X147.0Y-137.0
X147.32Y-86.868
X147.32Y-124.46
X148.0Y-137.0
X148.433Y-125.227
X148.496Y-89.333
X148.844Y-103.632
X149.0Y-87.5
X149.0Y-137.0
X149.352Y-123.444
X149.5Y-92.5
X149.681Y-117.944
X149.858Y-89.314
X150.25Y-47.75
X150.368Y-122.936
X150.368Y-136.887
X150.368Y-142.24
X150.807Y-83.415
X150.876Y-45.212
X151.384Y-122.428
X151.892Y-101.092
X152.4Y-97.028
X152.4Y-121.92
X153.412Y-121.408
X153.924Y-75.184
X154.432Y-65.532
X154.432Y-83.82
X154.432Y-121.412
X154.5Y-93.5
X154.819Y-122.334
X154.94Y-112.268
X154.94Y-132.588
X155.188Y-88.152
X155.604Y-142.028
X155.956Y-132.588
X156.0Y-93.5
X156.198Y-122.145
X156.464Y-103.632
X156.464Y-107.696
X156.592Y-123.064
X156.972Y-132.588
X157.429Y-87.376
X157.484Y-107.692
X157.727Y-123.183
X157.988Y-63.5
X157.988Y-64.516
X157.988Y-132.588
X158.0Y-93.0
X158.778Y-123.407
X159.0Y-107.692
X159.0Y-83.5
X159.004Y-63.5
X159.004Y-64.516
X159.004Y-88.392
X159.25Y-50.0
X159.512Y-132.588
X159.862Y-123.648
X160.0Y-93.0
X160.02Y-63.5
X160.02Y-64.516
X160.02Y-107.696
X160.02Y-141.732
X160.532Y-132.584
X160.54Y-89.308
X161.036Y-63.5
X161.036Y-64.516
X161.544Y-141.732
X161.892Y-118.351
X162.052Y-119.888
X162.052Y-132.588
X163.068Y-83.312
X163.068Y-112.776
X163.068Y-113.792
X163.068Y-132.08
X163.068Y-141.732
X163.335Y-129.165
X163.576Y-93.98
X164.084Y-112.776
X164.084Y-113.792
X164.106Y-115.387
X164.592Y-90.932
X164.592Y-103.632
X164.592Y-137.668
X164.592Y-138.684
X164.592Y-141.732
X165.1Y-53.34
X165.1Y-80.772
X165.1Y-81.788
X165.1Y-82.804
X165.1Y-83.82
X165.1Y-112.776
X165.1Y-113.792
X165.608Y-125.984
X165.608Y-137.668
X165.608Y-138.684
X165.794Y-85.344
X166.116Y-64.008
X166.116Y-80.772
X166.116Y-81.788
X166.116Y-82.804
X166.116Y-83.82
X166.116Y-112.776
X166.116Y-113.792
X166.116Y-136.144
X166.5Y-46.5
X166.624Y-137.668
X166.624Y-138.684
X167.64Y-137.668
X167.64Y-138.684
X168.148Y-107.696
X168.148Y-115.316
X168.656Y-75.184
X168.656Y-144.78
X169.164Y-60.452
X169.164Y-91.44
X169.164Y-92.964
X169.164Y-93.98
X169.453Y-128.021
X169.672Y-70.828
X169.672Y-84.836
X169.672Y-115.316
X170.688Y-136.078
X171.184Y-71.217
X171.196Y-92.239
X171.196Y-134.62
X171.704Y-54.864
X171.704Y-87.376
X171.981Y-79.248
X171.981Y-104.648
X171.981Y-129.54
X173.736Y-67.781
X174.244Y-77.724
X174.244Y-112.776
X175.492Y-126.474
X175.768Y-137.668
X176.276Y-73.444
X176.784Y-88.392
X176.784Y-102.616
X177.292Y-68.157
X177.8Y-53.34
X178.816Y-68.534
X179.0Y-46.25
X179.799Y-111.219
X179.832Y-61.468
X179.832Y-72.246
X179.832Y-86.36
X179.832Y-93.98
X179.832Y-136.078
X181.223Y-72.644
X181.356Y-78.806
X181.489Y-92.924
X181.864Y-77.216
X181.864Y-103.855
X181.864Y-112.776
X182.118Y-128.778
X182.372Y-53.34
X182.372Y-68.912
X182.88Y-146.812
X183.896Y-73.066
X184.912Y-79.756
X184.912Y-127.508
X184.912Y-138.176
X185.42Y-88.392
X186.144Y-94.488
X186.436Y-144.272
X186.944Y-110.744
X186.944Y-124.46
X187.198Y-64.77
X187.96Y-107.696
X187.979Y-103.136
X188.468Y-105.156
X188.468Y-146.304
X189.992Y-57.404
X189.992Y-124.46
X191.008Y-138.176
X191.032Y-132.105
X191.516Y-46.736
X192.5Y-86.5
X192.5Y-91.731
X193.5Y-79.25
X194.056Y-145.288
X194.29Y-134.415
X194.564Y-103.124
X195.218Y-111.186
X195.373Y-91.725
X195.601Y-120.723
X195.934Y-110.236
X196.275Y-92.179
X196.596Y-57.912
X196.596Y-72.644
X197.612Y-110.236
X197.725Y-92.0
X197.903Y-137.668
X198.12Y-128.524
X198.628Y-136.144
X198.682Y-92.328
X198.817Y-106.68
X198.819Y-105.156
X198.859Y-108.293
X199.0Y-46.75
X200.152Y-102.616
X200.152Y-115.824
X200.152Y-147.32
X200.255Y-86.5
X200.66Y-77.216
X201.168Y-145.288
X205.74Y-57.404
X205.74Y-92.456
X206.248Y-102.108
X207.264Y-108.966
X207.772Y-117.856
X210.312Y-146.812
X210.5Y-95.0
X210.82Y-46.228
X210.82Y-129.032
X211.14Y-99.074
X211.328Y-78.74
X211.836Y-87.884
X211.836Y-114.3
X212.344Y-72.644
X212.344Y-91.948
X212.852Y-140.716
X214.201Y-93.472
X214.884Y-87.884
X215.292Y-93.472
X216.0Y-88.5
X216.87Y-96.89
X217.424Y-91.44
X217.424Y-93.472
X217.932Y-57.912
X218.5Y-89.0
X219.302Y-93.472
X220.0Y-46.0
X220.472Y-98.044
X220.475Y-104.686
X220.98Y-81.28
X220.98Y-114.3
X221.488Y-128.016
X221.996Y-78.74
X222.504Y-72.644
X223.52Y-138.684
X224.536Y-89.916
X225.044Y-125.984
X225.552Y-60.452
X225.552Y-69.304
X225.552Y-85.344
X225.552Y-109.728
X227.076Y-54.864
X227.076Y-69.596
X227.584Y-133.604
X227.619Y-144.456
X227.814Y-127.617
X227.98Y-80.264
X227.98Y-104.78
X229.616Y-67.781
X229.616Y-121.92
X229.616Y-145.796
X230.124Y-77.724
X230.181Y-103.948
X230.494Y-128.013
X230.632Y-119.888
X230.632Y-123.444
X230.632Y-137.668
X231.648Y-45.72
X232.156Y-73.444
X232.156Y-118.438
X232.359Y-135.128
X233.172Y-52.832
X233.172Y-68.157
X233.172Y-117.348
X234.696Y-68.58
X234.696Y-121.186
X235.204Y-143.764
X235.712Y-61.468
X235.712Y-70.406
X235.712Y-86.36
X235.712Y-111.252
X235.712Y-136.144
X236.728Y-138.176
X237.049Y-70.029
X237.228Y-103.915
X237.236Y-53.848
X237.236Y-78.74
X237.236Y-128.016
X238.252Y-68.912
X238.252Y-118.061
X239.776Y-73.066
X239.776Y-120.745
X239.776Y-127.0
X240.792Y-91.948
X241.808Y-101.214
X242.316Y-138.176
X242.824Y-86.868
X242.824Y-135.128
X243.332Y-124.968
X243.332Y-125.984
X243.332Y-127.0
X243.332Y-128.016
X244.0Y-45.5
X244.348Y-124.968
X244.348Y-125.984
X244.348Y-127.0
X244.348Y-128.016
X244.856Y-71.628
X244.856Y-96.52
X244.856Y-97.536
X244.856Y-98.552
X244.856Y-99.568
X245.364Y-64.008
X245.364Y-65.024
X245.364Y-90.932
X245.872Y-96.52
X245.872Y-97.536
X245.872Y-98.552
X245.872Y-99.568
X246.38Y-64.008
X246.38Y-65.024
X246.38Y-78.232
X246.888Y-87.376
X246.888Y-88.392
X246.888Y-145.288
X247.396Y-51.816
X247.396Y-64.008
X247.396Y-65.024
X247.396Y-126.492
X247.396Y-131.356
X247.904Y-87.376
X247.904Y-88.392
X248.0Y-120.295
X248.412Y-64.008
X248.412Y-65.024
X248.412Y-102.108
X248.412Y-141.224
X248.92Y-87.376
X248.92Y-88.392
X248.92Y-111.252
X249.936Y-87.376
X249.936Y-88.392
X249.936Y-111.252
X250.0Y-114.874
X250.952Y-65.024
X250.952Y-102.108
X250.952Y-131.356
X251.46Y-111.252
X251.46Y-137.668
X252.984Y-89.408
X252.984Y-111.252
X253.0Y-119.38
X253.492Y-102.108
X253.492Y-135.128
X254.508Y-107.188
X255.016Y-125.476
X255.016Y-137.668
X255.524Y-72.136
X255.524Y-101.6
X256.579Y-122.673
X257.0Y-114.808
X257.0Y-119.38
X257.25Y-45.75
X257.75Y-76.25
X258.064Y-99.06
X258.572Y-130.556
X258.572Y-137.668
X260.096Y-88.392
X260.604Y-102.108
X260.604Y-130.048
X260.604Y-131.064
X260.996Y-114.932
X261.103Y-119.38
X261.112Y-62.484
X261.112Y-148.336
X261.62Y-111.252
X261.62Y-130.048
X261.62Y-131.064
X262.128Y-137.668
X262.636Y-130.048
X262.636Y-131.064
X263.144Y-80.264
X263.144Y-102.108
X263.144Y-111.252
X263.652Y-130.048
X263.652Y-131.064
X264.16Y-126.492
X264.16Y-144.272
X264.668Y-111.252
X265.176Y-97.028
X265.684Y-71.628
X265.684Y-102.108
X266.744Y-106.723
X267.208Y-54.356
X267.716Y-64.008
X268.732Y-111.252
X269.0Y-46.0
X271.78Y-88.392
X273.304Y-77.216
X273.812Y-142.24
X273.812Y-143.256
X273.812Y-144.272
X274.32Y-71.628
X274.828Y-139.192
X274.828Y-140.208
X274.828Y-141.224
X274.828Y-142.24
X274.828Y-143.256
X274.828Y-144.272
X275.844Y-137.668
X275.844Y-139.192
X275.844Y-140.208
X275.844Y-141.224
X275.844Y-142.24
X275.844Y-143.256
X275.844Y-144.272
X276.33Y-61.468
X276.33Y-69.304
X276.33Y-86.36
X277.368Y-147.828
X277.402Y-69.305
X277.876Y-53.34
X277.876Y-78.232
X278.103Y-110.744
X278.384Y-102.108
X278.481Y-128.016
X278.481Y-135.128
X280.416Y-144.78
X280.756Y-77.938
X281.94Y-128.016
X283.315Y-102.763
X283.5Y-45.5
X285.496Y-77.724
X286.004Y-60.452
X286.004Y-85.344
X286.154Y-68.73
X287.02Y-111.252
X287.02Y-147.828
X287.373Y-53.852
X287.528Y-136.652
X287.566Y-77.785
X288.036Y-69.088
X288.036Y-103.632
X288.544Y-57.404
X288.544Y-83.82
X288.544Y-129.032
X291.084Y-61.976
X291.084Y-71.12
X291.084Y-78.74
X291.084Y-96.012
X291.084Y-112.776
X291.084Y-121.412
X291.084Y-129.032
X291.084Y-137.16
X291.084Y-144.272
T2
X121.13Y-50.33
X121.13Y-65.57
X121.13Y-75.33
X121.13Y-90.57
X121.13Y-100.33
X121.13Y-115.57
X121.13Y-125.33
X121.13Y-140.57
X123.67Y-50.33
X123.67Y-65.57
X123.67Y-75.33
X123.67Y-90.57
X123.67Y-100.33
X123.67Y-115.57
X123.67Y-125.33
X123.67Y-140.57
X126.21Y-50.33
X126.21Y-65.57
X126.21Y-75.33
X126.21Y-90.57
X126.21Y-100.33
X126.21Y-115.57
X126.21Y-125.33
X126.21Y-140.57
X127.46Y-146.0
X127.46Y-148.54
X128.75Y-50.33
X128.75Y-65.57
X128.75Y-75.33
X128.75Y-90.57
X128.75Y-100.33
X128.75Y-115.57
X128.75Y-125.33
X128.75Y-140.57
X130.0Y-146.0
X130.0Y-148.54
X131.29Y-50.33
X131.29Y-65.57
X131.29Y-75.33
X131.29Y-90.57
X131.29Y-100.33
X131.29Y-115.57
X131.29Y-119.18
X131.29Y-121.72
X131.29Y-125.33
X131.29Y-140.57
X132.54Y-146.0
X132.54Y-148.54
X133.83Y-50.33
X133.83Y-65.57
X133.83Y-75.33
X133.83Y-90.57
X133.83Y-100.33
X133.83Y-115.57
X133.83Y-119.18
X133.83Y-121.72
X133.83Y-125.33
X133.83Y-140.57
X135.08Y-146.0
X135.08Y-148.54
X136.37Y-119.18
X136.37Y-121.72
X137.62Y-146.0
X137.62Y-148.54
X138.91Y-119.18
X138.91Y-121.72
X141.45Y-119.18
X141.45Y-121.72
X142.577Y-71.714
X145.117Y-71.714
X146.05Y-148.59
X147.657Y-71.714
X148.59Y-148.59
X150.197Y-71.714
X151.13Y-148.59
X152.737Y-71.714
X153.67Y-148.59
X155.277Y-71.714
X156.21Y-148.59
X157.817Y-71.714
X158.75Y-148.59
X160.357Y-71.714
X161.29Y-148.59
X162.897Y-71.714
X163.83Y-148.59
X165.437Y-71.714
X166.37Y-148.59
X168.91Y-148.59
X171.45Y-148.59
X171.63Y-50.33
X171.63Y-65.57
X171.63Y-75.33
X171.63Y-90.57
X171.63Y-100.33
X171.63Y-115.57
X171.63Y-125.33
X171.63Y-140.57
X173.99Y-148.59
X174.17Y-50.33
X174.17Y-65.57
X174.17Y-75.33
X174.17Y-90.57
X174.17Y-100.33
X174.17Y-115.57
X174.17Y-125.33
X174.17Y-140.57
X176.53Y-148.59
X176.71Y-50.33
X176.71Y-65.57
X176.71Y-75.33
X176.71Y-90.57
X176.71Y-100.33
X176.71Y-115.57
X176.71Y-125.33
X176.71Y-140.57
X179.07Y-148.59
X179.25Y-50.33
X179.25Y-65.57
X179.25Y-75.33
X179.25Y-90.57
X179.25Y-100.33
X179.25Y-115.57
X179.25Y-125.33
X179.25Y-140.57
X181.61Y-148.59
X181.79Y-50.33
X181.79Y-65.57
X181.79Y-75.33
X181.79Y-90.57
X181.79Y-100.33
X181.79Y-115.57
X181.79Y-125.33
X181.79Y-140.57
X184.15Y-148.59
X184.33Y-50.33
X184.33Y-65.57
X184.33Y-75.33
X184.33Y-90.57
X184.33Y-100.33
X184.33Y-115.57
X184.33Y-125.33
X184.33Y-140.57
X186.69Y-148.59
X189.23Y-148.59
X191.77Y-148.59
X194.31Y-148.59
X204.71Y-79.915
X204.71Y-82.455
X204.71Y-84.995
X204.71Y-87.535
X204.71Y-90.075
X204.714Y-123.757
X204.714Y-126.297
X204.714Y-128.837
X204.714Y-131.377
X204.714Y-133.917
X204.714Y-136.457
X204.714Y-138.997
X204.714Y-141.537
X207.25Y-79.915
X207.25Y-82.455
X207.25Y-84.995
X207.25Y-87.535
X207.25Y-90.075
X207.254Y-123.757
X207.254Y-126.297
X207.254Y-128.837
X207.254Y-131.377
X207.254Y-133.917
X207.254Y-136.457
X207.254Y-138.997
X207.254Y-141.537
X212.64Y-119.183
X212.64Y-121.723
X215.18Y-119.183
X215.18Y-121.723
X217.17Y-148.59
X217.72Y-119.183
X217.72Y-121.723
X219.71Y-148.59
X222.25Y-148.59
X224.79Y-148.59
X227.33Y-148.59
X227.63Y-50.33
X227.63Y-65.57
X227.63Y-75.33
X227.63Y-90.57
X227.63Y-100.33
X227.63Y-115.57
X227.63Y-125.33
X227.63Y-140.57
X229.87Y-148.59
X230.17Y-50.33
X230.17Y-65.57
X230.17Y-75.33
X230.17Y-90.57
X230.17Y-100.33
X230.17Y-115.57
X230.17Y-125.33
X230.17Y-140.57
X232.41Y-148.59
X232.71Y-50.33
X232.71Y-65.57
X232.71Y-75.33
X232.71Y-90.57
X232.71Y-100.33
X232.71Y-115.57
X232.71Y-125.33
X232.71Y-140.57
X234.95Y-148.59
X235.25Y-50.33
X235.25Y-65.57
X235.25Y-75.33
X235.25Y-90.57
X235.25Y-100.33
X235.25Y-115.57
X235.25Y-125.33
X235.25Y-140.57
X237.49Y-148.59
X237.79Y-50.33
X237.79Y-65.57
X237.79Y-75.33
X237.79Y-90.57
X237.79Y-100.33
X237.79Y-115.57
X237.79Y-125.33
X237.79Y-140.57
X240.03Y-148.59
X240.33Y-50.33
X240.33Y-65.57
X240.33Y-75.33
X240.33Y-90.57
X240.33Y-100.33
X240.33Y-115.57
X240.33Y-125.33
X240.33Y-140.57
X242.57Y-148.59
X245.11Y-148.59
X247.65Y-148.59
X250.19Y-148.59
X252.73Y-148.59
X255.27Y-148.59
X269.235Y-144.95
X269.235Y-148.59
X271.235Y-96.0
X271.775Y-144.95
X271.775Y-148.59
X273.775Y-96.0
X278.13Y-50.33
X278.13Y-65.57
X278.13Y-75.33
X278.13Y-90.57
X278.13Y-100.33
X278.13Y-115.57
X278.13Y-125.33
X278.13Y-140.57
X280.67Y-50.33
X280.67Y-65.57
X280.67Y-75.33
X280.67Y-90.57
X280.67Y-100.33
X280.67Y-115.57
X280.67Y-125.33
X280.67Y-140.57
X283.21Y-50.33
X283.21Y-65.57
X283.21Y-75.33
X283.21Y-90.57
X283.21Y-100.33
X283.21Y-115.57
X283.21Y-125.33
X283.21Y-140.57
X285.75Y-50.33
X285.75Y-65.57
X285.75Y-75.33
X285.75Y-90.57
X285.75Y-100.33
X285.75Y-115.57
X285.75Y-125.33
X285.75Y-140.57
X288.29Y-50.33
X288.29Y-65.57
X288.29Y-75.33
X288.29Y-90.57
X288.29Y-100.33
X288.29Y-115.57
X288.29Y-125.33
X288.29Y-140.57
X290.83Y-50.33
X290.83Y-65.57
X290.83Y-75.33
X290.83Y-90.57
X290.83Y-100.33
X290.83Y-115.57
X290.83Y-125.33
X290.83Y-140.57
T3
X268.732Y-120.65
X271.272Y-120.65
X273.812Y-120.65
M30
